<svg width="182" height="183" viewBox="0 0 182 183" fill="none" xmlns="http://www.w3.org/2000/svg">
<g opacity="0.3">
<path d="M0.836426 0.861328H5.73273V5.75763H0.836426V0.861328Z" fill="#0077FF"/>
<path d="M30.2143 0.861328H35.1106V5.75763H30.2143V0.861328Z" fill="#0077FF"/>
<path d="M59.5921 0.861328H64.4884V5.75763H59.5921V0.861328Z" fill="#0077FF"/>
<path d="M88.9699 0.861328H93.8662V5.75763H88.9699V0.861328Z" fill="#0077FF"/>
<path d="M118.348 0.861328H123.244V5.75763H118.348V0.861328Z" fill="#0077FF"/>
<path d="M147.726 0.861328H152.622V5.75763H147.726V0.861328Z" fill="#0077FF"/>
<path d="M177.103 0.861328H182V5.75763H177.103V0.861328Z" fill="#0077FF"/>
<path d="M0.836426 30.2392H5.73273V35.1355H0.836426V30.2392Z" fill="#0077FF"/>
<path d="M30.2143 30.2392H35.1106V35.1355H30.2143V30.2392Z" fill="#0077FF"/>
<path d="M59.5921 30.2392H64.4884V35.1355H59.5921V30.2392Z" fill="#0077FF"/>
<path d="M88.9699 30.2392H93.8662V35.1355H88.9699V30.2392Z" fill="#0077FF"/>
<path d="M118.348 30.2392H123.244V35.1355H118.348V30.2392Z" fill="#0077FF"/>
<path d="M147.726 30.2392H152.622V35.1355H147.726V30.2392Z" fill="#0077FF"/>
<path d="M177.103 30.2392H182V35.1355H177.103V30.2392Z" fill="#0077FF"/>
<path d="M0.836426 59.617H5.73273V64.5133H0.836426V59.617Z" fill="#0077FF"/>
<path d="M30.2143 59.617H35.1106V64.5133H30.2143V59.617Z" fill="#0077FF"/>
<path d="M59.5921 59.617H64.4884V64.5133H59.5921V59.617Z" fill="#0077FF"/>
<path d="M88.9699 59.617H93.8662V64.5133H88.9699V59.617Z" fill="#0077FF"/>
<path d="M118.348 59.617H123.244V64.5133H118.348V59.617Z" fill="#0077FF"/>
<path d="M147.726 59.617H152.622V64.5133H147.726V59.617Z" fill="#0077FF"/>
<path d="M177.103 59.617H182V64.5133H177.103V59.617Z" fill="#0077FF"/>
<path d="M0.836426 88.9948H5.73273V93.8911H0.836426V88.9948Z" fill="#0077FF"/>
<path d="M30.2143 88.9948H35.1106V93.8911H30.2143V88.9948Z" fill="#0077FF"/>
<path d="M59.5921 88.9948H64.4884V93.8911H59.5921V88.9948Z" fill="#0077FF"/>
<path d="M88.9699 88.9948H93.8662V93.8911H88.9699V88.9948Z" fill="#0077FF"/>
<path d="M118.348 88.9948H123.244V93.8911H118.348V88.9948Z" fill="#0077FF"/>
<path d="M147.726 88.9948H152.622V93.8911H147.726V88.9948Z" fill="#0077FF"/>
<path d="M177.103 88.9948H182V93.8911H177.103V88.9948Z" fill="#0077FF"/>
<path d="M0.836426 118.373H5.73273V123.269H0.836426V118.373Z" fill="#0077FF"/>
<path d="M30.2143 118.373H35.1106V123.269H30.2143V118.373Z" fill="#0077FF"/>
<path d="M59.5921 118.373H64.4884V123.269H59.5921V118.373Z" fill="#0077FF"/>
<path d="M88.9699 118.373H93.8662V123.269H88.9699V118.373Z" fill="#0077FF"/>
<path d="M118.348 118.373H123.244V123.269H118.348V118.373Z" fill="#0077FF"/>
<path d="M147.726 118.373H152.622V123.269H147.726V118.373Z" fill="#0077FF"/>
<path d="M177.103 118.373H182V123.269H177.103V118.373Z" fill="#0077FF"/>
<path d="M0.836426 147.75H5.73273V152.647H0.836426V147.75Z" fill="#0077FF"/>
<path d="M30.2143 147.75H35.1106V152.647H30.2143V147.75Z" fill="#0077FF"/>
<path d="M59.5921 147.75H64.4884V152.647H59.5921V147.75Z" fill="#0077FF"/>
<path d="M88.9699 147.75H93.8662V152.647H88.9699V147.75Z" fill="#0077FF"/>
<path d="M118.348 147.75H123.244V152.647H118.348V147.75Z" fill="#0077FF"/>
<path d="M147.726 147.75H152.622V152.647H147.726V147.75Z" fill="#0077FF"/>
<path d="M177.103 147.75H182V152.647H177.103V147.75Z" fill="#0077FF"/>
<path d="M0.836426 177.128H5.73273V182.025H0.836426V177.128Z" fill="#0077FF"/>
<path d="M30.2143 177.128H35.1106V182.025H30.2143V177.128Z" fill="#0077FF"/>
<path d="M59.5921 177.128H64.4884V182.025H59.5921V177.128Z" fill="#0077FF"/>
<path d="M88.9699 177.128H93.8662V182.025H88.9699V177.128Z" fill="#0077FF"/>
<path d="M118.348 177.128H123.244V182.025H118.348V177.128Z" fill="#0077FF"/>
<path d="M147.726 177.128H152.622V182.025H147.726V177.128Z" fill="#0077FF"/>
<path d="M177.103 177.128H182V182.025H177.103V177.128Z" fill="#0077FF"/>
</g>
</svg>
