<svg width="289" height="289" viewBox="0 0 289 289" fill="none" xmlns="http://www.w3.org/2000/svg">
<mask id="mask0_3_1338" style="mask-type:alpha" maskUnits="userSpaceOnUse" x="0" y="0" width="289" height="289">
<circle cx="144.5" cy="144.5" r="142.507" fill="#C4C4C4" stroke="#F8BB54" stroke-width="3.98621"/>
</mask>
<g mask="url(#mask0_3_1338)">
<path d="M-75.5499 55.1488C-75.5499 55.1488 -15.0143 43.8057 0.604643 4.10528C15.5421 -33.952 77.0737 -44.1816 77.0737 -44.1816" stroke="#CE2F72" stroke-width="4.48062" stroke-miterlimit="10"/>
<path d="M-75.5499 74.2299C-75.5499 74.2299 -1.28219 61.1381 17.8482 13.2221C36.0875 -32.5208 111.508 -44.1816 111.508 -44.1816" stroke="#CE2F72" stroke-width="4.48062" stroke-miterlimit="10"/>
<path d="M-75.5499 93.3647C-75.5499 93.3647 12.3973 78.4706 35.0393 22.4449C56.633 -31.1425 145.943 -44.1816 145.943 -44.1816" stroke="#CE2F72" stroke-width="4.48062" stroke-miterlimit="10"/>
<path d="M-75.5499 112.446C-75.5499 112.446 26.1293 95.8031 52.2828 31.5617C77.1785 -29.7113 180.378 -44.1816 180.378 -44.1816" stroke="#CE2F72" stroke-width="4.48062" stroke-miterlimit="10"/>
<path d="M-75.5499 131.528C-75.5499 131.528 39.8612 113.136 69.5263 40.7314C97.7238 -28.2802 214.76 -44.1816 214.76 -44.1816" stroke="#CE2F72" stroke-width="4.48062" stroke-miterlimit="10"/>
<path d="M-75.5499 150.662C-75.5499 150.662 53.5407 130.521 86.7175 49.901C118.322 -26.9023 249.194 -44.1816 249.194 -44.1816" stroke="#CE2F72" stroke-width="4.48062" stroke-miterlimit="10"/>
<path d="M-75.5499 169.744C-75.5499 169.744 67.2726 147.8 103.961 59.071C138.867 -25.4711 283.629 -44.1816 283.629 -44.1816" stroke="#CE2F72" stroke-width="4.48062" stroke-miterlimit="10"/>
<path d="M-75.5499 188.826C-75.5499 188.826 81.0047 165.133 121.152 68.1878C159.413 -24.04 318.064 -44.1816 318.064 -44.1816" stroke="#CE2F72" stroke-width="4.48062" stroke-miterlimit="10"/>
<path d="M-75.5499 207.961C-75.5499 207.961 94.6839 182.518 138.396 77.4103C179.958 -22.662 352.446 -44.1816 352.446 -44.1816" stroke="#CE2F72" stroke-width="4.48062" stroke-miterlimit="10"/>
<path d="M-75.5499 227.041C-75.5499 227.041 108.416 199.851 155.587 86.5803C200.504 -21.2309 386.881 -44.1816 386.881 -44.1816" stroke="#CE2F72" stroke-width="4.48062" stroke-miterlimit="10"/>
<path d="M-75.5499 246.175C-75.5499 246.175 122.148 217.183 172.83 95.7499C221.049 -19.7998 421.315 -44.1816 421.315 -44.1816" stroke="#CE2F72" stroke-width="4.48062" stroke-miterlimit="10"/>
<path d="M-75.5499 265.259C-75.5499 265.259 135.827 234.516 190.021 104.92C241.595 -18.4214 455.749 -44.1816 455.749 -44.1816" stroke="#CE2F72" stroke-width="4.48062" stroke-miterlimit="10"/>
<path d="M-75.5499 284.338C-75.5499 284.338 149.559 251.848 207.265 114.036C262.14 -16.9903 490.183 -44.1816 490.183 -44.1816" stroke="#CE2F72" stroke-width="4.48062" stroke-miterlimit="10"/>
<path d="M-75.5499 303.473C-75.5499 303.473 163.291 269.181 224.509 123.259C282.686 -15.5591 524.567 -44.1816 524.567 -44.1816" stroke="#CE2F72" stroke-width="4.48062" stroke-miterlimit="10"/>
<path d="M-75.5499 322.556C-75.5499 322.556 176.971 286.513 241.7 132.376C303.231 -14.1812 559.002 -44.1816 559.002 -44.1816" stroke="#CE2F72" stroke-width="4.48062" stroke-miterlimit="10"/>
<path d="M-75.5499 341.639C-75.5499 341.639 190.703 303.846 258.943 141.546C323.777 -12.75 593.436 -44.1816 593.436 -44.1816" stroke="#CE2F72" stroke-width="4.48062" stroke-miterlimit="10"/>
<path d="M-75.5499 360.774C-75.5499 360.774 204.435 321.23 276.134 150.716C344.322 -11.3189 627.871 -44.1816 627.871 -44.1816" stroke="#CE2F72" stroke-width="4.48062" stroke-miterlimit="10"/>
<path d="M-75.5499 379.853C-75.5499 379.853 218.114 338.511 293.378 159.885C364.868 -9.94097 662.254 -44.1816 662.254 -44.1816" stroke="#CE2F72" stroke-width="4.48062" stroke-miterlimit="10"/>
</g>
</svg>
