<svg width="57" height="58" viewBox="0 0 57 58" fill="none" xmlns="http://www.w3.org/2000/svg">
<g clip-path="url(#clip0_5_571)">
<path d="M56.2418 57.112C56.6605 57.112 56.9998 56.7726 56.9998 56.354C56.9998 55.9353 56.6605 55.5959 56.2418 55.5959C55.8232 55.5959 55.4838 55.9353 55.4838 56.354C55.4838 56.7726 55.8232 57.112 56.2418 57.112Z" fill="#CE2F72"/>
<path d="M49.3682 57.112C49.7868 57.112 50.1262 56.7726 50.1262 56.354C50.1262 55.9353 49.7868 55.5959 49.3682 55.5959C48.9496 55.5959 48.6102 55.9353 48.6102 56.354C48.6102 56.7726 48.9496 57.112 49.3682 57.112Z" fill="#CE2F72"/>
<path d="M42.4974 57.1121C42.648 57.1127 42.7954 57.0685 42.9209 56.9853C43.0464 56.902 43.1444 56.7834 43.2024 56.6444C43.2604 56.5054 43.2759 56.3523 43.2469 56.2045C43.2179 56.0568 43.1456 55.9209 43.0393 55.8142C42.933 55.7075 42.7975 55.6348 42.6498 55.6052C42.5021 55.5756 42.349 55.5905 42.2098 55.648C42.0706 55.7055 41.9516 55.803 41.8678 55.9282C41.7841 56.0534 41.7394 56.2006 41.7394 56.3512C41.7394 56.5525 41.8192 56.7456 41.9612 56.8882C42.1033 57.0308 42.2961 57.1113 42.4974 57.1121Z" fill="#CE2F72"/>
<path d="M35.6264 57.1121C35.7769 57.1121 35.924 57.0675 36.0491 56.9839C36.1742 56.9003 36.2717 56.7814 36.3293 56.6424C36.3869 56.5034 36.402 56.3504 36.3726 56.2028C36.3432 56.0552 36.2708 55.9196 36.1644 55.8132C36.058 55.7068 35.9224 55.6343 35.7748 55.605C35.6272 55.5756 35.4742 55.5907 35.3352 55.6483C35.1961 55.7058 35.0773 55.8034 34.9937 55.9285C34.9101 56.0536 34.8655 56.2007 34.8655 56.3512C34.8655 56.4511 34.8851 56.5501 34.9234 56.6424C34.9616 56.7347 35.0177 56.8186 35.0883 56.8892C35.159 56.9599 35.2429 57.016 35.3352 57.0542C35.4275 57.0924 35.5264 57.1121 35.6264 57.1121Z" fill="#CE2F72"/>
<path d="M28.7527 57.112C29.1713 57.112 29.5107 56.7726 29.5107 56.354C29.5107 55.9353 29.1713 55.5959 28.7527 55.5959C28.3341 55.5959 27.9947 55.9353 27.9947 56.354C27.9947 56.7726 28.3341 57.112 28.7527 57.112Z" fill="#CE2F72"/>
<path d="M22.1718 57.0216C22.559 56.8624 22.7438 56.4195 22.5846 56.0323C22.4254 55.6451 21.9825 55.4603 21.5953 55.6195C21.2081 55.7787 21.0233 56.2216 21.1825 56.6088C21.3417 56.996 21.7846 57.1808 22.1718 57.0216Z" fill="#CE2F72"/>
<path d="M15.0109 55.6046C14.8602 55.6041 14.7127 55.6483 14.5871 55.7317C14.4616 55.815 14.3636 55.9339 14.3057 56.073C14.2477 56.2122 14.2324 56.3654 14.2617 56.5132C14.2909 56.6611 14.3635 56.7969 14.47 56.9035C14.5766 57.0101 14.7125 57.0826 14.8603 57.1119C15.0082 57.1412 15.1614 57.1258 15.3006 57.0679C15.4397 57.01 15.5585 56.912 15.6419 56.7864C15.7253 56.6609 15.7695 56.5134 15.7689 56.3626C15.7682 56.1618 15.6881 55.9695 15.5461 55.8275C15.4041 55.6855 15.2117 55.6054 15.0109 55.6046Z" fill="#CE2F72"/>
<path d="M56.2418 50.9645C56.6605 50.9645 56.9998 50.6251 56.9998 50.2065C56.9998 49.7879 56.6605 49.4485 56.2418 49.4485C55.8232 49.4485 55.4838 49.7879 55.4838 50.2065C55.4838 50.6251 55.8232 50.9645 56.2418 50.9645Z" fill="#CE2F72"/>
<path d="M49.3682 50.9645C49.7868 50.9645 50.1262 50.6251 50.1262 50.2065C50.1262 49.7879 49.7868 49.4485 49.3682 49.4485C48.9496 49.4485 48.6102 49.7879 48.6102 50.2065C48.6102 50.6251 48.9496 50.9645 49.3682 50.9645Z" fill="#CE2F72"/>
<path d="M42.4974 50.9648C42.6481 50.9653 42.7957 50.9211 42.9212 50.8377C43.0468 50.7543 43.1448 50.6355 43.2027 50.4964C43.2606 50.3572 43.276 50.204 43.2467 50.0561C43.2174 49.9083 43.1449 49.7724 43.0383 49.6658C42.9317 49.5593 42.7959 49.4867 42.648 49.4575C42.5001 49.4282 42.3469 49.4435 42.2078 49.5015C42.0686 49.5594 41.9498 49.6574 41.8664 49.7829C41.7831 49.9085 41.7388 50.056 41.7394 50.2067C41.7401 50.4075 41.8203 50.5999 41.9623 50.7419C42.1043 50.8839 42.2966 50.964 42.4974 50.9648Z" fill="#CE2F72"/>
<path d="M35.6264 50.9648C35.777 50.9648 35.9242 50.9201 36.0494 50.8363C36.1746 50.7526 36.2721 50.6336 36.3296 50.4944C36.3871 50.3552 36.402 50.202 36.3724 50.0544C36.3428 49.9067 36.2701 49.7711 36.1634 49.6648C36.0567 49.5585 35.9208 49.4863 35.773 49.4573C35.6252 49.4282 35.4722 49.4437 35.3332 49.5017C35.1942 49.5598 35.0756 49.6577 34.9923 49.7832C34.9091 49.9087 34.8649 50.0561 34.8655 50.2067C34.8655 50.3065 34.8852 50.4053 34.9235 50.4975C34.9617 50.5896 35.0178 50.6733 35.0885 50.7438C35.1592 50.8142 35.2431 50.8699 35.3354 50.9079C35.4277 50.9458 35.5266 50.9651 35.6264 50.9648Z" fill="#CE2F72"/>
<path d="M28.7527 50.9645C29.1713 50.9645 29.5107 50.6251 29.5107 50.2065C29.5107 49.7879 29.1713 49.4485 28.7527 49.4485C28.3341 49.4485 27.9947 49.7879 27.9947 50.2065C27.9947 50.6251 28.3341 50.9645 28.7527 50.9645Z" fill="#CE2F72"/>
<path d="M22.1724 50.8765C22.5596 50.7173 22.7444 50.2743 22.5852 49.8872C22.426 49.5 21.9831 49.3151 21.5959 49.4743C21.2087 49.6335 21.0239 50.0765 21.1831 50.4636C21.3422 50.8508 21.7852 51.0357 22.1724 50.8765Z" fill="#CE2F72"/>
<path d="M15.0109 50.9648C15.1615 50.9648 15.3087 50.9201 15.4339 50.8363C15.5591 50.7526 15.6566 50.6336 15.7141 50.4944C15.7716 50.3552 15.7865 50.202 15.757 50.0544C15.7274 49.9067 15.6546 49.7711 15.5479 49.6648C15.4412 49.5585 15.3054 49.4863 15.1576 49.4573C15.0098 49.4282 14.8567 49.4437 14.7177 49.5017C14.5788 49.5598 14.4601 49.6577 14.3768 49.7832C14.2936 49.9087 14.2494 50.0561 14.25 50.2067C14.25 50.3065 14.2697 50.4053 14.308 50.4975C14.3463 50.5896 14.4024 50.6733 14.4731 50.7438C14.5438 50.8142 14.6277 50.8699 14.7199 50.9079C14.8122 50.9458 14.9111 50.9651 15.0109 50.9648Z" fill="#CE2F72"/>
<path d="M56.2418 44.8172C56.6605 44.8172 56.9998 44.4778 56.9998 44.0592C56.9998 43.6405 56.6605 43.3011 56.2418 43.3011C55.8232 43.3011 55.4838 43.6405 55.4838 44.0592C55.4838 44.4778 55.8232 44.8172 56.2418 44.8172Z" fill="#CE2F72"/>
<path d="M49.3682 44.8172C49.7868 44.8172 50.1262 44.4778 50.1262 44.0592C50.1262 43.6405 49.7868 43.3011 49.3682 43.3011C48.9496 43.3011 48.6102 43.6405 48.6102 44.0592C48.6102 44.4778 48.9496 44.8172 49.3682 44.8172Z" fill="#CE2F72"/>
<path d="M42.4974 44.8201C42.648 44.8207 42.7954 44.7765 42.9209 44.6933C43.0464 44.61 43.1444 44.4914 43.2024 44.3524C43.2604 44.2134 43.2759 44.0603 43.2469 43.9126C43.2179 43.7648 43.1456 43.6289 43.0393 43.5222C42.933 43.4155 42.7975 43.3428 42.6498 43.3132C42.5021 43.2836 42.349 43.2985 42.2098 43.356C42.0706 43.4135 41.9516 43.511 41.8678 43.6362C41.7841 43.7614 41.7394 43.9086 41.7394 44.0592C41.7394 44.2605 41.8192 44.4536 41.9612 44.5962C42.1033 44.7388 42.2961 44.8193 42.4974 44.8201Z" fill="#CE2F72"/>
<path d="M35.6264 44.8201C35.7769 44.8201 35.924 44.7755 36.0491 44.6919C36.1742 44.6083 36.2717 44.4894 36.3293 44.3504C36.3869 44.2114 36.402 44.0584 36.3726 43.9108C36.3432 43.7632 36.2708 43.6276 36.1644 43.5212C36.058 43.4148 35.9224 43.3423 35.7748 43.313C35.6272 43.2836 35.4742 43.2987 35.3352 43.3563C35.1961 43.4139 35.0773 43.5114 34.9937 43.6365C34.9101 43.7616 34.8655 43.9087 34.8655 44.0592C34.8655 44.1591 34.8851 44.2581 34.9234 44.3504C34.9616 44.4427 35.0177 44.5266 35.0883 44.5972C35.159 44.6679 35.2429 44.7239 35.3352 44.7622C35.4275 44.8004 35.5264 44.8201 35.6264 44.8201Z" fill="#CE2F72"/>
<path d="M28.7527 44.8172C29.1713 44.8172 29.5107 44.4778 29.5107 44.0592C29.5107 43.6405 29.1713 43.3011 28.7527 43.3011C28.3341 43.3011 27.9947 43.6405 27.9947 44.0592C27.9947 44.4778 28.3341 44.8172 28.7527 44.8172Z" fill="#CE2F72"/>
<path d="M22.1721 44.7316C22.5593 44.5724 22.7441 44.1294 22.5849 43.7422C22.4257 43.3551 21.9828 43.1702 21.5956 43.3294C21.2084 43.4886 21.0236 43.9315 21.1828 44.3187C21.342 44.7059 21.7849 44.8907 22.1721 44.7316Z" fill="#CE2F72"/>
<path d="M15.0109 44.8201C15.1614 44.8201 15.3085 44.7755 15.4336 44.6919C15.5587 44.6083 15.6562 44.4894 15.7138 44.3504C15.7714 44.2114 15.7865 44.0584 15.7572 43.9108C15.7278 43.7632 15.6553 43.6276 15.5489 43.5212C15.4425 43.4148 15.3069 43.3423 15.1593 43.313C15.0117 43.2836 14.8588 43.2987 14.7197 43.3563C14.5807 43.4139 14.4619 43.5114 14.3782 43.6365C14.2946 43.7616 14.25 43.9087 14.25 44.0592C14.25 44.261 14.3302 44.4545 14.4729 44.5972C14.6156 44.7399 14.8091 44.8201 15.0109 44.8201Z" fill="#CE2F72"/>
<path d="M56.2418 38.6729C56.6605 38.6729 56.9998 38.3335 56.9998 37.9149C56.9998 37.4962 56.6605 37.1569 56.2418 37.1569C55.8232 37.1569 55.4838 37.4962 55.4838 37.9149C55.4838 38.3335 55.8232 38.6729 56.2418 38.6729Z" fill="#CE2F72"/>
<path d="M49.3682 38.6729C49.7868 38.6729 50.1262 38.3335 50.1262 37.9149C50.1262 37.4962 49.7868 37.1569 49.3682 37.1569C48.9496 37.1569 48.6102 37.4962 48.6102 37.9149C48.6102 38.3335 48.9496 38.6729 49.3682 38.6729Z" fill="#CE2F72"/>
<path d="M42.4974 38.6643C42.6481 38.6649 42.7957 38.6207 42.9212 38.5373C43.0468 38.4539 43.1448 38.3351 43.2027 38.196C43.2606 38.0568 43.276 37.9036 43.2467 37.7557C43.2174 37.6079 43.1449 37.472 43.0383 37.3654C42.9317 37.2589 42.7959 37.1863 42.648 37.1571C42.5001 37.1278 42.3469 37.1431 42.2078 37.201C42.0686 37.259 41.9498 37.357 41.8664 37.4825C41.7831 37.6081 41.7388 37.7556 41.7394 37.9063C41.7401 38.1071 41.8203 38.2995 41.9623 38.4415C42.1043 38.5835 42.2966 38.6636 42.4974 38.6643Z" fill="#CE2F72"/>
<path d="M35.6264 38.6643C35.777 38.6643 35.9242 38.6196 36.0494 38.5359C36.1746 38.4522 36.2721 38.3332 36.3296 38.194C36.3871 38.0548 36.402 37.9016 36.3724 37.754C36.3428 37.6063 36.2701 37.4707 36.1634 37.3644C36.0567 37.2581 35.9208 37.1859 35.773 37.1568C35.6252 37.1278 35.4722 37.1433 35.3332 37.2013C35.1942 37.2594 35.0756 37.3573 34.9923 37.4828C34.9091 37.6083 34.8649 37.7557 34.8655 37.9063C34.8655 38.0061 34.8852 38.1049 34.9235 38.1971C34.9617 38.2892 35.0178 38.3729 35.0885 38.4433C35.1592 38.5138 35.2431 38.5695 35.3354 38.6075C35.4277 38.6454 35.5266 38.6647 35.6264 38.6643Z" fill="#CE2F72"/>
<path d="M28.7527 38.6729C29.1713 38.6729 29.5107 38.3335 29.5107 37.9149C29.5107 37.4962 29.1713 37.1569 28.7527 37.1569C28.3341 37.1569 27.9947 37.4962 27.9947 37.9149C27.9947 38.3335 28.3341 38.6729 28.7527 38.6729Z" fill="#CE2F72"/>
<path d="M22.1729 38.5864C22.5601 38.4272 22.7449 37.9843 22.5857 37.5971C22.4265 37.2099 21.9836 37.0251 21.5964 37.1843C21.2092 37.3435 21.0244 37.7864 21.1836 38.1736C21.3428 38.5608 21.7857 38.7456 22.1729 38.5864Z" fill="#CE2F72"/>
<path d="M15.0109 38.6643C15.1615 38.6643 15.3087 38.6196 15.4339 38.5359C15.5591 38.4522 15.6566 38.3332 15.7141 38.194C15.7716 38.0548 15.7865 37.9016 15.757 37.754C15.7274 37.6063 15.6546 37.4707 15.5479 37.3644C15.4412 37.2581 15.3054 37.1859 15.1576 37.1568C15.0098 37.1278 14.8567 37.1433 14.7177 37.2013C14.5788 37.2594 14.4601 37.3573 14.3768 37.4828C14.2936 37.6083 14.2494 37.7557 14.25 37.9063C14.25 38.0061 14.2697 38.1049 14.308 38.1971C14.3463 38.2892 14.4024 38.3729 14.4731 38.4433C14.5438 38.5138 14.6277 38.5695 14.7199 38.6075C14.8122 38.6454 14.9111 38.6647 15.0109 38.6643Z" fill="#CE2F72"/>
<path d="M56.2418 32.5254C56.6605 32.5254 56.9998 32.186 56.9998 31.7674C56.9998 31.3488 56.6605 31.0094 56.2418 31.0094C55.8232 31.0094 55.4838 31.3488 55.4838 31.7674C55.4838 32.186 55.8232 32.5254 56.2418 32.5254Z" fill="#CE2F72"/>
<path d="M49.3682 32.5254C49.7869 32.5254 50.1262 32.186 50.1262 31.7674C50.1262 31.3488 49.7869 31.0094 49.3682 31.0094C48.9496 31.0094 48.6102 31.3488 48.6102 31.7674C48.6102 32.186 48.9496 32.5254 49.3682 32.5254Z" fill="#CE2F72"/>
<path d="M42.4974 32.5284C42.648 32.5289 42.7954 32.4848 42.9209 32.4015C43.0464 32.3183 43.1444 32.1996 43.2024 32.0606C43.2604 31.9217 43.2759 31.7686 43.2469 31.6208C43.2179 31.473 43.1456 31.3372 43.0393 31.2305C42.933 31.1238 42.7975 31.051 42.6498 31.0214C42.5021 30.9918 42.349 31.0067 42.2098 31.0642C42.0706 31.1217 41.9516 31.2193 41.8678 31.3445C41.7841 31.4696 41.7394 31.6169 41.7394 31.7675C41.7394 31.9688 41.8192 32.1619 41.9612 32.3045C42.1033 32.4471 42.2961 32.5276 42.4974 32.5284Z" fill="#CE2F72"/>
<path d="M35.6264 32.5284C35.7769 32.5284 35.924 32.4837 36.0491 32.4001C36.1742 32.3165 36.2717 32.1977 36.3293 32.0587C36.3869 31.9196 36.402 31.7666 36.3726 31.619C36.3432 31.4714 36.2708 31.3359 36.1644 31.2294C36.058 31.123 35.9224 31.0506 35.7748 31.0212C35.6272 30.9919 35.4742 31.0069 35.3352 31.0645C35.1961 31.1221 35.0773 31.2196 34.9937 31.3448C34.9101 31.4699 34.8655 31.617 34.8655 31.7675C34.8655 31.8674 34.8851 31.9663 34.9234 32.0587C34.9616 32.151 35.0177 32.2348 35.0883 32.3055C35.159 32.3761 35.2429 32.4322 35.3352 32.4704C35.4275 32.5087 35.5264 32.5284 35.6264 32.5284Z" fill="#CE2F72"/>
<path d="M28.7527 32.5254C29.1713 32.5254 29.5107 32.186 29.5107 31.7674C29.5107 31.3488 29.1713 31.0094 28.7527 31.0094C28.3341 31.0094 27.9947 31.3488 27.9947 31.7674C27.9947 32.186 28.3341 32.5254 28.7527 32.5254Z" fill="#CE2F72"/>
<path d="M22.1724 32.4385C22.5595 32.2793 22.7444 31.8363 22.5852 31.4491C22.426 31.062 21.9831 30.8771 21.5959 31.0363C21.2087 31.1955 21.0239 31.6385 21.183 32.0256C21.3422 32.4128 21.7852 32.5977 22.1724 32.4385Z" fill="#CE2F72"/>
<path d="M15.0109 32.5284C15.1614 32.5284 15.3085 32.4837 15.4336 32.4001C15.5587 32.3165 15.6562 32.1977 15.7138 32.0587C15.7714 31.9196 15.7865 31.7666 15.7572 31.619C15.7278 31.4714 15.6553 31.3359 15.5489 31.2294C15.4425 31.123 15.3069 31.0506 15.1593 31.0212C15.0117 30.9919 14.8588 31.0069 14.7197 31.0645C14.5807 31.1221 14.4619 31.2196 14.3782 31.3448C14.2946 31.4699 14.25 31.617 14.25 31.7675C14.25 31.9693 14.3302 32.1628 14.4729 32.3055C14.6156 32.4482 14.8091 32.5284 15.0109 32.5284Z" fill="#CE2F72"/>
</g>
<g clip-path="url(#clip1_5_571)">
<path d="M8.81243 57.0216C9.19962 56.8624 9.38445 56.4195 9.22526 56.0323C9.06607 55.6451 8.62314 55.4603 8.23595 55.6195C7.84876 55.7787 7.66393 56.2216 7.82312 56.6088C7.98231 56.996 8.42525 57.1808 8.81243 57.0216Z" fill="#CE2F72"/>
<path d="M1.65155 55.6046C1.50082 55.6041 1.35333 55.6483 1.22777 55.7317C1.1022 55.815 1.00423 55.9339 0.946286 56.073C0.888341 56.2122 0.873031 56.3654 0.902299 56.5132C0.931566 56.6611 1.00408 56.7969 1.11067 56.9035C1.21725 57.0101 1.35308 57.0826 1.50094 57.1119C1.64881 57.1412 1.80205 57.1258 1.9412 57.0679C2.08035 57.01 2.19916 56.912 2.28254 56.7864C2.36593 56.6609 2.41013 56.5134 2.40956 56.3626C2.40881 56.1618 2.32871 55.9695 2.18672 55.8275C2.04473 55.6855 1.85235 55.6054 1.65155 55.6046Z" fill="#CE2F72"/>
<path d="M8.81299 50.8765C9.20018 50.7173 9.38501 50.2743 9.22582 49.8872C9.06662 49.5 8.62369 49.3151 8.2365 49.4743C7.84931 49.6335 7.66448 50.0765 7.82368 50.4636C7.98287 50.8508 8.4258 51.0357 8.81299 50.8765Z" fill="#CE2F72"/>
<path d="M1.65152 50.9648C1.80213 50.9648 1.94934 50.9201 2.07453 50.8363C2.19972 50.7526 2.29725 50.6336 2.35475 50.4944C2.41225 50.3552 2.42717 50.202 2.39758 50.0544C2.36799 49.9067 2.29521 49.7711 2.18851 49.6648C2.08181 49.5585 1.94598 49.4863 1.7982 49.4573C1.65041 49.4282 1.49735 49.4437 1.35836 49.5017C1.21938 49.5598 1.10073 49.6577 1.01747 49.7832C0.934214 49.9087 0.890062 50.0561 0.89063 50.2067C0.89063 50.3065 0.910329 50.4053 0.948602 50.4975C0.986875 50.5896 1.04299 50.6733 1.11368 50.7438C1.18438 50.8142 1.26828 50.8699 1.36057 50.9079C1.45287 50.9458 1.55173 50.9651 1.65152 50.9648Z" fill="#CE2F72"/>
<path d="M8.81271 44.7316C9.1999 44.5724 9.38473 44.1294 9.22553 43.7422C9.06634 43.3551 8.62341 43.1702 8.23623 43.3294C7.84904 43.4886 7.6642 43.9315 7.82339 44.3187C7.98259 44.7059 8.42552 44.8907 8.81271 44.7316Z" fill="#CE2F72"/>
<path d="M1.65151 44.8201C1.802 44.8201 1.94912 44.7755 2.07424 44.6919C2.19937 44.6083 2.29687 44.4894 2.35446 44.3504C2.41205 44.2114 2.42714 44.0584 2.39778 43.9108C2.36843 43.7632 2.29597 43.6276 2.18956 43.5212C2.08314 43.4148 1.94754 43.3423 1.79995 43.313C1.65235 43.2836 1.49939 43.2987 1.36036 43.3563C1.22132 43.4139 1.10248 43.5114 1.01887 43.6365C0.935264 43.7616 0.890625 43.9087 0.890625 44.0592C0.890625 44.261 0.970811 44.4545 1.1135 44.5972C1.2562 44.7399 1.44971 44.8201 1.65151 44.8201Z" fill="#CE2F72"/>
<path d="M8.81354 38.5864C9.20073 38.4272 9.38556 37.9843 9.22637 37.5971C9.06717 37.2099 8.62424 37.0251 8.23705 37.1843C7.84986 37.3435 7.66503 37.7864 7.82423 38.1736C7.98342 38.5608 8.42635 38.7456 8.81354 38.5864Z" fill="#CE2F72"/>
<path d="M1.65152 38.6643C1.80213 38.6643 1.94934 38.6196 2.07453 38.5359C2.19972 38.4522 2.29725 38.3332 2.35475 38.194C2.41225 38.0548 2.42717 37.9016 2.39758 37.754C2.36799 37.6063 2.29521 37.4707 2.18851 37.3644C2.08181 37.2581 1.94598 37.1859 1.7982 37.1568C1.65041 37.1278 1.49735 37.1433 1.35836 37.2013C1.21938 37.2594 1.10073 37.3573 1.01747 37.4828C0.934214 37.6083 0.890062 37.7557 0.89063 37.9063C0.89063 38.0061 0.910329 38.1049 0.948602 38.1971C0.986875 38.2892 1.04299 38.3729 1.11368 38.4433C1.18438 38.5138 1.26828 38.5695 1.36057 38.6075C1.45287 38.6454 1.55173 38.6647 1.65152 38.6643Z" fill="#CE2F72"/>
<path d="M8.81298 32.4385C9.20017 32.2793 9.385 31.8363 9.22581 31.4491C9.06662 31.062 8.62369 30.8771 8.2365 31.0363C7.84931 31.1955 7.66448 31.6385 7.82367 32.0256C7.98286 32.4128 8.4258 32.5977 8.81298 32.4385Z" fill="#CE2F72"/>
<path d="M1.65151 32.5284C1.802 32.5284 1.94912 32.4837 2.07424 32.4001C2.19937 32.3165 2.29687 32.1977 2.35446 32.0587C2.41205 31.9196 2.42714 31.7666 2.39778 31.619C2.36843 31.4714 2.29597 31.3359 2.18956 31.2294C2.08314 31.123 1.94754 31.0506 1.79995 31.0212C1.65235 30.9919 1.49939 31.0069 1.36036 31.0645C1.22132 31.1221 1.10248 31.2196 1.01887 31.3448C0.935264 31.4699 0.890625 31.617 0.890625 31.7675C0.890625 31.9693 0.970811 32.1628 1.1135 32.3055C1.2562 32.4482 1.44971 32.5284 1.65151 32.5284Z" fill="#CE2F72"/>
</g>
<g clip-path="url(#clip2_5_571)">
<path d="M56.2418 26.1024C56.6605 26.1024 56.9998 25.7631 56.9998 25.3444C56.9998 24.9258 56.6605 24.5864 56.2418 24.5864C55.8232 24.5864 55.4838 24.9258 55.4838 25.3444C55.4838 25.7631 55.8232 26.1024 56.2418 26.1024Z" fill="#CE2F72"/>
<path d="M49.3682 26.1024C49.7868 26.1024 50.1262 25.7631 50.1262 25.3444C50.1262 24.9258 49.7868 24.5864 49.3682 24.5864C48.9496 24.5864 48.6102 24.9258 48.6102 25.3444C48.6102 25.7631 48.9496 26.1024 49.3682 26.1024Z" fill="#CE2F72"/>
<path d="M42.4974 26.1027C42.648 26.1033 42.7954 26.0591 42.9209 25.9759C43.0464 25.8926 43.1444 25.774 43.2024 25.635C43.2604 25.496 43.2759 25.3429 43.2469 25.1951C43.2179 25.0474 43.1456 24.9115 43.0393 24.8048C42.933 24.6981 42.7975 24.6254 42.6498 24.5958C42.5021 24.5662 42.349 24.5811 42.2098 24.6386C42.0706 24.6961 41.9516 24.7936 41.8678 24.9188C41.7841 25.044 41.7394 25.1912 41.7394 25.3418C41.7394 25.5431 41.8192 25.7362 41.9612 25.8788C42.1033 26.0214 42.2961 26.1019 42.4974 26.1027Z" fill="#CE2F72"/>
<path d="M35.6264 26.1027C35.7769 26.1027 35.924 26.0581 36.0491 25.9745C36.1742 25.8909 36.2717 25.772 36.3293 25.633C36.3869 25.494 36.402 25.341 36.3726 25.1934C36.3432 25.0458 36.2708 24.9102 36.1644 24.8038C36.058 24.6974 35.9224 24.6249 35.7748 24.5956C35.6272 24.5662 35.4742 24.5813 35.3352 24.6389C35.1961 24.6964 35.0773 24.794 34.9937 24.9191C34.9101 25.0442 34.8655 25.1913 34.8655 25.3418C34.8655 25.4417 34.8851 25.5407 34.9234 25.633C34.9616 25.7253 35.0177 25.8092 35.0883 25.8798C35.159 25.9505 35.2429 26.0066 35.3352 26.0448C35.4275 26.083 35.5264 26.1027 35.6264 26.1027Z" fill="#CE2F72"/>
<path d="M28.7527 26.1024C29.1713 26.1024 29.5107 25.7631 29.5107 25.3444C29.5107 24.9258 29.1713 24.5864 28.7527 24.5864C28.3341 24.5864 27.9947 24.9258 27.9947 25.3444C27.9947 25.7631 28.3341 26.1024 28.7527 26.1024Z" fill="#CE2F72"/>
<path d="M22.1718 26.0121C22.559 25.8529 22.7438 25.4099 22.5846 25.0228C22.4254 24.6356 21.9825 24.4508 21.5953 24.6099C21.2081 24.7691 21.0233 25.2121 21.1825 25.5992C21.3417 25.9864 21.7846 26.1713 22.1718 26.0121Z" fill="#CE2F72"/>
<path d="M15.0109 24.5951C14.8602 24.5945 14.7127 24.6387 14.5871 24.7221C14.4616 24.8055 14.3636 24.9243 14.3057 25.0635C14.2477 25.2026 14.2324 25.3559 14.2617 25.5037C14.2909 25.6516 14.3635 25.7874 14.47 25.894C14.5766 26.0006 14.7125 26.0731 14.8603 26.1024C15.0082 26.1316 15.1614 26.1163 15.3006 26.0584C15.4397 26.0004 15.5585 25.9025 15.6419 25.7769C15.7253 25.6513 15.7695 25.5038 15.7689 25.3531C15.7682 25.1523 15.6881 24.9599 15.5461 24.8179C15.4041 24.676 15.2117 24.5959 15.0109 24.5951Z" fill="#CE2F72"/>
<path d="M56.2418 19.9551C56.6605 19.9551 56.9998 19.6157 56.9998 19.1971C56.9998 18.7785 56.6605 18.4391 56.2418 18.4391C55.8232 18.4391 55.4838 18.7785 55.4838 19.1971C55.4838 19.6157 55.8232 19.9551 56.2418 19.9551Z" fill="#CE2F72"/>
<path d="M49.3682 19.9551C49.7868 19.9551 50.1262 19.6157 50.1262 19.1971C50.1262 18.7785 49.7868 18.4391 49.3682 18.4391C48.9496 18.4391 48.6102 18.7785 48.6102 19.1971C48.6102 19.6157 48.9496 19.9551 49.3682 19.9551Z" fill="#CE2F72"/>
<path d="M42.4974 19.9552C42.6481 19.9558 42.7957 19.9116 42.9212 19.8282C43.0468 19.7448 43.1448 19.626 43.2027 19.4869C43.2606 19.3477 43.276 19.1945 43.2467 19.0466C43.2174 18.8988 43.1449 18.7629 43.0383 18.6563C42.9317 18.5497 42.7959 18.4772 42.648 18.448C42.5001 18.4187 42.3469 18.434 42.2078 18.4919C42.0686 18.5499 41.9498 18.6479 41.8664 18.7734C41.7831 18.899 41.7388 19.0465 41.7394 19.1972C41.7401 19.398 41.8203 19.5904 41.9623 19.7324C42.1043 19.8744 42.2966 19.9545 42.4974 19.9552Z" fill="#CE2F72"/>
<path d="M35.6264 19.9552C35.777 19.9552 35.9242 19.9105 36.0494 19.8268C36.1746 19.7431 36.2721 19.6241 36.3296 19.4849C36.3871 19.3457 36.402 19.1925 36.3724 19.0448C36.3428 18.8972 36.2701 18.7616 36.1634 18.6553C36.0567 18.549 35.9208 18.4768 35.773 18.4477C35.6252 18.4187 35.4722 18.4342 35.3332 18.4922C35.1942 18.5503 35.0756 18.6482 34.9923 18.7737C34.9091 18.8992 34.8649 19.0466 34.8655 19.1972C34.8655 19.297 34.8852 19.3958 34.9235 19.488C34.9617 19.5801 35.0178 19.6638 35.0885 19.7342C35.1592 19.8047 35.2431 19.8604 35.3354 19.8984C35.4277 19.9363 35.5266 19.9556 35.6264 19.9552Z" fill="#CE2F72"/>
<path d="M28.7527 19.9551C29.1713 19.9551 29.5107 19.6157 29.5107 19.1971C29.5107 18.7785 29.1713 18.4391 28.7527 18.4391C28.3341 18.4391 27.9947 18.7785 27.9947 19.1971C27.9947 19.6157 28.3341 19.9551 28.7527 19.9551Z" fill="#CE2F72"/>
<path d="M22.1724 19.8671C22.5596 19.7079 22.7444 19.2649 22.5852 18.8778C22.426 18.4906 21.9831 18.3057 21.5959 18.4649C21.2087 18.6241 21.0239 19.0671 21.1831 19.4542C21.3422 19.8414 21.7852 20.0263 22.1724 19.8671Z" fill="#CE2F72"/>
<path d="M15.0109 19.9552C15.1615 19.9552 15.3087 19.9105 15.4339 19.8268C15.5591 19.7431 15.6566 19.6241 15.7141 19.4849C15.7716 19.3457 15.7865 19.1925 15.757 19.0448C15.7274 18.8972 15.6546 18.7616 15.5479 18.6553C15.4412 18.549 15.3054 18.4768 15.1576 18.4477C15.0098 18.4187 14.8567 18.4342 14.7177 18.4922C14.5788 18.5503 14.4601 18.6482 14.3768 18.7737C14.2936 18.8992 14.2494 19.0466 14.25 19.1972C14.25 19.297 14.2697 19.3958 14.308 19.488C14.3463 19.5801 14.4024 19.6638 14.4731 19.7342C14.5438 19.8047 14.6277 19.8604 14.7199 19.8984C14.8122 19.9363 14.9111 19.9556 15.0109 19.9552Z" fill="#CE2F72"/>
<path d="M56.2418 13.8076C56.6605 13.8076 56.9998 13.4683 56.9998 13.0496C56.9998 12.631 56.6605 12.2916 56.2418 12.2916C55.8232 12.2916 55.4838 12.631 55.4838 13.0496C55.4838 13.4683 55.8232 13.8076 56.2418 13.8076Z" fill="#CE2F72"/>
<path d="M49.3682 13.8076C49.7868 13.8076 50.1262 13.4683 50.1262 13.0496C50.1262 12.631 49.7868 12.2916 49.3682 12.2916C48.9496 12.2916 48.6102 12.631 48.6102 13.0496C48.6102 13.4683 48.9496 13.8076 49.3682 13.8076Z" fill="#CE2F72"/>
<path d="M42.4974 13.8107C42.648 13.8113 42.7954 13.7671 42.9209 13.6839C43.0464 13.6006 43.1444 13.482 43.2024 13.343C43.2604 13.204 43.2759 13.0509 43.2469 12.9032C43.2179 12.7554 43.1456 12.6195 43.0393 12.5128C42.933 12.4061 42.7975 12.3334 42.6498 12.3038C42.5021 12.2742 42.349 12.2891 42.2098 12.3466C42.0706 12.4041 41.9516 12.5016 41.8678 12.6268C41.7841 12.752 41.7394 12.8992 41.7394 13.0498C41.7394 13.2511 41.8192 13.4442 41.9612 13.5868C42.1033 13.7294 42.2961 13.8099 42.4974 13.8107Z" fill="#CE2F72"/>
<path d="M35.6264 13.8107C35.7769 13.8107 35.924 13.7661 36.0491 13.6825C36.1742 13.5989 36.2717 13.48 36.3293 13.341C36.3869 13.202 36.402 13.049 36.3726 12.9014C36.3432 12.7538 36.2708 12.6182 36.1644 12.5118C36.058 12.4054 35.9224 12.3329 35.7748 12.3036C35.6272 12.2742 35.4742 12.2893 35.3352 12.3469C35.1961 12.4045 35.0773 12.502 34.9937 12.6271C34.9101 12.7522 34.8655 12.8993 34.8655 13.0498C34.8655 13.1497 34.8851 13.2487 34.9234 13.341C34.9616 13.4333 35.0177 13.5172 35.0883 13.5878C35.159 13.6585 35.2429 13.7145 35.3352 13.7528C35.4275 13.791 35.5264 13.8107 35.6264 13.8107Z" fill="#CE2F72"/>
<path d="M28.7527 13.8076C29.1713 13.8076 29.5107 13.4683 29.5107 13.0496C29.5107 12.631 29.1713 12.2916 28.7527 12.2916C28.3341 12.2916 27.9947 12.631 27.9947 13.0496C27.9947 13.4683 28.3341 13.8076 28.7527 13.8076Z" fill="#CE2F72"/>
<path d="M22.1721 13.7221C22.5593 13.5629 22.7441 13.12 22.5849 12.7328C22.4257 12.3456 21.9828 12.1608 21.5956 12.32C21.2084 12.4792 21.0236 12.9221 21.1828 13.3093C21.342 13.6965 21.7849 13.8813 22.1721 13.7221Z" fill="#CE2F72"/>
<path d="M15.0109 13.8107C15.1614 13.8107 15.3085 13.7661 15.4336 13.6825C15.5587 13.5989 15.6562 13.48 15.7138 13.341C15.7714 13.202 15.7865 13.049 15.7572 12.9014C15.7278 12.7538 15.6553 12.6182 15.5489 12.5118C15.4425 12.4054 15.3069 12.3329 15.1593 12.3036C15.0117 12.2742 14.8588 12.2893 14.7197 12.3469C14.5807 12.4045 14.4619 12.502 14.3782 12.6271C14.2946 12.7522 14.25 12.8993 14.25 13.0498C14.25 13.2516 14.3302 13.4451 14.4729 13.5878C14.6156 13.7305 14.8091 13.8107 15.0109 13.8107Z" fill="#CE2F72"/>
<path d="M56.2418 7.66342C56.6605 7.66342 56.9998 7.32405 56.9998 6.90541C56.9998 6.48677 56.6605 6.1474 56.2418 6.1474C55.8232 6.1474 55.4838 6.48677 55.4838 6.90541C55.4838 7.32405 55.8232 7.66342 56.2418 7.66342Z" fill="#CE2F72"/>
<path d="M49.3682 7.66342C49.7868 7.66342 50.1262 7.32405 50.1262 6.90541C50.1262 6.48677 49.7868 6.1474 49.3682 6.1474C48.9496 6.1474 48.6102 6.48677 48.6102 6.90541C48.6102 7.32405 48.9496 7.66342 49.3682 7.66342Z" fill="#CE2F72"/>
<path d="M42.4974 7.65482C42.6481 7.65539 42.7957 7.61117 42.9212 7.52778C43.0468 7.4444 43.1448 7.32559 43.2027 7.18644C43.2606 7.04729 43.276 6.89406 43.2467 6.7462C43.2174 6.59834 43.1449 6.46251 43.0383 6.35592C42.9317 6.24934 42.7959 6.1768 42.648 6.14754C42.5001 6.11827 42.3469 6.13358 42.2078 6.19152C42.0686 6.24947 41.9498 6.34744 41.8664 6.47301C41.7831 6.59857 41.7388 6.74608 41.7394 6.89681C41.7401 7.09761 41.8203 7.28999 41.9623 7.43198C42.1043 7.57397 42.2966 7.65406 42.4974 7.65482Z" fill="#CE2F72"/>
<path d="M35.6264 7.65482C35.777 7.65482 35.9242 7.61012 36.0494 7.52638C36.1746 7.44265 36.2721 7.32366 36.3296 7.18446C36.3871 7.04526 36.402 6.89212 36.3724 6.74445C36.3428 6.59677 36.2701 6.4612 36.1634 6.35491C36.0567 6.24861 35.9208 6.17636 35.773 6.14733C35.6252 6.11829 35.4722 6.13378 35.3332 6.19181C35.1942 6.24984 35.0756 6.3478 34.9923 6.4733C34.9091 6.59881 34.8649 6.7462 34.8655 6.89681C34.8655 6.99659 34.8852 7.09541 34.9235 7.18756C34.9617 7.27971 35.0178 7.36339 35.0885 7.43382C35.1592 7.50424 35.2431 7.56003 35.3354 7.59795C35.4277 7.63588 35.5266 7.6552 35.6264 7.65482Z" fill="#CE2F72"/>
<path d="M28.7527 7.66342C29.1713 7.66342 29.5107 7.32405 29.5107 6.90541C29.5107 6.48677 29.1713 6.1474 28.7527 6.1474C28.3341 6.1474 27.9947 6.48677 27.9947 6.90541C27.9947 7.32405 28.3341 7.66342 28.7527 7.66342Z" fill="#CE2F72"/>
<path d="M22.1729 7.57703C22.5601 7.41784 22.7449 6.9749 22.5857 6.58772C22.4265 6.20053 21.9836 6.0157 21.5964 6.17489C21.2092 6.33408 21.0244 6.77702 21.1836 7.1642C21.3428 7.55139 21.7857 7.73622 22.1729 7.57703Z" fill="#CE2F72"/>
<path d="M15.0109 7.65482C15.1615 7.65482 15.3087 7.61012 15.4339 7.52638C15.5591 7.44265 15.6566 7.32366 15.7141 7.18446C15.7716 7.04526 15.7865 6.89212 15.757 6.74445C15.7274 6.59677 15.6546 6.4612 15.5479 6.35491C15.4412 6.24861 15.3054 6.17636 15.1576 6.14733C15.0098 6.11829 14.8567 6.13378 14.7177 6.19181C14.5788 6.24984 14.4601 6.3478 14.3768 6.4733C14.2936 6.59881 14.2494 6.7462 14.25 6.89681C14.25 6.99659 14.2697 7.09541 14.308 7.18756C14.3463 7.27971 14.4024 7.36339 14.4731 7.43382C14.5438 7.50424 14.6277 7.56003 14.7199 7.59795C14.8122 7.63588 14.9111 7.6552 15.0109 7.65482Z" fill="#CE2F72"/>
<path d="M56.2418 1.51602C56.6605 1.51602 56.9998 1.17665 56.9998 0.758009C56.9998 0.339372 56.6605 0 56.2418 0C55.8232 0 55.4838 0.339372 55.4838 0.758009C55.4838 1.17665 55.8232 1.51602 56.2418 1.51602Z" fill="#CE2F72"/>
<path d="M49.3682 1.51602C49.7869 1.51602 50.1262 1.17665 50.1262 0.758009C50.1262 0.339372 49.7869 0 49.3682 0C48.9496 0 48.6102 0.339372 48.6102 0.758009C48.6102 1.17665 48.9496 1.51602 49.3682 1.51602Z" fill="#CE2F72"/>
<path d="M42.4974 1.51896C42.648 1.51952 42.7954 1.47539 42.9209 1.39213C43.0464 1.30887 43.1444 1.19022 43.2024 1.05124C43.2604 0.912257 43.2759 0.759189 43.2469 0.611404C43.2179 0.463619 43.1456 0.327774 43.0393 0.221076C42.933 0.114378 42.7975 0.041616 42.6498 0.0120238C42.5021 -0.0175684 42.349 -0.00266723 42.2098 0.0548367C42.0706 0.112341 41.9516 0.209869 41.8678 0.335057C41.7841 0.460244 41.7394 0.607458 41.7394 0.758068C41.7394 0.95937 41.8192 1.15247 41.9612 1.29508C42.1033 1.43769 42.2961 1.5182 42.4974 1.51896Z" fill="#CE2F72"/>
<path d="M35.6264 1.51895C35.7769 1.51895 35.924 1.47433 36.0491 1.39073C36.1742 1.30712 36.2717 1.18829 36.3293 1.04926C36.3869 0.910224 36.402 0.757228 36.3726 0.609632C36.3432 0.462035 36.2708 0.326451 36.1644 0.22004C36.058 0.113629 35.9224 0.0411703 35.7748 0.0118115C35.6272 -0.0175472 35.4742 -0.00247418 35.3352 0.0551151C35.1961 0.112704 35.0773 0.210226 34.9937 0.335353C34.9101 0.460479 34.8655 0.607578 34.8655 0.758066C34.8655 0.857986 34.8851 0.956942 34.9234 1.04926C34.9616 1.14157 35.0177 1.22544 35.0883 1.29609C35.159 1.36675 35.2429 1.4228 35.3352 1.46103C35.4275 1.49927 35.5264 1.51895 35.6264 1.51895Z" fill="#CE2F72"/>
<path d="M28.7527 1.51602C29.1713 1.51602 29.5107 1.17665 29.5107 0.758009C29.5107 0.339372 29.1713 0 28.7527 0C28.3341 0 27.9947 0.339372 27.9947 0.758009C27.9947 1.17665 28.3341 1.51602 28.7527 1.51602Z" fill="#CE2F72"/>
<path d="M22.1724 1.42906C22.5595 1.26987 22.7444 0.826938 22.5852 0.43975C22.426 0.0525617 21.9831 -0.132252 21.5959 0.0269407C21.2087 0.186133 21.0239 0.629051 21.183 1.01624C21.3422 1.40343 21.7852 1.58826 22.1724 1.42906Z" fill="#CE2F72"/>
<path d="M15.0109 1.51883C15.1614 1.51883 15.3085 1.47421 15.4336 1.3906C15.5587 1.307 15.6562 1.18817 15.7138 1.04913C15.7714 0.910102 15.7865 0.757106 15.7572 0.60951C15.7278 0.461913 15.6553 0.326329 15.5489 0.219918C15.4425 0.113507 15.3069 0.0410482 15.1593 0.0116895C15.0117 -0.0176693 14.8588 -0.00259625 14.7197 0.054993C14.5807 0.112582 14.4619 0.210104 14.3782 0.33523C14.2946 0.460357 14.25 0.607456 14.25 0.757944C14.25 0.959742 14.3302 1.15328 14.4729 1.29597C14.6156 1.43866 14.8091 1.51883 15.0109 1.51883Z" fill="#CE2F72"/>
</g>
<g clip-path="url(#clip3_5_571)">
<path d="M8.81243 26.0121C9.19962 25.8529 9.38445 25.4099 9.22526 25.0228C9.06607 24.6356 8.62314 24.4508 8.23595 24.6099C7.84876 24.7691 7.66393 25.2121 7.82312 25.5992C7.98231 25.9864 8.42525 26.1713 8.81243 26.0121Z" fill="#CE2F72"/>
<path d="M1.65155 24.5951C1.50082 24.5945 1.35333 24.6387 1.22777 24.7221C1.1022 24.8055 1.00423 24.9243 0.946286 25.0635C0.888341 25.2026 0.873031 25.3559 0.902299 25.5037C0.931566 25.6516 1.00408 25.7874 1.11067 25.894C1.21725 26.0006 1.35308 26.0731 1.50094 26.1024C1.64881 26.1316 1.80205 26.1163 1.9412 26.0584C2.08035 26.0004 2.19916 25.9025 2.28254 25.7769C2.36593 25.6513 2.41013 25.5038 2.40956 25.3531C2.40881 25.1523 2.32871 24.9599 2.18672 24.8179C2.04473 24.676 1.85235 24.5959 1.65155 24.5951Z" fill="#CE2F72"/>
<path d="M8.81299 19.8671C9.20018 19.7079 9.38501 19.2649 9.22582 18.8778C9.06662 18.4906 8.62369 18.3057 8.2365 18.4649C7.84931 18.6241 7.66448 19.0671 7.82368 19.4542C7.98287 19.8414 8.4258 20.0263 8.81299 19.8671Z" fill="#CE2F72"/>
<path d="M1.65152 19.9552C1.80213 19.9552 1.94934 19.9105 2.07453 19.8268C2.19972 19.7431 2.29725 19.6241 2.35475 19.4849C2.41225 19.3457 2.42717 19.1925 2.39758 19.0448C2.36799 18.8972 2.29521 18.7616 2.18851 18.6553C2.08181 18.549 1.94598 18.4768 1.7982 18.4477C1.65041 18.4187 1.49735 18.4342 1.35836 18.4922C1.21938 18.5503 1.10073 18.6482 1.01747 18.7737C0.934214 18.8992 0.890062 19.0466 0.89063 19.1972C0.89063 19.297 0.910329 19.3958 0.948602 19.488C0.986875 19.5801 1.04299 19.6638 1.11368 19.7342C1.18438 19.8047 1.26828 19.8604 1.36057 19.8984C1.45287 19.9363 1.55173 19.9556 1.65152 19.9552Z" fill="#CE2F72"/>
<path d="M8.81271 13.7221C9.1999 13.5629 9.38473 13.12 9.22553 12.7328C9.06634 12.3456 8.62341 12.1608 8.23623 12.32C7.84904 12.4792 7.6642 12.9221 7.82339 13.3093C7.98259 13.6965 8.42552 13.8813 8.81271 13.7221Z" fill="#CE2F72"/>
<path d="M1.65151 13.8107C1.802 13.8107 1.94912 13.7661 2.07424 13.6825C2.19937 13.5989 2.29687 13.48 2.35446 13.341C2.41205 13.202 2.42714 13.049 2.39778 12.9014C2.36843 12.7538 2.29597 12.6182 2.18956 12.5118C2.08314 12.4054 1.94754 12.3329 1.79995 12.3036C1.65235 12.2742 1.49939 12.2893 1.36036 12.3469C1.22132 12.4045 1.10248 12.502 1.01887 12.6271C0.935264 12.7522 0.890625 12.8993 0.890625 13.0498C0.890625 13.2516 0.970811 13.4451 1.1135 13.5878C1.2562 13.7305 1.44971 13.8107 1.65151 13.8107Z" fill="#CE2F72"/>
<path d="M8.81354 7.57703C9.20073 7.41784 9.38556 6.9749 9.22637 6.58772C9.06717 6.20053 8.62424 6.0157 8.23705 6.17489C7.84986 6.33408 7.66503 6.77702 7.82423 7.1642C7.98342 7.55139 8.42635 7.73622 8.81354 7.57703Z" fill="#CE2F72"/>
<path d="M1.65152 7.65482C1.80213 7.65482 1.94934 7.61012 2.07453 7.52638C2.19972 7.44265 2.29725 7.32366 2.35475 7.18446C2.41225 7.04526 2.42717 6.89212 2.39758 6.74445C2.36799 6.59677 2.29521 6.4612 2.18851 6.35491C2.08181 6.24861 1.94598 6.17636 1.7982 6.14733C1.65041 6.11829 1.49735 6.13378 1.35836 6.19181C1.21938 6.24984 1.10073 6.3478 1.01747 6.4733C0.934214 6.59881 0.890062 6.7462 0.89063 6.89681C0.89063 6.99659 0.910329 7.09541 0.948602 7.18756C0.986875 7.27971 1.04299 7.36339 1.11368 7.43382C1.18438 7.50424 1.26828 7.56003 1.36057 7.59795C1.45287 7.63588 1.55173 7.6552 1.65152 7.65482Z" fill="#CE2F72"/>
<path d="M8.81298 1.42906C9.20017 1.26987 9.385 0.826938 9.22581 0.43975C9.06662 0.0525617 8.62369 -0.132252 8.2365 0.0269407C7.84931 0.186133 7.66448 0.629051 7.82367 1.01624C7.98286 1.40343 8.4258 1.58826 8.81298 1.42906Z" fill="#CE2F72"/>
<path d="M1.65151 1.51883C1.802 1.51883 1.94912 1.47421 2.07424 1.3906C2.19937 1.307 2.29687 1.18817 2.35446 1.04913C2.41205 0.910102 2.42714 0.757106 2.39778 0.60951C2.36843 0.461913 2.29597 0.326329 2.18956 0.219918C2.08314 0.113507 1.94754 0.0410482 1.79995 0.0116895C1.65235 -0.0176693 1.49939 -0.00259625 1.36036 0.054993C1.22132 0.112582 1.10248 0.210104 1.01887 0.33523C0.935264 0.460357 0.890625 0.607456 0.890625 0.757944C0.890625 0.959742 0.970811 1.15328 1.1135 1.29597C1.2562 1.43866 1.44971 1.51883 1.65151 1.51883Z" fill="#CE2F72"/>
</g>
<defs>
<clipPath id="clip0_5_571">
<rect width="42.75" height="26.1025" fill="white" transform="translate(14.25 31.0094)"/>
</clipPath>
<clipPath id="clip1_5_571">
<rect width="13.3594" height="25.8281" fill="white" transform="translate(0.890625 31.1719)"/>
</clipPath>
<clipPath id="clip2_5_571">
<rect width="42.75" height="26.1025" fill="white" transform="translate(14.25)"/>
</clipPath>
<clipPath id="clip3_5_571">
<rect width="13.3594" height="25.8281" fill="white" transform="translate(0.890625)"/>
</clipPath>
</defs>
</svg>
