<svg width="56" height="56" viewBox="0 0 56 56" fill="none" xmlns="http://www.w3.org/2000/svg">
<rect width="56" height="56" rx="3" fill="#CE2F72"/>
<path d="M37.8906 16H18.1094C16.9463 16 16 16.9463 16 18.1094V32.1719C16 33.335 16.9463 34.2812 18.1094 34.2812H24.9531V35.7812H23.7812C23.4786 35.7812 23.2099 35.9749 23.1142 36.262L22.1767 39.0745C22.0249 39.5298 22.3638 40 22.8438 40H37.8906C39.0537 40 40 39.0537 40 37.8906V18.1094C40 16.9463 39.0537 16 37.8906 16ZM18.1094 32.875C17.7217 32.875 17.4062 32.5596 17.4062 32.1719V31.4688H29.2188V32.875H18.1094ZM29.2188 34.2812V35.7812H26.3594V34.2812H29.2188ZM23.8193 38.5938L24.2881 37.1875H29.2188V37.8906C29.2188 38.1371 29.2616 38.3737 29.3397 38.5938H23.8193ZM38.5938 37.8906C38.5938 38.2783 38.2783 38.5938 37.8906 38.5938H31.3281C30.9404 38.5938 30.625 38.2783 30.625 37.8906V25.9943L33.3806 28.75H32.7344C32.3461 28.75 32.0312 29.0648 32.0312 29.4531C32.0312 29.8414 32.3461 30.1562 32.7344 30.1562H35.0781C35.4664 30.1562 35.7812 29.8414 35.7812 29.4531V27.1094C35.7812 26.7211 35.4664 26.4062 35.0781 26.4062C34.6898 26.4062 34.375 26.7211 34.375 27.1094V27.7556L31.6194 25H37.8906C38.2783 25 38.5938 25.3154 38.5938 25.7031V37.8906ZM38.5938 23.7147C38.3737 23.6366 38.1371 23.5938 37.8906 23.5938H31.3281C30.165 23.5938 29.2188 24.54 29.2188 25.7031V30.0625H17.4062V18.4006L20.1619 21.1562H19.5156C19.1273 21.1562 18.8125 21.4711 18.8125 21.8594C18.8125 22.2477 19.1273 22.5625 19.5156 22.5625H21.8594C22.2477 22.5625 22.5625 22.2477 22.5625 21.8594V19.5156C22.5625 19.1273 22.2477 18.8125 21.8594 18.8125C21.4711 18.8125 21.1562 19.1273 21.1562 19.5156V20.1619L18.4006 17.4062H37.8906C38.2783 17.4062 38.5938 17.7217 38.5938 18.1094V23.7147Z" fill="white"/>
</svg>
