<svg width="56" height="56" viewBox="0 0 56 56" fill="none" xmlns="http://www.w3.org/2000/svg">
<rect width="56" height="56" rx="3" fill="#CE2F72"/>
<path d="M36.9121 21.9796C36.7509 21.8184 36.5849 21.6637 36.4154 21.5143L37.0078 20.6737L37.1569 20.7787C37.28 20.8656 37.4214 20.9072 37.5614 20.9072C37.7823 20.9072 37.9998 20.8034 38.1367 20.6091C38.3604 20.2917 38.2844 19.853 37.967 19.6293L36.5194 18.609C36.202 18.3853 35.7633 18.4612 35.5396 18.7786C35.3159 19.096 35.3919 19.5347 35.7092 19.7584L35.8584 19.8635L35.3004 20.6553C34.4643 20.0963 33.5567 19.664 32.6018 19.367V16.7261C32.6018 16.3378 32.287 16.0229 31.8987 16.0229H27.0159C26.6275 16.0229 26.3127 16.3378 26.3127 16.7261V19.3669C25.381 19.6567 24.4946 20.0759 23.6754 20.6154L23.1455 19.8636L23.2946 19.7585C23.612 19.5348 23.688 19.0961 23.4642 18.7787C23.2405 18.4613 22.8019 18.3853 22.4845 18.609L21.0368 19.6294C20.7194 19.8531 20.6434 20.2918 20.8672 20.6092C21.0041 20.8034 21.2216 20.9072 21.4425 20.9072C21.5824 20.9072 21.7238 20.8656 21.847 20.7788L21.996 20.6737L22.5542 21.4657C21.9665 21.975 21.4245 22.5614 20.9661 23.1824H16.7031C16.3148 23.1824 16 23.4972 16 23.8855C16 24.2738 16.3148 24.5886 16.7031 24.5886H20.0893C19.8523 25.0454 19.6498 25.5187 19.483 26.0052H17.6476C17.2593 26.0052 16.9445 26.32 16.9445 26.7083C16.9445 27.0966 17.2593 27.4114 17.6476 27.4114H19.1078C19.018 27.8759 18.9593 28.349 18.9323 28.828H18.679C18.2907 28.828 17.9759 29.1428 17.9759 29.5311C17.9759 29.9194 18.2907 30.2342 18.679 30.2342H18.9444C18.9801 30.7137 19.0485 31.1866 19.1473 31.6508H17.6476C17.2593 31.6508 16.9445 31.9656 16.9445 32.3539C16.9445 32.7422 17.2593 33.057 17.6476 33.057H19.5512C19.729 33.5443 19.9431 34.0175 20.192 34.4736H16.7031C16.3148 34.4736 16 34.7884 16 35.1767C16 35.565 16.3148 35.8799 16.7031 35.8799H21.1126C23.0997 38.457 26.1999 39.9914 29.4573 39.9772C32.2733 39.9772 34.9208 38.8806 36.9121 36.8894C38.9033 34.8981 40 32.2506 40 29.4345C40 26.6184 38.9034 23.9709 36.9121 21.9796ZM27.719 17.4292H31.1956V19.0342C30.6264 18.9403 30.0456 18.8917 29.4573 18.8917C28.869 18.8917 28.2881 18.9403 27.719 19.0342V17.4292ZM29.4573 38.5709C24.4194 38.5709 20.3208 34.4723 20.3208 29.4345C20.3208 24.3967 24.4194 20.298 29.4573 20.298C34.4952 20.298 38.5938 24.3966 38.5938 29.4345C38.5938 34.4724 34.4951 38.5709 29.4573 38.5709Z" fill="white"/>
<path d="M29.4572 22.1155C25.3437 22.1155 21.9971 25.4621 21.9971 29.5756C21.9971 33.6891 25.3438 37.0357 29.4572 37.0357C33.5708 37.0357 36.9174 33.6891 36.9174 29.5756C36.9174 25.4621 33.5708 22.1155 29.4572 22.1155ZM30.155 35.5891C30.1139 35.24 29.8174 34.9689 29.4572 34.9689C29.0971 34.9689 28.8006 35.2399 28.7595 35.5891C25.9779 35.2684 23.7646 33.055 23.4438 30.2735C23.793 30.2324 24.064 29.9359 24.064 29.5757C24.064 29.2155 23.793 28.919 23.4438 28.8779C23.7646 26.0963 25.9779 23.8829 28.7595 23.5622C28.8006 23.9114 29.0971 24.1824 29.4572 24.1824C29.8174 24.1824 30.1139 23.9114 30.155 23.5622C32.9366 23.8829 35.15 26.0963 35.4707 28.8779C35.1216 28.919 34.8505 29.2155 34.8505 29.5757C34.8505 29.9359 35.1215 30.2324 35.4707 30.2735C35.15 33.055 32.9366 35.2684 30.155 35.5891Z" fill="white"/>
<path d="M31.5495 27.2372C31.275 26.9626 30.8298 26.9626 30.5552 27.2372L30.1973 27.595C30.185 27.5905 30.1727 27.5861 30.1604 27.5818V25.9961C30.1604 25.6078 29.8456 25.293 29.4573 25.293C29.0689 25.293 28.7541 25.6078 28.7541 25.9961V27.5818C27.9329 27.8723 27.3428 28.6562 27.3428 29.5757C27.3428 30.7416 28.2913 31.6901 29.4573 31.6901C30.6232 31.6901 31.5718 30.7416 31.5718 29.5757C31.5718 29.1842 31.4644 28.8175 31.2783 28.5027L31.5495 28.2315C31.8241 27.9569 31.8241 27.5117 31.5495 27.2372ZM29.4573 30.2839C29.0667 30.2839 28.749 29.9662 28.749 29.5757C28.749 29.1851 29.0667 28.8674 29.4573 28.8674C29.8478 28.8674 30.1655 29.1851 30.1655 29.5757C30.1655 29.9662 29.8478 30.2839 29.4573 30.2839Z" fill="white"/>
</svg>
