<svg width="56" height="56" viewBox="0 0 56 56" fill="none" xmlns="http://www.w3.org/2000/svg">
<rect width="56" height="56" rx="3" fill="#CE2F72"/>
<path d="M42.4 16.564H28.414C28.084 16.564 27.814 16.834 27.814 17.164V19.69H17.446C16.21 19.69 15.202 20.698 15.202 21.934V34.288C15.202 34.666 15.304 35.02 15.472 35.332H13.6C13.27 35.332 13 35.602 13 35.932C13 37.864 14.572 39.436 16.504 39.436H36.226C38.158 39.436 39.73 37.864 39.73 35.932C39.73 35.602 39.46 35.332 39.13 35.332H37.258C37.426 35.02 37.528 34.666 37.528 34.288V28.084H42.4C42.73 28.084 43 27.814 43 27.484V17.164C43 16.834 42.73 16.564 42.4 16.564ZM36.226 38.236H16.504C15.442 38.236 14.542 37.51 14.278 36.532H17.44H35.284H38.446C38.188 37.51 37.288 38.236 36.226 38.236ZM36.328 34.288C36.328 34.864 35.86 35.332 35.284 35.332H17.446C16.87 35.332 16.402 34.864 16.402 34.288V21.934C16.402 21.358 16.87 20.89 17.446 20.89H27.814V27.484C27.814 27.814 28.084 28.084 28.414 28.084H36.334V34.288H36.328ZM41.8 26.884H29.014V17.764H41.8V26.884Z" fill="white" stroke="white" stroke-width="0.7"/>
<path d="M36.976 24.2621C37.096 24.3821 37.246 24.4361 37.402 24.4361C37.558 24.4361 37.708 24.3761 37.828 24.2621L39.34 22.7501C39.574 22.5161 39.574 22.1381 39.34 21.9041L37.828 20.3921C37.594 20.1581 37.216 20.1581 36.982 20.3921C36.748 20.6261 36.748 21.0041 36.982 21.2381L38.074 22.3301L36.982 23.4221C36.742 23.6501 36.742 24.0281 36.976 24.2621Z" fill="white"/>
<path d="M32.986 24.262C33.106 24.382 33.256 24.436 33.412 24.436C33.568 24.436 33.718 24.376 33.838 24.262C34.072 24.028 34.072 23.65 33.838 23.416L32.746 22.324L33.838 21.2319C34.072 20.9979 34.072 20.6199 33.838 20.3859C33.604 20.1519 33.226 20.1519 32.992 20.3859L31.48 21.8979C31.246 22.1319 31.246 22.5099 31.48 22.744L32.986 24.262Z" fill="white"/>
<path d="M34.822 25.81C34.858 25.816 34.888 25.816 34.924 25.816C35.212 25.816 35.464 25.606 35.518 25.318L36.49 19.534C36.544 19.21 36.322 18.898 35.998 18.844C35.668 18.79 35.362 19.012 35.308 19.336L34.336 25.12C34.276 25.444 34.492 25.756 34.822 25.81Z" fill="white"/>
</svg>
