<svg width="56" height="56" viewBox="0 0 56 56" fill="none" xmlns="http://www.w3.org/2000/svg">
<rect width="56" height="56" rx="3" fill="#CE2F72"/>
<path d="M37.8906 16.0469H18.1094C16.9463 16.0469 16 16.9931 16 18.1562V37.8438C16 39.0069 16.9463 39.9531 18.1094 39.9531H37.8906C39.0537 39.9531 40 39.0069 40 37.8438V18.1562C40 16.9931 39.0537 16.0469 37.8906 16.0469ZM18.1094 17.4531H37.8906C38.2783 17.4531 38.5938 17.7685 38.5938 18.1562V21.6719H17.4062V18.1562C17.4062 17.7685 17.7217 17.4531 18.1094 17.4531ZM37.8906 38.5469H18.1094C17.7217 38.5469 17.4062 38.2315 17.4062 37.8438V23.0781H38.5938V37.8438C38.5938 38.2315 38.2783 38.5469 37.8906 38.5469Z" fill="white"/>
<path d="M36.4375 24.4844H19.5625C19.1742 24.4844 18.8594 24.7992 18.8594 25.1875V29.4062C18.8594 29.7946 19.1742 30.1094 19.5625 30.1094H36.4375C36.8258 30.1094 37.1406 29.7946 37.1406 29.4062V25.1875C37.1406 24.7992 36.8258 24.4844 36.4375 24.4844ZM35.7344 28.7031H20.2656V25.8906H35.7344V28.7031Z" fill="white"/>
<path d="M26.5938 31.5156H19.5625C19.1742 31.5156 18.8594 31.8304 18.8594 32.2188V36.4375C18.8594 36.8258 19.1742 37.1406 19.5625 37.1406H26.5938C26.9821 37.1406 27.2969 36.8258 27.2969 36.4375V32.2188C27.2969 31.8304 26.9821 31.5156 26.5938 31.5156ZM25.8906 35.7344H20.2656V32.9219H25.8906V35.7344Z" fill="white"/>
<path d="M19.5625 20.2656C19.9508 20.2656 20.2656 19.9508 20.2656 19.5625C20.2656 19.1742 19.9508 18.8594 19.5625 18.8594C19.1742 18.8594 18.8594 19.1742 18.8594 19.5625C18.8594 19.9508 19.1742 20.2656 19.5625 20.2656Z" fill="white"/>
<path d="M22.375 20.2656C22.7633 20.2656 23.0781 19.9508 23.0781 19.5625C23.0781 19.1742 22.7633 18.8594 22.375 18.8594C21.9867 18.8594 21.6719 19.1742 21.6719 19.5625C21.6719 19.9508 21.9867 20.2656 22.375 20.2656Z" fill="white"/>
<path d="M25.1875 20.2656C25.5758 20.2656 25.8906 19.9508 25.8906 19.5625C25.8906 19.1742 25.5758 18.8594 25.1875 18.8594C24.7992 18.8594 24.4844 19.1742 24.4844 19.5625C24.4844 19.9508 24.7992 20.2656 25.1875 20.2656Z" fill="white"/>
<path d="M32.2188 20.2656H36.4375C36.8258 20.2656 37.1406 19.9508 37.1406 19.5625C37.1406 19.1742 36.8258 18.8594 36.4375 18.8594H32.2188C31.8304 18.8594 31.5156 19.1742 31.5156 19.5625C31.5156 19.9508 31.8304 20.2656 32.2188 20.2656Z" fill="white"/>
<path d="M36.4375 31.5156H29.4062C29.0179 31.5156 28.7031 31.8304 28.7031 32.2188V36.4375C28.7031 36.8258 29.0179 37.1406 29.4062 37.1406H36.4375C36.8258 37.1406 37.1406 36.8258 37.1406 36.4375V32.2188C37.1406 31.8304 36.8258 31.5156 36.4375 31.5156ZM35.7344 35.7344H30.1094V32.9219H35.7344V35.7344Z" fill="white"/>
</svg>
