<svg width="56" height="56" viewBox="0 0 56 56" fill="none" xmlns="http://www.w3.org/2000/svg">
<rect width="56" height="56" rx="3" fill="#CE2F72"/>
<path d="M40 16.8572C40.0001 16.7446 39.9779 16.6331 39.9349 16.5291C39.8918 16.4251 39.8287 16.3305 39.7491 16.2509C39.6695 16.1713 39.575 16.1082 39.471 16.0652C39.3669 16.0221 39.2554 16 39.1429 16C37.4872 15.9958 35.8469 16.3181 34.3159 16.9485C32.785 17.5789 31.3933 18.505 30.2207 19.6738H25.8835C25.316 19.6723 24.7538 19.7833 24.2295 20.0004C23.7051 20.2175 23.229 20.5364 22.8287 20.9386L21.394 22.3733C21.2333 22.5341 21.143 22.7521 21.143 22.9794C21.143 23.2067 21.2333 23.4247 21.394 23.5854L32.4143 34.606C32.575 34.7668 32.793 34.857 33.0203 34.857C33.2476 34.857 33.4656 34.7668 33.6264 34.606L35.0611 33.1714C35.4634 32.771 35.7823 32.2948 35.9994 31.7704C36.2165 31.2459 36.3275 30.6837 36.3259 30.1161V25.7789C37.4947 24.6064 38.4209 23.2148 39.0513 21.6839C39.6818 20.153 40.0042 18.5128 40 16.8572ZM24.0408 22.1507C24.2824 21.9082 24.5696 21.7159 24.8859 21.585C25.2022 21.454 25.5413 21.387 25.8836 21.3879H28.5017L25.0612 24.8286L23.2121 22.9795L24.0408 22.1507ZM26.2732 26.0405L31.3875 20.9269C33.2218 19.0814 35.6566 17.9541 38.2506 17.7495C38.0459 20.3434 36.9187 22.7782 35.0731 24.6124L29.9596 29.7268L26.2732 26.0405ZM33.8494 31.9594L33.0207 32.788L31.1714 30.9388L34.6117 27.498V30.1161C34.6127 30.4584 34.5458 30.7976 34.4149 31.1139C34.2841 31.4303 34.0918 31.7176 33.8493 31.9593L33.8494 31.9594Z" fill="white"/>
<path d="M33.6383 22.3609C33.8971 22.6958 34.0261 23.1128 34.0016 23.5352L35.7125 23.649C35.7675 22.7342 35.4578 21.8349 34.8512 21.1479C34.1641 20.5422 33.2653 20.2329 32.3509 20.2874L32.4589 21.9984C32.8829 21.9735 33.3016 22.1022 33.6383 22.3609Z" fill="white"/>
<path d="M30.5656 33.7856L29.3535 34.9977L30.0265 35.6708L28.8143 36.8836L28.4629 36.5322C28.2103 36.2943 27.8943 36.1345 27.5531 36.0719C27.2118 36.0093 26.8597 36.0467 26.5392 36.1795C26.2187 36.3123 25.9433 36.5349 25.7463 36.8205C25.5492 37.106 25.4389 37.4425 25.4286 37.7893V38.2856H23.7143V37.7893C23.7036 37.4426 23.5931 37.1064 23.396 36.8211C23.1989 36.5357 22.9237 36.3133 22.6033 36.1805C22.2829 36.0477 21.931 36.0103 21.5898 36.0726C21.2486 36.135 20.9327 36.2945 20.68 36.532L20.3286 36.8834L19.1165 35.6706L19.4679 35.3198C19.7058 35.0672 19.8656 34.7513 19.9281 34.41C19.9907 34.0688 19.9533 33.7167 19.8205 33.3962C19.6877 33.0756 19.4651 32.8003 19.1795 32.6033C18.8939 32.4063 18.5575 32.296 18.2107 32.2856H17.7143V30.5714H18.2107C18.5573 30.5607 18.8935 30.4502 19.1789 30.2531C19.4643 30.056 19.6867 29.7807 19.8194 29.4603C19.9522 29.1399 19.9896 28.788 19.9273 28.4469C19.8649 28.1057 19.7054 27.7898 19.4679 27.5371L19.1165 27.1856L20.3286 25.9734L21.0024 26.6464L22.2143 25.4343L20.9344 24.1553C20.7737 23.9946 20.5557 23.9043 20.3284 23.9043C20.1011 23.9043 19.8831 23.9946 19.7223 24.1553L17.2982 26.5795C17.1375 26.7402 17.0472 26.9582 17.0472 27.1855C17.0472 27.4128 17.1375 27.6308 17.2982 27.7916L18.2491 28.7382L18.2249 28.8269C18.2195 28.8367 18.2148 28.8467 18.2107 28.8571H16.8571C16.7446 28.857 16.6331 28.8791 16.529 28.9222C16.425 28.9652 16.3305 29.0284 16.2509 29.108C16.1713 29.1876 16.1082 29.2821 16.0651 29.3861C16.0221 29.4901 15.9999 29.6016 16 29.7142V33.1428C15.9999 33.2554 16.0221 33.3669 16.0651 33.4709C16.1082 33.5749 16.1713 33.6694 16.2509 33.749C16.3305 33.8286 16.425 33.8918 16.529 33.9348C16.6331 33.9779 16.7446 34 16.8571 33.9999L18.2006 33.9974C18.2006 33.9974 18.2257 34.0418 18.2435 34.0736C18.2485 34.0887 18.2535 34.1012 18.256 34.1079L17.2982 35.0647C17.1375 35.2254 17.0472 35.4434 17.0472 35.6707C17.0472 35.898 17.1375 36.116 17.2982 36.2768L19.7223 38.7017C19.8831 38.8624 20.1011 38.9527 20.3284 38.9527C20.5557 38.9527 20.7737 38.8624 20.9344 38.7017L21.8811 37.7508L21.9698 37.775C21.9796 37.7804 21.9897 37.7851 22 37.7893V39.1428C21.9999 39.2554 22.0221 39.3669 22.0651 39.4709C22.1082 39.5749 22.1713 39.6694 22.2509 39.749C22.3305 39.8286 22.425 39.8918 22.529 39.9348C22.6331 39.9779 22.7446 40 22.8571 39.9999H26.2857C26.3983 40 26.5098 39.9779 26.6138 39.9348C26.7178 39.8918 26.8123 39.8286 26.892 39.749C26.9716 39.6694 27.0347 39.5749 27.0777 39.4709C27.1208 39.3669 27.1429 39.2554 27.1429 39.1428L27.1404 37.7993C27.1404 37.7993 27.1832 37.7759 27.214 37.7582C27.2299 37.7524 27.2433 37.7474 27.2509 37.744L28.2085 38.7016C28.3723 38.8564 28.5891 38.9427 28.8145 38.9427C29.0399 38.9427 29.2567 38.8564 29.4205 38.7016L31.8446 36.2767C32.0053 36.1159 32.0956 35.8979 32.0956 35.6706C32.0956 35.4433 32.0053 35.2253 31.8446 35.0646L30.5656 33.7856Z" fill="white"/>
<path d="M23.9277 28.9383L23.5009 27.2776C22.7691 27.4665 22.1003 27.8455 21.5622 28.3762C21.0241 28.9069 20.636 29.5704 20.437 30.2995C20.238 31.0286 20.2354 31.7973 20.4293 32.5277C20.6232 33.2582 21.0068 33.9244 21.5412 34.4588C22.0756 34.9932 22.7418 35.3768 23.4723 35.5707C24.2027 35.7646 24.9714 35.762 25.7005 35.563C26.4296 35.364 27.0931 34.9759 27.6238 34.4378C28.1545 33.8997 28.5335 33.2309 28.7224 32.4991L27.0617 32.0723C26.9481 32.511 26.7205 32.9119 26.4021 33.2344C26.0836 33.5569 25.6856 33.7895 25.2483 33.9086C24.8111 34.0277 24.3501 34.0292 23.9121 33.9128C23.474 33.7964 23.0746 33.5664 22.7541 33.2459C22.4336 32.9254 22.2036 32.5259 22.0872 32.0879C21.9708 31.6499 21.9722 31.1889 22.0914 30.7517C22.2105 30.3144 22.4431 29.9164 22.7656 29.5979C23.0881 29.2795 23.489 29.0519 23.9277 28.9383Z" fill="white"/>
</svg>
