<svg width="56" height="56" viewBox="0 0 56 56" fill="none" xmlns="http://www.w3.org/2000/svg">
<rect width="56" height="56" rx="3" fill="#CE2F72"/>
<g clip-path="url(#clip0_9_108)">
<path d="M18.448 21.9754L32.512 18.2074C33.8843 17.8397 35.2943 18.654 35.6611 20.0254L36.1831 21.9729H37.4286C38.8489 21.9729 40 23.124 40 24.5443V35.6872C40 37.1075 38.8489 38.2586 37.4286 38.2586C33.2774 38.2586 22.7226 38.2586 18.5714 38.2586C17.1511 38.2586 16 37.1075 16 35.6872C16 32.8835 16 27.348 16 24.5443C16 23.166 17.0851 22.0406 18.448 21.9754ZM38.2857 27.1157V24.5443C38.2857 24.0712 37.9017 23.6872 37.4286 23.6872H18.5869H18.5791H18.5594C18.0914 23.6932 17.7143 24.0746 17.7143 24.5443V35.6872C17.7143 36.1603 18.0983 36.5443 18.5714 36.5443H37.4286C37.9017 36.5443 38.2857 36.1603 38.2857 35.6872V33.1157H32.2857C31.8314 33.1157 31.3951 32.9349 31.0737 32.6135C30.7523 32.292 30.5714 31.8557 30.5714 31.4015C30.5714 30.6549 30.5714 29.5766 30.5714 28.83C30.5714 28.3757 30.7523 27.9394 31.0737 27.618C31.3951 27.2966 31.8314 27.1157 32.2857 27.1157H38.2857ZM32.2857 28.83V31.4015H38.2857V28.83H32.2857ZM34.4089 21.9729L34.006 20.4695C33.8834 20.0117 33.4129 19.7409 32.956 19.8635L25.0823 21.9729H34.4089Z" fill="white"/>
</g>
<defs>
<clipPath id="clip0_9_108">
<rect width="24" height="24" fill="white" transform="translate(16 16)"/>
</clipPath>
</defs>
</svg>
