<svg width="48" height="48" viewBox="0 0 48 48" fill="none" xmlns="http://www.w3.org/2000/svg">
<circle cx="24" cy="24" r="24" fill="#CE2F72"/>
<path d="M29.9999 16.48C28.4086 14.8887 26.2504 13.9948 23.9999 13.9948C21.7495 13.9948 19.5912 14.8887 17.9999 16.48C16.4086 18.0713 15.5146 20.2296 15.5146 22.48C15.5146 24.7305 16.4086 26.8887 17.9999 28.48L23.2699 33.76C23.3629 33.8538 23.4735 33.9282 23.5954 33.9789C23.7172 34.0297 23.8479 34.0558 23.9799 34.0558C24.1119 34.0558 24.2426 34.0297 24.3645 33.9789C24.4864 33.9282 24.597 33.8538 24.6899 33.76L29.9999 28.43C31.5846 26.8454 32.4748 24.6961 32.4748 22.455C32.4748 20.214 31.5846 18.0647 29.9999 16.48ZM28.5699 27L23.9999 31.59L19.4299 27C18.5271 26.0963 17.9124 24.9453 17.6636 23.6923C17.4148 22.4394 17.5431 21.1408 18.0322 19.9607C18.5213 18.7806 19.3493 17.7721 20.4116 17.0625C21.4738 16.3529 22.7225 15.9742 23.9999 15.9742C25.2773 15.9742 26.5261 16.3529 27.5883 17.0625C28.6505 17.7721 29.4785 18.7806 29.9676 19.9607C30.4567 21.1408 30.585 22.4394 30.3362 23.6923C30.0875 24.9453 29.4728 26.0963 28.5699 27ZM20.9999 19.41C20.1926 20.2198 19.7393 21.3166 19.7393 22.46C19.7393 23.6035 20.1926 24.7003 20.9999 25.51C21.5997 26.1108 22.3635 26.5211 23.1956 26.6894C24.0276 26.8578 24.8909 26.7766 25.677 26.4562C26.4631 26.1358 27.1371 25.5903 27.6144 24.8883C28.0917 24.1863 28.3511 23.3589 28.3599 22.51C28.3644 21.9432 28.2553 21.3813 28.0388 20.8574C27.8224 20.3335 27.5032 19.8584 27.0999 19.46C26.7036 19.0546 26.231 18.7316 25.7094 18.5095C25.1877 18.2874 24.6273 18.1707 24.0603 18.1661C23.4934 18.1614 22.9311 18.2689 22.4059 18.4824C21.8807 18.6959 21.4029 19.0112 20.9999 19.41ZM25.6899 24.09C25.311 24.4748 24.8101 24.7159 24.2731 24.7723C23.736 24.8286 23.196 24.6967 22.7454 24.399C22.2949 24.1012 21.9617 23.6563 21.8029 23.1401C21.6441 22.624 21.6696 22.0687 21.8749 21.5692C22.0802 21.0697 22.4526 20.657 22.9285 20.4018C23.4044 20.1465 23.9542 20.0644 24.4839 20.1696C25.0135 20.2749 25.4902 20.5608 25.8324 20.9786C26.1746 21.3963 26.3611 21.92 26.3599 22.46C26.3454 23.0773 26.0864 23.6636 25.6399 24.09H25.6899Z" fill="white"/>
</svg>
