<svg width="98" height="98" viewBox="0 0 98 98" fill="none" xmlns="http://www.w3.org/2000/svg">
<path d="M83 48.75C83 67.6658 67.6658 83 48.75 83C29.8342 83 14.5 67.6658 14.5 48.75C14.5 29.8342 29.8342 14.5 48.75 14.5C67.6658 14.5 83 29.8342 83 48.75Z" fill="#CE2F72" stroke="white" stroke-width="5"/>
<path d="M45 34H37C35.3431 34 34 35.3431 34 37V51C34 52.6569 35.3431 54 37 54H45C46.6569 54 48 52.6569 48 51V37C48 35.3431 46.6569 34 45 34Z" fill="white"/>
<path d="M45 56H37C35.3431 56 34 57.3431 34 59V61C34 62.6569 35.3431 64 37 64H45C46.6569 64 48 62.6569 48 61V59C48 57.3431 46.6569 56 45 56Z" fill="white"/>
<path d="M61 44H53C51.3431 44 50 45.3431 50 47V61C50 62.6569 51.3431 64 53 64H61C62.6569 64 64 62.6569 64 61V47C64 45.3431 62.6569 44 61 44Z" fill="white"/>
<path d="M61 34H53C51.3431 34 50 35.3431 50 37V39C50 40.6569 51.3431 42 53 42H61C62.6569 42 64 40.6569 64 39V37C64 35.3431 62.6569 34 61 34Z" fill="white"/>
</svg>
