<svg width="98" height="98" viewBox="0 0 98 98" fill="none" xmlns="http://www.w3.org/2000/svg">
<path d="M83 48.75C83 67.6658 67.6658 83 48.75 83C29.8342 83 14.5 67.6658 14.5 48.75C14.5 29.8342 29.8342 14.5 48.75 14.5C67.6658 14.5 83 29.8342 83 48.75Z" fill="#8495B2" stroke="white" stroke-width="5"/>
<path fill-rule="evenodd" clip-rule="evenodd" d="M62.499 44.1L49.7166 52.3165C49.4971 52.4375 49.2506 52.501 49 52.501C48.7494 52.501 48.5028 52.4375 48.2834 52.3165L35.501 44.1V55.9998C35.5009 56.4594 35.5914 56.9146 35.7673 57.3392C35.9431 57.7639 36.2009 58.1497 36.5259 58.4747C36.8509 58.7998 37.2367 59.0576 37.6613 59.2334C38.086 59.4093 38.5411 59.4998 39.0007 59.4998H58.9993C59.4589 59.4998 59.914 59.4093 60.3387 59.2334C60.7633 59.0576 61.1491 58.7998 61.4741 58.4747C61.7991 58.1497 62.0569 57.7639 62.2327 57.3392C62.4086 56.9146 62.4991 56.4594 62.499 55.9998V44.1H62.499ZM35.751 40.704L49 49.2915L62.249 40.704C61.9905 40.0533 61.5425 39.4953 60.963 39.1023C60.3836 38.7093 59.6994 38.4995 58.9993 38.5H39.0007C38.3006 38.4995 37.6164 38.7093 37.037 39.1023C36.4575 39.4953 36.0095 40.0533 35.751 40.704Z" fill="white"/>
</svg>
