<svg width="48" height="48" viewBox="0 0 48 48" fill="none" xmlns="http://www.w3.org/2000/svg">
<circle cx="24" cy="24" r="24" fill="#CE2F72"/>
<path d="M31.4097 25C31.1897 25 30.9597 24.93 30.7397 24.88C30.2945 24.7805 29.8568 24.6501 29.4297 24.49C28.9658 24.3212 28.4558 24.33 27.998 24.5146C27.5402 24.6992 27.1668 25.0466 26.9497 25.49L26.7297 25.95C25.7585 25.3992 24.8613 24.7271 24.0597 23.95C23.2825 23.1484 22.6105 22.2512 22.0597 21.28L22.5197 21.07C22.963 20.8529 23.3105 20.4795 23.4951 20.0217C23.6797 19.5639 23.6885 19.0539 23.5197 18.59C23.3609 18.159 23.2306 17.7181 23.1297 17.27C23.0797 17.05 23.0397 16.82 23.0097 16.6C22.8882 15.8956 22.5193 15.2577 21.9693 14.8012C21.4193 14.3447 20.7244 14.0996 20.0097 14.11H16.9997C16.5769 14.1094 16.1588 14.1982 15.7728 14.3706C15.3868 14.5429 15.0415 14.7949 14.7597 15.11C14.472 15.4337 14.2578 15.8158 14.1318 16.23C14.0058 16.6443 13.9709 17.081 14.0297 17.51C14.5733 21.6721 16.4749 25.5387 19.4397 28.51C22.411 31.4748 26.2775 33.3764 30.4397 33.92C30.5695 33.9299 30.6999 33.9299 30.8297 33.92C31.5671 33.9211 32.2791 33.6505 32.8297 33.16C33.1448 32.8782 33.3968 32.5329 33.5691 32.1469C33.7414 31.7609 33.8302 31.3428 33.8297 30.92V27.92C33.8243 27.229 33.5805 26.5611 33.1396 26.0291C32.6987 25.4971 32.0876 25.1336 31.4097 25ZM31.8997 31C31.8994 31.1395 31.8698 31.2775 31.813 31.4049C31.7562 31.5324 31.6733 31.6465 31.5697 31.74C31.4601 31.8399 31.3297 31.9141 31.1878 31.9573C31.046 32.0006 30.8963 32.0117 30.7497 31.99C27.018 31.5026 23.5499 29.802 20.8797 27.15C18.2072 24.4775 16.4917 20.9974 15.9997 17.25C15.978 17.1033 15.9891 16.9537 16.0324 16.8119C16.0756 16.67 16.1498 16.5396 16.2497 16.43C16.3443 16.3252 16.4601 16.2415 16.5893 16.1847C16.7186 16.1278 16.8585 16.0989 16.9997 16.1H19.9997C20.2308 16.0944 20.4568 16.169 20.6391 16.3112C20.8215 16.4534 20.9489 16.6544 20.9997 16.88C20.9997 17.15 21.0897 17.43 21.1497 17.7C21.2653 18.2239 21.419 18.7386 21.6097 19.24L20.2097 19.9C19.969 20.0105 19.782 20.2119 19.6897 20.46C19.5897 20.7035 19.5897 20.9765 19.6897 21.22C21.1289 24.3028 23.6069 26.7808 26.6897 28.22C26.9331 28.32 27.2062 28.32 27.4497 28.22C27.6978 28.1276 27.8992 27.9406 28.0097 27.7L28.6397 26.3C29.1556 26.4881 29.6834 26.6418 30.2197 26.76C30.4797 26.82 30.7597 26.87 31.0297 26.91C31.2553 26.9608 31.4563 27.0882 31.5985 27.2705C31.7407 27.4529 31.8153 27.6788 31.8097 27.91L31.8997 31ZM25.9997 14C25.7697 14 25.5297 14 25.2997 14C25.0345 14.0225 24.7891 14.1495 24.6175 14.353C24.4459 14.5565 24.3621 14.8198 24.3847 15.085C24.4072 15.3502 24.5342 15.5956 24.7377 15.7672C24.9412 15.9388 25.2045 16.0225 25.4697 16H25.9997C27.591 16 29.1171 16.6321 30.2423 17.7574C31.3675 18.8826 31.9997 20.4087 31.9997 22C31.9997 22.18 31.9997 22.35 31.9997 22.53C31.9775 22.7938 32.0609 23.0556 32.2314 23.2581C32.402 23.4606 32.6459 23.5871 32.9097 23.61H32.9897C33.24 23.611 33.4816 23.5181 33.6668 23.3496C33.8519 23.1811 33.9672 22.9493 33.9897 22.7C33.9897 22.47 33.9897 22.23 33.9897 22C33.9897 19.88 33.1482 17.8467 31.6501 16.3467C30.1519 14.8467 28.1197 14.0027 25.9997 14ZM27.9997 22C27.9997 22.2652 28.105 22.5196 28.2926 22.7071C28.4801 22.8946 28.7345 23 28.9997 23C29.2649 23 29.5193 22.8946 29.7068 22.7071C29.8943 22.5196 29.9997 22.2652 29.9997 22C29.9997 20.9391 29.5783 19.9217 28.8281 19.1716C28.078 18.4214 27.0605 18 25.9997 18C25.7345 18 25.4801 18.1054 25.2926 18.2929C25.105 18.4804 24.9997 18.7348 24.9997 19C24.9997 19.2652 25.105 19.5196 25.2926 19.7071C25.4801 19.8946 25.7345 20 25.9997 20C26.5301 20 27.0388 20.2107 27.4139 20.5858C27.789 20.9609 27.9997 21.4696 27.9997 22Z" fill="#F0FDF4"/>
</svg>
