<svg width="98" height="98" viewBox="0 0 98 98" fill="none" xmlns="http://www.w3.org/2000/svg">
<path d="M83.25 49C83.25 67.9158 67.9158 83.25 49 83.25C30.0842 83.25 14.75 67.9158 14.75 49C14.75 30.0842 30.0842 14.75 49 14.75C67.9158 14.75 83.25 30.0842 83.25 49Z" fill="url(#paint0_linear_14_488)" stroke="white" stroke-width="5"/>
<path d="M42.2625 65.8438C41.0719 65.8438 41.2742 65.3942 40.8636 64.2606L37.3625 52.7381L64.3125 36.75" fill="#C8DAEA"/>
<path d="M42.2625 65.8437C43.1812 65.8437 43.5872 65.4235 44.1 64.925L49 60.1603L42.8879 56.4746" fill="#A9C9DD"/>
<path d="M42.8873 56.4756L57.6975 67.4176C59.3876 68.3501 60.6073 67.8673 61.0283 65.8485L67.0568 37.4399C67.674 34.9653 66.1135 33.8429 64.4967 34.577L29.0973 48.2268C26.681 49.196 26.6951 50.5441 28.6569 51.1448L37.7412 53.9801L58.7723 40.7119C59.7651 40.1098 60.6763 40.4335 59.9284 41.0972" fill="url(#paint1_linear_14_488)"/>
<defs>
<linearGradient id="paint0_linear_14_488" x1="61.2524" y1="24.5025" x2="42.8774" y2="67.375" gradientUnits="userSpaceOnUse">
<stop stop-color="#37AEE2"/>
<stop offset="1" stop-color="#1E96C8"/>
</linearGradient>
<linearGradient id="paint1_linear_14_488" x1="53.5952" y1="48.9997" x2="59.3463" y2="62.0866" gradientUnits="userSpaceOnUse">
<stop stop-color="#EFF7FC"/>
<stop offset="1" stop-color="white"/>
</linearGradient>
</defs>
</svg>
