<svg width="46" height="46" viewBox="0 0 46 46" fill="none" xmlns="http://www.w3.org/2000/svg">
<path d="M38.4907 22.5713C38.4907 31.2846 31.4271 38.3482 22.7137 38.3482C14.0003 38.3482 6.93676 31.2846 6.93676 22.5713C6.93676 13.8579 14.0003 6.7943 22.7137 6.7943C31.4271 6.7943 38.4907 13.8579 38.4907 22.5713Z" fill="url(#paint0_linear_60_2191)" stroke="white" stroke-width="2.30321"/>
<path d="M19.6107 30.3303C19.0622 30.3303 19.1554 30.1232 18.9663 29.601L17.3535 24.2932L29.7678 16.9285" fill="#C8DAEA"/>
<path d="M19.6104 30.3301C20.0336 30.3301 20.2206 30.1365 20.4568 29.9069L22.7139 27.7121L19.8984 26.0143" fill="#A9C9DD"/>
<path d="M19.8983 26.0149L26.7205 31.0552C27.499 31.4848 28.0609 31.2624 28.2548 30.3324L31.0318 17.2462C31.3161 16.1063 30.5972 15.5893 29.8525 15.9275L13.546 22.2152C12.433 22.6616 12.4395 23.2826 13.3432 23.5593L17.5278 24.8654L27.2156 18.7534C27.6729 18.4761 28.0926 18.6252 27.7481 18.931" fill="url(#paint1_linear_60_2191)"/>
<defs>
<linearGradient id="paint0_linear_60_2191" x1="28.3577" y1="11.2867" x2="19.8934" y2="31.0356" gradientUnits="userSpaceOnUse">
<stop stop-color="#37AEE2"/>
<stop offset="1" stop-color="#1E96C8"/>
</linearGradient>
<linearGradient id="paint1_linear_60_2191" x1="24.8308" y1="22.5711" x2="27.48" y2="28.5995" gradientUnits="userSpaceOnUse">
<stop stop-color="#EFF7FC"/>
<stop offset="1" stop-color="white"/>
</linearGradient>
</defs>
</svg>
