<svg width="98" height="98" viewBox="0 0 98 98" fill="none" xmlns="http://www.w3.org/2000/svg">
<path d="M83.25 49C83.25 67.9158 67.9158 83.25 49 83.25C30.0842 83.25 14.75 67.9158 14.75 49C14.75 30.0842 30.0842 14.75 49 14.75C67.9158 14.75 83.25 30.0842 83.25 49Z" fill="#0077FF" stroke="white" stroke-width="5"/>
<path d="M52.7325 60.9025C40.425 60.9025 33.4051 52.465 33.1126 38.425H39.2776C39.4801 48.73 44.025 53.095 47.625 53.995V38.425H53.4302V47.3125C56.9852 46.93 60.7198 42.88 61.9798 38.425H67.7849C66.8174 43.915 62.7674 47.965 59.8874 49.63C62.7674 50.98 67.3801 54.5125 69.1351 60.9025H62.7449C61.3724 56.6275 57.9527 53.32 53.4302 52.87V60.9025H52.7325Z" fill="white"/>
</svg>
