<svg width="46" height="46" viewBox="0 0 46 46" fill="none" xmlns="http://www.w3.org/2000/svg">
<path d="M38.6343 22.5713C38.6343 31.2846 31.5707 38.3482 22.8573 38.3482C14.1439 38.3482 7.08031 31.2846 7.08031 22.5713C7.08031 13.8579 14.1439 6.7943 22.8573 6.7943C31.5707 6.7943 38.6343 13.8579 38.6343 22.5713Z" fill="#0077FF" stroke="white" stroke-width="2.30321"/>
<path d="M24.5768 28.054C18.9075 28.054 15.6738 24.1674 15.5391 17.7H18.3789C18.4722 22.4469 20.5658 24.4576 22.2241 24.8721V17.7H24.8982V21.7939C26.5358 21.6177 28.2561 19.7521 28.8365 17.7H31.5105C31.0649 20.2289 29.1993 22.0945 27.8726 22.8614C29.1993 23.4833 31.3241 25.1105 32.1325 28.054H29.1889C28.5567 26.0848 26.9814 24.5612 24.8982 24.3539V28.054H24.5768Z" fill="white"/>
</svg>
