<svg width="46" height="46" viewBox="0 0 46 46" fill="none" xmlns="http://www.w3.org/2000/svg">
<path fill-rule="evenodd" clip-rule="evenodd" d="M24.1778 5.49263C28.4126 5.69987 32.3587 7.4387 35.3727 10.4417C38.5876 13.6448 40.3571 17.9026 40.3554 22.4305C40.3515 31.7744 32.7121 39.3769 23.3275 39.3769C19.7983 39.3769 16.9939 38.2973 15.1831 37.3143L6.15625 39.6708L8.57204 30.8892C7.0819 28.3192 6.2978 25.404 6.29903 22.4171C6.3028 13.0735 13.9416 5.47168 23.3272 5.47168L24.1778 5.49263ZM15.6013 34.2464L16.1182 34.5516C18.2912 35.8349 20.782 36.514 23.3216 36.5149H23.3274C31.1282 36.5149 37.4772 30.1961 37.4803 22.4296C37.4818 18.666 36.011 15.1271 33.3389 12.4648C30.6667 9.80226 27.1133 8.33514 23.333 8.33392C15.5262 8.33392 9.17716 14.6521 9.17404 22.4181C9.17298 25.0796 9.9212 27.6716 11.3379 29.9141L11.6745 30.4471L10.2447 35.6447L15.6013 34.2464ZM31.906 26.4604C31.7996 26.2836 31.516 26.1777 31.0906 25.9658C30.6651 25.7538 28.5733 24.7294 28.1833 24.588C27.7933 24.4469 27.5096 24.3763 27.226 24.8C26.9424 25.2239 26.127 26.1777 25.8787 26.4604C25.6306 26.7429 25.3824 26.7783 24.957 26.5664C24.5315 26.3545 23.1606 25.9072 21.5355 24.4647C20.2706 23.3418 19.4167 21.9553 19.1685 21.5313C18.9204 21.1075 19.142 20.8782 19.355 20.6672C19.5464 20.4774 19.7806 20.1726 19.9933 19.9253C20.206 19.6781 20.2769 19.5014 20.4188 19.2189C20.5606 18.9362 20.4896 18.6891 20.3833 18.4771C20.2769 18.2651 19.426 16.1808 19.0715 15.3329C18.7261 14.5073 18.3753 14.6191 18.1141 14.6061C17.8663 14.5938 17.5823 14.5912 17.2987 14.5912C17.0151 14.5912 16.5541 14.6971 16.1641 15.1211C15.7741 15.5449 14.675 16.5694 14.675 18.6535C14.675 20.7378 16.1996 22.7512 16.4123 23.0338C16.6251 23.3165 19.4125 27.5933 23.6806 29.4276C24.6957 29.8639 25.4882 30.1244 26.1061 30.3196C27.1254 30.6418 28.0529 30.5964 28.786 30.4873C29.6035 30.3658 31.3033 29.463 31.6578 28.474C32.0124 27.4847 32.0124 26.637 31.906 26.4604Z" fill="white"/>
<mask id="mask0_60_2201" style="mask-type:alpha" maskUnits="userSpaceOnUse" x="9" y="8" width="29" height="29">
<path fill-rule="evenodd" clip-rule="evenodd" d="M15.525 34.3055L16.0434 34.613C18.223 35.9058 20.7215 36.5899 23.2688 36.5908H23.2746C31.0992 36.5908 37.4675 30.2255 37.4707 22.4017C37.4721 18.6104 35.9969 15.0454 33.3167 12.3634C30.6363 9.68131 27.0721 8.20338 23.2803 8.20215C15.4497 8.20215 9.08125 14.5668 9.07813 22.3901C9.07706 25.0712 9.82756 27.6823 11.2486 29.9413L11.5862 30.4783L10.152 35.7142L15.525 34.3055ZM31.8793 26.4622C31.7727 26.2841 31.4882 26.1775 31.0615 25.9639C30.6347 25.7504 28.5365 24.7185 28.1453 24.576C27.7541 24.4339 27.4696 24.3627 27.1851 24.7896C26.9007 25.2166 26.0828 26.1775 25.8337 26.4622C25.5849 26.7468 25.3359 26.7825 24.9092 26.5689C24.4824 26.3555 23.1073 25.905 21.4772 24.4518C20.2085 23.3206 19.352 21.9239 19.103 21.4968C18.8542 21.0698 19.0765 20.8389 19.2901 20.6263C19.4821 20.4351 19.717 20.128 19.9304 19.879C20.1437 19.6299 20.2148 19.4519 20.3571 19.1673C20.4994 18.8826 20.4282 18.6336 20.3216 18.4201C20.2148 18.2065 19.3614 16.1069 19.0057 15.2528C18.6593 14.4211 18.3074 14.5337 18.0455 14.5205C17.7968 14.5082 17.5121 14.5055 17.2276 14.5055C16.9431 14.5055 16.4807 14.6122 16.0895 15.0393C15.6983 15.4663 14.5958 16.4984 14.5958 18.5978C14.5958 20.6975 16.1251 22.7257 16.3385 23.0104C16.5519 23.2952 19.3478 27.6035 23.6289 29.4513C24.6471 29.8908 25.4421 30.1532 26.0618 30.3498C27.0842 30.6745 28.0145 30.6287 28.7499 30.5188C29.5698 30.3964 31.2748 29.4869 31.6305 28.4907C31.9861 27.4941 31.9861 26.6401 31.8793 26.4622Z" fill="black"/>
</mask>
<g mask="url(#mask0_60_2201)">
<path d="M46.9889 -1H-1V46.9889H46.9889V-1Z" fill="url(#paint0_linear_60_2201)"/>
</g>
<defs>
<linearGradient id="paint0_linear_60_2201" x1="22.9945" y1="46.9889" x2="22.9945" y2="-1" gradientUnits="userSpaceOnUse">
<stop stop-color="#25CF43"/>
<stop offset="1" stop-color="#61FD7D"/>
</linearGradient>
</defs>
</svg>
