<svg width="98" height="98" viewBox="0 0 98 98" fill="none" xmlns="http://www.w3.org/2000/svg">
<path fill-rule="evenodd" clip-rule="evenodd" d="M52.4864 11.9244C61.6797 12.3743 70.2462 16.1491 76.7892 22.6683C83.7683 29.6219 87.6098 38.865 87.6061 48.6947C87.5977 68.979 71.0134 85.4833 50.6404 85.4833C42.9791 85.4833 36.891 83.1395 32.9599 81.0055L13.3636 86.1213L18.608 67.0574C15.3731 61.4783 13.6709 55.1497 13.6736 48.6655C13.6818 28.3816 30.2647 11.8789 50.6398 11.8789L52.4864 11.9244ZM33.8677 74.3454L34.9898 75.008C39.7071 77.7941 45.1144 79.2681 50.6277 79.2703H50.6402C67.5748 79.2703 81.3578 65.5529 81.3645 48.6925C81.3677 40.5223 78.175 32.8397 72.3741 27.0601C66.5731 21.2801 58.859 18.0952 50.6525 18.0925C33.7048 18.0925 19.9217 31.8085 19.9149 48.6676C19.9126 54.4454 21.5369 60.0723 24.6125 64.9405L25.343 66.0976L22.2392 77.3812L33.8677 74.3454ZM69.2633 57.443C69.0325 57.0593 68.4169 56.8294 67.4932 56.3692C66.5696 55.9091 62.0285 53.6853 61.1818 53.3783C60.3352 53.0719 59.7193 52.9186 59.1037 53.8386C58.488 54.7587 56.7179 56.8294 56.1789 57.443C55.6403 58.0564 55.1014 58.1332 54.178 57.673C53.2543 57.2131 50.2781 56.2421 46.7501 53.1105C44.0043 50.6729 42.1505 47.6629 41.6117 46.7426C41.0731 45.8225 41.5543 45.3248 42.0166 44.8666C42.4322 44.4546 42.9405 43.7928 43.4023 43.2561C43.8641 42.7195 44.0179 42.3358 44.3259 41.7225C44.6338 41.1089 44.4798 40.5723 44.2489 40.1122C44.0179 39.6519 42.1708 35.1272 41.4012 33.2866C40.6512 31.4943 39.8898 31.737 39.3228 31.7086C38.7847 31.6821 38.1684 31.6763 37.5527 31.6763C36.9369 31.6763 35.9362 31.9061 35.0896 32.8266C34.2429 33.7467 31.8568 35.9709 31.8568 40.4952C31.8568 45.02 35.1666 49.3907 35.6284 50.0043C36.0902 50.6181 42.1415 59.9024 51.407 63.8845C53.6107 64.8317 55.3312 65.3971 56.6726 65.8208C58.8853 66.5204 60.8987 66.4219 62.4903 66.1851C64.2649 65.9212 67.955 63.9613 68.7247 61.8144C69.4943 59.6667 69.4943 57.8263 69.2633 57.443Z" fill="white"/>
<mask id="mask0_14_500" style="mask-type:alpha" maskUnits="userSpaceOnUse" x="19" y="17" width="63" height="63">
<path fill-rule="evenodd" clip-rule="evenodd" d="M33.7039 74.4737L34.8294 75.1412C39.5611 77.9477 44.9849 79.4326 50.515 79.4348H50.5275C67.5138 79.4348 81.3388 65.6163 81.3455 48.6317C81.3487 40.4012 78.1462 32.6621 72.3277 26.8398C66.509 21.0172 58.7714 17.8088 50.5398 17.8062C33.5405 17.8062 19.7154 31.6232 19.7086 48.6066C19.7063 54.427 21.3355 60.0954 24.4205 64.9994L25.1532 66.1651L22.0399 77.5318L33.7039 74.4737ZM69.2074 57.4466C68.9759 57.0601 68.3584 56.8285 67.4319 56.365C66.5054 55.9014 61.9505 53.6613 61.1013 53.352C60.252 53.0433 59.6343 52.8889 59.0168 53.8157C58.3993 54.7426 56.6238 56.8285 56.0831 57.4466C55.5428 58.0645 55.0023 58.1419 54.0761 57.6784C53.1496 57.215 50.1643 56.2369 46.6256 53.0822C43.8713 50.6267 42.012 47.5944 41.4715 46.6674C40.9312 45.7405 41.4139 45.2391 41.8777 44.7775C42.2945 44.3625 42.8043 43.6959 43.2675 43.1552C43.7308 42.6146 43.8851 42.2281 44.194 41.6103C44.5028 40.9922 44.3483 40.4517 44.1168 39.9881C43.8851 39.5244 42.0323 34.9664 41.2603 33.1122C40.5081 31.3067 39.7443 31.5512 39.1757 31.5226C38.6359 31.4959 38.0177 31.49 37.4002 31.49C36.7824 31.49 35.7787 31.7216 34.9295 32.6489C34.0803 33.5758 31.6869 35.8163 31.6869 40.3739C31.6869 44.9321 35.0067 49.335 35.47 49.9531C35.9332 50.5714 42.0029 59.9242 51.2966 63.9356C53.507 64.8898 55.2328 65.4594 56.5783 65.8862C58.7978 66.591 60.8173 66.4917 62.4137 66.2531C64.1937 65.9873 67.8951 64.013 68.6671 61.8502C69.4391 59.6867 69.4391 57.8328 69.2074 57.4466Z" fill="black"/>
</mask>
<g mask="url(#mask0_14_500)">
<path d="M101.443 -2.71606H-2.73505V101.462H101.443V-2.71606Z" fill="url(#paint0_linear_14_500)"/>
</g>
<defs>
<linearGradient id="paint0_linear_14_500" x1="49.3543" y1="101.462" x2="49.3543" y2="-2.71606" gradientUnits="userSpaceOnUse">
<stop stop-color="#25CF43"/>
<stop offset="1" stop-color="#61FD7D"/>
</linearGradient>
</defs>
</svg>
