<svg width="214" height="139" viewBox="0 0 214 139" fill="none" xmlns="http://www.w3.org/2000/svg">
<ellipse cx="2" cy="2.90284" rx="2" ry="1.97315" fill="#E31E1E"/>
<ellipse cx="2" cy="62.0974" rx="2" ry="1.97315" fill="#E31E1E"/>
<ellipse cx="2" cy="32.5001" rx="2" ry="1.97315" fill="#E31E1E"/>
<ellipse cx="2" cy="91.6947" rx="2" ry="1.97315" fill="#E31E1E"/>
<ellipse cx="2" cy="17.7015" rx="2" ry="1.97315" fill="#E31E1E"/>
<ellipse cx="2" cy="76.8961" rx="2" ry="1.97315" fill="#E31E1E"/>
<ellipse cx="2" cy="47.2988" rx="2" ry="1.97315" fill="#E31E1E"/>
<ellipse cx="2" cy="106.493" rx="2" ry="1.97315" fill="#E31E1E"/>
<ellipse cx="92" cy="2.90284" rx="2" ry="1.97315" fill="#E31E1E"/>
<ellipse cx="92" cy="121.292" rx="2" ry="1.97315" fill="#E31E1E"/>
<ellipse cx="92" cy="62.0974" rx="2" ry="1.97315" fill="#E31E1E"/>
<ellipse cx="92" cy="32.5001" rx="2" ry="1.97315" fill="#E31E1E"/>
<ellipse cx="92" cy="91.6947" rx="2" ry="1.97315" fill="#E31E1E"/>
<ellipse cx="92" cy="17.7015" rx="2" ry="1.97315" fill="#E31E1E"/>
<ellipse cx="92" cy="136.091" rx="2" ry="1.97315" fill="#E31E1E"/>
<ellipse cx="92" cy="76.8961" rx="2" ry="1.97315" fill="#E31E1E"/>
<ellipse cx="92" cy="47.2988" rx="2" ry="1.97315" fill="#E31E1E"/>
<ellipse cx="92" cy="106.493" rx="2" ry="1.97315" fill="#E31E1E"/>
<ellipse cx="17" cy="2.90284" rx="2" ry="1.97315" fill="#E31E1E"/>
<ellipse cx="17" cy="62.0974" rx="2" ry="1.97315" fill="#E31E1E"/>
<ellipse cx="17" cy="32.5001" rx="2" ry="1.97315" fill="#E31E1E"/>
<ellipse cx="17" cy="91.6947" rx="2" ry="1.97315" fill="#E31E1E"/>
<ellipse cx="17" cy="17.7015" rx="2" ry="1.97315" fill="#E31E1E"/>
<ellipse cx="17" cy="76.8961" rx="2" ry="1.97315" fill="#E31E1E"/>
<ellipse cx="17" cy="47.2988" rx="2" ry="1.97315" fill="#E31E1E"/>
<ellipse cx="17" cy="106.493" rx="2" ry="1.97315" fill="#E31E1E"/>
<ellipse cx="107" cy="2.90284" rx="2" ry="1.97315" fill="#E31E1E"/>
<ellipse cx="107" cy="121.292" rx="2" ry="1.97315" fill="#E31E1E"/>
<ellipse cx="107" cy="62.0974" rx="2" ry="1.97315" fill="#E31E1E"/>
<ellipse cx="107" cy="32.5001" rx="2" ry="1.97315" fill="#E31E1E"/>
<ellipse cx="107" cy="91.6947" rx="2" ry="1.97315" fill="#E31E1E"/>
<ellipse cx="107" cy="17.7015" rx="2" ry="1.97315" fill="#E31E1E"/>
<ellipse cx="107" cy="136.091" rx="2" ry="1.97315" fill="#E31E1E"/>
<ellipse cx="107" cy="76.8961" rx="2" ry="1.97315" fill="#E31E1E"/>
<ellipse cx="107" cy="47.2988" rx="2" ry="1.97315" fill="#E31E1E"/>
<ellipse cx="107" cy="106.493" rx="2" ry="1.97315" fill="#E31E1E"/>
<ellipse cx="32" cy="2.90284" rx="2" ry="1.97315" fill="#E31E1E"/>
<ellipse cx="32" cy="121.292" rx="2" ry="1.97315" fill="#E31E1E"/>
<ellipse cx="32" cy="62.0974" rx="2" ry="1.97315" fill="#E31E1E"/>
<ellipse cx="32" cy="32.5001" rx="2" ry="1.97315" fill="#E31E1E"/>
<ellipse cx="32" cy="91.6947" rx="2" ry="1.97315" fill="#E31E1E"/>
<ellipse cx="32" cy="17.7015" rx="2" ry="1.97315" fill="#E31E1E"/>
<ellipse cx="32" cy="136.091" rx="2" ry="1.97315" fill="#E31E1E"/>
<ellipse cx="32" cy="76.8961" rx="2" ry="1.97315" fill="#E31E1E"/>
<ellipse cx="32" cy="47.2988" rx="2" ry="1.97315" fill="#E31E1E"/>
<ellipse cx="32" cy="106.493" rx="2" ry="1.97315" fill="#E31E1E"/>
<ellipse cx="122" cy="2.90284" rx="2" ry="1.97315" fill="#E31E1E"/>
<ellipse cx="122" cy="121.292" rx="2" ry="1.97315" fill="#E31E1E"/>
<ellipse cx="122" cy="62.0974" rx="2" ry="1.97315" fill="#E31E1E"/>
<ellipse cx="122" cy="32.5001" rx="2" ry="1.97315" fill="#E31E1E"/>
<ellipse cx="122" cy="91.6947" rx="2" ry="1.97315" fill="#E31E1E"/>
<ellipse cx="122" cy="17.7015" rx="2" ry="1.97315" fill="#E31E1E"/>
<ellipse cx="122" cy="136.091" rx="2" ry="1.97315" fill="#E31E1E"/>
<ellipse cx="122" cy="76.8961" rx="2" ry="1.97315" fill="#E31E1E"/>
<ellipse cx="122" cy="47.2988" rx="2" ry="1.97315" fill="#E31E1E"/>
<ellipse cx="122" cy="106.493" rx="2" ry="1.97315" fill="#E31E1E"/>
<ellipse cx="47" cy="2.90284" rx="2" ry="1.97315" fill="#E31E1E"/>
<ellipse cx="47" cy="121.292" rx="2" ry="1.97315" fill="#E31E1E"/>
<ellipse cx="47" cy="62.0974" rx="2" ry="1.97315" fill="#E31E1E"/>
<ellipse cx="47" cy="32.5001" rx="2" ry="1.97315" fill="#E31E1E"/>
<ellipse cx="47" cy="91.6947" rx="2" ry="1.97315" fill="#E31E1E"/>
<ellipse cx="47" cy="17.7015" rx="2" ry="1.97315" fill="#E31E1E"/>
<ellipse cx="47" cy="136.091" rx="2" ry="1.97315" fill="#E31E1E"/>
<ellipse cx="47" cy="76.8961" rx="2" ry="1.97315" fill="#E31E1E"/>
<ellipse cx="47" cy="47.2988" rx="2" ry="1.97315" fill="#E31E1E"/>
<ellipse cx="47" cy="106.493" rx="2" ry="1.97315" fill="#E31E1E"/>
<ellipse cx="137" cy="2.90284" rx="2" ry="1.97315" fill="#E31E1E"/>
<ellipse cx="137" cy="121.292" rx="2" ry="1.97315" fill="#E31E1E"/>
<ellipse cx="182" cy="121.292" rx="2" ry="1.97315" fill="#E31E1E"/>
<ellipse cx="137" cy="62.0974" rx="2" ry="1.97315" fill="#E31E1E"/>
<ellipse cx="182" cy="62.0974" rx="2" ry="1.97315" fill="#E31E1E"/>
<ellipse cx="137" cy="32.5001" rx="2" ry="1.97315" fill="#E31E1E"/>
<ellipse cx="182" cy="32.5001" rx="2" ry="1.97315" fill="#E31E1E"/>
<ellipse cx="137" cy="91.6947" rx="2" ry="1.97315" fill="#E31E1E"/>
<ellipse cx="182" cy="91.6947" rx="2" ry="1.97315" fill="#E31E1E"/>
<ellipse cx="137" cy="17.7015" rx="2" ry="1.97315" fill="#E31E1E"/>
<ellipse cx="137" cy="136.091" rx="2" ry="1.97315" fill="#E31E1E"/>
<ellipse cx="182" cy="136.091" rx="2" ry="1.97315" fill="#E31E1E"/>
<ellipse cx="137" cy="76.8961" rx="2" ry="1.97315" fill="#E31E1E"/>
<ellipse cx="182" cy="76.8961" rx="2" ry="1.97315" fill="#E31E1E"/>
<ellipse cx="137" cy="47.2988" rx="2" ry="1.97315" fill="#E31E1E"/>
<ellipse cx="182" cy="47.2988" rx="2" ry="1.97315" fill="#E31E1E"/>
<ellipse cx="137" cy="106.493" rx="2" ry="1.97315" fill="#E31E1E"/>
<ellipse cx="182" cy="106.493" rx="2" ry="1.97315" fill="#E31E1E"/>
<ellipse cx="62" cy="2.90284" rx="2" ry="1.97315" fill="#E31E1E"/>
<ellipse cx="62" cy="121.292" rx="2" ry="1.97315" fill="#E31E1E"/>
<ellipse cx="62" cy="62.0974" rx="2" ry="1.97315" fill="#E31E1E"/>
<ellipse cx="62" cy="32.5001" rx="2" ry="1.97315" fill="#E31E1E"/>
<ellipse cx="62" cy="91.6947" rx="2" ry="1.97315" fill="#E31E1E"/>
<ellipse cx="62" cy="17.7015" rx="2" ry="1.97315" fill="#E31E1E"/>
<ellipse cx="62" cy="136.091" rx="2" ry="1.97315" fill="#E31E1E"/>
<ellipse cx="62" cy="76.8961" rx="2" ry="1.97315" fill="#E31E1E"/>
<ellipse cx="62" cy="47.2988" rx="2" ry="1.97315" fill="#E31E1E"/>
<ellipse cx="62" cy="106.493" rx="2" ry="1.97315" fill="#E31E1E"/>
<ellipse cx="152" cy="2.90284" rx="2" ry="1.97315" fill="#E31E1E"/>
<ellipse cx="152" cy="121.292" rx="2" ry="1.97315" fill="#E31E1E"/>
<ellipse cx="197" cy="121.292" rx="2" ry="1.97315" fill="#E31E1E"/>
<ellipse cx="152" cy="62.0974" rx="2" ry="1.97315" fill="#E31E1E"/>
<ellipse cx="197" cy="62.0974" rx="2" ry="1.97315" fill="#E31E1E"/>
<ellipse cx="152" cy="32.5001" rx="2" ry="1.97315" fill="#E31E1E"/>
<ellipse cx="197" cy="32.5001" rx="2" ry="1.97315" fill="#E31E1E"/>
<ellipse cx="152" cy="91.6947" rx="2" ry="1.97315" fill="#E31E1E"/>
<ellipse cx="197" cy="91.6947" rx="2" ry="1.97315" fill="#E31E1E"/>
<ellipse cx="152" cy="17.7015" rx="2" ry="1.97315" fill="#E31E1E"/>
<ellipse cx="152" cy="136.091" rx="2" ry="1.97315" fill="#E31E1E"/>
<ellipse cx="197" cy="136.091" rx="2" ry="1.97315" fill="#E31E1E"/>
<ellipse cx="152" cy="76.8961" rx="2" ry="1.97315" fill="#E31E1E"/>
<ellipse cx="197" cy="76.8961" rx="2" ry="1.97315" fill="#E31E1E"/>
<ellipse cx="152" cy="47.2988" rx="2" ry="1.97315" fill="#E31E1E"/>
<ellipse cx="197" cy="47.2988" rx="2" ry="1.97315" fill="#E31E1E"/>
<ellipse cx="152" cy="106.493" rx="2" ry="1.97315" fill="#E31E1E"/>
<ellipse cx="197" cy="106.493" rx="2" ry="1.97315" fill="#E31E1E"/>
<ellipse cx="77" cy="2.90284" rx="2" ry="1.97315" fill="#E31E1E"/>
<ellipse cx="77" cy="121.292" rx="2" ry="1.97315" fill="#E31E1E"/>
<ellipse cx="77" cy="62.0974" rx="2" ry="1.97315" fill="#E31E1E"/>
<ellipse cx="77" cy="32.5001" rx="2" ry="1.97315" fill="#E31E1E"/>
<ellipse cx="77" cy="91.6947" rx="2" ry="1.97315" fill="#E31E1E"/>
<ellipse cx="77" cy="17.7015" rx="2" ry="1.97315" fill="#E31E1E"/>
<ellipse cx="77" cy="136.091" rx="2" ry="1.97315" fill="#E31E1E"/>
<ellipse cx="77" cy="76.8961" rx="2" ry="1.97315" fill="#E31E1E"/>
<ellipse cx="77" cy="47.2988" rx="2" ry="1.97315" fill="#E31E1E"/>
<ellipse cx="77" cy="106.493" rx="2" ry="1.97315" fill="#E31E1E"/>
<ellipse cx="167" cy="2.90284" rx="2" ry="1.97315" fill="#E31E1E"/>
<ellipse cx="167" cy="121.292" rx="2" ry="1.97315" fill="#E31E1E"/>
<ellipse cx="212" cy="121.292" rx="2" ry="1.97315" fill="#E31E1E"/>
<ellipse cx="167" cy="62.0974" rx="2" ry="1.97315" fill="#E31E1E"/>
<ellipse cx="212" cy="62.0974" rx="2" ry="1.97315" fill="#E31E1E"/>
<ellipse cx="167" cy="32.5001" rx="2" ry="1.97315" fill="#E31E1E"/>
<ellipse cx="212" cy="32.5001" rx="2" ry="1.97315" fill="#E31E1E"/>
<ellipse cx="167" cy="91.6947" rx="2" ry="1.97315" fill="#E31E1E"/>
<ellipse cx="212" cy="91.6947" rx="2" ry="1.97315" fill="#E31E1E"/>
<ellipse cx="167" cy="17.7015" rx="2" ry="1.97315" fill="#E31E1E"/>
<ellipse cx="167" cy="136.091" rx="2" ry="1.97315" fill="#E31E1E"/>
<ellipse cx="212" cy="136.091" rx="2" ry="1.97315" fill="#E31E1E"/>
<ellipse cx="167" cy="76.8961" rx="2" ry="1.97315" fill="#E31E1E"/>
<ellipse cx="212" cy="76.8961" rx="2" ry="1.97315" fill="#E31E1E"/>
<ellipse cx="167" cy="47.2988" rx="2" ry="1.97315" fill="#E31E1E"/>
<ellipse cx="212" cy="47.2988" rx="2" ry="1.97315" fill="#E31E1E"/>
<ellipse cx="167" cy="106.493" rx="2" ry="1.97315" fill="#E31E1E"/>
<ellipse cx="212" cy="106.493" rx="2" ry="1.97315" fill="#E31E1E"/>
</svg>
