<svg width="22" height="15" viewBox="0 0 22 15" fill="none" xmlns="http://www.w3.org/2000/svg">
<path d="M21.8657 7.65741L14.9907 14.5324C14.8117 14.7114 14.5216 14.7114 14.3426 14.5324C14.1636 14.3533 14.1636 14.0633 14.3426 13.8843L20.4352 7.79161H0.458281C0.204981 7.79161 -1.90735e-05 7.58661 -1.90735e-05 7.33331C-1.90735e-05 7.07991 0.204981 6.87491 0.458281 6.87491H20.4352L14.3426 0.78237C14.1636 0.60332 14.1636 0.31328 14.3426 0.13428C14.4321 0.04477 14.5494 0 14.6667 0C14.7839 0 14.9012 0.04477 14.9908 0.13428L21.8658 7.00931C22.0448 7.18831 22.0448 7.47831 21.8657 7.65741Z" fill="white"/>
</svg>
