<svg width="28" height="49" viewBox="0 0 28 49" fill="none" xmlns="http://www.w3.org/2000/svg">
<g clip-path="url(#clip0)">
<path d="M4.34971 24.8161L25.6148 3.55097C26.4156 2.75021 26.5898 1.6262 26.004 1.04041C25.4183 0.454628 24.2942 0.628894 23.4935 1.42965L2.22839 22.6947C1.42763 23.4955 1.25336 24.6195 1.83915 25.2053C2.42494 25.7911 3.54895 25.6168 4.34971 24.8161Z" fill="white"/>
<path d="M4.48716 24.3851L25.7523 45.6502C26.553 46.451 26.7273 47.575 26.1415 48.1608C25.5557 48.7465 24.4317 48.5723 23.6309 47.7715L2.36584 26.5064C1.56509 25.7057 1.39082 24.5817 1.97661 23.9959C2.5624 23.4101 3.68641 23.5844 4.48716 24.3851Z" fill="white"/>
</g>
<defs>
<clipPath id="clip0">
<rect width="49" height="28" fill="white" transform="matrix(4.37114e-08 1 1 -4.37114e-08 0 0)"/>
</clipPath>
</defs>
</svg>
