<svg width="60" height="60" viewBox="0 0 60 60" fill="none" xmlns="http://www.w3.org/2000/svg">
<circle cx="30" cy="30" r="27" fill="#CE2F72" stroke="#F7F8F9" stroke-width="6"/>
<path d="M38.3876 24.0126C38.2714 23.8954 38.1331 23.8024 37.9808 23.739C37.8285 23.6755 37.6651 23.6428 37.5001 23.6428C37.335 23.6428 37.1717 23.6755 37.0193 23.739C36.867 23.8024 36.7288 23.8954 36.6126 24.0126L27.3001 33.3376L23.3876 29.4126C23.2669 29.296 23.1245 29.2044 22.9684 29.1429C22.8123 29.0814 22.6457 29.0512 22.478 29.0541C22.3102 29.057 22.1447 29.0929 21.9909 29.1598C21.837 29.2267 21.6979 29.3232 21.5813 29.4438C21.4648 29.5645 21.3731 29.7069 21.3116 29.863C21.2501 30.019 21.2199 30.1857 21.2228 30.3534C21.2257 30.5211 21.2617 30.6867 21.3285 30.8405C21.3954 30.9944 21.4919 31.1335 21.6126 31.2501L26.4126 36.0501C26.5288 36.1672 26.667 36.2602 26.8193 36.3237C26.9717 36.3871 27.135 36.4198 27.3001 36.4198C27.4651 36.4198 27.6285 36.3871 27.7808 36.3237C27.9331 36.2602 28.0714 36.1672 28.1876 36.0501L38.3876 25.8501C38.5144 25.733 38.6157 25.591 38.685 25.4328C38.7542 25.2747 38.79 25.1039 38.79 24.9313C38.79 24.7587 38.7542 24.5879 38.685 24.4298C38.6157 24.2717 38.5144 24.1296 38.3876 24.0126Z" fill="white"/>
</svg>
