<svg width="94" height="85" viewBox="0 0 94 85" fill="none" xmlns="http://www.w3.org/2000/svg">
<circle cx="1.50884" cy="1.71258" r="1.23675" fill="#E31E1E"/>
<circle cx="1.50884" cy="37.9905" r="1.23675" fill="#E31E1E"/>
<circle cx="1.50884" cy="19.8516" r="1.23675" fill="#E31E1E"/>
<circle cx="1.50884" cy="56.1296" r="1.23675" fill="#E31E1E"/>
<circle cx="1.50884" cy="74.2686" r="1.23675" fill="#E31E1E"/>
<circle cx="1.50884" cy="10.782" r="1.23675" fill="#E31E1E"/>
<circle cx="1.50884" cy="47.0601" r="1.23675" fill="#E31E1E"/>
<circle cx="1.50884" cy="28.9211" r="1.23675" fill="#E31E1E"/>
<circle cx="1.50884" cy="65.199" r="1.23675" fill="#E31E1E"/>
<circle cx="1.50884" cy="83.3381" r="1.23675" fill="#E31E1E"/>
<circle cx="10.5784" cy="1.71258" r="1.23675" fill="#E31E1E"/>
<circle cx="10.5784" cy="37.9905" r="1.23675" fill="#E31E1E"/>
<circle cx="10.5784" cy="19.8516" r="1.23675" fill="#E31E1E"/>
<circle cx="10.5784" cy="56.1296" r="1.23675" fill="#E31E1E"/>
<circle cx="10.5784" cy="74.2686" r="1.23675" fill="#E31E1E"/>
<circle cx="10.5784" cy="10.782" r="1.23675" fill="#E31E1E"/>
<circle cx="10.5784" cy="47.0601" r="1.23675" fill="#E31E1E"/>
<circle cx="10.5784" cy="28.9211" r="1.23675" fill="#E31E1E"/>
<circle cx="10.5784" cy="65.199" r="1.23675" fill="#E31E1E"/>
<circle cx="10.5784" cy="83.3381" r="1.23675" fill="#E31E1E"/>
<circle cx="19.6478" cy="1.71258" r="1.23675" fill="#E31E1E"/>
<circle cx="19.6478" cy="37.9905" r="1.23675" fill="#E31E1E"/>
<circle cx="19.6478" cy="19.8516" r="1.23675" fill="#E31E1E"/>
<circle cx="19.6478" cy="56.1296" r="1.23675" fill="#E31E1E"/>
<circle cx="19.6478" cy="74.2686" r="1.23675" fill="#E31E1E"/>
<circle cx="19.6478" cy="10.782" r="1.23675" fill="#E31E1E"/>
<circle cx="19.6478" cy="47.0601" r="1.23675" fill="#E31E1E"/>
<circle cx="19.6478" cy="28.9211" r="1.23675" fill="#E31E1E"/>
<circle cx="19.6478" cy="65.199" r="1.23675" fill="#E31E1E"/>
<circle cx="19.6478" cy="83.3381" r="1.23675" fill="#E31E1E"/>
<circle cx="28.7173" cy="1.71258" r="1.23675" fill="#E31E1E"/>
<circle cx="64.9953" cy="1.71258" r="1.23675" fill="#E31E1E"/>
<circle cx="28.7173" cy="37.9905" r="1.23675" fill="#E31E1E"/>
<circle cx="64.9953" cy="37.9905" r="1.23675" fill="#E31E1E"/>
<circle cx="28.7173" cy="19.8516" r="1.23675" fill="#E31E1E"/>
<circle cx="64.9953" cy="19.8516" r="1.23675" fill="#E31E1E"/>
<circle cx="28.7173" cy="56.1296" r="1.23675" fill="#E31E1E"/>
<circle cx="28.7173" cy="74.2686" r="1.23675" fill="#E31E1E"/>
<circle cx="64.9953" cy="56.1296" r="1.23675" fill="#E31E1E"/>
<circle cx="64.9953" cy="74.2686" r="1.23675" fill="#E31E1E"/>
<circle cx="28.7173" cy="10.782" r="1.23675" fill="#E31E1E"/>
<circle cx="64.9953" cy="10.782" r="1.23675" fill="#E31E1E"/>
<circle cx="28.7173" cy="47.0601" r="1.23675" fill="#E31E1E"/>
<circle cx="64.9953" cy="47.0601" r="1.23675" fill="#E31E1E"/>
<circle cx="28.7173" cy="28.9211" r="1.23675" fill="#E31E1E"/>
<circle cx="64.9953" cy="28.9211" r="1.23675" fill="#E31E1E"/>
<circle cx="28.7173" cy="65.199" r="1.23675" fill="#E31E1E"/>
<circle cx="28.7173" cy="83.3381" r="1.23675" fill="#E31E1E"/>
<circle cx="64.9953" cy="65.199" r="1.23675" fill="#E31E1E"/>
<circle cx="64.9953" cy="83.3381" r="1.23675" fill="#E31E1E"/>
<circle cx="37.7868" cy="1.71258" r="1.23675" fill="#E31E1E"/>
<circle cx="74.0648" cy="1.71258" r="1.23675" fill="#E31E1E"/>
<circle cx="37.7868" cy="37.9905" r="1.23675" fill="#E31E1E"/>
<circle cx="74.0648" cy="37.9905" r="1.23675" fill="#E31E1E"/>
<circle cx="37.7868" cy="19.8516" r="1.23675" fill="#E31E1E"/>
<circle cx="74.0648" cy="19.8516" r="1.23675" fill="#E31E1E"/>
<circle cx="37.7868" cy="56.1296" r="1.23675" fill="#E31E1E"/>
<circle cx="37.7868" cy="74.2686" r="1.23675" fill="#E31E1E"/>
<circle cx="74.0648" cy="56.1296" r="1.23675" fill="#E31E1E"/>
<circle cx="74.0648" cy="74.2686" r="1.23675" fill="#E31E1E"/>
<circle cx="37.7868" cy="10.782" r="1.23675" fill="#E31E1E"/>
<circle cx="74.0648" cy="10.782" r="1.23675" fill="#E31E1E"/>
<circle cx="37.7868" cy="47.0601" r="1.23675" fill="#E31E1E"/>
<circle cx="74.0648" cy="47.0601" r="1.23675" fill="#E31E1E"/>
<circle cx="37.7868" cy="28.9211" r="1.23675" fill="#E31E1E"/>
<circle cx="74.0648" cy="28.9211" r="1.23675" fill="#E31E1E"/>
<circle cx="37.7868" cy="65.199" r="1.23675" fill="#E31E1E"/>
<circle cx="37.7868" cy="83.3381" r="1.23675" fill="#E31E1E"/>
<circle cx="74.0648" cy="65.199" r="1.23675" fill="#E31E1E"/>
<circle cx="74.0648" cy="83.3381" r="1.23675" fill="#E31E1E"/>
<circle cx="46.8563" cy="1.71258" r="1.23675" fill="#E31E1E"/>
<circle cx="83.1343" cy="1.71258" r="1.23675" fill="#E31E1E"/>
<circle cx="46.8563" cy="37.9905" r="1.23675" fill="#E31E1E"/>
<circle cx="83.1343" cy="37.9905" r="1.23675" fill="#E31E1E"/>
<circle cx="46.8563" cy="19.8516" r="1.23675" fill="#E31E1E"/>
<circle cx="83.1343" cy="19.8516" r="1.23675" fill="#E31E1E"/>
<circle cx="46.8563" cy="56.1296" r="1.23675" fill="#E31E1E"/>
<circle cx="46.8563" cy="74.2686" r="1.23675" fill="#E31E1E"/>
<circle cx="83.1343" cy="56.1296" r="1.23675" fill="#E31E1E"/>
<circle cx="83.1343" cy="74.2686" r="1.23675" fill="#E31E1E"/>
<circle cx="46.8563" cy="10.782" r="1.23675" fill="#E31E1E"/>
<circle cx="83.1343" cy="10.782" r="1.23675" fill="#E31E1E"/>
<circle cx="46.8563" cy="47.0601" r="1.23675" fill="#E31E1E"/>
<circle cx="83.1343" cy="47.0601" r="1.23675" fill="#E31E1E"/>
<circle cx="46.8563" cy="28.9211" r="1.23675" fill="#E31E1E"/>
<circle cx="83.1343" cy="28.9211" r="1.23675" fill="#E31E1E"/>
<circle cx="46.8563" cy="65.199" r="1.23675" fill="#E31E1E"/>
<circle cx="46.8563" cy="83.3381" r="1.23675" fill="#E31E1E"/>
<circle cx="83.1343" cy="65.199" r="1.23675" fill="#E31E1E"/>
<circle cx="83.1343" cy="83.3381" r="1.23675" fill="#E31E1E"/>
<circle cx="55.9258" cy="1.71258" r="1.23675" fill="#E31E1E"/>
<circle cx="92.2038" cy="1.71258" r="1.23675" fill="#E31E1E"/>
<circle cx="55.9258" cy="37.9905" r="1.23675" fill="#E31E1E"/>
<circle cx="92.2038" cy="37.9905" r="1.23675" fill="#E31E1E"/>
<circle cx="55.9258" cy="19.8516" r="1.23675" fill="#E31E1E"/>
<circle cx="92.2038" cy="19.8516" r="1.23675" fill="#E31E1E"/>
<circle cx="55.9258" cy="56.1296" r="1.23675" fill="#E31E1E"/>
<circle cx="55.9258" cy="74.2686" r="1.23675" fill="#E31E1E"/>
<circle cx="92.2038" cy="56.1296" r="1.23675" fill="#E31E1E"/>
<circle cx="92.2038" cy="74.2686" r="1.23675" fill="#E31E1E"/>
<circle cx="55.9258" cy="10.782" r="1.23675" fill="#E31E1E"/>
<circle cx="92.2038" cy="10.782" r="1.23675" fill="#E31E1E"/>
<circle cx="55.9258" cy="47.0601" r="1.23675" fill="#E31E1E"/>
<circle cx="92.2038" cy="47.0601" r="1.23675" fill="#E31E1E"/>
<circle cx="55.9258" cy="28.9211" r="1.23675" fill="#E31E1E"/>
<circle cx="92.2038" cy="28.9211" r="1.23675" fill="#E31E1E"/>
<circle cx="55.9258" cy="65.199" r="1.23675" fill="#E31E1E"/>
<circle cx="55.9258" cy="83.3381" r="1.23675" fill="#E31E1E"/>
<circle cx="92.2038" cy="65.199" r="1.23675" fill="#E31E1E"/>
<circle cx="92.2038" cy="83.3381" r="1.23675" fill="#E31E1E"/>
</svg>
