<svg width="164" height="34" viewBox="0 0 164 34" fill="none" xmlns="http://www.w3.org/2000/svg">
<path fill-rule="evenodd" clip-rule="evenodd" d="M22.7882 4.07349L27.157 11.7211L28.3668 15.1126L27.4259 22.4278C27.4259 22.4278 25.8128 28.0138 25.6111 28.0138C25.4095 28.0138 18.4195 29.9424 18.4195 29.9424L12.1016 28.4129L7.39675 25.9523L6.99347 16.5092L14.1852 17.3737L18.4866 9.19407L21.7129 4.07349H22.7882Z" fill="#FEFEFE"/>
<path fill-rule="evenodd" clip-rule="evenodd" d="M13.5804 0.0166253C14.4542 0.0831263 16.3361 0.149627 16.941 0.149627C17.546 0.149627 18.3525 0.216129 19.159 0.216129C19.4951 0.216129 22.654 0.28263 23.595 0.548633C24.536 0.814638 25.2081 1.67916 25.4097 2.01166C26.7539 4.13969 28.5015 7.46475 29.5768 9.72579C30.0474 10.7233 31.5932 13.4498 32.8703 14.4474C34.9538 16.0434 32.4669 17.0409 31.2572 17.2404C30.7867 17.3069 29.7113 17.5064 28.9047 17.4399C28.0982 19.6344 28.2326 24.0236 27.5605 26.0851C27.2917 26.8166 30.1817 26.6836 28.031 27.548C25.8802 28.4126 23.9983 29.6761 20.9066 30.9396C20.9066 30.9396 19.3607 31.4051 18.9574 31.4051C18.5541 31.4051 16.1345 30.2082 15.3952 30.2746C14.7231 30.4076 16.3361 33.9987 14.1182 33.9987C12.7068 33.9987 11.1609 34.1317 11.4969 31.7377C11.6985 30.9396 11.3624 29.5431 11.2953 29.2106C11.2281 28.8781 11.4297 28.8116 10.892 28.4791C9.81664 27.7476 8.06911 27.4151 6.65766 27.0826C5.64949 26.6836 4.57409 26.9495 5.11179 26.2181C6.05275 25.0211 6.38881 26.0185 6.45602 24.09C6.52323 23.0925 6.9265 18.0384 6.25439 17.2404C3.70035 14.5803 -2.48313 18.1049 1.07908 13.7159C1.41515 13.3169 2.96101 11.7208 3.22987 11.5213C4.10361 10.6568 6.59045 6.99924 8.53959 4.00669C9.81664 2.01166 10.8248 0.149627 11.2281 0.0831263C11.7658 -0.0498758 12.2362 0.0166253 13.5804 0.0166253ZM14.387 1.08064C15.2608 1.14714 17.0755 1.28015 17.0755 1.28015C17.0755 1.28015 18.8902 1.21365 19.0246 1.21365C19.159 1.21365 20.9738 1.21365 21.041 1.21365C21.1754 1.21365 23.2589 1.21365 23.6622 1.47965C25.4097 3.07568 29.308 13.1839 31.1227 14.8464C31.4588 15.3119 30.8538 15.5114 30.585 15.5114C30.3834 15.5114 29.9129 14.4474 29.9129 14.4474C29.8457 14.3809 25.2081 6.40073 24.6704 5.33671C24.4688 4.8712 23.931 3.67418 23.6622 3.34168C23.3934 2.94267 23.1917 2.34416 22.654 2.34416C20.6377 2.01166 15.664 14.5803 13.8493 15.7774C13.3117 16.1099 12.5723 16.3759 12.1018 16.3094C11.6313 16.1764 9.88386 15.7774 9.61498 15.5779C7.93468 14.9129 4.30525 14.6468 3.4315 14.0483C2.62495 13.5163 8.33795 9.39327 7.86747 7.53125C9.95108 6.06823 11.7658 1.08064 11.7658 1.08064C12.0346 0.947637 13.5132 1.08064 14.387 1.08064ZM22.7885 6.00172C24.2671 10.3908 28.0982 14.7134 27.8966 15.4449C27.2245 18.2379 27.1573 23.0925 26.3507 25.0876C26.0818 25.7525 20.9066 28.8781 20.1 28.8781C19.8311 28.8781 18.3525 29.0776 18.1509 28.5456C17.4788 27.1491 17.4116 26.2845 16.941 26.1516C15.1936 25.4865 17.2771 28.8116 15.3952 28.2131C14.7903 28.0135 8.13632 26.883 8.13632 24.489C8.13632 22.494 8.13632 20.9645 8.00189 18.8365C7.93468 17.3069 8.40516 17.1739 9.34613 17.2404C10.1526 17.2404 11.2281 17.4399 12.3034 17.7724C13.7821 18.2379 14.3198 18.1714 14.5214 18.1714C14.7231 18.1714 15.1936 17.5064 15.2608 16.9744C15.3952 16.4424 18.6886 9.12727 20.9066 6.06823C21.9819 4.6052 22.1836 4.2062 22.7885 6.00172ZM20.7049 23.159C19.9656 20.898 20.0328 18.6369 21.4442 18.1049C22.5868 17.6394 24.0655 17.7724 24.6031 18.6369C25.4097 19.9005 24.9393 21.4965 24.0655 22.6935C23.1246 24.09 21.2426 24.09 20.7049 23.159Z" fill="black"/>
<path fill-rule="evenodd" clip-rule="evenodd" d="M12.1688 0.948242C11.3622 1.08124 11.4966 1.67975 11.295 1.87926C10.2196 4.07379 8.87536 5.86932 7.46392 7.79784C6.65737 8.99487 3.83448 12.7854 3.56564 13.3839C3.43122 13.7829 3.02794 13.7829 3.43122 14.0489C4.03612 14.4479 10.4885 15.911 12.1016 16.31C12.572 16.3765 13.849 16.2435 14.2523 15.778C14.9245 15.113 16.6047 11.6549 17.2096 10.3914C18.0161 8.79537 21.3095 2.14526 22.7882 2.34476C22.9898 2.41126 23.3931 2.94327 23.6619 3.34228C23.9308 3.67479 24.4685 4.8718 24.6702 5.33731C26.0815 8.46286 28.098 11.6549 29.5765 14.6475C29.7782 15.0464 29.0389 15.645 29.2405 16.0439C29.2405 16.0439 29.9799 16.2435 30.2487 16.2435C30.5175 16.2435 31.9962 15.5119 31.6601 15.0464C29.3077 12.054 25.6111 3.40877 23.6619 1.48025C23.2587 1.21424 21.1751 1.21425 21.0407 1.21425H19.0244C18.8899 1.21425 17.0751 1.28074 17.0751 1.28074C17.0751 1.28074 14.6556 1.14774 14.3867 1.08124C14.1179 1.08124 12.908 0.948242 12.1688 0.948242Z" fill="#F6A708"/>
<path fill-rule="evenodd" clip-rule="evenodd" d="M32.1305 19.4349C31.3912 19.7674 30.6519 20.2329 29.9125 20.499C29.8453 20.5654 31.8617 21.0974 32.1305 21.8954C33.0715 24.356 36.5665 24.8215 38.2468 25.686C40.5992 27.016 40.2631 26.883 38.7173 24.6885C38.0452 23.7575 38.1796 22.627 38.1796 21.2969C38.1796 19.7009 41.0697 20.898 41.0025 19.6344C41.0025 19.5014 39.9943 19.1024 39.9271 19.1024C39.7255 19.1024 44.363 16.5089 42.0107 16.5754C39.255 16.6418 40.868 17.4399 42.0779 14.1814C42.8845 11.9868 38.3812 15.3119 37.7091 16.0433C36.6338 17.1074 36.9698 17.6394 36.4993 18.7699C35.4239 21.43 36.1632 18.7034 32.1305 19.4349Z" fill="black"/>
<path fill-rule="evenodd" clip-rule="evenodd" d="M55.9907 10.9898H57.4022H57.671L57.5365 11.1893C57.4694 11.4554 57.335 11.5883 57.2678 11.7878C57.1333 11.9209 57.0661 12.0539 56.9989 12.1868C56.8644 12.3198 56.7973 12.3864 56.7301 12.5194C56.5956 12.6523 56.5284 12.7188 56.394 12.8518C55.9235 13.3173 55.3859 13.6499 54.7809 13.8493C54.2432 14.0489 53.5711 14.1819 52.899 14.1819C52.4285 14.1819 51.9581 14.1154 51.5547 14.0489C51.1515 13.9159 50.681 13.7164 50.2777 13.5169C49.9416 13.3173 49.5384 13.0514 49.2695 12.7853C48.9335 12.4529 48.6646 12.1203 48.4631 11.7878C48.1942 11.3889 48.0597 10.9898 47.9253 10.5908C47.7909 10.1253 47.7237 9.72627 47.7237 9.2608C47.7237 8.86179 47.7909 8.39628 47.9253 7.99727C48.0597 7.59828 48.1942 7.19927 48.4631 6.80026C48.6646 6.40125 48.9335 6.06875 49.2695 5.80274C49.5384 5.47023 49.9416 5.20423 50.2777 5.00473C50.681 4.80522 51.0843 4.60573 51.5547 4.53922C51.9581 4.40622 52.4285 4.33972 52.899 4.33972C54.3104 4.33972 55.5874 4.87173 56.5956 5.86924C56.7301 6.06875 56.9317 6.26825 57.1333 6.53425C57.2678 6.80026 57.4022 7.06626 57.5365 7.39877L57.671 7.66477H57.4022H55.9907H55.9235L55.8563 7.59828C55.7219 7.39877 55.5874 7.19927 55.5202 7.06626C55.3859 6.93326 55.2514 6.80026 55.117 6.66726C54.7809 6.40125 54.4449 6.20175 54.0416 6.06875C53.7055 5.93574 53.3023 5.86924 52.8317 5.86924C52.563 5.86924 52.2269 5.86924 51.9581 6.00225C51.622 6.06875 51.3531 6.13525 51.0843 6.33475C50.8154 6.46776 50.5466 6.66726 50.345 6.86676C50.1433 7.06626 49.9416 7.26576 49.8073 7.53177C49.6056 7.79777 49.5384 8.06378 49.4712 8.32979C49.3367 8.66229 49.3367 8.92829 49.3367 9.2608C49.3367 9.59329 49.3367 9.85934 49.4712 10.1918C49.5384 10.4578 49.6056 10.7238 49.8073 10.9898C49.9416 11.2558 50.1433 11.4554 50.345 11.6548C50.5466 11.9209 50.8154 12.0539 51.0843 12.2533C51.3531 12.3864 51.622 12.4529 51.8908 12.5859C52.2269 12.6523 52.4957 12.6523 52.8317 12.6523C53.1679 12.6523 53.4366 12.6523 53.7055 12.5859C53.9744 12.5194 54.2432 12.4529 54.5121 12.3198C54.6465 12.2533 54.7137 12.1868 54.8481 12.0539C54.9825 11.9874 55.117 11.9209 55.1842 11.8544C55.2514 11.7878 55.3859 11.6548 55.5202 11.5218C55.5874 11.3889 55.7219 11.1893 55.8563 11.0563L55.9235 10.9898H55.9907ZM60.7628 13.7828V6.00225H58.7464H58.612V5.80274V4.73872V4.53922H58.7464H64.325H64.5266V4.73872V5.80274V6.00225H64.325H62.3759V13.7828V13.9824H62.1742H60.9644H60.7628V13.7828ZM66.0725 4.53922H67.2151H67.4167V4.73872V5.80274L67.4839 5.73624C67.6184 5.60324 67.6856 5.47023 67.82 5.40374C68.2905 5.07124 68.7609 4.80522 69.2315 4.60573C69.7691 4.47272 70.3068 4.33972 70.9117 4.33972C71.2478 4.33972 71.651 4.40622 71.9871 4.47272C72.3231 4.53922 72.6593 4.67223 72.9953 4.80522C73.3314 5.00473 73.6674 5.20423 73.9363 5.40374C74.2723 5.60324 74.5411 5.86924 74.81 6.20175C75.146 6.60075 75.4149 7.06626 75.6166 7.59828C75.8182 8.13028 75.8854 8.66229 75.8854 9.2608C75.8854 9.72627 75.8854 10.1918 75.7509 10.5908C75.6166 10.9898 75.4821 11.3889 75.2133 11.7878C75.0116 12.1203 74.7428 12.4529 74.4067 12.7853C74.1379 13.0514 73.7346 13.3173 73.3986 13.5169C72.9953 13.7164 72.592 13.9159 72.1216 13.9824C71.7183 14.1154 71.315 14.1819 70.8445 14.1819C70.2396 14.1819 69.7019 14.1154 69.1642 13.9159C68.6937 13.7164 68.2232 13.4504 67.82 13.1179C67.7528 12.9849 67.6184 12.8518 67.4839 12.7188V16.9749V17.1744H67.2822H66.0725H65.8709V16.9749V4.73872V4.53922H66.0725ZM70.8445 12.6523C71.1134 12.6523 71.315 12.6523 71.5838 12.5859C71.7855 12.5194 72.0544 12.4529 72.2559 12.3864C72.4576 12.3198 72.6593 12.1868 72.8608 12.0539C72.9953 11.9209 73.1969 11.7878 73.3314 11.6548C73.5329 11.5218 73.6674 11.3223 73.8018 11.1893C73.869 10.9898 74.0035 10.7903 74.0707 10.5908C74.1379 10.3913 74.2051 10.1918 74.2723 9.99232C74.3395 9.79285 74.3395 9.5268 74.3395 9.2608C74.3395 8.9948 74.2723 8.66229 74.2051 8.39628C74.1379 8.13028 74.0035 7.86428 73.869 7.59828C73.7346 7.33226 73.5329 7.06626 73.3314 6.86676C73.1297 6.66726 72.8608 6.46776 72.592 6.33475C72.3231 6.20175 72.0544 6.06875 71.7855 6.00225C71.5166 5.86924 71.1806 5.86924 70.8445 5.86924C70.5757 5.86924 70.2396 5.86924 69.9708 6.00225C69.6347 6.06875 69.3658 6.13525 69.097 6.33475C68.8281 6.46776 68.6266 6.60075 68.3577 6.86676C68.156 7.06626 68.0216 7.26576 67.82 7.53177C67.6856 7.79777 67.5511 8.06378 67.4839 8.32979C67.4167 8.66229 67.4167 8.92829 67.4167 9.2608C67.4167 9.59329 67.4167 9.85934 67.4839 10.1918C67.5511 10.4578 67.6856 10.7238 67.82 10.9898C68.0216 11.2558 68.156 11.4554 68.3577 11.6548C68.5593 11.8544 68.8281 12.0539 69.097 12.1868C69.2987 12.3864 69.5675 12.4529 69.9036 12.5859C70.1724 12.6523 70.4412 12.6523 70.7773 12.6523H70.8445ZM82.3377 4.33972C82.8082 4.33972 83.2115 4.40622 83.6147 4.53922C84.0852 4.60573 84.4885 4.80522 84.8245 5.00473C85.2278 5.20423 85.5639 5.47023 85.9 5.80274C86.1688 6.06875 86.4376 6.40125 86.7065 6.80026C86.9081 7.19927 87.1097 7.59828 87.177 7.99727C87.3114 8.39628 87.3786 8.79529 87.3786 9.2608C87.3786 9.65978 87.3114 10.1253 87.177 10.5243C87.1097 10.9234 86.9081 11.3223 86.7065 11.7213C86.5048 12.0539 86.236 12.4529 85.9 12.7188C85.6311 13.0514 85.2951 13.3173 84.8917 13.5169C84.4885 13.7164 84.0852 13.9159 83.682 13.9824C83.2786 14.1154 82.8754 14.1819 82.4049 14.1819C82.0016 14.1819 81.5312 14.1154 81.1279 13.9824C80.7246 13.9159 80.3214 13.7164 79.9853 13.5169C79.5821 13.3173 79.2459 13.0514 78.9099 12.7188C78.6411 12.4529 78.3723 12.1203 78.1034 11.7213C77.9017 11.3889 77.7673 10.9898 77.6329 10.5908C77.4985 10.1918 77.4313 9.72627 77.4313 9.3273C77.4313 8.86179 77.4985 8.46278 77.6329 8.06378C77.7002 7.59828 77.9017 7.19927 78.1034 6.86676C78.3723 6.46776 78.5738 6.13525 78.9099 5.80274C79.1787 5.53674 79.5148 5.27073 79.9181 5.00473C80.2542 4.80522 80.6574 4.60573 81.0607 4.53922C81.464 4.40622 81.9344 4.33972 82.3377 4.33972ZM82.4049 5.86924C82.1361 5.86924 81.8001 5.93574 81.5312 6.00225C81.1951 6.06875 80.9263 6.20175 80.7246 6.33475C80.4558 6.53426 80.1869 6.66726 79.9853 6.86676C79.7837 7.06626 79.6493 7.33226 79.4476 7.59828C79.3132 7.86428 79.2459 8.13028 79.1115 8.39628C79.0444 8.66229 79.0444 8.9948 79.0444 9.3273C79.0444 9.59329 79.0444 9.92583 79.1115 10.1918C79.2459 10.4578 79.3132 10.7238 79.5148 10.9898C79.6493 11.2558 79.8508 11.5218 80.0525 11.7213C80.2542 11.9209 80.4558 12.0539 80.7246 12.2533C80.9935 12.3864 81.2623 12.4529 81.5312 12.5859C81.8673 12.6523 82.1361 12.6523 82.4722 12.6523C82.741 12.6523 83.0771 12.6523 83.3459 12.5859C83.6147 12.4529 83.8836 12.3864 84.1524 12.1868C84.4213 12.0539 84.623 11.8544 84.8245 11.6548C85.0262 11.4554 85.2278 11.2558 85.3622 10.9898C85.4966 10.7238 85.6311 10.3913 85.6983 10.1253C85.7655 9.85934 85.7655 9.5268 85.7655 9.1943C85.7655 8.92829 85.7655 8.59579 85.6983 8.32979C85.6311 8.06378 85.4966 7.79777 85.3622 7.53177C85.1606 7.26576 85.0262 7.06626 84.8245 6.86676C84.623 6.66726 84.3541 6.46776 84.1524 6.33475C83.8836 6.13525 83.6147 6.06875 83.3459 6.00225C83.0771 5.86924 82.8082 5.86924 82.4722 5.86924H82.4049ZM90.8064 11.7213L95.8475 4.60573V4.53922H95.982H97.1919H97.3931V4.73872V13.7828V13.9824H97.1919H95.982H95.7798V13.7828V6.80026L90.8064 13.9159L90.7392 13.9824H90.672H89.395H89.2605V13.7828V4.73872V4.53922H89.395H90.672H90.8064V4.73872V11.7213ZM100.955 13.7828V6.00225H98.9387H98.8043V5.80274V4.73872V4.53922H98.9387H104.518H104.652V4.73872V5.80274V6.00225H104.518H102.501V13.7828V13.9824H102.367H101.09H100.955V13.7828ZM115.405 9.79285H107.341C107.341 9.92583 107.341 10.1253 107.408 10.2583C107.475 10.3913 107.475 10.5908 107.542 10.7238C107.676 10.9234 107.744 11.0563 107.879 11.2558C108.012 11.3889 108.147 11.5883 108.281 11.7213C108.483 11.8544 108.618 11.9874 108.819 12.1203C109.021 12.2533 109.222 12.3198 109.424 12.4529C109.625 12.5194 109.828 12.5859 110.029 12.5859C110.231 12.6523 110.5 12.6523 110.701 12.6523C111.642 12.6523 112.449 12.3198 113.188 11.7213C113.255 11.5883 113.39 11.4554 113.524 11.2558C113.591 11.1228 113.725 10.9898 113.793 10.7903L113.86 10.6573H113.994H115.271H115.54L115.405 10.9234C115.339 11.1893 115.204 11.3889 115.07 11.5883C115.002 11.7878 114.869 11.9874 114.801 12.1203C114.667 12.2533 114.6 12.3864 114.465 12.5194C114.331 12.6523 114.129 12.8518 113.994 12.9849C113.793 13.1844 113.524 13.3173 113.255 13.4504C112.986 13.6499 112.718 13.7828 112.449 13.8493C112.18 13.9824 111.843 14.0489 111.574 14.1154C111.239 14.1819 110.97 14.1819 110.634 14.1819C110.231 14.1819 109.76 14.1154 109.357 14.0489C108.953 13.9159 108.55 13.7164 108.214 13.5169C107.811 13.3173 107.475 13.0514 107.139 12.7853C106.87 12.4529 106.601 12.1203 106.4 11.7213C106.198 11.3889 105.996 10.9898 105.862 10.5908C105.794 10.1253 105.728 9.72627 105.728 9.2608C105.728 8.86179 105.794 8.39628 105.862 7.99727C105.996 7.59828 106.198 7.19927 106.4 6.80026C106.601 6.40125 106.87 6.06875 107.139 5.80274C107.475 5.47023 107.811 5.27073 108.214 5.00473C108.55 4.80522 108.953 4.60573 109.357 4.53922C109.76 4.40622 110.231 4.33972 110.634 4.33972C111.038 4.33972 111.373 4.40622 111.776 4.47272C112.112 4.53922 112.449 4.67223 112.784 4.80522C113.121 5.00473 113.457 5.20423 113.725 5.40374C113.994 5.60324 114.263 5.86924 114.532 6.20175C114.734 6.46776 114.935 6.73376 115.07 7.06626C115.204 7.39877 115.339 7.73127 115.473 8.06378C115.473 8.19678 115.473 8.39628 115.54 8.66229C115.54 8.92829 115.54 9.2608 115.608 9.59329V9.79285H115.405ZM107.408 8.32979H113.928C113.86 8.13028 113.86 7.99727 113.793 7.86428C113.659 7.59828 113.524 7.39877 113.39 7.19927C113.188 6.99976 113.053 6.80026 112.852 6.60075C112.65 6.46776 112.381 6.33475 112.18 6.20175C111.911 6.06875 111.709 6.00225 111.441 5.93574C111.172 5.86924 110.903 5.86924 110.634 5.86924C110.365 5.86924 110.163 5.86924 109.894 5.93574C109.625 6.00225 109.424 6.06875 109.155 6.20175C108.953 6.26825 108.752 6.40125 108.55 6.60075C108.349 6.73376 108.147 6.93326 108.012 7.13277C107.811 7.33226 107.676 7.53177 107.61 7.79777C107.475 7.93078 107.408 8.13028 107.408 8.32979ZM121.455 4.47272L124.815 13.7164L124.95 13.9824H124.681H123.337H123.202V13.8493L120.649 6.86676L118.094 13.8493L118.028 13.9824H117.893H116.549H116.28L116.414 13.7164L119.842 4.47272V4.40622H119.976H121.253H121.388L121.455 4.47272ZM125.891 13.7828V4.73872V4.53922H126.092H127.302H127.504V4.73872V7.99727H128.781C129.319 7.99727 129.722 7.99727 130.125 8.06378C130.461 8.06378 130.798 8.19678 131.067 8.26328C131.201 8.32978 131.335 8.46278 131.47 8.52929C131.604 8.66229 131.739 8.72879 131.873 8.86179C132.008 8.9948 132.074 9.1943 132.209 9.3273C132.276 9.46031 132.343 9.65978 132.41 9.79285C132.478 9.99232 132.544 10.1918 132.544 10.3913C132.612 10.5908 132.612 10.7903 132.612 10.9898C132.612 11.8544 132.343 12.5859 131.805 13.1179C131.671 13.2508 131.47 13.3838 131.268 13.5169C131.067 13.6499 130.864 13.7164 130.663 13.7828C130.461 13.8493 130.192 13.9159 129.857 13.9159C129.52 13.9824 129.184 13.9824 128.781 13.9824H126.092H125.891V13.7828ZM127.504 9.3938V12.5194H128.445H128.714C128.982 12.5194 129.251 12.5194 129.52 12.5194C129.654 12.5194 129.722 12.4529 129.857 12.4529C129.923 12.4529 129.991 12.4529 130.125 12.3864C130.26 12.3198 130.394 12.2533 130.461 12.1868C130.595 12.1203 130.663 11.9874 130.798 11.9209C130.864 11.7878 130.932 11.6548 130.932 11.4554C130.999 11.3223 130.999 11.1228 130.999 10.9898C130.999 10.5243 130.864 10.1918 130.663 9.92583C130.595 9.85934 130.529 9.79285 130.461 9.72627C130.327 9.65978 130.26 9.59329 130.125 9.5268C129.991 9.46031 129.789 9.46031 129.588 9.46031C129.386 9.3938 129.05 9.3938 128.714 9.3938H128.445H127.504ZM135.771 8.39628H140.744V4.73872V4.53922H140.879H142.157H142.291V4.73872V13.7828V13.9824H142.157H140.879H140.744V13.7828V9.85934H135.771V13.7828V13.9824H135.57H134.36H134.158V13.7828V4.73872V4.53922H134.36H135.57H135.771V4.73872V8.39628ZM144.441 13.7828V4.73872V4.53922H144.576H145.853H145.988V4.73872V7.99727H147.331C147.802 7.99727 148.272 7.99727 148.609 8.06378C149.012 8.06378 149.281 8.19678 149.55 8.26328C149.684 8.32978 149.886 8.46278 150.02 8.52929C150.154 8.66229 150.289 8.72879 150.423 8.86179C150.49 8.9948 150.624 9.1943 150.692 9.3273C150.827 9.46031 150.893 9.65978 150.961 9.79285C151.028 9.99232 151.028 10.1918 151.095 10.3913C151.095 10.5908 151.095 10.7903 151.095 10.9898C151.095 11.8544 150.827 12.5859 150.356 13.1179C150.154 13.2508 150.02 13.3838 149.818 13.5169C149.617 13.6499 149.415 13.7164 149.147 13.7828C148.944 13.8493 148.676 13.9159 148.34 13.9159C148.071 13.9824 147.734 13.9824 147.331 13.9824H144.576H144.441V13.7828ZM152.037 13.7828V4.73872V4.53922H152.238H153.448H153.649V4.73872V13.7828V13.9824H153.448H152.238H152.037V13.7828ZM145.988 9.3938V12.5194H146.928H147.264C147.533 12.5194 147.802 12.5194 148.003 12.5194C148.138 12.5194 148.272 12.4529 148.34 12.4529C148.407 12.4529 148.541 12.4529 148.609 12.3864C148.743 12.3198 148.878 12.2533 149.012 12.1868C149.147 12.1203 149.213 11.9874 149.281 11.9209C149.348 11.7878 149.415 11.6548 149.482 11.4554C149.482 11.3223 149.55 11.1228 149.55 10.9898C149.55 10.5243 149.415 10.1918 149.213 9.92583C149.147 9.85934 149.079 9.79285 148.944 9.72627C148.878 9.65978 148.743 9.59329 148.609 9.5268C148.474 9.46031 148.34 9.46031 148.071 9.46031C147.869 9.3938 147.6 9.3938 147.264 9.3938H146.928H145.988ZM157.48 11.7213L162.454 4.60573L162.521 4.53922H162.589H163.866H164V4.73872V13.7828V13.9824H163.866H162.589H162.387V13.7828V6.80026L157.413 13.9159V13.9824H157.279H156.069H155.868V13.7828V4.73872V4.53922H156.069H157.279H157.48V4.73872V11.7213ZM157.48 1.34717H158.556H158.69V1.48017C158.824 1.67968 159.027 1.87918 159.228 1.94568C159.43 2.07869 159.766 2.14519 160.102 2.14519C160.37 2.14519 160.639 2.07869 160.908 1.94568C161.11 1.87918 161.244 1.67968 161.379 1.48017L161.446 1.34717H161.58H162.589H162.858L162.79 1.61318C162.723 1.81268 162.656 1.94568 162.589 2.07869C162.521 2.27818 162.387 2.41119 162.32 2.47769C162.051 2.8102 161.714 3.0097 161.379 3.2092C160.976 3.3422 160.572 3.4087 160.102 3.4087C159.833 3.4087 159.564 3.4087 159.295 3.3422C159.093 3.3422 158.824 3.2092 158.623 3.1427C158.489 3.0762 158.354 2.94319 158.152 2.8767C158.018 2.74369 157.951 2.61069 157.817 2.47769C157.682 2.41119 157.614 2.27818 157.548 2.07869C157.48 1.94568 157.413 1.81268 157.346 1.61318L157.279 1.34717H157.48ZM55.3186 29.2776H48.7318V31.2061V31.3391H48.5302H47.4548H47.2532V31.2061V27.9476V27.8146H47.4548H48.1942L51.3531 19.9674V19.8345H51.4875H52.4957H52.6302L52.6973 19.9674L55.8563 27.8146H56.5956H56.7973V27.9476V31.2061V31.3391H56.5956H55.5202H55.3186V31.2061V29.2776ZM54.176 27.8146L52.0252 22.2285L49.8745 27.8146H54.176ZM58.2088 29.0781V20.0339V19.8345H58.3431H61.166C61.4349 19.8345 61.6365 19.8345 61.8381 19.901C62.107 19.901 62.3087 19.901 62.443 19.9674C62.6447 19.9674 62.7791 20.0339 62.9135 20.1005C63.048 20.167 63.1823 20.2335 63.3168 20.3C63.5184 20.433 63.7201 20.5659 63.8545 20.699C63.9889 20.8985 64.1233 21.0315 64.1906 21.231C64.325 21.4305 64.3922 21.63 64.3922 21.8295C64.4594 22.029 64.5266 22.2285 64.5266 22.428C64.5266 22.6275 64.4594 22.827 64.3922 23.0265C64.3922 23.2261 64.2578 23.4255 64.1906 23.625C64.0561 23.8246 63.9217 23.9575 63.7873 24.0905C63.7201 24.157 63.6529 24.157 63.5857 24.2236C63.7201 24.2236 63.8545 24.2901 63.9217 24.3566C64.1233 24.556 64.325 24.689 64.5266 24.9551C64.661 25.1545 64.7955 25.4206 64.8627 25.6865C64.9971 25.9526 64.9971 26.2185 64.9971 26.4846C64.9971 26.7505 64.9971 26.9501 64.9299 27.1496C64.8627 27.3491 64.7954 27.5486 64.7282 27.7481H64.661C64.5938 27.9476 64.4594 28.1471 64.325 28.2801C64.1906 28.4796 63.9889 28.6126 63.7873 28.7456C63.6529 28.8121 63.4512 28.9451 63.3168 29.0116C63.1151 29.0781 62.9808 29.0781 62.7791 29.1446C62.5774 29.2111 62.3759 29.2111 62.107 29.2111C61.8381 29.2111 61.5021 29.2776 61.166 29.2776H58.3431H58.2088V29.0781ZM59.7545 27.8146H61.166C61.5693 27.8146 61.8381 27.8146 62.107 27.7481C62.3759 27.7481 62.5102 27.6816 62.6447 27.6151C62.9136 27.4821 63.048 27.3491 63.1823 27.1496C63.2496 26.9501 63.3168 26.7505 63.3168 26.4846C63.3168 26.2851 63.3168 26.152 63.2496 26.0191C63.2496 25.9526 63.1823 25.8196 63.1151 25.6865C63.048 25.62 62.9136 25.4871 62.8463 25.4206C62.7119 25.3541 62.5774 25.2876 62.443 25.221C62.3087 25.221 62.107 25.1545 61.9053 25.1545C61.7037 25.1545 61.3677 25.088 61.0988 25.088H59.7545V27.8146ZM59.7545 23.6915H61.0988C61.4349 23.6915 61.7037 23.6915 61.9053 23.625C62.107 23.625 62.2414 23.5585 62.3759 23.492C62.5774 23.4255 62.7119 23.2926 62.7791 23.093C62.8463 22.96 62.9135 22.6941 62.9135 22.4945C62.9135 22.2285 62.8463 22.029 62.7791 21.896C62.7119 21.6965 62.5774 21.5635 62.3759 21.497C62.3087 21.4305 62.2414 21.4305 62.2414 21.4305C62.1742 21.364 62.107 21.364 62.0398 21.364C61.9053 21.2975 61.8381 21.2975 61.6365 21.2975C61.5021 21.2975 61.3677 21.2975 61.166 21.2975H59.7545V23.6915ZM71.4494 19.635C71.9199 19.635 72.3231 19.7015 72.7265 19.768C73.1297 19.901 73.5329 20.1005 73.9363 20.3C74.3395 20.4995 74.6756 20.7655 75.0116 21.0979C75.2805 21.364 75.5494 21.6965 75.7509 22.0955C76.0198 22.428 76.1543 22.827 76.2887 23.2261C76.423 23.6915 76.4903 24.0905 76.4903 24.4895C76.4903 24.9551 76.423 25.4206 76.2887 25.8196C76.1543 26.2185 76.0198 26.6176 75.8182 27.0166C75.5494 27.3491 75.2805 27.6816 75.0116 28.0141C74.6756 28.2801 74.3395 28.5461 74.0035 28.8121C73.6002 29.0116 73.1969 29.2111 72.7937 29.2776C72.3904 29.4107 71.9871 29.4772 71.5166 29.4772C71.1134 29.4772 70.6429 29.4107 70.2396 29.2776C69.8364 29.2111 69.433 29.0116 69.0298 28.8121C68.6937 28.6126 68.2905 28.3467 68.0216 28.0141C67.6856 27.7481 67.4167 27.4156 67.2151 27.0166C67.0135 26.6176 66.8118 26.2851 66.7446 25.8196C66.6101 25.4206 66.543 25.0215 66.543 24.6225C66.543 24.157 66.6101 23.7581 66.7446 23.2926C66.8118 22.8935 67.0135 22.4945 67.2151 22.162C67.4167 21.763 67.6856 21.4305 68.0216 21.0979C68.2905 20.832 68.6266 20.5659 69.0298 20.3C69.3658 20.1005 69.7691 19.901 70.1724 19.8345C70.5757 19.7015 70.9789 19.635 71.4494 19.635ZM71.5166 21.1645C71.1806 21.1645 70.9117 21.231 70.6429 21.2975C70.3068 21.364 70.038 21.497 69.7691 21.6299C69.5002 21.763 69.2987 21.9625 69.097 22.162C68.8954 22.3615 68.6937 22.6275 68.5593 22.8935C68.4249 23.1595 68.2905 23.4255 68.2232 23.6915C68.156 23.9575 68.156 24.2901 68.156 24.6225C68.156 24.8886 68.156 25.221 68.2232 25.4871C68.2905 25.753 68.4249 26.0191 68.5593 26.2851C68.7609 26.5511 68.8954 26.7505 69.097 26.9501C69.2987 27.1496 69.5675 27.3491 69.8363 27.4821C70.1051 27.6816 70.374 27.7481 70.6429 27.8146C70.9117 27.8811 71.2478 27.9476 71.5166 27.9476C71.8527 27.9476 72.1216 27.8811 72.4576 27.8146C72.7265 27.7481 72.9953 27.6151 73.2641 27.4821C73.4658 27.3491 73.7346 27.1496 73.9363 26.9501C74.1379 26.7505 74.2723 26.4846 74.4739 26.2185C74.6084 25.9526 74.6756 25.6865 74.7428 25.4206C74.8773 25.088 74.8773 24.8221 74.8773 24.4895C74.8773 24.157 74.8773 23.891 74.7428 23.625C74.6756 23.359 74.6084 23.093 74.4067 22.827C74.2723 22.561 74.1379 22.3615 73.9363 22.162C73.7346 21.896 73.4658 21.763 73.1969 21.6299C72.9953 21.4305 72.7265 21.364 72.4576 21.231C72.1887 21.1645 71.8527 21.1645 71.5838 21.1645H71.5166ZM78.5066 19.8345H79.7165H79.8508V19.9674V21.0979L79.9181 20.965C80.0525 20.832 80.1869 20.7655 80.2542 20.699C80.7246 20.3 81.1951 20.0339 81.7328 19.901C82.2033 19.7015 82.8082 19.635 83.3459 19.635C83.7492 19.635 84.0852 19.7015 84.4213 19.768C84.7573 19.8345 85.0934 19.9674 85.4294 20.1005C85.7655 20.2335 86.1015 20.433 86.4376 20.699C86.7065 20.8985 86.9753 21.1645 87.2442 21.4305C87.5802 21.896 87.9163 22.3615 88.0507 22.8935C88.2523 23.359 88.3868 23.9575 88.3868 24.556C88.3868 25.0215 88.3195 25.4206 88.1851 25.8861C88.0507 26.2851 87.9163 26.6841 87.7146 27.0166C87.4458 27.4156 87.177 27.7481 86.9081 28.0141C86.5721 28.3467 86.236 28.6126 85.8327 28.8121C85.4294 29.0116 85.0262 29.2111 84.623 29.2776C84.1524 29.4107 83.7492 29.4772 83.2786 29.4772C82.6737 29.4772 82.1361 29.3441 81.6656 29.2111C81.1279 29.0116 80.6574 28.7456 80.3214 28.4131C80.1869 28.2801 80.0525 28.1471 79.9181 28.0141V27.9476V32.2702V32.4031H79.7837H78.5066H78.3723V32.2702V19.9674V19.8345H78.5066ZM83.2786 27.9476C83.5475 27.9476 83.7492 27.8811 84.018 27.8811C84.2196 27.8146 84.4885 27.7481 84.6901 27.6816C84.8917 27.5486 85.0934 27.4821 85.2951 27.3491C85.4966 27.2161 85.6311 27.0831 85.8327 26.9501C85.9672 26.8171 86.1015 26.6176 86.236 26.4846C86.3704 26.2851 86.4376 26.0856 86.5049 25.8861C86.6393 25.6865 86.7065 25.4871 86.7065 25.2876C86.7736 25.0215 86.7736 24.8221 86.7736 24.556C86.7736 24.2901 86.7736 23.9575 86.7065 23.6915C86.5721 23.4255 86.5049 23.093 86.3032 22.827C86.1687 22.561 85.9672 22.3615 85.7655 22.162C85.5639 21.9625 85.3622 21.763 85.0934 21.6299C84.8245 21.4305 84.4885 21.364 84.2196 21.231C83.9508 21.1645 83.6147 21.1645 83.3459 21.1645C83.0098 21.1645 82.6737 21.1645 82.4049 21.231C82.0688 21.364 81.8001 21.4305 81.5312 21.5635C81.2623 21.763 81.0607 21.896 80.8591 22.0955C80.6574 22.295 80.4558 22.561 80.3214 22.827C80.1197 23.093 80.0525 23.359 79.9853 23.625C79.8508 23.9575 79.8508 24.2236 79.8508 24.556C79.8508 24.8886 79.8508 25.1545 79.9853 25.4871C80.0525 25.753 80.1197 26.0191 80.3214 26.2851C80.4558 26.5511 80.5902 26.7505 80.7918 26.9501C81.0607 27.1496 81.2623 27.3491 81.5312 27.4821C81.8001 27.6151 82.0688 27.7481 82.3377 27.8146C82.6065 27.8811 82.8754 27.9476 83.2115 27.9476H83.2786Z" fill="black"/>
</svg>
