<svg width="42" height="42" viewBox="0 0 42 42" fill="none" xmlns="http://www.w3.org/2000/svg">
<g clip-path="url(#clip0)">
<path d="M36.05 4.20001H32.55C32.533 3.37505 32.3695 2.55969 32.067 1.79201C31.678 0.697389 30.6314 -0.0248041 29.47 9.56131e-06C28.07 0.0560096 26.978 0.97301 26.019 1.77801C24.5416 3.13976 22.6523 3.96989 20.65 4.13701V2.10001C20.65 0.940212 19.7098 9.56131e-06 18.55 9.56131e-06H17.85C16.6902 9.56131e-06 15.75 0.940212 15.75 2.10001V4.20001H13.65C12.4902 4.20001 11.55 5.14021 11.55 6.30001V7.00001C11.55 8.15981 12.4902 9.10001 13.65 9.10001H15.75V28.7H13.65C12.8768 28.7 12.25 29.3268 12.25 30.1V40.6C12.25 41.3732 12.8768 42 13.65 42H18.963C19.3337 41.9985 19.6886 41.8499 19.95 41.587L21.637 39.9H30.863L32.55 41.587C32.8113 41.8499 33.1663 41.9985 33.537 42H38.85C39.6232 42 40.25 41.3732 40.25 40.6V30.1C40.25 29.3268 39.6232 28.7 38.85 28.7H38.15V23.8C38.15 23.4134 37.8366 23.1 37.45 23.1H34.65C34.335 23.1 34.475 23.058 31.85 25.025C29.386 23.177 29.379 23.1 29.05 23.1H26.25C25.8634 23.1 25.55 23.4134 25.55 23.8V28.7H20.65V9.10001H29.05V13.3C28.6634 13.3 28.35 13.6134 28.35 14C28.35 14.3866 28.6634 14.7 29.05 14.7H29.316L31.15 18.368V23.1C31.15 23.4866 31.4634 23.8 31.85 23.8C32.2366 23.8 32.55 23.4866 32.55 23.1V18.368L34.384 14.7H34.65C35.0366 14.7 35.35 14.3866 35.35 14C35.35 13.6134 35.0366 13.3 34.65 13.3V9.10001H36.05C37.2098 9.10001 38.15 8.15981 38.15 7.00001V6.30001C38.15 5.14021 37.2098 4.20001 36.05 4.20001ZM29.526 1.40001C30.737 1.33001 31.066 2.98901 31.129 4.20001H25.046C26.992 3.10101 28.028 1.45601 29.526 1.40001ZM17.15 2.10001C17.15 1.71341 17.4634 1.40001 17.85 1.40001H18.55C18.9366 1.40001 19.25 1.71341 19.25 2.10001V4.20001H17.15V2.10001ZM38.85 40.6H33.537L31.85 38.913C31.5886 38.6501 31.2337 38.5016 30.863 38.5H21.637C21.2663 38.5016 20.9113 38.6501 20.65 38.913L18.963 40.6H13.65V30.1H38.85V40.6ZM26.95 24.5H28.819L31.43 26.46C31.6789 26.6467 32.0211 26.6467 32.27 26.46L34.881 24.5H36.75V28.7H26.95V24.5ZM19.25 28.7H17.15V9.10001H19.25V28.7ZM31.85 16.632L30.884 14.7H32.816L31.85 16.632ZM33.25 13.3H30.45V9.10001H33.25V13.3ZM36.75 7.00001C36.75 7.38661 36.4366 7.70001 36.05 7.70001H13.65C13.2634 7.70001 12.95 7.38661 12.95 7.00001V6.30001C12.95 5.91341 13.2634 5.60001 13.65 5.60001H36.05C36.4366 5.60001 36.75 5.91341 36.75 6.30001V7.00001Z" fill="#E31E1E"/>
<path d="M22.953 16.303C22.8205 16.4344 22.7459 16.6134 22.7459 16.8C22.7459 16.9867 22.8205 17.1656 22.953 17.297L27.153 21.497C27.4275 21.7715 27.8725 21.7715 28.147 21.497C28.4215 21.2225 28.4215 20.7775 28.147 20.503L23.947 16.303C23.8155 16.1705 23.6366 16.0959 23.45 16.0959C23.2633 16.0959 23.0844 16.1705 22.953 16.303Z" fill="#E31E1E"/>
<path d="M36.05 21.7C36.236 21.7011 36.4149 21.6281 36.547 21.497L40.747 17.297C41.0215 17.0225 41.0215 16.5775 40.747 16.303C40.4725 16.0285 40.0275 16.0285 39.753 16.303L35.553 20.503C35.3511 20.7033 35.2904 21.0058 35.3994 21.2685C35.5085 21.5311 35.7656 21.7017 36.05 21.7Z" fill="#E31E1E"/>
<path d="M28.707 18.802C29.0394 18.6048 29.1491 18.1755 28.952 17.843L26.852 14.343C26.7419 14.0995 26.5029 13.9399 26.2358 13.9316C25.9687 13.9233 25.7203 14.0678 25.5953 14.304C25.4704 14.5402 25.4908 14.8269 25.648 15.043L27.748 18.543C27.8404 18.705 27.9935 18.8234 28.1736 18.8721C28.3536 18.9207 28.5456 18.8955 28.707 18.802Z" fill="#E31E1E"/>
<path d="M35.952 18.5569L38.052 15.0569C38.1998 14.7298 38.0763 14.3439 37.766 14.1635C37.4556 13.9831 37.0591 14.0666 36.848 14.3569L34.748 17.8569C34.5909 18.073 34.5704 18.3598 34.6954 18.5959C34.8203 18.8321 35.0688 18.9766 35.3359 18.9683C35.6029 18.96 35.842 18.8004 35.952 18.5569Z" fill="#E31E1E"/>
<path d="M36.75 31.5H34.65C34.2634 31.5 33.95 31.8134 33.95 32.2C33.95 32.5866 34.2634 32.9 34.65 32.9H36.75C37.1366 32.9 37.45 32.5866 37.45 32.2C37.45 31.8134 37.1366 31.5 36.75 31.5Z" fill="#E31E1E"/>
<path d="M36.75 34.3H34.65C34.2634 34.3 33.95 34.6134 33.95 35C33.95 35.3866 34.2634 35.7 34.65 35.7H36.75C37.1366 35.7 37.45 35.3866 37.45 35C37.45 34.6134 37.1366 34.3 36.75 34.3Z" fill="#E31E1E"/>
<path d="M2.44999 26.6H3.84999V40.6C3.84999 41.3732 4.47679 42 5.24999 42H9.44999C10.2232 42 10.85 41.3732 10.85 40.6V26.6H12.25C13.0232 26.6 13.65 25.9732 13.65 25.2V18.2C13.65 17.4269 13.0232 16.8 12.25 16.8H2.44999C1.67679 16.8 1.04999 17.4269 1.04999 18.2V25.2C1.04999 25.9732 1.67679 26.6 2.44999 26.6ZM9.44999 40.6H5.24999V26.6H9.44999V40.6ZM2.44999 18.2H12.25V25.2H2.44999V18.2Z" fill="#E31E1E"/>
<path d="M8.04998 21H9.44998C9.83658 21 10.15 20.6866 10.15 20.3C10.15 19.9134 9.83658 19.6 9.44998 19.6H8.04998C7.66338 19.6 7.34998 19.9134 7.34998 20.3C7.34998 20.6866 7.66338 21 8.04998 21Z" fill="#E31E1E"/>
<path d="M8.04998 23.8H9.44998C9.83658 23.8 10.15 23.4866 10.15 23.1C10.15 22.7134 9.83658 22.4 9.44998 22.4H8.04998C7.66338 22.4 7.34998 22.7134 7.34998 23.1C7.34998 23.4866 7.66338 23.8 8.04998 23.8Z" fill="#E31E1E"/>
<path d="M4.85798 20.881C5.09384 21.0507 5.41006 21.0571 5.65256 20.897C5.89507 20.7369 6.01343 20.4436 5.94998 20.16C5.89645 19.8451 5.63657 19.6064 5.31828 19.5797C4.99999 19.5531 4.70403 19.7453 4.59889 20.0469C4.49375 20.3485 4.6061 20.683 4.87198 20.86L4.85798 20.881Z" fill="#E31E1E"/>
<path d="M4.85799 23.681C5.12421 23.861 5.47877 23.8365 5.7178 23.6218C5.95684 23.407 6.01897 23.0571 5.86846 22.7732C5.71795 22.4893 5.39347 22.3443 5.08158 22.4216C4.76968 22.4989 4.55047 22.7787 4.54999 23.1C4.54964 23.3329 4.66508 23.5506 4.85799 23.681Z" fill="#E31E1E"/>
<path d="M16.45 31.5H15.75C15.3634 31.5 15.05 31.8134 15.05 32.2C15.05 32.5866 15.3634 32.9 15.75 32.9H16.45C16.8366 32.9 17.15 32.5866 17.15 32.2C17.15 31.8134 16.8366 31.5 16.45 31.5Z" fill="#E31E1E"/>
<path d="M24.85 31.5H19.25C18.8634 31.5 18.55 31.8134 18.55 32.2C18.55 32.5866 18.8634 32.9 19.25 32.9H24.85C25.2366 32.9 25.55 32.5866 25.55 32.2C25.55 31.8134 25.2366 31.5 24.85 31.5Z" fill="#E31E1E"/>
</g>
<defs>
<clipPath id="clip0">
<rect width="42" height="42" fill="white"/>
</clipPath>
</defs>
</svg>
