<svg width="27" height="23" viewBox="0 0 27 23" fill="none" xmlns="http://www.w3.org/2000/svg">
<g clip-path="url(#clip0)">
<path d="M7.70283 23C5.9733 23 4.3519 22.4021 3.13707 21.3164C1.92224 20.2307 1.25244 18.7827 1.25244 17.2377C1.25244 15.6931 1.92175 14.2446 3.13707 13.1594L16.4909 1.22993C18.4015 -0.475958 21.3703 -0.39947 23.3963 1.41044C25.4223 3.22035 25.5094 5.87206 23.5989 7.57926L11.0538 18.7862C9.87612 19.8382 7.95822 19.84 6.77862 18.7862C5.6 17.7329 5.60048 16.0195 6.77862 14.9671L15.2766 7.37559C15.5633 7.11947 16.0276 7.11947 16.3143 7.37559C16.601 7.63171 16.601 8.04649 16.3143 8.30262L7.81634 15.8941C7.21015 16.4356 7.21015 17.3172 7.81634 17.8592C8.42351 18.4007 9.40985 18.3998 10.016 17.8592L22.5611 6.65224C23.8797 5.47389 23.7931 3.61896 22.3586 2.33747C20.9241 1.05598 18.8477 0.978615 17.5286 2.15696L4.17478 14.0864C3.23688 14.9242 2.72022 16.0436 2.72022 17.2377C2.72022 18.4322 3.23688 19.5515 4.17478 20.3894C5.11269 21.2273 6.36569 21.6888 7.70283 21.6888C9.03949 21.6888 10.2925 21.2273 11.2304 20.3894L24.5842 8.45996C24.8709 8.20384 25.3352 8.20384 25.6219 8.45996C25.9086 8.71609 25.9086 9.13087 25.6219 9.38699L12.2681 21.3164C11.0533 22.4017 9.43187 23 7.70283 23Z" fill="#5A5A5A"/>
</g>
<defs>
<clipPath id="clip0">
<rect width="25.7463" height="23" fill="white" transform="translate(0.671631)"/>
</clipPath>
</defs>
</svg>
