<svg width="25" height="23" viewBox="0 0 25 23" fill="none" xmlns="http://www.w3.org/2000/svg">
<path d="M6.70277 23C4.97324 23 3.35184 22.4021 2.13701 21.3164C0.92218 20.2307 0.252384 18.7827 0.252384 17.2377C0.252384 15.6931 0.92169 14.2446 2.13701 13.1594L15.4908 1.22993C17.4014 -0.475958 20.3702 -0.39947 22.3962 1.41044C24.4223 3.22035 24.5093 5.87206 22.5988 7.57926L10.0537 18.7862C8.87606 19.8382 6.95817 19.84 5.77856 18.7862C4.59994 17.7329 4.60043 16.0195 5.77856 14.9671L14.2765 7.37559C14.5632 7.11947 15.0275 7.11947 15.3142 7.37559C15.6009 7.63171 15.6009 8.04649 15.3142 8.30262L6.81628 15.8941C6.21009 16.4356 6.21009 17.3172 6.81628 17.8592C7.42345 18.4007 8.4098 18.3998 9.01599 17.8592L21.5611 6.65224C22.8796 5.47389 22.793 3.61896 21.3585 2.33747C19.924 1.05598 17.8476 0.978615 16.5286 2.15696L3.17473 14.0864C2.23682 14.9242 1.72016 16.0436 1.72016 17.2377C1.72016 18.4322 2.23682 19.5515 3.17473 20.3894C4.11264 21.2273 5.36563 21.6888 6.70277 21.6888C8.03943 21.6888 9.29242 21.2273 10.2303 20.3894L23.5842 8.45996C23.8709 8.20384 24.3352 8.20384 24.6219 8.45996C24.9086 8.71609 24.9086 9.13087 24.6219 9.38699L11.268 21.3164C10.0532 22.4017 8.43181 23 6.70277 23Z" fill="white"/>
</svg>
