<svg width="42" height="42" viewBox="0 0 42 42" fill="none" xmlns="http://www.w3.org/2000/svg">
<g clip-path="url(#clip0)">
<path d="M7.05258 18.6865C6.71084 18.6865 6.43382 18.9635 6.43382 19.3053V20.423C6.43382 25.038 8.52472 29.3076 12.1704 32.1371L18.0154 36.6734C18.2313 36.841 18.49 36.9248 18.7489 36.9248C19.0077 36.9248 19.2664 36.841 19.4824 36.6734L24.0541 33.1252C24.324 32.9156 24.373 32.5269 24.1635 32.257C23.954 31.9871 23.5653 31.938 23.2953 32.1475L18.7489 35.6762L12.9292 31.1595C9.58776 28.566 7.67135 24.6528 7.67135 20.423V19.3053C7.67135 18.9635 7.39433 18.6865 7.05258 18.6865Z" fill="#E31E1E"/>
<path d="M18.7489 37.7646C18.2804 37.7646 17.9006 38.1445 17.9006 38.6129C17.9006 39.0814 18.2804 39.4612 18.7489 39.4612C19.2173 39.4612 19.5971 39.0814 19.5971 38.6129C19.5971 38.1444 19.2173 37.7646 18.7489 37.7646Z" fill="#E31E1E"/>
<path d="M18.7489 3.33728C18.2804 3.33728 17.9006 3.71708 17.9006 4.18557C17.9006 4.65405 18.2804 5.03385 18.7489 5.03385C19.2173 5.03385 19.5971 4.65405 19.5971 4.18557C19.5971 3.717 19.2173 3.33728 18.7489 3.33728Z" fill="#E31E1E"/>
<path d="M31.5184 9.18312C31.5184 9.6516 31.8982 10.0314 32.3667 10.0314C32.8352 10.0314 33.215 9.6516 33.215 9.18312C33.215 8.71464 32.8352 8.33484 32.3667 8.33484C31.8982 8.33484 31.5184 8.71464 31.5184 9.18312Z" fill="#E31E1E"/>
<path d="M4.18156 9.18312C4.18156 9.6516 4.56136 10.0314 5.02985 10.0314C5.49833 10.0314 5.87813 9.6516 5.87813 9.18312C5.87813 8.71464 5.49833 8.33484 5.02985 8.33484C4.56136 8.33484 4.18156 8.71464 4.18156 9.18312Z" fill="#E31E1E"/>
<path d="M39.1256 37.943V22.9335C39.8496 22.5932 40.3523 21.8571 40.3523 21.0056C40.3523 19.8316 39.3973 18.8765 38.2232 18.8765H31.0639V11.363C31.0639 10.7539 30.6081 10.2431 30.0038 10.1748C27.6448 9.90864 25.4475 9.40825 23.4728 8.68744C22.148 8.20403 20.9494 7.62694 19.9103 6.97208C19.2048 6.52731 18.293 6.52739 17.5874 6.97216C16.5482 7.62702 15.3496 8.20411 14.0249 8.68744C12.0502 9.40816 9.85288 9.90864 7.4939 10.1748C6.88958 10.2431 6.43381 10.7539 6.43381 11.363V16.3793C6.43381 16.721 6.71083 16.998 7.05258 16.998C7.39432 16.998 7.67134 16.721 7.67134 16.3793V11.4002C10.1131 11.1219 12.3932 10.6003 14.4491 9.85007C15.856 9.33671 17.1339 8.72066 18.2471 8.01913C18.5566 7.82422 18.9411 7.82398 19.2505 8.01905C20.3637 8.72066 21.6416 9.33663 23.0486 9.85007C25.1045 10.6004 27.3847 11.1218 29.8263 11.4002V18.8765H26.5101C25.3361 18.8765 24.381 19.8315 24.381 21.0055C24.381 21.8603 24.8876 22.5985 25.616 22.9371V36.4047L20.9919 39.9936C20.353 40.4893 19.5564 40.7624 18.7488 40.7624C17.9295 40.7624 17.1539 40.4966 16.5059 39.9937L9.90579 34.8712C7.73261 33.1846 5.9445 30.9871 4.73462 28.5166C3.52474 26.0462 2.8853 23.2864 2.8853 20.5355V7.04911C2.8853 6.89104 3.01393 6.76151 3.172 6.76036L5.17824 6.74576C12.035 6.69596 15.3731 4.37415 16.7527 2.99463C17.1729 2.5743 17.5636 2.12477 17.9137 1.65843C18.1146 1.39076 18.421 1.23744 18.7548 1.23744C18.7557 1.23744 18.7565 1.23744 18.7575 1.23752C19.0898 1.23826 19.394 1.39166 19.5921 1.65818C19.9441 2.13175 20.332 2.58136 20.7453 2.99463C21.856 4.10525 25.2072 6.69416 32.3198 6.74576L34.326 6.76036C34.4841 6.76151 34.6127 6.89104 34.6127 7.04911V16.3535C34.6127 16.6952 34.8897 16.9723 35.2315 16.9723C35.5732 16.9723 35.8502 16.6952 35.8502 16.3535V7.04911C35.8502 6.21362 35.1705 5.52899 34.3351 5.52284L32.3289 5.50823C25.6742 5.45992 22.6233 3.12227 21.6205 2.11961C21.2498 1.74882 20.9016 1.34523 20.5854 0.91998C20.1519 0.336984 19.4868 0.00172266 18.7603 0C18.7584 0 18.7565 0 18.7547 0C18.0279 0 17.3609 0.333375 16.9239 0.915387C16.6087 1.33522 16.2566 1.74037 15.8775 2.11952C14.6319 3.36517 11.5845 5.46164 5.16914 5.50823L3.1629 5.52284C2.32749 5.52899 1.64778 6.21362 1.64778 7.04911V20.5355C1.64778 23.4741 2.33086 26.4221 3.62318 29.061C4.91558 31.7001 6.82568 34.0472 9.147 35.849L15.7471 40.9714C16.6018 41.6347 17.6678 42 18.7488 42C19.8298 42 20.8958 41.6347 21.7507 40.9713L24.7992 38.6053C24.5366 38.9593 24.3811 39.3972 24.3811 39.8708C24.3811 41.0448 25.3362 41.9999 26.5102 41.9999H38.2233C39.3973 41.9999 40.3524 41.0448 40.3524 39.8708C40.3523 39.0193 39.8497 38.2832 39.1256 37.943ZM26.8535 30.776C27.3757 30.2427 27.8573 29.6709 28.2919 29.0676C28.7384 29.6087 29.2593 30.0649 29.8286 30.397C28.3745 31.2455 27.2333 32.9009 26.8535 34.7229V30.776ZM26.8535 26.0711C26.992 26.7355 27.2323 27.3773 27.5515 27.9663C27.3333 28.2922 27.1 28.6087 26.8535 28.9153V26.0711ZM27.955 36.0175C27.955 33.8137 29.4834 31.5696 31.2925 31.1171C31.6231 31.0342 31.8539 30.738 31.8537 30.3968C31.8537 30.0555 31.6227 29.7594 31.2922 29.6768C29.4833 29.2244 27.955 26.9802 27.955 24.7763V23.1347H36.7782V24.7763C36.7782 26.9802 35.2498 29.2244 33.441 29.6768C33.1105 29.7594 32.8795 30.0554 32.8794 30.3968C32.8793 30.738 33.1101 31.0343 33.4409 31.1172C35.2498 31.5696 36.7782 33.8137 36.7782 36.0175V37.7417H27.955V36.0175ZM37.888 34.7644C37.5169 32.926 36.3697 31.2518 34.9047 30.397C36.3698 29.5422 37.5169 27.868 37.888 26.0297V34.7644ZM26.5101 20.114H38.2232C38.7148 20.114 39.1148 20.5139 39.1148 21.0056C39.1148 21.4972 38.7148 21.8973 38.2232 21.8973H26.5101C26.0184 21.8973 25.6185 21.4973 25.6185 21.0056C25.6185 20.514 26.0185 20.114 26.5101 20.114ZM38.2232 40.7625H26.5101C26.0184 40.7625 25.6185 40.3625 25.6185 39.8708C25.6185 39.3792 26.0184 38.9791 26.5101 38.9791H38.2232C38.7148 38.9791 39.1148 39.3791 39.1148 39.8708C39.1148 40.3625 38.7148 40.7625 38.2232 40.7625Z" fill="#E31E1E"/>
<path d="M15.9139 26.1756H15.9225C16.4948 26.1756 17.0263 25.9178 17.3804 25.4682L25.2021 15.5425C25.509 15.153 25.6459 14.6673 25.5876 14.175C25.5291 13.6826 25.2826 13.2424 24.8931 12.9356C24.5036 12.6287 24.018 12.4919 23.5257 12.5501C23.0333 12.6084 22.5931 12.8551 22.2863 13.2446L15.9435 21.2936L13.0591 17.5272C12.437 16.7147 11.2696 16.5596 10.4566 17.182C10.063 17.4835 9.81031 17.9202 9.7451 18.4117C9.67988 18.9033 9.80999 19.3908 10.1115 19.7845L14.4487 25.4479C14.7998 25.9063 15.3322 26.1716 15.9139 26.1756ZM10.9719 18.5744C10.9936 18.4106 11.0779 18.2651 11.2089 18.1647C11.3211 18.0789 11.4533 18.0374 11.5847 18.0374C11.7708 18.0374 11.9549 18.1208 12.0765 18.2796L15.4452 22.6784C15.5614 22.83 15.7411 22.9195 15.9322 22.9208C16.1202 22.9197 16.3043 22.8351 16.4224 22.685L23.2583 14.0104C23.3605 13.8806 23.5072 13.7984 23.6713 13.7789C23.8357 13.7597 23.9974 13.8051 24.1272 13.9074C24.257 14.0097 24.3392 14.1565 24.3586 14.3205C24.3781 14.4846 24.3325 14.6465 24.2302 14.7764L16.4085 24.7022C16.2905 24.852 16.1133 24.938 15.9225 24.938H15.9183C15.7258 24.9367 15.5482 24.8483 15.4313 24.6954L11.094 19.0319C10.9935 18.9008 10.9501 18.7383 10.9719 18.5744Z" fill="#E31E1E"/>
</g>
<defs>
<clipPath id="clip0">
<rect width="42" height="42" fill="white"/>
</clipPath>
</defs>
</svg>
