<svg width="16" height="18" viewBox="0 0 16 18" fill="none" xmlns="http://www.w3.org/2000/svg">
<path d="M12.1643 11.8987C11.6415 11.3329 10.989 11.3329 10.4696 11.8987C10.0734 12.3294 9.67717 12.7601 9.28762 13.1981C9.18108 13.3185 9.09118 13.3441 8.96134 13.2638C8.70497 13.1105 8.43195 12.9864 8.18558 12.8185C7.03692 12.0264 6.0747 11.0081 5.22237 9.86201C4.79953 9.29262 4.4233 8.68308 4.16027 7.99689C4.107 7.85819 4.11699 7.76694 4.2202 7.65379C4.61641 7.23405 5.00262 6.80336 5.39217 6.37266C5.93487 5.77407 5.93487 5.07328 5.38884 4.47104C5.0792 4.12794 4.76956 3.79215 4.45992 3.44905C4.14029 3.09866 3.824 2.74461 3.50104 2.39787C2.97832 1.83943 2.32575 1.83943 1.80635 2.40152C1.40682 2.83221 1.02393 3.27386 0.617738 3.69725C0.24151 4.08779 0.0517317 4.56594 0.0117783 5.12438C-0.0514812 6.03322 0.151615 6.89095 0.437948 7.72679C1.02393 9.45687 1.91622 10.9935 2.99829 12.4024C4.45992 14.3076 6.20455 15.8151 8.24551 16.9028C9.16443 17.3919 10.1167 17.7678 11.1521 17.8298C11.8646 17.8736 12.4839 17.6766 12.98 17.067C13.3196 16.6509 13.7025 16.2713 14.0621 15.8735C14.5948 15.2822 14.5981 14.5668 14.0687 13.9828C13.4361 13.2857 12.8002 12.5922 12.1643 11.8987Z" fill="#E31E24"/>
<path d="M11.5284 8.98857L12.7569 8.75862C12.5638 7.52129 12.0311 6.40075 11.222 5.51017C10.3664 4.57213 9.2843 3.98084 8.09236 3.79834L7.91923 5.15247C8.84149 5.29482 9.68051 5.75106 10.3431 6.4774C10.969 7.16359 11.3785 8.03228 11.5284 8.98857Z" fill="#E31E24"/>
<path d="M13.4494 3.13409C12.0311 1.57922 10.2365 0.597379 8.25547 0.294434L8.08234 1.64856C9.79367 1.91136 11.3452 2.7618 12.5704 4.10133C13.7324 5.37516 14.4949 6.98479 14.7712 8.75501L15.9998 8.52507C15.6768 6.4738 14.7945 4.61232 13.4494 3.13409Z" fill="#E31E24"/>
</svg>
