<svg width="45" height="45" viewBox="0 0 45 45" fill="none" xmlns="http://www.w3.org/2000/svg">
<g clip-path="url(#clip0)">
<path d="M40.4467 22.4204L39.2462 17.9547L40.439 13.4874C40.4998 13.2598 40.4345 13.0171 40.2679 12.8508L36.995 9.58388L35.7946 5.11826C35.7335 4.89079 35.5556 4.71326 35.328 4.65252L30.8607 3.45967L27.5878 0.192699C27.421 0.0263222 27.1783 -0.0386288 26.951 0.0227187L22.4853 1.22313L18.018 0.0303652C17.7906 -0.0302792 17.5479 0.0347597 17.3814 0.201576L14.1146 3.47435L9.64889 4.67485C9.42143 4.73593 9.24398 4.91382 9.18316 5.14137L7.99031 9.60875L4.72342 12.8816C4.55695 13.0483 4.49218 13.291 4.55326 13.5185L5.75376 17.9833L5.01442 20.7526C4.92056 21.1043 5.12956 21.4655 5.4813 21.5595C5.83304 21.6536 6.19427 21.4443 6.28822 21.0926L7.07317 18.1527C7.10305 18.0409 7.10296 17.9232 7.07291 17.8115L5.92532 13.5436L9.04807 10.4151C9.12989 10.3332 9.1886 10.2313 9.2184 10.1196L10.3588 5.84915L14.6274 4.70165C14.7392 4.6716 14.8411 4.61271 14.9228 4.5308L18.0456 1.40233L22.3158 2.54254C22.4275 2.57242 22.5452 2.57224 22.657 2.54227L26.9258 1.39478L30.0542 4.51761C30.1361 4.59935 30.2381 4.65806 30.3498 4.68794L34.6201 5.82815L35.7676 10.0968C35.7977 10.2085 35.8567 10.3105 35.9385 10.3922L39.0671 13.515L37.9268 17.7853C37.8969 17.8971 37.897 18.0148 37.927 18.1265L39.0746 22.3952L35.9518 25.5238C35.87 25.6057 35.8113 25.7076 35.7814 25.8194L34.6412 30.0896L30.3727 31.237C30.2609 31.2671 30.1588 31.326 30.0771 31.408L26.9543 34.5364L22.6844 33.3955C22.5724 33.3655 22.4546 33.3656 22.3426 33.3958L18.0742 34.5441L14.9457 31.4212C14.8637 31.3395 14.7617 31.2807 14.65 31.2509L13.7567 31.0122C13.7561 31.012 13.7556 31.0117 13.755 31.0117C13.7543 31.0115 13.7537 31.0114 13.7531 31.0112L10.3799 30.1099L9.23229 25.842C9.20214 25.7302 9.14325 25.6284 9.06134 25.5466L6.83859 23.3283C6.58081 23.0711 6.16342 23.0715 5.90642 23.3292C5.64926 23.5869 5.6497 24.0042 5.90739 24.2614L8.00507 26.355L9.20548 30.8196C9.26665 31.047 9.44445 31.2245 9.67191 31.2853L12.7769 32.1149L10.1158 42.0441C10.0534 42.2768 10.1231 42.525 10.2973 42.6914C10.4715 42.8578 10.7226 42.9161 10.9522 42.8429L15.1975 41.4935L18.199 44.785C18.3255 44.9237 18.5031 45 18.6861 45C18.738 45 18.7904 44.9938 18.842 44.9812C19.0761 44.9243 19.2605 44.7441 19.3228 44.5114L21.9039 34.8788L22.5146 34.7146L23.093 34.8691L25.6769 44.5114C25.7392 44.744 25.9236 44.9242 26.1577 44.9812C26.2094 44.9938 26.2617 45 26.3135 45C26.4965 45 26.6741 44.9237 26.8006 44.785L29.8023 41.4934L34.0477 42.8429C34.2774 42.9161 34.5286 42.8578 34.7027 42.6914C34.8769 42.525 34.9465 42.2768 34.8841 42.0441L33.8153 38.0556C33.7212 37.7041 33.3596 37.4954 33.008 37.5896C32.6563 37.6838 32.4477 38.0453 32.5419 38.3969L33.2987 41.2215L29.7994 40.1091C29.5543 40.0312 29.2861 40.103 29.1127 40.2932L26.6384 43.0064L24.563 35.262L26.9818 35.9083C27.2091 35.969 27.4521 35.9039 27.6185 35.7371L30.8853 32.4643L30.9478 32.4475L31.7721 35.5246C31.8509 35.8192 32.1173 36.0134 32.4083 36.0134C32.4648 36.0134 32.5222 36.0061 32.5792 35.9908C32.9309 35.8966 33.1396 35.5352 33.0454 35.1836L32.2208 32.1054L35.351 31.2639C35.5784 31.2027 35.7559 31.0249 35.8167 30.7974L37.0095 26.33L40.2765 23.0571C40.443 22.8905 40.5078 22.6477 40.4467 22.4204ZM18.3613 43.0063L15.8873 40.2932C15.7138 40.1031 15.4457 40.0313 15.2005 40.1092L11.7012 41.2215L14.0506 32.4552L14.1395 32.4789L17.4123 35.7458C17.5375 35.8708 17.7056 35.9384 17.878 35.9384C17.935 35.9384 17.9926 35.9311 18.0491 35.9159L20.4331 35.2746L18.3613 43.0063Z" fill="#E31E1E"/>
<path d="M22.5001 5.47742C24.3327 5.47742 26.0976 5.86493 27.7458 6.62914C28.0764 6.78242 28.468 6.63863 28.6211 6.30842C28.7743 5.97813 28.6307 5.58623 28.3005 5.43312C26.4771 4.5877 24.5257 4.15906 22.5002 4.15906C16.2631 4.15906 10.7835 8.35636 9.16434 14.3694C9.16373 14.3714 9.1632 14.3735 9.16259 14.3756C9.16074 14.3825 9.15872 14.3893 9.15687 14.396C8.84706 15.5558 8.68991 16.7581 8.68991 17.9693C8.68991 21.1276 9.72728 24.0994 11.6897 26.5632C11.691 26.5648 11.6924 26.5664 11.6937 26.568C11.6956 26.5704 11.6975 26.5728 11.6996 26.5752C14.3368 29.8828 18.2725 31.7796 22.5001 31.7796C30.1151 31.7796 36.3103 25.5843 36.3103 17.9693C36.3103 13.8495 34.4905 9.97522 31.3174 7.33982C31.0374 7.10726 30.6218 7.14567 30.3891 7.42578C30.1565 7.70588 30.195 8.12143 30.4751 8.35408C33.3456 10.7382 34.992 14.2428 34.992 17.9694C34.992 24.8575 29.3882 30.4613 22.5001 30.4613C19.1529 30.4613 16.0079 29.1467 13.6754 26.8121H17.6762C18.0403 26.8121 18.3354 26.5169 18.3354 26.1529V25.4057C18.9282 25.4856 19.3867 25.6379 19.8253 25.9741C20.2299 26.2844 20.7297 26.4552 21.2323 26.4552H28.4668C29.574 26.4552 30.4748 25.5544 30.4748 24.4472C30.4748 24.059 30.3641 23.6961 30.1726 23.3886C30.686 23.0244 31.0217 22.4255 31.0217 21.7496C31.0217 21.3404 30.8986 20.9594 30.6876 20.6415C31.1632 20.274 31.47 19.6981 31.47 19.0519C31.47 18.6446 31.348 18.2651 31.1387 17.9482C31.6174 17.5809 31.9267 17.003 31.9267 16.3543C31.9267 15.2471 31.0259 14.3463 29.9187 14.3463H25.8991C26.3795 12.599 26.2992 10.7732 25.6599 8.67804C25.4218 7.89757 24.7111 7.37322 23.8911 7.37322C23.386 7.37322 22.8968 7.58336 22.5489 7.94969C22.2011 8.31611 22.0165 8.81568 22.0427 9.32026C22.1634 11.6425 21.1315 12.4126 19.5695 13.5782C19.1772 13.871 18.7575 14.1846 18.3342 14.5449C18.3226 14.1911 18.0329 13.9075 17.6761 13.9075H10.6835C12.4004 8.90287 17.1409 5.47742 22.5001 5.47742ZM20.358 14.6347C21.9822 13.4225 23.5165 12.2776 23.3593 9.25179C23.3517 9.10449 23.4033 8.96439 23.5049 8.85734C23.6064 8.75038 23.7436 8.69149 23.891 8.69149C24.1234 8.69149 24.3322 8.84407 24.3988 9.06265C25.0573 11.2208 25.0487 13.0329 24.3719 14.7656C24.2927 14.9685 24.3188 15.1973 24.4416 15.3772C24.5644 15.557 24.7682 15.6646 24.9859 15.6646H29.9185C30.2988 15.6646 30.6082 15.9739 30.6082 16.3542C30.6082 16.7345 30.2988 17.0439 29.9185 17.0439H28.2406C27.8764 17.0439 27.5814 17.339 27.5814 17.7031C27.5814 18.0671 27.8764 18.3623 28.2406 18.3623H29.4618C29.842 18.3623 30.1515 18.6716 30.1515 19.0519C30.1515 19.4322 29.842 19.7415 29.4618 19.7415H28.2406C27.8764 19.7415 27.5814 20.0367 27.5814 20.4007C27.5814 20.7648 27.8764 21.0599 28.2406 21.0599H29.0134C29.3937 21.0599 29.7031 21.3693 29.7031 21.7496C29.7031 22.1299 29.3937 22.4393 29.0134 22.4393H27.7921C27.4279 22.4393 27.1329 22.7344 27.1329 23.0984C27.1329 23.4625 27.4279 23.7576 27.7921 23.7576H28.4665C28.8468 23.7576 29.1562 24.067 29.1562 24.4473C29.1562 24.8276 28.8468 25.137 28.4665 25.137H21.2321C21.0178 25.137 20.8029 25.0627 20.6271 24.928C19.8806 24.3554 19.098 24.1615 18.3351 24.0769V16.3606C18.9845 15.6603 19.6818 15.1394 20.358 14.6347ZM17.017 16.2583C17.017 16.259 17.0169 16.2595 17.0169 16.26V24.8371C17.0169 24.8377 17.017 24.8382 17.017 24.8388V25.4935H12.5285C10.8787 23.3152 10.0082 20.7206 10.0082 17.9692C10.0082 17.0424 10.1109 16.1219 10.3117 15.2257H17.017V16.2583Z" fill="#E31E1E"/>
</g>
<defs>
<clipPath id="clip0">
<rect width="45" height="45" fill="white"/>
</clipPath>
</defs>
</svg>
