<svg width="65" height="55" viewBox="0 0 65 55" fill="none" xmlns="http://www.w3.org/2000/svg">
<path d="M25.5164 4L21.0164 0C10.5164 6.5 -0.48357 25 0.0164298 38.5C0.41643 49.3 6.5 53.3333 10 54C19.5 55.5 25 51.5 26.5 48C30.1429 39.5 28.0164 30 16.5164 28.5C16.5164 19 22.6831 8.33333 25.5164 4Z" fill="#E31E1E"/>
<path d="M61.5164 4L57.0164 0C46.5164 6.5 35.5164 25 36.0164 38.5C36.4164 49.3 42.5 53.3333 46 54C55.5 55.5 61 51.5 62.5 48C66.1429 39.5 64.0164 30 52.5164 28.5C52.5164 19 58.6831 8.33333 61.5164 4Z" fill="#E31E1E"/>
</svg>
