<svg width="40" height="40" viewBox="0 0 40 40" fill="none" xmlns="http://www.w3.org/2000/svg">
<g clip-path="url(#clip0)">
<path d="M38.0069 19.9865L36.1921 19.7592C35.6404 18.4094 34.8477 17.1608 33.8626 16.0805L35.1969 10.4278C35.2517 10.1955 35.1974 9.95087 35.0492 9.76368C34.9011 9.57649 34.6756 9.46728 34.4369 9.46712L34.2662 9.46704C34.2652 9.46704 34.2645 9.46704 34.2634 9.46704C32.0485 9.46704 30.0524 10.8606 29.2672 12.9047C28.7119 12.684 28.141 12.5022 27.5589 12.3645C27.1389 12.2652 26.7181 12.5249 26.6188 12.9449C26.5195 13.3648 26.7793 13.7857 27.1992 13.885C29.1879 14.3554 30.9619 15.361 32.3602 16.7566C32.4113 16.8314 32.4749 16.8977 32.5498 16.9513C33.5691 18.0211 34.3748 19.3047 34.8974 20.7431C34.9975 21.0187 35.2437 21.2152 35.5346 21.2516L37.8129 21.5368C38.1691 21.5814 38.4376 21.8857 38.4376 22.2446V26.1834C38.4376 26.5423 38.169 26.8466 37.8129 26.8912L35.7017 27.1555C35.3981 27.1935 35.1445 27.4053 35.0531 27.6974C34.4268 29.6986 33.2368 31.4682 31.6116 32.8147C31.4324 32.9632 31.3288 33.1837 31.3288 33.4163V37.7346C31.3288 38.1222 31.0135 38.4375 30.626 38.4375H26.0942C25.7066 38.4375 25.3913 38.1222 25.3913 37.7346V36.0888C25.3913 35.6573 25.0414 35.3076 24.61 35.3076H18.0464C17.615 35.3076 17.2652 35.6573 17.2652 36.0888V37.7346C17.2652 38.1222 16.9499 38.4375 16.5623 38.4375H12.0304C11.6429 38.4375 11.3276 38.1222 11.3276 37.7346V34.6854C11.3276 34.399 11.1708 34.1355 10.9191 33.9989C7.41272 32.0951 5.23436 28.4365 5.23436 24.4507C5.23436 18.4641 10.1047 13.5938 16.0913 13.5938H17.0703C17.5017 13.5938 17.8515 13.244 17.8515 12.8125C17.8515 12.381 17.5017 12.0313 17.0703 12.0313H16.0913C10.2919 12.0313 5.40874 16.0271 4.04898 21.4102H3.47656C2.42109 21.4102 1.5625 20.5515 1.5625 19.4961C1.5625 18.4407 2.42109 17.582 3.47656 17.582C3.90796 17.582 4.2578 17.2323 4.2578 16.8008C4.2578 16.3693 3.90796 16.0195 3.47656 16.0195C1.55961 16.0195 0 17.5791 0 19.4961C0 21.4131 1.55961 22.9726 3.47656 22.9726H3.76023C3.70241 23.4575 3.67187 23.9505 3.67187 24.4507C3.67187 28.853 5.99483 32.9063 9.76506 35.1403V37.7347C9.76506 38.9838 10.7813 40 12.0304 40H16.5622C17.8113 40 18.8275 38.9838 18.8275 37.7347V36.8701H23.8286V37.7347C23.8286 38.9838 24.8449 40 26.094 40H30.6258C31.8749 40 32.8911 38.9838 32.8911 37.7347V33.7765C34.4774 32.3815 35.6744 30.6217 36.3828 28.645L38.0068 28.4416C39.143 28.2994 39.9999 27.3286 39.9999 26.1834V22.2446C39.9999 21.0995 39.1431 20.1287 38.0069 19.9865ZM32.5506 14.8373C31.9677 14.3606 31.3435 13.9382 30.687 13.5756C31.1186 12.3353 32.1714 11.4125 33.427 11.1244L32.5506 14.8373Z" fill="#E31E1E"/>
<path d="M31.0992 19.8383C30.9539 19.693 30.7524 19.6094 30.5469 19.6094C30.3414 19.6094 30.1399 19.693 29.9946 19.8383C29.8492 19.9836 29.7657 20.1852 29.7657 20.3906C29.7657 20.5961 29.8492 20.7977 29.9946 20.943C30.14 21.0883 30.3414 21.1719 30.5469 21.1719C30.7524 21.1719 30.9539 21.0883 31.0992 20.943C31.2445 20.7977 31.3282 20.5961 31.3282 20.3906C31.3282 20.1852 31.2445 19.9836 31.0992 19.8383Z" fill="#E31E1E"/>
<path d="M22.9095 4.55725C22.4781 4.55725 22.1282 4.90702 22.1282 5.3385V8.43732C22.1282 8.86881 22.4781 9.21857 22.9095 9.21857C23.3409 9.21857 23.6907 8.86881 23.6907 8.43732V5.3385C23.6907 4.90709 23.341 4.55725 22.9095 4.55725Z" fill="#E31E1E"/>
<path d="M23.4617 1.95156C23.3164 1.80625 23.1149 1.72266 22.9094 1.72266C22.7039 1.72266 22.5024 1.80625 22.3571 1.95156C22.2118 2.09687 22.1282 2.29844 22.1282 2.50391C22.1282 2.71015 22.2117 2.91094 22.3571 3.05625C22.5024 3.20156 22.7039 3.28515 22.9094 3.28515C23.1149 3.28515 23.3164 3.20156 23.4617 3.05625C23.607 2.91094 23.6907 2.70937 23.6907 2.50391C23.6907 2.29844 23.607 2.09766 23.4617 1.95156Z" fill="#E31E1E"/>
<path d="M16.5625 0C16.1311 0 15.7812 0.349765 15.7812 0.781249V2.10937C15.7812 2.54085 16.1311 2.89062 16.5625 2.89062C16.9939 2.89062 17.3437 2.54085 17.3437 2.10937V0.781249C17.3437 0.349765 16.994 0 16.5625 0Z" fill="#E31E1E"/>
<path d="M8.9014 24.4507C8.9014 24.0192 8.55155 23.6694 8.12015 23.6694C7.68874 23.6694 7.3389 24.0192 7.3389 24.4507L7.33898 24.4922C7.34163 24.9219 7.69093 25.2686 8.12015 25.2686C8.12171 25.2686 8.12335 25.2686 8.12507 25.2686C8.55647 25.2658 8.90413 24.9139 8.90147 24.4824L8.9014 24.4507Z" fill="#E31E1E"/>
<path d="M12.3596 30.5976C11.0016 29.7712 9.94147 28.5014 9.37476 27.0223C9.2203 26.6192 8.76851 26.4177 8.3657 26.5723C7.96281 26.7266 7.76132 27.1784 7.9157 27.5813C8.60554 29.3819 9.8953 30.9271 11.5474 31.9324C11.6743 32.0096 11.8144 32.0464 11.9527 32.0464C12.2164 32.0464 12.4738 31.9129 12.6209 31.6711C12.8452 31.3026 12.7281 30.8219 12.3596 30.5976Z" fill="#E31E1E"/>
<path d="M16.5625 3.75403C14.7532 3.75403 13.2812 5.22598 13.2812 7.03527C13.2812 8.84457 14.7532 10.3165 16.5625 10.3165C18.3718 10.3165 19.8437 8.84457 19.8437 7.03527C19.8437 5.22598 18.3718 3.75403 16.5625 3.75403ZM16.5625 8.75402C15.6147 8.75402 14.8437 7.983 14.8437 7.03527C14.8437 6.08754 15.6147 5.31653 16.5625 5.31653C17.5102 5.31653 18.2812 6.08754 18.2812 7.03527C18.2812 7.983 17.5102 8.75402 16.5625 8.75402Z" fill="#E31E1E"/>
<path d="M26.4062 16.5625H25.7031C26.012 16.0623 26.1907 15.4736 26.1907 14.8437C26.1907 13.0344 24.7188 11.5625 22.9095 11.5625C21.1002 11.5625 19.6282 13.0344 19.6282 14.8437C19.6282 15.4736 19.8069 16.0623 20.1158 16.5625H16.25C15.8186 16.5625 15.4687 16.9123 15.4687 17.3437C15.4687 17.7752 15.8186 18.125 16.25 18.125H26.4062C26.8376 18.125 27.1874 17.7752 27.1874 17.3437C27.1874 16.9123 26.8377 16.5625 26.4062 16.5625ZM22.9095 16.5625C21.9618 16.5625 21.1907 15.7915 21.1907 14.8437C21.1907 13.896 21.9618 13.125 22.9095 13.125C23.8572 13.125 24.6282 13.896 24.6282 14.8437C24.6282 15.7915 23.8571 16.5625 22.9095 16.5625Z" fill="#E31E1E"/>
</g>
<defs>
<clipPath id="clip0">
<rect width="40" height="40" fill="white"/>
</clipPath>
</defs>
</svg>
