<svg width="214" height="229" viewBox="0 0 214 229" fill="none" xmlns="http://www.w3.org/2000/svg">
<circle cx="2" cy="2" r="2" fill="#E31E1E"/>
<circle cx="2" cy="122" r="2" fill="#E31E1E"/>
<circle cx="2" cy="62" r="2" fill="#E31E1E"/>
<circle cx="2" cy="182" r="2" fill="#E31E1E"/>
<circle cx="2" cy="32" r="2" fill="#E31E1E"/>
<circle cx="2" cy="152" r="2" fill="#E31E1E"/>
<circle cx="2" cy="92" r="2" fill="#E31E1E"/>
<circle cx="2" cy="212" r="2" fill="#E31E1E"/>
<circle cx="2" cy="17" r="2" fill="#E31E1E"/>
<circle cx="2" cy="137" r="2" fill="#E31E1E"/>
<circle cx="2" cy="77" r="2" fill="#E31E1E"/>
<circle cx="2" cy="197" r="2" fill="#E31E1E"/>
<circle cx="2" cy="47" r="2" fill="#E31E1E"/>
<circle cx="2" cy="167" r="2" fill="#E31E1E"/>
<circle cx="2" cy="107" r="2" fill="#E31E1E"/>
<circle cx="2" cy="227" r="2" fill="#E31E1E"/>
<circle cx="92" cy="2" r="2" fill="#E31E1E"/>
<circle cx="92" cy="122" r="2" fill="#E31E1E"/>
<circle cx="92" cy="62" r="2" fill="#E31E1E"/>
<circle cx="92" cy="182" r="2" fill="#E31E1E"/>
<circle cx="92" cy="32" r="2" fill="#E31E1E"/>
<circle cx="92" cy="152" r="2" fill="#E31E1E"/>
<circle cx="92" cy="92" r="2" fill="#E31E1E"/>
<circle cx="92" cy="212" r="2" fill="#E31E1E"/>
<circle cx="92" cy="17" r="2" fill="#E31E1E"/>
<circle cx="92" cy="137" r="2" fill="#E31E1E"/>
<circle cx="92" cy="77" r="2" fill="#E31E1E"/>
<circle cx="92" cy="197" r="2" fill="#E31E1E"/>
<circle cx="92" cy="47" r="2" fill="#E31E1E"/>
<circle cx="92" cy="167" r="2" fill="#E31E1E"/>
<circle cx="92" cy="107" r="2" fill="#E31E1E"/>
<circle cx="92" cy="227" r="2" fill="#E31E1E"/>
<circle cx="17" cy="2" r="2" fill="#E31E1E"/>
<circle cx="17" cy="122" r="2" fill="#E31E1E"/>
<circle cx="17" cy="62" r="2" fill="#E31E1E"/>
<circle cx="17" cy="182" r="2" fill="#E31E1E"/>
<circle cx="17" cy="32" r="2" fill="#E31E1E"/>
<circle cx="17" cy="152" r="2" fill="#E31E1E"/>
<circle cx="17" cy="92" r="2" fill="#E31E1E"/>
<circle cx="17" cy="212" r="2" fill="#E31E1E"/>
<circle cx="17" cy="17" r="2" fill="#E31E1E"/>
<circle cx="17" cy="137" r="2" fill="#E31E1E"/>
<circle cx="17" cy="77" r="2" fill="#E31E1E"/>
<circle cx="17" cy="197" r="2" fill="#E31E1E"/>
<circle cx="17" cy="47" r="2" fill="#E31E1E"/>
<circle cx="17" cy="167" r="2" fill="#E31E1E"/>
<circle cx="17" cy="107" r="2" fill="#E31E1E"/>
<circle cx="17" cy="227" r="2" fill="#E31E1E"/>
<circle cx="107" cy="2" r="2" fill="#E31E1E"/>
<circle cx="107" cy="122" r="2" fill="#E31E1E"/>
<circle cx="107" cy="62" r="2" fill="#E31E1E"/>
<circle cx="107" cy="182" r="2" fill="#E31E1E"/>
<circle cx="107" cy="32" r="2" fill="#E31E1E"/>
<circle cx="107" cy="152" r="2" fill="#E31E1E"/>
<circle cx="107" cy="92" r="2" fill="#E31E1E"/>
<circle cx="107" cy="212" r="2" fill="#E31E1E"/>
<circle cx="107" cy="17" r="2" fill="#E31E1E"/>
<circle cx="107" cy="137" r="2" fill="#E31E1E"/>
<circle cx="107" cy="77" r="2" fill="#E31E1E"/>
<circle cx="107" cy="197" r="2" fill="#E31E1E"/>
<circle cx="107" cy="47" r="2" fill="#E31E1E"/>
<circle cx="107" cy="167" r="2" fill="#E31E1E"/>
<circle cx="107" cy="107" r="2" fill="#E31E1E"/>
<circle cx="107" cy="227" r="2" fill="#E31E1E"/>
<circle cx="32" cy="2" r="2" fill="#E31E1E"/>
<circle cx="32" cy="122" r="2" fill="#E31E1E"/>
<circle cx="32" cy="62" r="2" fill="#E31E1E"/>
<circle cx="32" cy="182" r="2" fill="#E31E1E"/>
<circle cx="32" cy="32" r="2" fill="#E31E1E"/>
<circle cx="32" cy="152" r="2" fill="#E31E1E"/>
<circle cx="32" cy="92" r="2" fill="#E31E1E"/>
<circle cx="32" cy="212" r="2" fill="#E31E1E"/>
<circle cx="32" cy="17" r="2" fill="#E31E1E"/>
<circle cx="32" cy="137" r="2" fill="#E31E1E"/>
<circle cx="32" cy="77" r="2" fill="#E31E1E"/>
<circle cx="32" cy="197" r="2" fill="#E31E1E"/>
<circle cx="32" cy="47" r="2" fill="#E31E1E"/>
<circle cx="32" cy="167" r="2" fill="#E31E1E"/>
<circle cx="32" cy="107" r="2" fill="#E31E1E"/>
<circle cx="32" cy="227" r="2" fill="#E31E1E"/>
<circle cx="122" cy="2" r="2" fill="#E31E1E"/>
<circle cx="122" cy="122" r="2" fill="#E31E1E"/>
<circle cx="122" cy="62" r="2" fill="#E31E1E"/>
<circle cx="122" cy="182" r="2" fill="#E31E1E"/>
<circle cx="122" cy="32" r="2" fill="#E31E1E"/>
<circle cx="122" cy="152" r="2" fill="#E31E1E"/>
<circle cx="122" cy="92" r="2" fill="#E31E1E"/>
<circle cx="122" cy="212" r="2" fill="#E31E1E"/>
<circle cx="122" cy="17" r="2" fill="#E31E1E"/>
<circle cx="122" cy="137" r="2" fill="#E31E1E"/>
<circle cx="122" cy="77" r="2" fill="#E31E1E"/>
<circle cx="122" cy="197" r="2" fill="#E31E1E"/>
<circle cx="122" cy="47" r="2" fill="#E31E1E"/>
<circle cx="122" cy="167" r="2" fill="#E31E1E"/>
<circle cx="122" cy="107" r="2" fill="#E31E1E"/>
<circle cx="122" cy="227" r="2" fill="#E31E1E"/>
<circle cx="47" cy="2" r="2" fill="#E31E1E"/>
<circle cx="47" cy="122" r="2" fill="#E31E1E"/>
<circle cx="47" cy="62" r="2" fill="#E31E1E"/>
<circle cx="47" cy="182" r="2" fill="#E31E1E"/>
<circle cx="47" cy="32" r="2" fill="#E31E1E"/>
<circle cx="47" cy="152" r="2" fill="#E31E1E"/>
<circle cx="47" cy="92" r="2" fill="#E31E1E"/>
<circle cx="47" cy="212" r="2" fill="#E31E1E"/>
<circle cx="47" cy="17" r="2" fill="#E31E1E"/>
<circle cx="47" cy="137" r="2" fill="#E31E1E"/>
<circle cx="47" cy="77" r="2" fill="#E31E1E"/>
<circle cx="47" cy="197" r="2" fill="#E31E1E"/>
<circle cx="47" cy="47" r="2" fill="#E31E1E"/>
<circle cx="47" cy="167" r="2" fill="#E31E1E"/>
<circle cx="47" cy="107" r="2" fill="#E31E1E"/>
<circle cx="47" cy="227" r="2" fill="#E31E1E"/>
<circle cx="137" cy="2" r="2" fill="#E31E1E"/>
<circle cx="182" cy="2" r="2" fill="#E31E1E"/>
<circle cx="137" cy="122" r="2" fill="#E31E1E"/>
<circle cx="182" cy="122" r="2" fill="#E31E1E"/>
<circle cx="137" cy="62" r="2" fill="#E31E1E"/>
<circle cx="182" cy="62" r="2" fill="#E31E1E"/>
<circle cx="137" cy="182" r="2" fill="#E31E1E"/>
<circle cx="182" cy="182" r="2" fill="#E31E1E"/>
<circle cx="137" cy="32" r="2" fill="#E31E1E"/>
<circle cx="182" cy="32" r="2" fill="#E31E1E"/>
<circle cx="137" cy="152" r="2" fill="#E31E1E"/>
<circle cx="182" cy="152" r="2" fill="#E31E1E"/>
<circle cx="137" cy="92" r="2" fill="#E31E1E"/>
<circle cx="182" cy="92" r="2" fill="#E31E1E"/>
<circle cx="137" cy="212" r="2" fill="#E31E1E"/>
<circle cx="182" cy="212" r="2" fill="#E31E1E"/>
<circle cx="137" cy="17" r="2" fill="#E31E1E"/>
<circle cx="182" cy="17" r="2" fill="#E31E1E"/>
<circle cx="137" cy="137" r="2" fill="#E31E1E"/>
<circle cx="182" cy="137" r="2" fill="#E31E1E"/>
<circle cx="137" cy="77" r="2" fill="#E31E1E"/>
<circle cx="182" cy="77" r="2" fill="#E31E1E"/>
<circle cx="137" cy="197" r="2" fill="#E31E1E"/>
<circle cx="182" cy="197" r="2" fill="#E31E1E"/>
<circle cx="137" cy="47" r="2" fill="#E31E1E"/>
<circle cx="182" cy="47" r="2" fill="#E31E1E"/>
<circle cx="137" cy="167" r="2" fill="#E31E1E"/>
<circle cx="182" cy="167" r="2" fill="#E31E1E"/>
<circle cx="137" cy="107" r="2" fill="#E31E1E"/>
<circle cx="182" cy="107" r="2" fill="#E31E1E"/>
<circle cx="137" cy="227" r="2" fill="#E31E1E"/>
<circle cx="182" cy="227" r="2" fill="#E31E1E"/>
<circle cx="62" cy="2" r="2" fill="#E31E1E"/>
<circle cx="62" cy="122" r="2" fill="#E31E1E"/>
<circle cx="62" cy="62" r="2" fill="#E31E1E"/>
<circle cx="62" cy="182" r="2" fill="#E31E1E"/>
<circle cx="62" cy="32" r="2" fill="#E31E1E"/>
<circle cx="62" cy="152" r="2" fill="#E31E1E"/>
<circle cx="62" cy="92" r="2" fill="#E31E1E"/>
<circle cx="62" cy="212" r="2" fill="#E31E1E"/>
<circle cx="62" cy="17" r="2" fill="#E31E1E"/>
<circle cx="62" cy="137" r="2" fill="#E31E1E"/>
<circle cx="62" cy="77" r="2" fill="#E31E1E"/>
<circle cx="62" cy="197" r="2" fill="#E31E1E"/>
<circle cx="62" cy="47" r="2" fill="#E31E1E"/>
<circle cx="62" cy="167" r="2" fill="#E31E1E"/>
<circle cx="62" cy="107" r="2" fill="#E31E1E"/>
<circle cx="62" cy="227" r="2" fill="#E31E1E"/>
<circle cx="152" cy="2" r="2" fill="#E31E1E"/>
<circle cx="197" cy="2" r="2" fill="#E31E1E"/>
<circle cx="152" cy="122" r="2" fill="#E31E1E"/>
<circle cx="197" cy="122" r="2" fill="#E31E1E"/>
<circle cx="152" cy="62" r="2" fill="#E31E1E"/>
<circle cx="197" cy="62" r="2" fill="#E31E1E"/>
<circle cx="152" cy="182" r="2" fill="#E31E1E"/>
<circle cx="197" cy="182" r="2" fill="#E31E1E"/>
<circle cx="152" cy="32" r="2" fill="#E31E1E"/>
<circle cx="197" cy="32" r="2" fill="#E31E1E"/>
<circle cx="152" cy="152" r="2" fill="#E31E1E"/>
<circle cx="197" cy="152" r="2" fill="#E31E1E"/>
<circle cx="152" cy="92" r="2" fill="#E31E1E"/>
<circle cx="197" cy="92" r="2" fill="#E31E1E"/>
<circle cx="152" cy="212" r="2" fill="#E31E1E"/>
<circle cx="197" cy="212" r="2" fill="#E31E1E"/>
<circle cx="152" cy="17" r="2" fill="#E31E1E"/>
<circle cx="197" cy="17" r="2" fill="#E31E1E"/>
<circle cx="152" cy="137" r="2" fill="#E31E1E"/>
<circle cx="197" cy="137" r="2" fill="#E31E1E"/>
<circle cx="152" cy="77" r="2" fill="#E31E1E"/>
<circle cx="197" cy="77" r="2" fill="#E31E1E"/>
<circle cx="152" cy="197" r="2" fill="#E31E1E"/>
<circle cx="197" cy="197" r="2" fill="#E31E1E"/>
<circle cx="152" cy="47" r="2" fill="#E31E1E"/>
<circle cx="197" cy="47" r="2" fill="#E31E1E"/>
<circle cx="152" cy="167" r="2" fill="#E31E1E"/>
<circle cx="197" cy="167" r="2" fill="#E31E1E"/>
<circle cx="152" cy="107" r="2" fill="#E31E1E"/>
<circle cx="197" cy="107" r="2" fill="#E31E1E"/>
<circle cx="152" cy="227" r="2" fill="#E31E1E"/>
<circle cx="197" cy="227" r="2" fill="#E31E1E"/>
<circle cx="77" cy="2" r="2" fill="#E31E1E"/>
<circle cx="77" cy="122" r="2" fill="#E31E1E"/>
<circle cx="77" cy="62" r="2" fill="#E31E1E"/>
<circle cx="77" cy="182" r="2" fill="#E31E1E"/>
<circle cx="77" cy="32" r="2" fill="#E31E1E"/>
<circle cx="77" cy="152" r="2" fill="#E31E1E"/>
<circle cx="77" cy="92" r="2" fill="#E31E1E"/>
<circle cx="77" cy="212" r="2" fill="#E31E1E"/>
<circle cx="77" cy="17" r="2" fill="#E31E1E"/>
<circle cx="77" cy="137" r="2" fill="#E31E1E"/>
<circle cx="77" cy="77" r="2" fill="#E31E1E"/>
<circle cx="77" cy="197" r="2" fill="#E31E1E"/>
<circle cx="77" cy="47" r="2" fill="#E31E1E"/>
<circle cx="77" cy="167" r="2" fill="#E31E1E"/>
<circle cx="77" cy="107" r="2" fill="#E31E1E"/>
<circle cx="77" cy="227" r="2" fill="#E31E1E"/>
<circle cx="167" cy="2" r="2" fill="#E31E1E"/>
<circle cx="212" cy="2" r="2" fill="#E31E1E"/>
<circle cx="167" cy="122" r="2" fill="#E31E1E"/>
<circle cx="212" cy="122" r="2" fill="#E31E1E"/>
<circle cx="167" cy="62" r="2" fill="#E31E1E"/>
<circle cx="212" cy="62" r="2" fill="#E31E1E"/>
<circle cx="167" cy="182" r="2" fill="#E31E1E"/>
<circle cx="212" cy="182" r="2" fill="#E31E1E"/>
<circle cx="167" cy="32" r="2" fill="#E31E1E"/>
<circle cx="212" cy="32" r="2" fill="#E31E1E"/>
<circle cx="167" cy="152" r="2" fill="#E31E1E"/>
<circle cx="212" cy="152" r="2" fill="#E31E1E"/>
<circle cx="167" cy="92" r="2" fill="#E31E1E"/>
<circle cx="212" cy="92" r="2" fill="#E31E1E"/>
<circle cx="167" cy="212" r="2" fill="#E31E1E"/>
<circle cx="212" cy="212" r="2" fill="#E31E1E"/>
<circle cx="167" cy="17" r="2" fill="#E31E1E"/>
<circle cx="212" cy="17" r="2" fill="#E31E1E"/>
<circle cx="167" cy="137" r="2" fill="#E31E1E"/>
<circle cx="212" cy="137" r="2" fill="#E31E1E"/>
<circle cx="167" cy="77" r="2" fill="#E31E1E"/>
<circle cx="212" cy="77" r="2" fill="#E31E1E"/>
<circle cx="167" cy="197" r="2" fill="#E31E1E"/>
<circle cx="212" cy="197" r="2" fill="#E31E1E"/>
<circle cx="167" cy="47" r="2" fill="#E31E1E"/>
<circle cx="212" cy="47" r="2" fill="#E31E1E"/>
<circle cx="167" cy="167" r="2" fill="#E31E1E"/>
<circle cx="212" cy="167" r="2" fill="#E31E1E"/>
<circle cx="167" cy="107" r="2" fill="#E31E1E"/>
<circle cx="212" cy="107" r="2" fill="#E31E1E"/>
<circle cx="167" cy="227" r="2" fill="#E31E1E"/>
<circle cx="212" cy="227" r="2" fill="#E31E1E"/>
</svg>
