<svg width="60" height="60" viewBox="0 0 60 60" fill="none" xmlns="http://www.w3.org/2000/svg">
<circle cx="30" cy="30" r="27" fill="#CE2F72" stroke="#F7F8F9" stroke-width="6"/>
<path d="M34.547 36H25.327V34.2L30.207 29.22C31.3937 28.0333 31.987 27.0067 31.987 26.14C31.987 25.4733 31.787 24.9467 31.387 24.56C30.987 24.1733 30.467 23.98 29.827 23.98C28.6537 23.98 27.787 24.56 27.227 25.72L25.287 24.58C25.7137 23.66 26.327 22.96 27.127 22.48C27.927 21.9867 28.8204 21.74 29.807 21.74C31.047 21.74 32.1004 22.1267 32.967 22.9C33.847 23.6867 34.287 24.74 34.287 26.06C34.287 27.4733 33.4937 28.9933 31.907 30.62L28.747 33.78H34.547V36Z" fill="white"/>
</svg>
