<svg width="60" height="60" viewBox="0 0 60 60" fill="none" xmlns="http://www.w3.org/2000/svg">
<circle cx="30" cy="30" r="27" fill="#CE2F72" stroke="#F7F8F9" stroke-width="6"/>
<path d="M34.1196 23.96L31.2796 27.72C32.3196 27.96 33.1463 28.44 33.7596 29.16C34.3863 29.8667 34.6996 30.7333 34.6996 31.76C34.6996 33.16 34.2263 34.26 33.2796 35.06C32.3463 35.86 31.1863 36.26 29.7996 36.26C28.7063 36.26 27.7396 36.0133 26.8996 35.52C26.0596 35.0133 25.4596 34.2933 25.0996 33.36L27.0596 32.22C27.4729 33.42 28.3863 34.02 29.7996 34.02C30.5996 34.02 31.2329 33.82 31.6996 33.42C32.1663 33.0067 32.3996 32.4533 32.3996 31.76C32.3996 31.0667 32.1663 30.52 31.6996 30.12C31.2329 29.72 30.5996 29.52 29.7996 29.52H29.2796L28.3596 28.14L31.3796 24.16H25.5196V22H34.1196V23.96Z" fill="white"/>
</svg>
