<svg width="60" height="60" viewBox="0 0 60 60" fill="none" xmlns="http://www.w3.org/2000/svg">
<circle cx="30" cy="30" r="27" fill="#CE2F72" stroke="#F7F8F9" stroke-width="6"/>
<path d="M28.2908 27.28H30.0508C31.3841 27.28 32.5108 27.68 33.4308 28.48C34.3508 29.2667 34.8108 30.36 34.8108 31.76C34.8108 33.16 34.3374 34.26 33.3908 35.06C32.4574 35.86 31.2974 36.26 29.9108 36.26C28.7774 36.26 27.7908 36 26.9508 35.48C26.1108 34.96 25.5108 34.22 25.1508 33.26L27.1308 32.12C27.5174 33.3867 28.4441 34.02 29.9108 34.02C30.6974 34.02 31.3241 33.82 31.7908 33.42C32.2708 33.0067 32.5108 32.4533 32.5108 31.76C32.5108 31.08 32.2774 30.54 31.8108 30.14C31.3441 29.7267 30.7241 29.52 29.9508 29.52H25.8708L26.4108 22H34.2108V24.16H28.5308L28.2908 27.28Z" fill="white"/>
</svg>
