<svg width="60" height="60" viewBox="0 0 60 60" fill="none" xmlns="http://www.w3.org/2000/svg">
<circle cx="30" cy="30" r="27" fill="#CE2F72" stroke="#F7F8F9" stroke-width="6"/>
<path d="M29.7508 26.7H30.0108C31.4774 26.7 32.6641 27.1467 33.5708 28.04C34.4908 28.92 34.9508 30.0667 34.9508 31.48C34.9508 32.88 34.4908 34.0333 33.5708 34.94C32.6508 35.82 31.4641 36.26 30.0108 36.26C28.5441 36.26 27.3508 35.82 26.4308 34.94C25.5108 34.0333 25.0508 32.88 25.0508 31.48C25.0508 30.4133 25.3308 29.4733 25.8908 28.66L30.3308 22H32.9508L29.7508 26.7ZM30.0108 34.08C30.7841 34.08 31.4174 33.8467 31.9108 33.38C32.4041 32.9 32.6508 32.2667 32.6508 31.48C32.6508 30.6933 32.4041 30.0667 31.9108 29.6C31.4174 29.12 30.7841 28.88 30.0108 28.88C29.2108 28.88 28.5641 29.12 28.0708 29.6C27.5908 30.0667 27.3508 30.6933 27.3508 31.48C27.3508 32.2667 27.5908 32.9 28.0708 33.38C28.5641 33.8467 29.2108 34.08 30.0108 34.08Z" fill="white"/>
</svg>
