<svg width="8" height="12" viewBox="0 0 8 12" fill="none" xmlns="http://www.w3.org/2000/svg">
<path d="M3.2908 6.00001L6.8308 2.46001C7.01705 2.27265 7.12159 2.0192 7.12159 1.75501C7.12159 1.49082 7.01705 1.23737 6.8308 1.05001C6.73783 0.956281 6.62723 0.881887 6.50537 0.831118C6.38352 0.780349 6.25281 0.754211 6.1208 0.754211C5.98879 0.754211 5.85808 0.780349 5.73622 0.831118C5.61436 0.881887 5.50376 0.956281 5.4108 1.05001L1.1708 5.29001C1.07707 5.38297 1.00268 5.49357 0.951907 5.61543C0.901138 5.73729 0.875 5.868 0.875 6.00001C0.875 6.13202 0.901138 6.26273 0.951907 6.38459C1.00268 6.50645 1.07707 6.61705 1.1708 6.71001L5.4108 11C5.50424 11.0927 5.61505 11.166 5.73689 11.2158C5.85873 11.2655 5.98919 11.2908 6.1208 11.29C6.2524 11.2908 6.38287 11.2655 6.5047 11.2158C6.62654 11.166 6.73736 11.0927 6.8308 11C7.01705 10.8126 7.12159 10.5592 7.12159 10.295C7.12159 10.0308 7.01705 9.77737 6.8308 9.59001L3.2908 6.00001Z" fill="#BBC3CF"/>
</svg>
