<svg width="8" height="12" viewBox="0 0 8 12" fill="none" xmlns="http://www.w3.org/2000/svg">
<path d="M4.7092 5.99999L1.1692 9.53999C0.982951 9.72735 0.878409 9.98081 0.878409 10.245C0.878409 10.5092 0.982951 10.7626 1.1692 10.95C1.26217 11.0437 1.37277 11.1181 1.49463 11.1689C1.61648 11.2197 1.74719 11.2458 1.8792 11.2458C2.01121 11.2458 2.14192 11.2197 2.26378 11.1689C2.38564 11.1181 2.49624 11.0437 2.5892 10.95L6.8292 6.70999C6.92293 6.61703 6.99732 6.50643 7.04809 6.38457C7.09886 6.26271 7.125 6.132 7.125 5.99999C7.125 5.86798 7.09886 5.73727 7.04809 5.61541C6.99732 5.49355 6.92293 5.38295 6.8292 5.28999L2.5892 0.999991C2.49576 0.90731 2.38494 0.833985 2.26311 0.78422C2.14127 0.734456 2.01081 0.709229 1.8792 0.70999C1.74759 0.709229 1.61713 0.734456 1.49529 0.78422C1.37346 0.833985 1.26264 0.90731 1.1692 0.999991C0.98295 1.18735 0.878409 1.44081 0.878409 1.70499C0.878409 1.96918 0.98295 2.22263 1.1692 2.40999L4.7092 5.99999Z" fill="#BBC3CF"/>
</svg>
