<svg width="20" height="20" viewBox="0 0 20 20" fill="none" xmlns="http://www.w3.org/2000/svg">
<circle cx="10" cy="10" r="9.375" fill="#CE2F72" stroke="#AC2B61" stroke-width="1.25"/>
<path d="M15.5917 6.00837C15.5142 5.93026 15.422 5.86827 15.3205 5.82596C15.2189 5.78365 15.11 5.76187 15 5.76187C14.89 5.76187 14.7811 5.78365 14.6795 5.82596C14.578 5.86827 14.4858 5.93026 14.4083 6.00837L8.20001 12.225L5.59168 9.60837C5.51124 9.53067 5.41629 9.46958 5.31224 9.42857C5.2082 9.38757 5.09709 9.36746 4.98528 9.3694C4.87346 9.37133 4.76312 9.39527 4.66055 9.43985C4.55799 9.48443 4.46521 9.54877 4.38751 9.6292C4.30981 9.70964 4.24872 9.80459 4.20771 9.90864C4.16671 10.0127 4.1466 10.1238 4.14853 10.2356C4.15047 10.3474 4.17441 10.4578 4.21899 10.5603C4.26356 10.6629 4.32791 10.7557 4.40834 10.8334L7.60834 14.0334C7.68581 14.1115 7.77798 14.1735 7.87953 14.2158C7.98108 14.2581 8.09 14.2799 8.20001 14.2799C8.31002 14.2799 8.41894 14.2581 8.52049 14.2158C8.62204 14.1735 8.71421 14.1115 8.79168 14.0334L15.5917 7.23337C15.6763 7.15533 15.7438 7.06063 15.7899 6.95521C15.8361 6.84979 15.86 6.73595 15.86 6.62087C15.86 6.50579 15.8361 6.39195 15.7899 6.28653C15.7438 6.18112 15.6763 6.08641 15.5917 6.00837Z" fill="white"/>
</svg>
