<svg width="70" height="67" viewBox="0 0 70 67" fill="none" xmlns="http://www.w3.org/2000/svg">
<g clip-path="url(#clip0_409_2279)">
<path d="M69.2418 66.112C69.6605 66.112 69.9998 65.7726 69.9998 65.354C69.9998 64.9353 69.6605 64.5959 69.2418 64.5959C68.8232 64.5959 68.4838 64.9353 68.4838 65.354C68.4838 65.7726 68.8232 66.112 69.2418 66.112Z" fill="#CE2F72"/>
<path d="M62.3682 66.112C62.7868 66.112 63.1262 65.7726 63.1262 65.354C63.1262 64.9353 62.7868 64.5959 62.3682 64.5959C61.9495 64.5959 61.6102 64.9353 61.6102 65.354C61.6102 65.7726 61.9495 66.112 62.3682 66.112Z" fill="#CE2F72"/>
<path d="M55.4974 66.1121C55.648 66.1127 55.7954 66.0685 55.9209 65.9853C56.0464 65.902 56.1444 65.7834 56.2024 65.6444C56.2604 65.5054 56.2759 65.3523 56.2469 65.2045C56.2179 65.0568 56.1456 64.9209 56.0393 64.8142C55.933 64.7075 55.7975 64.6348 55.6498 64.6052C55.5021 64.5756 55.349 64.5905 55.2098 64.648C55.0706 64.7055 54.9516 64.803 54.8678 64.9282C54.7841 65.0534 54.7394 65.2006 54.7394 65.3512C54.7394 65.5525 54.8192 65.7456 54.9612 65.8882C55.1033 66.0308 55.2961 66.1113 55.4974 66.1121V66.1121Z" fill="#CE2F72"/>
<path d="M48.6264 66.1121C48.7769 66.1121 48.924 66.0675 49.0491 65.9839C49.1742 65.9003 49.2717 65.7814 49.3293 65.6424C49.3869 65.5034 49.402 65.3504 49.3726 65.2028C49.3432 65.0552 49.2708 64.9196 49.1644 64.8132C49.058 64.7068 48.9224 64.6343 48.7748 64.605C48.6272 64.5756 48.4742 64.5907 48.3352 64.6483C48.1961 64.7058 48.0773 64.8034 47.9937 64.9285C47.9101 65.0536 47.8655 65.2007 47.8655 65.3512C47.8655 65.4511 47.8851 65.5501 47.9234 65.6424C47.9616 65.7347 48.0177 65.8186 48.0883 65.8892C48.159 65.9599 48.2429 66.016 48.3352 66.0542C48.4275 66.0924 48.5264 66.1121 48.6264 66.1121V66.1121Z" fill="#CE2F72"/>
<path d="M41.7527 66.112C42.1713 66.112 42.5107 65.7726 42.5107 65.354C42.5107 64.9353 42.1713 64.5959 41.7527 64.5959C41.3341 64.5959 40.9947 64.9353 40.9947 65.354C40.9947 65.7726 41.3341 66.112 41.7527 66.112Z" fill="#CE2F72"/>
<path d="M35.1718 66.0216C35.559 65.8624 35.7438 65.4195 35.5846 65.0323C35.4254 64.6451 34.9825 64.4603 34.5953 64.6195C34.2081 64.7787 34.0233 65.2216 34.1825 65.6088C34.3417 65.996 34.7846 66.1808 35.1718 66.0216Z" fill="#CE2F72"/>
<path d="M28.0109 64.6046C27.8602 64.6041 27.7127 64.6483 27.5871 64.7317C27.4616 64.815 27.3636 64.9339 27.3057 65.073C27.2477 65.2122 27.2324 65.3654 27.2617 65.5132C27.2909 65.6611 27.3635 65.7969 27.47 65.9035C27.5766 66.0101 27.7125 66.0826 27.8603 66.1119C28.0082 66.1412 28.1614 66.1258 28.3006 66.0679C28.4397 66.01 28.5585 65.912 28.6419 65.7864C28.7253 65.6609 28.7695 65.5134 28.7689 65.3626C28.7682 65.1618 28.6881 64.9695 28.5461 64.8275C28.4041 64.6855 28.2117 64.6054 28.0109 64.6046V64.6046Z" fill="#CE2F72"/>
<path d="M69.2418 59.9645C69.6605 59.9645 69.9998 59.6251 69.9998 59.2065C69.9998 58.7879 69.6605 58.4485 69.2418 58.4485C68.8232 58.4485 68.4838 58.7879 68.4838 59.2065C68.4838 59.6251 68.8232 59.9645 69.2418 59.9645Z" fill="#CE2F72"/>
<path d="M62.3682 59.9645C62.7868 59.9645 63.1262 59.6251 63.1262 59.2065C63.1262 58.7879 62.7868 58.4485 62.3682 58.4485C61.9495 58.4485 61.6102 58.7879 61.6102 59.2065C61.6102 59.6251 61.9495 59.9645 62.3682 59.9645Z" fill="#CE2F72"/>
<path d="M55.4974 59.9648C55.6481 59.9653 55.7957 59.9211 55.9212 59.8377C56.0468 59.7543 56.1448 59.6355 56.2027 59.4964C56.2606 59.3572 56.276 59.204 56.2467 59.0561C56.2174 58.9083 56.1449 58.7724 56.0383 58.6658C55.9317 58.5593 55.7959 58.4867 55.648 58.4575C55.5001 58.4282 55.3469 58.4435 55.2078 58.5015C55.0686 58.5594 54.9498 58.6574 54.8664 58.7829C54.7831 58.9085 54.7388 59.056 54.7394 59.2067C54.7401 59.4075 54.8203 59.5999 54.9623 59.7419C55.1043 59.8839 55.2966 59.964 55.4974 59.9648V59.9648Z" fill="#CE2F72"/>
<path d="M48.6264 59.9648C48.777 59.9648 48.9242 59.9201 49.0494 59.8363C49.1746 59.7526 49.2721 59.6336 49.3296 59.4944C49.3871 59.3552 49.402 59.202 49.3724 59.0544C49.3428 58.9067 49.2701 58.7711 49.1634 58.6648C49.0567 58.5585 48.9208 58.4863 48.773 58.4573C48.6252 58.4282 48.4722 58.4437 48.3332 58.5017C48.1942 58.5598 48.0756 58.6577 47.9923 58.7832C47.9091 58.9087 47.8649 59.0561 47.8655 59.2067C47.8655 59.3065 47.8852 59.4053 47.9235 59.4975C47.9617 59.5896 48.0178 59.6733 48.0885 59.7438C48.1592 59.8142 48.2431 59.8699 48.3354 59.9079C48.4277 59.9458 48.5266 59.9651 48.6264 59.9648V59.9648Z" fill="#CE2F72"/>
<path d="M41.7527 59.9645C42.1713 59.9645 42.5107 59.6251 42.5107 59.2065C42.5107 58.7879 42.1713 58.4485 41.7527 58.4485C41.3341 58.4485 40.9947 58.7879 40.9947 59.2065C40.9947 59.6251 41.3341 59.9645 41.7527 59.9645Z" fill="#CE2F72"/>
<path d="M35.1724 59.8765C35.5596 59.7173 35.7444 59.2743 35.5852 58.8872C35.426 58.5 34.9831 58.3151 34.5959 58.4743C34.2087 58.6335 34.0239 59.0765 34.1831 59.4636C34.3423 59.8508 34.7852 60.0357 35.1724 59.8765Z" fill="#CE2F72"/>
<path d="M28.0109 59.9648C28.1615 59.9648 28.3087 59.9201 28.4339 59.8363C28.5591 59.7526 28.6566 59.6336 28.7141 59.4944C28.7716 59.3552 28.7865 59.202 28.757 59.0544C28.7274 58.9067 28.6546 58.7711 28.5479 58.6648C28.4412 58.5585 28.3054 58.4863 28.1576 58.4573C28.0098 58.4282 27.8567 58.4437 27.7177 58.5017C27.5788 58.5598 27.4601 58.6577 27.3768 58.7832C27.2936 58.9087 27.2494 59.0561 27.25 59.2067C27.25 59.3065 27.2697 59.4053 27.308 59.4975C27.3463 59.5896 27.4024 59.6733 27.4731 59.7438C27.5438 59.8142 27.6277 59.8699 27.7199 59.9079C27.8122 59.9458 27.9111 59.9651 28.0109 59.9648Z" fill="#CE2F72"/>
<path d="M69.2418 53.8172C69.6605 53.8172 69.9998 53.4778 69.9998 53.0592C69.9998 52.6405 69.6605 52.3011 69.2418 52.3011C68.8232 52.3011 68.4838 52.6405 68.4838 53.0592C68.4838 53.4778 68.8232 53.8172 69.2418 53.8172Z" fill="#CE2F72"/>
<path d="M62.3682 53.8172C62.7868 53.8172 63.1262 53.4778 63.1262 53.0592C63.1262 52.6405 62.7868 52.3011 62.3682 52.3011C61.9495 52.3011 61.6102 52.6405 61.6102 53.0592C61.6102 53.4778 61.9495 53.8172 62.3682 53.8172Z" fill="#CE2F72"/>
<path d="M55.4974 53.8201C55.648 53.8207 55.7954 53.7765 55.9209 53.6933C56.0464 53.61 56.1444 53.4914 56.2024 53.3524C56.2604 53.2134 56.2759 53.0603 56.2469 52.9126C56.2179 52.7648 56.1456 52.6289 56.0393 52.5222C55.933 52.4155 55.7975 52.3428 55.6498 52.3132C55.5021 52.2836 55.349 52.2985 55.2098 52.356C55.0706 52.4135 54.9516 52.511 54.8678 52.6362C54.7841 52.7614 54.7394 52.9086 54.7394 53.0592C54.7394 53.2605 54.8192 53.4536 54.9612 53.5962C55.1033 53.7388 55.2961 53.8193 55.4974 53.8201V53.8201Z" fill="#CE2F72"/>
<path d="M48.6264 53.8201C48.7769 53.8201 48.924 53.7755 49.0491 53.6919C49.1742 53.6083 49.2717 53.4894 49.3293 53.3504C49.3869 53.2114 49.402 53.0584 49.3726 52.9108C49.3432 52.7632 49.2708 52.6276 49.1644 52.5212C49.058 52.4148 48.9224 52.3423 48.7748 52.313C48.6272 52.2836 48.4742 52.2987 48.3352 52.3563C48.1961 52.4139 48.0773 52.5114 47.9937 52.6365C47.9101 52.7616 47.8655 52.9087 47.8655 53.0592C47.8655 53.1591 47.8851 53.2581 47.9234 53.3504C47.9616 53.4427 48.0177 53.5266 48.0883 53.5972C48.159 53.6679 48.2429 53.7239 48.3352 53.7622C48.4275 53.8004 48.5264 53.8201 48.6264 53.8201V53.8201Z" fill="#CE2F72"/>
<path d="M41.7527 53.8172C42.1713 53.8172 42.5107 53.4778 42.5107 53.0592C42.5107 52.6405 42.1713 52.3011 41.7527 52.3011C41.3341 52.3011 40.9947 52.6405 40.9947 53.0592C40.9947 53.4778 41.3341 53.8172 41.7527 53.8172Z" fill="#CE2F72"/>
<path d="M35.1721 53.7316C35.5593 53.5724 35.7441 53.1294 35.5849 52.7422C35.4257 52.3551 34.9828 52.1702 34.5956 52.3294C34.2084 52.4886 34.0236 52.9315 34.1828 53.3187C34.342 53.7059 34.7849 53.8907 35.1721 53.7316Z" fill="#CE2F72"/>
<path d="M28.0109 53.8201C28.1614 53.8201 28.3085 53.7755 28.4336 53.6919C28.5587 53.6083 28.6562 53.4894 28.7138 53.3504C28.7714 53.2114 28.7865 53.0584 28.7572 52.9108C28.7278 52.7632 28.6553 52.6276 28.5489 52.5212C28.4425 52.4148 28.3069 52.3423 28.1593 52.313C28.0117 52.2836 27.8588 52.2987 27.7197 52.3563C27.5807 52.4139 27.4619 52.5114 27.3782 52.6365C27.2946 52.7616 27.25 52.9087 27.25 53.0592C27.25 53.261 27.3302 53.4545 27.4729 53.5972C27.6156 53.7399 27.8091 53.8201 28.0109 53.8201V53.8201Z" fill="#CE2F72"/>
<path d="M69.2418 47.6729C69.6605 47.6729 69.9998 47.3335 69.9998 46.9149C69.9998 46.4962 69.6605 46.1569 69.2418 46.1569C68.8232 46.1569 68.4838 46.4962 68.4838 46.9149C68.4838 47.3335 68.8232 47.6729 69.2418 47.6729Z" fill="#CE2F72"/>
<path d="M62.3682 47.6729C62.7868 47.6729 63.1262 47.3335 63.1262 46.9149C63.1262 46.4962 62.7868 46.1569 62.3682 46.1569C61.9495 46.1569 61.6102 46.4962 61.6102 46.9149C61.6102 47.3335 61.9495 47.6729 62.3682 47.6729Z" fill="#CE2F72"/>
<path d="M55.4974 47.6643C55.6481 47.6649 55.7957 47.6207 55.9212 47.5373C56.0468 47.4539 56.1448 47.3351 56.2027 47.196C56.2606 47.0568 56.276 46.9036 56.2467 46.7557C56.2174 46.6079 56.1449 46.472 56.0383 46.3654C55.9317 46.2589 55.7959 46.1863 55.648 46.1571C55.5001 46.1278 55.3469 46.1431 55.2078 46.201C55.0686 46.259 54.9498 46.357 54.8664 46.4825C54.7831 46.6081 54.7388 46.7556 54.7394 46.9063C54.7401 47.1071 54.8203 47.2995 54.9623 47.4415C55.1043 47.5835 55.2966 47.6636 55.4974 47.6643V47.6643Z" fill="#CE2F72"/>
<path d="M48.6264 47.6643C48.777 47.6643 48.9242 47.6196 49.0494 47.5359C49.1746 47.4522 49.2721 47.3332 49.3296 47.194C49.3871 47.0548 49.402 46.9016 49.3724 46.754C49.3428 46.6063 49.2701 46.4707 49.1634 46.3644C49.0567 46.2581 48.9208 46.1859 48.773 46.1568C48.6252 46.1278 48.4722 46.1433 48.3332 46.2013C48.1942 46.2594 48.0756 46.3573 47.9923 46.4828C47.9091 46.6083 47.8649 46.7557 47.8655 46.9063C47.8655 47.0061 47.8852 47.1049 47.9235 47.1971C47.9617 47.2892 48.0178 47.3729 48.0885 47.4433C48.1592 47.5138 48.2431 47.5695 48.3354 47.6075C48.4277 47.6454 48.5266 47.6647 48.6264 47.6643V47.6643Z" fill="#CE2F72"/>
<path d="M41.7527 47.6729C42.1713 47.6729 42.5107 47.3335 42.5107 46.9149C42.5107 46.4962 42.1713 46.1569 41.7527 46.1569C41.3341 46.1569 40.9947 46.4962 40.9947 46.9149C40.9947 47.3335 41.3341 47.6729 41.7527 47.6729Z" fill="#CE2F72"/>
<path d="M35.1729 47.5864C35.5601 47.4272 35.745 46.9843 35.5858 46.5971C35.4266 46.2099 34.9836 46.0251 34.5965 46.1843C34.2093 46.3435 34.0244 46.7864 34.1836 47.1736C34.3428 47.5608 34.7858 47.7456 35.1729 47.5864Z" fill="#CE2F72"/>
<path d="M28.0109 47.6643C28.1615 47.6643 28.3087 47.6196 28.4339 47.5359C28.5591 47.4522 28.6566 47.3332 28.7141 47.194C28.7716 47.0548 28.7865 46.9016 28.757 46.754C28.7274 46.6063 28.6546 46.4707 28.5479 46.3644C28.4412 46.2581 28.3054 46.1859 28.1576 46.1568C28.0098 46.1278 27.8567 46.1433 27.7177 46.2013C27.5788 46.2594 27.4601 46.3573 27.3768 46.4828C27.2936 46.6083 27.2494 46.7557 27.25 46.9063C27.25 47.0061 27.2697 47.1049 27.308 47.1971C27.3463 47.2892 27.4024 47.3729 27.4731 47.4433C27.5438 47.5138 27.6277 47.5695 27.7199 47.6075C27.8122 47.6454 27.9111 47.6647 28.0109 47.6643V47.6643Z" fill="#CE2F72"/>
<path d="M69.2418 41.5254C69.6605 41.5254 69.9998 41.186 69.9998 40.7674C69.9998 40.3488 69.6605 40.0094 69.2418 40.0094C68.8232 40.0094 68.4838 40.3488 68.4838 40.7674C68.4838 41.186 68.8232 41.5254 69.2418 41.5254Z" fill="#CE2F72"/>
<path d="M62.3682 41.5254C62.7869 41.5254 63.1262 41.186 63.1262 40.7674C63.1262 40.3488 62.7869 40.0094 62.3682 40.0094C61.9496 40.0094 61.6102 40.3488 61.6102 40.7674C61.6102 41.186 61.9496 41.5254 62.3682 41.5254Z" fill="#CE2F72"/>
<path d="M55.4974 41.5284C55.648 41.5289 55.7954 41.4848 55.9209 41.4015C56.0464 41.3183 56.1444 41.1996 56.2024 41.0606C56.2604 40.9217 56.2759 40.7686 56.2469 40.6208C56.2179 40.473 56.1456 40.3372 56.0393 40.2305C55.933 40.1238 55.7975 40.051 55.6498 40.0214C55.5021 39.9918 55.349 40.0067 55.2098 40.0642C55.0706 40.1217 54.9516 40.2193 54.8678 40.3445C54.7841 40.4696 54.7394 40.6169 54.7394 40.7675C54.7394 40.9688 54.8192 41.1619 54.9612 41.3045C55.1033 41.4471 55.2961 41.5276 55.4974 41.5284V41.5284Z" fill="#CE2F72"/>
<path d="M48.6264 41.5284C48.7769 41.5284 48.924 41.4837 49.0491 41.4001C49.1742 41.3165 49.2717 41.1977 49.3293 41.0587C49.3869 40.9196 49.402 40.7666 49.3726 40.619C49.3432 40.4714 49.2708 40.3359 49.1644 40.2294C49.058 40.123 48.9224 40.0506 48.7748 40.0212C48.6272 39.9919 48.4742 40.0069 48.3352 40.0645C48.1961 40.1221 48.0773 40.2196 47.9937 40.3448C47.9101 40.4699 47.8655 40.617 47.8655 40.7675C47.8655 40.8674 47.8851 40.9663 47.9234 41.0587C47.9616 41.151 48.0177 41.2348 48.0883 41.3055C48.159 41.3761 48.2429 41.4322 48.3352 41.4704C48.4275 41.5087 48.5264 41.5284 48.6264 41.5284V41.5284Z" fill="#CE2F72"/>
<path d="M41.7527 41.5254C42.1713 41.5254 42.5107 41.186 42.5107 40.7674C42.5107 40.3488 42.1713 40.0094 41.7527 40.0094C41.3341 40.0094 40.9947 40.3488 40.9947 40.7674C40.9947 41.186 41.3341 41.5254 41.7527 41.5254Z" fill="#CE2F72"/>
<path d="M35.1724 41.4385C35.5596 41.2793 35.7444 40.8363 35.5852 40.4491C35.426 40.062 34.9831 39.8771 34.5959 40.0363C34.2087 40.1955 34.0239 40.6385 34.1831 41.0256C34.3423 41.4128 34.7852 41.5977 35.1724 41.4385Z" fill="#CE2F72"/>
<path d="M28.0109 41.5284C28.1614 41.5284 28.3085 41.4837 28.4336 41.4001C28.5587 41.3165 28.6562 41.1977 28.7138 41.0587C28.7714 40.9196 28.7865 40.7666 28.7572 40.619C28.7278 40.4714 28.6553 40.3359 28.5489 40.2294C28.4425 40.123 28.3069 40.0506 28.1593 40.0212C28.0117 39.9919 27.8588 40.0069 27.7197 40.0645C27.5807 40.1221 27.4619 40.2196 27.3782 40.3448C27.2946 40.4699 27.25 40.617 27.25 40.7675C27.25 40.9693 27.3302 41.1628 27.4729 41.3055C27.6156 41.4482 27.8091 41.5284 28.0109 41.5284V41.5284Z" fill="#CE2F72"/>
</g>
<g clip-path="url(#clip1_409_2279)">
<path d="M21.8124 66.0216C22.1996 65.8624 22.3844 65.4195 22.2252 65.0323C22.066 64.6451 21.6231 64.4603 21.2359 64.6195C20.8487 64.7787 20.6639 65.2216 20.8231 65.6088C20.9823 65.996 21.4252 66.1808 21.8124 66.0216Z" fill="#CE2F72"/>
<path d="M14.6515 64.6046C14.5008 64.6041 14.3533 64.6483 14.2278 64.7317C14.1022 64.815 14.0042 64.9339 13.9463 65.073C13.8883 65.2122 13.873 65.3654 13.9023 65.5132C13.9316 65.6611 14.0041 65.7969 14.1107 65.9035C14.2173 66.0101 14.3531 66.0826 14.5009 66.1119C14.6488 66.1412 14.802 66.1258 14.9412 66.0679C15.0803 66.01 15.1992 65.912 15.2825 65.7864C15.3659 65.6609 15.4101 65.5134 15.4096 65.3626C15.4088 65.1618 15.3287 64.9695 15.1867 64.8275C15.0447 64.6855 14.8524 64.6054 14.6515 64.6046V64.6046Z" fill="#CE2F72"/>
<path d="M21.813 59.8765C22.2002 59.7173 22.385 59.2743 22.2258 58.8872C22.0667 58.5 21.6237 58.3151 21.2365 58.4743C20.8493 58.6335 20.6645 59.0765 20.8237 59.4636C20.9829 59.8508 21.4258 60.0357 21.813 59.8765Z" fill="#CE2F72"/>
<path d="M14.6515 59.9648C14.8021 59.9648 14.9493 59.9201 15.0745 59.8363C15.1997 59.7526 15.2972 59.6336 15.3547 59.4944C15.4123 59.3552 15.4272 59.202 15.3976 59.0544C15.368 58.9067 15.2952 58.7711 15.1885 58.6648C15.0818 58.5585 14.946 58.4863 14.7982 58.4573C14.6504 58.4282 14.4973 58.4437 14.3584 58.5017C14.2194 58.5598 14.1007 58.6577 14.0175 58.7832C13.9342 58.9087 13.8901 59.0561 13.8906 59.2067C13.8906 59.3065 13.9103 59.4053 13.9486 59.4975C13.9869 59.5896 14.043 59.6733 14.1137 59.7438C14.1844 59.8142 14.2683 59.8699 14.3606 59.9079C14.4529 59.9458 14.5517 59.9651 14.6515 59.9648Z" fill="#CE2F72"/>
<path d="M21.8127 53.7316C22.1999 53.5724 22.3847 53.1294 22.2255 52.7422C22.0663 52.3551 21.6234 52.1702 21.2362 52.3294C20.849 52.4886 20.6642 52.9315 20.8234 53.3187C20.9826 53.7059 21.4255 53.8907 21.8127 53.7316Z" fill="#CE2F72"/>
<path d="M14.6515 53.8201C14.802 53.8201 14.9491 53.7755 15.0742 53.6919C15.1994 53.6083 15.2969 53.4894 15.3545 53.3504C15.4121 53.2114 15.4271 53.0584 15.3978 52.9108C15.3684 52.7632 15.296 52.6276 15.1896 52.5212C15.0831 52.4148 14.9475 52.3423 14.7999 52.313C14.6524 52.2836 14.4994 52.2987 14.3604 52.3563C14.2213 52.4139 14.1025 52.5114 14.0189 52.6365C13.9353 52.7616 13.8906 52.9087 13.8906 53.0592C13.8906 53.261 13.9708 53.4545 14.1135 53.5972C14.2562 53.7399 14.4497 53.8201 14.6515 53.8201V53.8201Z" fill="#CE2F72"/>
<path d="M21.8136 47.5864C22.2008 47.4272 22.3856 46.9843 22.2264 46.5971C22.0672 46.2099 21.6243 46.0251 21.2371 46.1843C20.8499 46.3435 20.6651 46.7864 20.8243 47.1736C20.9834 47.5608 21.4264 47.7456 21.8136 47.5864Z" fill="#CE2F72"/>
<path d="M14.6515 47.6643C14.8021 47.6643 14.9493 47.6196 15.0745 47.5359C15.1997 47.4522 15.2972 47.3332 15.3547 47.194C15.4123 47.0548 15.4272 46.9016 15.3976 46.754C15.368 46.6063 15.2952 46.4707 15.1885 46.3644C15.0818 46.2581 14.946 46.1859 14.7982 46.1568C14.6504 46.1278 14.4973 46.1433 14.3584 46.2013C14.2194 46.2594 14.1007 46.3573 14.0175 46.4828C13.9342 46.6083 13.8901 46.7557 13.8906 46.9063C13.8906 47.0061 13.9103 47.1049 13.9486 47.1971C13.9869 47.2892 14.043 47.3729 14.1137 47.4433C14.1844 47.5138 14.2683 47.5695 14.3606 47.6075C14.4529 47.6454 14.5517 47.6647 14.6515 47.6643V47.6643Z" fill="#CE2F72"/>
<path d="M21.813 41.4385C22.2002 41.2793 22.385 40.8363 22.2258 40.4491C22.0666 40.062 21.6237 39.8771 21.2365 40.0363C20.8493 40.1955 20.6645 40.6385 20.8237 41.0256C20.9829 41.4128 21.4258 41.5977 21.813 41.4385Z" fill="#CE2F72"/>
<path d="M14.6515 41.5284C14.802 41.5284 14.9491 41.4837 15.0742 41.4001C15.1994 41.3165 15.2969 41.1977 15.3545 41.0587C15.4121 40.9196 15.4271 40.7666 15.3978 40.619C15.3684 40.4714 15.296 40.3359 15.1896 40.2294C15.0831 40.123 14.9475 40.0506 14.7999 40.0212C14.6524 39.9919 14.4994 40.0069 14.3604 40.0645C14.2213 40.1221 14.1025 40.2196 14.0189 40.3448C13.9353 40.4699 13.8906 40.617 13.8906 40.7675C13.8906 40.9693 13.9708 41.1628 14.1135 41.3055C14.2562 41.4482 14.4497 41.5284 14.6515 41.5284V41.5284Z" fill="#CE2F72"/>
</g>
<g clip-path="url(#clip2_409_2279)">
<path d="M69.2418 35.1024C69.6605 35.1024 69.9998 34.7631 69.9998 34.3444C69.9998 33.9258 69.6605 33.5864 69.2418 33.5864C68.8232 33.5864 68.4838 33.9258 68.4838 34.3444C68.4838 34.7631 68.8232 35.1024 69.2418 35.1024Z" fill="#CE2F72"/>
<path d="M62.3682 35.1024C62.7868 35.1024 63.1262 34.7631 63.1262 34.3444C63.1262 33.9258 62.7868 33.5864 62.3682 33.5864C61.9495 33.5864 61.6102 33.9258 61.6102 34.3444C61.6102 34.7631 61.9495 35.1024 62.3682 35.1024Z" fill="#CE2F72"/>
<path d="M55.4974 35.1027C55.648 35.1033 55.7954 35.0591 55.9209 34.9759C56.0464 34.8926 56.1444 34.774 56.2024 34.635C56.2604 34.496 56.2759 34.3429 56.2469 34.1951C56.2179 34.0474 56.1456 33.9115 56.0393 33.8048C55.933 33.6981 55.7975 33.6254 55.6498 33.5958C55.5021 33.5662 55.349 33.5811 55.2098 33.6386C55.0706 33.6961 54.9516 33.7936 54.8678 33.9188C54.7841 34.044 54.7394 34.1912 54.7394 34.3418C54.7394 34.5431 54.8192 34.7362 54.9612 34.8788C55.1033 35.0214 55.2961 35.1019 55.4974 35.1027V35.1027Z" fill="#CE2F72"/>
<path d="M48.6264 35.1027C48.7769 35.1027 48.924 35.0581 49.0491 34.9745C49.1742 34.8909 49.2717 34.772 49.3293 34.633C49.3869 34.494 49.402 34.341 49.3726 34.1934C49.3432 34.0458 49.2708 33.9102 49.1644 33.8038C49.058 33.6974 48.9224 33.6249 48.7748 33.5956C48.6272 33.5662 48.4742 33.5813 48.3352 33.6389C48.1961 33.6964 48.0773 33.794 47.9937 33.9191C47.9101 34.0442 47.8655 34.1913 47.8655 34.3418C47.8655 34.4417 47.8851 34.5407 47.9234 34.633C47.9616 34.7253 48.0177 34.8092 48.0883 34.8798C48.159 34.9505 48.2429 35.0066 48.3352 35.0448C48.4275 35.083 48.5264 35.1027 48.6264 35.1027V35.1027Z" fill="#CE2F72"/>
<path d="M41.7527 35.1024C42.1713 35.1024 42.5107 34.7631 42.5107 34.3444C42.5107 33.9258 42.1713 33.5864 41.7527 33.5864C41.3341 33.5864 40.9947 33.9258 40.9947 34.3444C40.9947 34.7631 41.3341 35.1024 41.7527 35.1024Z" fill="#CE2F72"/>
<path d="M35.1718 35.0121C35.559 34.8529 35.7438 34.4099 35.5846 34.0228C35.4254 33.6356 34.9825 33.4508 34.5953 33.6099C34.2081 33.7691 34.0233 34.2121 34.1825 34.5992C34.3417 34.9864 34.7846 35.1713 35.1718 35.0121Z" fill="#CE2F72"/>
<path d="M28.0109 33.5951C27.8602 33.5945 27.7127 33.6387 27.5871 33.7221C27.4616 33.8055 27.3636 33.9243 27.3057 34.0635C27.2477 34.2026 27.2324 34.3559 27.2617 34.5037C27.2909 34.6516 27.3635 34.7874 27.47 34.894C27.5766 35.0006 27.7125 35.0731 27.8603 35.1024C28.0082 35.1316 28.1614 35.1163 28.3006 35.0584C28.4397 35.0004 28.5585 34.9025 28.6419 34.7769C28.7253 34.6513 28.7695 34.5038 28.7689 34.3531C28.7682 34.1523 28.6881 33.9599 28.5461 33.8179C28.4041 33.676 28.2117 33.5959 28.0109 33.5951V33.5951Z" fill="#CE2F72"/>
<path d="M69.2418 28.9551C69.6605 28.9551 69.9998 28.6157 69.9998 28.1971C69.9998 27.7785 69.6605 27.4391 69.2418 27.4391C68.8232 27.4391 68.4838 27.7785 68.4838 28.1971C68.4838 28.6157 68.8232 28.9551 69.2418 28.9551Z" fill="#CE2F72"/>
<path d="M62.3682 28.9551C62.7868 28.9551 63.1262 28.6157 63.1262 28.1971C63.1262 27.7785 62.7868 27.4391 62.3682 27.4391C61.9495 27.4391 61.6102 27.7785 61.6102 28.1971C61.6102 28.6157 61.9495 28.9551 62.3682 28.9551Z" fill="#CE2F72"/>
<path d="M55.4974 28.9552C55.6481 28.9558 55.7957 28.9116 55.9212 28.8282C56.0468 28.7448 56.1448 28.626 56.2027 28.4869C56.2606 28.3477 56.276 28.1945 56.2467 28.0466C56.2174 27.8988 56.1449 27.7629 56.0383 27.6563C55.9317 27.5497 55.7959 27.4772 55.648 27.448C55.5001 27.4187 55.3469 27.434 55.2078 27.4919C55.0686 27.5499 54.9498 27.6479 54.8664 27.7734C54.7831 27.899 54.7388 28.0465 54.7394 28.1972C54.7401 28.398 54.8203 28.5904 54.9623 28.7324C55.1043 28.8744 55.2966 28.9545 55.4974 28.9552V28.9552Z" fill="#CE2F72"/>
<path d="M48.6264 28.9552C48.777 28.9552 48.9242 28.9105 49.0494 28.8268C49.1746 28.7431 49.2721 28.6241 49.3296 28.4849C49.3871 28.3457 49.402 28.1925 49.3724 28.0448C49.3428 27.8972 49.2701 27.7616 49.1634 27.6553C49.0567 27.549 48.9208 27.4768 48.773 27.4477C48.6252 27.4187 48.4722 27.4342 48.3332 27.4922C48.1942 27.5503 48.0756 27.6482 47.9923 27.7737C47.9091 27.8992 47.8649 28.0466 47.8655 28.1972C47.8655 28.297 47.8852 28.3958 47.9235 28.488C47.9617 28.5801 48.0178 28.6638 48.0885 28.7342C48.1592 28.8047 48.2431 28.8604 48.3354 28.8984C48.4277 28.9363 48.5266 28.9556 48.6264 28.9552V28.9552Z" fill="#CE2F72"/>
<path d="M41.7527 28.9551C42.1713 28.9551 42.5107 28.6157 42.5107 28.1971C42.5107 27.7785 42.1713 27.4391 41.7527 27.4391C41.3341 27.4391 40.9947 27.7785 40.9947 28.1971C40.9947 28.6157 41.3341 28.9551 41.7527 28.9551Z" fill="#CE2F72"/>
<path d="M35.1724 28.8671C35.5596 28.7079 35.7444 28.2649 35.5852 27.8778C35.426 27.4906 34.9831 27.3057 34.5959 27.4649C34.2087 27.6241 34.0239 28.0671 34.1831 28.4542C34.3423 28.8414 34.7852 29.0263 35.1724 28.8671Z" fill="#CE2F72"/>
<path d="M28.0109 28.9552C28.1615 28.9552 28.3087 28.9105 28.4339 28.8268C28.5591 28.7431 28.6566 28.6241 28.7141 28.4849C28.7716 28.3457 28.7865 28.1925 28.757 28.0448C28.7274 27.8972 28.6546 27.7616 28.5479 27.6553C28.4412 27.549 28.3054 27.4768 28.1576 27.4477C28.0098 27.4187 27.8567 27.4342 27.7177 27.4922C27.5788 27.5503 27.4601 27.6482 27.3768 27.7737C27.2936 27.8992 27.2494 28.0466 27.25 28.1972C27.25 28.297 27.2697 28.3958 27.308 28.488C27.3463 28.5801 27.4024 28.6638 27.4731 28.7342C27.5438 28.8047 27.6277 28.8604 27.7199 28.8984C27.8122 28.9363 27.9111 28.9556 28.0109 28.9552Z" fill="#CE2F72"/>
<path d="M69.2418 22.8076C69.6605 22.8076 69.9998 22.4683 69.9998 22.0496C69.9998 21.631 69.6605 21.2916 69.2418 21.2916C68.8232 21.2916 68.4838 21.631 68.4838 22.0496C68.4838 22.4683 68.8232 22.8076 69.2418 22.8076Z" fill="#CE2F72"/>
<path d="M62.3682 22.8076C62.7868 22.8076 63.1262 22.4683 63.1262 22.0496C63.1262 21.631 62.7868 21.2916 62.3682 21.2916C61.9495 21.2916 61.6102 21.631 61.6102 22.0496C61.6102 22.4683 61.9495 22.8076 62.3682 22.8076Z" fill="#CE2F72"/>
<path d="M55.4974 22.8107C55.648 22.8113 55.7954 22.7671 55.9209 22.6839C56.0464 22.6006 56.1444 22.482 56.2024 22.343C56.2604 22.204 56.2759 22.0509 56.2469 21.9032C56.2179 21.7554 56.1456 21.6195 56.0393 21.5128C55.933 21.4061 55.7975 21.3334 55.6498 21.3038C55.5021 21.2742 55.349 21.2891 55.2098 21.3466C55.0706 21.4041 54.9516 21.5016 54.8678 21.6268C54.7841 21.752 54.7394 21.8992 54.7394 22.0498C54.7394 22.2511 54.8192 22.4442 54.9612 22.5868C55.1033 22.7294 55.2961 22.8099 55.4974 22.8107V22.8107Z" fill="#CE2F72"/>
<path d="M48.6264 22.8107C48.7769 22.8107 48.924 22.7661 49.0491 22.6825C49.1742 22.5989 49.2717 22.48 49.3293 22.341C49.3869 22.202 49.402 22.049 49.3726 21.9014C49.3432 21.7538 49.2708 21.6182 49.1644 21.5118C49.058 21.4054 48.9224 21.3329 48.7748 21.3036C48.6272 21.2742 48.4742 21.2893 48.3352 21.3469C48.1961 21.4045 48.0773 21.502 47.9937 21.6271C47.9101 21.7522 47.8655 21.8993 47.8655 22.0498C47.8655 22.1497 47.8851 22.2487 47.9234 22.341C47.9616 22.4333 48.0177 22.5172 48.0883 22.5878C48.159 22.6585 48.2429 22.7145 48.3352 22.7528C48.4275 22.791 48.5264 22.8107 48.6264 22.8107V22.8107Z" fill="#CE2F72"/>
<path d="M41.7527 22.8076C42.1713 22.8076 42.5107 22.4683 42.5107 22.0496C42.5107 21.631 42.1713 21.2916 41.7527 21.2916C41.3341 21.2916 40.9947 21.631 40.9947 22.0496C40.9947 22.4683 41.3341 22.8076 41.7527 22.8076Z" fill="#CE2F72"/>
<path d="M35.1721 22.7221C35.5593 22.5629 35.7441 22.12 35.5849 21.7328C35.4257 21.3456 34.9828 21.1608 34.5956 21.32C34.2084 21.4792 34.0236 21.9221 34.1828 22.3093C34.342 22.6965 34.7849 22.8813 35.1721 22.7221Z" fill="#CE2F72"/>
<path d="M28.0109 22.8107C28.1614 22.8107 28.3085 22.7661 28.4336 22.6825C28.5587 22.5989 28.6562 22.48 28.7138 22.341C28.7714 22.202 28.7865 22.049 28.7572 21.9014C28.7278 21.7538 28.6553 21.6182 28.5489 21.5118C28.4425 21.4054 28.3069 21.3329 28.1593 21.3036C28.0117 21.2742 27.8588 21.2893 27.7197 21.3469C27.5807 21.4045 27.4619 21.502 27.3782 21.6271C27.2946 21.7522 27.25 21.8993 27.25 22.0498C27.25 22.2516 27.3302 22.4451 27.4729 22.5878C27.6156 22.7305 27.8091 22.8107 28.0109 22.8107V22.8107Z" fill="#CE2F72"/>
<path d="M69.2418 16.6634C69.6605 16.6634 69.9998 16.324 69.9998 15.9054C69.9998 15.4868 69.6605 15.1474 69.2418 15.1474C68.8232 15.1474 68.4838 15.4868 68.4838 15.9054C68.4838 16.324 68.8232 16.6634 69.2418 16.6634Z" fill="#CE2F72"/>
<path d="M62.3682 16.6634C62.7868 16.6634 63.1262 16.324 63.1262 15.9054C63.1262 15.4868 62.7868 15.1474 62.3682 15.1474C61.9495 15.1474 61.6102 15.4868 61.6102 15.9054C61.6102 16.324 61.9495 16.6634 62.3682 16.6634Z" fill="#CE2F72"/>
<path d="M55.4974 16.6548C55.6481 16.6554 55.7957 16.6112 55.9212 16.5278C56.0468 16.4444 56.1448 16.3256 56.2027 16.1864C56.2606 16.0473 56.276 15.8941 56.2467 15.7462C56.2174 15.5983 56.1449 15.4625 56.0383 15.3559C55.9317 15.2493 55.7959 15.1768 55.648 15.1475C55.5001 15.1183 55.3469 15.1336 55.2078 15.1915C55.0686 15.2495 54.9498 15.3474 54.8664 15.473C54.7831 15.5986 54.7388 15.7461 54.7394 15.8968C54.7401 16.0976 54.8203 16.29 54.9623 16.432C55.1043 16.574 55.2966 16.6541 55.4974 16.6548V16.6548Z" fill="#CE2F72"/>
<path d="M48.6264 16.6548C48.777 16.6548 48.9242 16.6101 49.0494 16.5264C49.1746 16.4426 49.2721 16.3237 49.3296 16.1845C49.3871 16.0453 49.402 15.8921 49.3724 15.7444C49.3428 15.5968 49.2701 15.4612 49.1634 15.3549C49.0567 15.2486 48.9208 15.1764 48.773 15.1473C48.6252 15.1183 48.4722 15.1338 48.3332 15.1918C48.1942 15.2498 48.0756 15.3478 47.9923 15.4733C47.9091 15.5988 47.8649 15.7462 47.8655 15.8968C47.8655 15.9966 47.8852 16.0954 47.9235 16.1876C47.9617 16.2797 48.0178 16.3634 48.0885 16.4338C48.1592 16.5042 48.2431 16.56 48.3354 16.598C48.4277 16.6359 48.5266 16.6552 48.6264 16.6548V16.6548Z" fill="#CE2F72"/>
<path d="M41.7527 16.6634C42.1713 16.6634 42.5107 16.324 42.5107 15.9054C42.5107 15.4868 42.1713 15.1474 41.7527 15.1474C41.3341 15.1474 40.9947 15.4868 40.9947 15.9054C40.9947 16.324 41.3341 16.6634 41.7527 16.6634Z" fill="#CE2F72"/>
<path d="M35.1729 16.577C35.5601 16.4178 35.745 15.9749 35.5858 15.5877C35.4266 15.2005 34.9836 15.0157 34.5965 15.1749C34.2093 15.3341 34.0244 15.777 34.1836 16.1642C34.3428 16.5514 34.7858 16.7362 35.1729 16.577Z" fill="#CE2F72"/>
<path d="M28.0109 16.6548C28.1615 16.6548 28.3087 16.6101 28.4339 16.5264C28.5591 16.4426 28.6566 16.3237 28.7141 16.1845C28.7716 16.0453 28.7865 15.8921 28.757 15.7444C28.7274 15.5968 28.6546 15.4612 28.5479 15.3549C28.4412 15.2486 28.3054 15.1764 28.1576 15.1473C28.0098 15.1183 27.8567 15.1338 27.7177 15.1918C27.5788 15.2498 27.4601 15.3478 27.3768 15.4733C27.2936 15.5988 27.2494 15.7462 27.25 15.8968C27.25 15.9966 27.2697 16.0954 27.308 16.1876C27.3463 16.2797 27.4024 16.3634 27.4731 16.4338C27.5438 16.5042 27.6277 16.56 27.7199 16.598C27.8122 16.6359 27.9111 16.6552 28.0109 16.6548V16.6548Z" fill="#CE2F72"/>
<path d="M69.2418 10.516C69.6605 10.516 69.9998 10.1766 69.9998 9.75801C69.9998 9.33937 69.6605 9 69.2418 9C68.8232 9 68.4838 9.33937 68.4838 9.75801C68.4838 10.1766 68.8232 10.516 69.2418 10.516Z" fill="#CE2F72"/>
<path d="M62.3682 10.516C62.7869 10.516 63.1262 10.1766 63.1262 9.75801C63.1262 9.33937 62.7869 9 62.3682 9C61.9496 9 61.6102 9.33937 61.6102 9.75801C61.6102 10.1766 61.9496 10.516 62.3682 10.516Z" fill="#CE2F72"/>
<path d="M55.4974 10.519C55.648 10.5195 55.7954 10.4754 55.9209 10.3921C56.0464 10.3089 56.1444 10.1902 56.2024 10.0512C56.2604 9.91226 56.2759 9.75919 56.2469 9.6114C56.2179 9.46362 56.1456 9.32777 56.0393 9.22108C55.933 9.11438 55.7975 9.04162 55.6498 9.01202C55.5021 8.98243 55.349 8.99733 55.2098 9.05484C55.0706 9.11234 54.9516 9.20987 54.8678 9.33506C54.7841 9.46024 54.7394 9.60746 54.7394 9.75807C54.7394 9.95937 54.8192 10.1525 54.9612 10.2951C55.1033 10.4377 55.2961 10.5182 55.4974 10.519V10.519Z" fill="#CE2F72"/>
<path d="M48.6264 10.519C48.7769 10.519 48.924 10.4743 49.0491 10.3907C49.1742 10.3071 49.2717 10.1883 49.3293 10.0493C49.3869 9.91022 49.402 9.75723 49.3726 9.60963C49.3432 9.46204 49.2708 9.32645 49.1644 9.22004C49.058 9.11363 48.9224 9.04117 48.7748 9.01181C48.6272 8.98245 48.4742 8.99753 48.3352 9.05512C48.1961 9.1127 48.0773 9.21023 47.9937 9.33535C47.9101 9.46048 47.8655 9.60758 47.8655 9.75807C47.8655 9.85799 47.8851 9.95694 47.9234 10.0493C47.9616 10.1416 48.0177 10.2254 48.0883 10.2961C48.159 10.3667 48.2429 10.4228 48.3352 10.461C48.4275 10.4993 48.5264 10.519 48.6264 10.519V10.519Z" fill="#CE2F72"/>
<path d="M41.7527 10.516C42.1713 10.516 42.5107 10.1766 42.5107 9.75801C42.5107 9.33937 42.1713 9 41.7527 9C41.3341 9 40.9947 9.33937 40.9947 9.75801C40.9947 10.1766 41.3341 10.516 41.7527 10.516Z" fill="#CE2F72"/>
<path d="M35.1724 10.4291C35.5596 10.2699 35.7444 9.82694 35.5852 9.43975C35.426 9.05256 34.9831 8.86775 34.5959 9.02694C34.2087 9.18613 34.0239 9.62905 34.1831 10.0162C34.3423 10.4034 34.7852 10.5883 35.1724 10.4291Z" fill="#CE2F72"/>
<path d="M28.0109 10.5188C28.1614 10.5188 28.3085 10.4742 28.4336 10.3906C28.5587 10.307 28.6562 10.1882 28.7138 10.0491C28.7714 9.9101 28.7865 9.75711 28.7572 9.60951C28.7278 9.46191 28.6553 9.32633 28.5489 9.21992C28.4425 9.11351 28.3069 9.04105 28.1593 9.01169C28.0117 8.98233 27.8588 8.9974 27.7197 9.05499C27.5807 9.11258 27.4619 9.2101 27.3782 9.33523C27.2946 9.46036 27.25 9.60746 27.25 9.75794C27.25 9.95974 27.3302 10.1533 27.4729 10.296C27.6156 10.4387 27.8091 10.5188 28.0109 10.5188V10.5188Z" fill="#CE2F72"/>
</g>
<g clip-path="url(#clip3_409_2279)">
<path d="M21.8124 35.0121C22.1996 34.8529 22.3844 34.4099 22.2252 34.0228C22.066 33.6356 21.6231 33.4508 21.2359 33.6099C20.8487 33.7691 20.6639 34.2121 20.8231 34.5992C20.9823 34.9864 21.4252 35.1713 21.8124 35.0121Z" fill="#CE2F72"/>
<path d="M14.6515 33.5951C14.5008 33.5945 14.3533 33.6387 14.2278 33.7221C14.1022 33.8055 14.0042 33.9243 13.9463 34.0635C13.8883 34.2026 13.873 34.3559 13.9023 34.5037C13.9316 34.6516 14.0041 34.7874 14.1107 34.894C14.2173 35.0006 14.3531 35.0731 14.5009 35.1024C14.6488 35.1316 14.802 35.1163 14.9412 35.0584C15.0803 35.0004 15.1992 34.9025 15.2825 34.7769C15.3659 34.6513 15.4101 34.5038 15.4096 34.3531C15.4088 34.1523 15.3287 33.9599 15.1867 33.8179C15.0447 33.676 14.8524 33.5959 14.6515 33.5951V33.5951Z" fill="#CE2F72"/>
<path d="M21.813 28.8671C22.2002 28.7079 22.385 28.2649 22.2258 27.8778C22.0667 27.4906 21.6237 27.3057 21.2365 27.4649C20.8493 27.6241 20.6645 28.0671 20.8237 28.4542C20.9829 28.8414 21.4258 29.0263 21.813 28.8671Z" fill="#CE2F72"/>
<path d="M14.6515 28.9552C14.8021 28.9552 14.9493 28.9105 15.0745 28.8268C15.1997 28.7431 15.2972 28.6241 15.3547 28.4849C15.4123 28.3457 15.4272 28.1925 15.3976 28.0448C15.368 27.8972 15.2952 27.7616 15.1885 27.6553C15.0818 27.549 14.946 27.4768 14.7982 27.4477C14.6504 27.4187 14.4973 27.4342 14.3584 27.4922C14.2194 27.5503 14.1007 27.6482 14.0175 27.7737C13.9342 27.8992 13.8901 28.0466 13.8906 28.1972C13.8906 28.297 13.9103 28.3958 13.9486 28.488C13.9869 28.5801 14.043 28.6638 14.1137 28.7342C14.1844 28.8047 14.2683 28.8604 14.3606 28.8984C14.4529 28.9363 14.5517 28.9556 14.6515 28.9552Z" fill="#CE2F72"/>
<path d="M21.8127 22.7221C22.1999 22.5629 22.3847 22.12 22.2255 21.7328C22.0663 21.3456 21.6234 21.1608 21.2362 21.32C20.849 21.4792 20.6642 21.9221 20.8234 22.3093C20.9826 22.6965 21.4255 22.8813 21.8127 22.7221Z" fill="#CE2F72"/>
<path d="M14.6515 22.8107C14.802 22.8107 14.9491 22.7661 15.0742 22.6825C15.1994 22.5989 15.2969 22.48 15.3545 22.341C15.4121 22.202 15.4271 22.049 15.3978 21.9014C15.3684 21.7538 15.296 21.6182 15.1896 21.5118C15.0831 21.4054 14.9475 21.3329 14.7999 21.3036C14.6524 21.2742 14.4994 21.2893 14.3604 21.3469C14.2213 21.4045 14.1025 21.502 14.0189 21.6271C13.9353 21.7522 13.8906 21.8993 13.8906 22.0498C13.8906 22.2516 13.9708 22.4451 14.1135 22.5878C14.2562 22.7305 14.4497 22.8107 14.6515 22.8107V22.8107Z" fill="#CE2F72"/>
<path d="M21.8136 16.577C22.2008 16.4178 22.3856 15.9749 22.2264 15.5877C22.0672 15.2005 21.6243 15.0157 21.2371 15.1749C20.8499 15.3341 20.6651 15.777 20.8243 16.1642C20.9834 16.5514 21.4264 16.7362 21.8136 16.577Z" fill="#CE2F72"/>
<path d="M14.6515 16.6548C14.8021 16.6548 14.9493 16.6101 15.0745 16.5264C15.1997 16.4426 15.2972 16.3237 15.3547 16.1845C15.4123 16.0453 15.4272 15.8921 15.3976 15.7444C15.368 15.5968 15.2952 15.4612 15.1885 15.3549C15.0818 15.2486 14.946 15.1764 14.7982 15.1473C14.6504 15.1183 14.4973 15.1338 14.3584 15.1918C14.2194 15.2498 14.1007 15.3478 14.0175 15.4733C13.9342 15.5988 13.8901 15.7462 13.8906 15.8968C13.8906 15.9966 13.9103 16.0954 13.9486 16.1876C13.9869 16.2797 14.043 16.3634 14.1137 16.4338C14.1844 16.5042 14.2683 16.56 14.3606 16.598C14.4529 16.6359 14.5517 16.6552 14.6515 16.6548V16.6548Z" fill="#CE2F72"/>
<path d="M21.813 10.4291C22.2002 10.2699 22.385 9.82694 22.2258 9.43975C22.0666 9.05256 21.6237 8.86775 21.2365 9.02694C20.8493 9.18613 20.6645 9.62905 20.8237 10.0162C20.9829 10.4034 21.4258 10.5883 21.813 10.4291Z" fill="#CE2F72"/>
<path d="M14.6515 10.5188C14.802 10.5188 14.9491 10.4742 15.0742 10.3906C15.1994 10.307 15.2969 10.1882 15.3545 10.0491C15.4121 9.9101 15.4271 9.75711 15.3978 9.60951C15.3684 9.46191 15.296 9.32633 15.1896 9.21992C15.0831 9.11351 14.9475 9.04105 14.7999 9.01169C14.6524 8.98233 14.4994 8.9974 14.3604 9.05499C14.2213 9.11258 14.1025 9.2101 14.0189 9.33523C13.9353 9.46036 13.8906 9.60746 13.8906 9.75794C13.8906 9.95974 13.9708 10.1533 14.1135 10.296C14.2562 10.4387 14.4497 10.5188 14.6515 10.5188V10.5188Z" fill="#CE2F72"/>
</g>
<rect width="60" height="54" fill="#F6F6F6"/>
<path d="M56.0543 7.71979H3.9457C1.77012 7.71979 0 9.42435 0 11.5194V46.2584C0 48.3535 1.77012 50.0579 3.9457 50.0579H56.0543C58.23 50.0579 60 48.3534 60 46.2584V11.5194C60 9.42435 58.2299 7.71979 56.0543 7.71979ZM14.0292 48.2487H3.9457C2.80605 48.2487 1.87887 47.3558 1.87887 46.2584V11.5194C1.87887 10.4219 2.80605 9.52907 3.9457 9.52907H14.0292V48.2487V48.2487ZM58.1211 46.2585C58.1211 47.3559 57.1939 48.2488 56.0543 48.2488H15.9082V9.52918H56.0543C57.1939 9.52918 58.1211 10.422 58.1211 11.5195V46.2585Z" fill="black"/>
<path d="M22.9854 11.5797H18.977C18.4582 11.5797 18.0375 11.9847 18.0375 12.4844C18.0375 12.9841 18.4581 13.3891 18.977 13.3891H22.9854C23.5042 13.3891 23.9249 12.9841 23.9249 12.4844C23.9249 11.9847 23.5042 11.5797 22.9854 11.5797Z" fill="black"/>
<path d="M10.9603 11.5797H4.94779C4.429 11.5797 4.0083 11.9847 4.0083 12.4844C4.0083 12.9841 4.42889 13.3891 4.94779 13.3891H10.9603C11.4791 13.3891 11.8998 12.9841 11.8998 12.4844C11.8998 11.9847 11.4792 11.5797 10.9603 11.5797Z" fill="black"/>
<path d="M10.9603 21.2294H4.94779C4.429 21.2294 4.0083 21.6344 4.0083 22.1341C4.0083 22.6338 4.42889 23.0388 4.94779 23.0388H10.9603C11.4791 23.0388 11.8998 22.6338 11.8998 22.1341C11.8998 21.6344 11.4792 21.2294 10.9603 21.2294Z" fill="black"/>
<path d="M10.9603 28.9492H4.94779C4.429 28.9492 4.0083 29.3542 4.0083 29.8539C4.0083 30.3536 4.42889 30.7586 4.94779 30.7586H10.9603C11.4791 30.7586 11.8998 30.3536 11.8998 29.8539C11.8998 29.3542 11.4792 28.9492 10.9603 28.9492Z" fill="black"/>
<path d="M10.9603 36.6691H4.94779C4.429 36.6691 4.0083 37.0741 4.0083 37.5738C4.0083 38.0735 4.42889 38.4785 4.94779 38.4785H10.9603C11.4791 38.4785 11.8998 38.0735 11.8998 37.5738C11.8998 37.0741 11.4792 36.6691 10.9603 36.6691Z" fill="black"/>
<path d="M10.9603 25.0894H4.94779C4.429 25.0894 4.0083 25.4944 4.0083 25.9941C4.0083 26.4937 4.42889 26.8988 4.94779 26.8988H10.9603C11.4791 26.8988 11.8998 26.4937 11.8998 25.9941C11.8998 25.4944 11.4792 25.0894 10.9603 25.0894Z" fill="black"/>
<path d="M10.9603 32.8091H4.94779C4.429 32.8091 4.0083 33.2141 4.0083 33.7138C4.0083 34.2135 4.42889 34.6185 4.94779 34.6185H10.9603C11.4791 34.6185 11.8998 34.2135 11.8998 33.7138C11.8998 33.2141 11.4792 32.8091 10.9603 32.8091Z" fill="black"/>
<path d="M8.95619 42.4589H4.94779C4.429 42.4589 4.0083 42.8639 4.0083 43.3636C4.0083 43.8631 4.42889 44.2683 4.94779 44.2683H8.95619C9.47498 44.2683 9.89568 43.8632 9.89568 43.3636C9.89568 42.8639 9.47498 42.4589 8.95619 42.4589Z" fill="black"/>
<path d="M8.95619 15.4396H4.94779C4.429 15.4396 4.0083 15.8446 4.0083 16.3443C4.0083 16.844 4.42889 17.249 4.94779 17.249H8.95619C9.47498 17.249 9.89568 16.844 9.89568 16.3443C9.89568 15.8446 9.47498 15.4396 8.95619 15.4396Z" fill="black"/>
<path d="M31.0021 11.5797H26.9937C26.4749 11.5797 26.0542 11.9847 26.0542 12.4844C26.0542 12.9841 26.4748 13.3891 26.9937 13.3891H31.0021C31.5209 13.3891 31.9416 12.9841 31.9416 12.4844C31.9416 11.9847 31.521 11.5797 31.0021 11.5797Z" fill="black"/>
<path d="M39.0187 11.5797H35.0104C34.4916 11.5797 34.0709 11.9847 34.0709 12.4844C34.0709 12.9841 34.4914 13.3891 35.0104 13.3891H39.0187C39.5375 13.3891 39.9582 12.9841 39.9582 12.4844C39.9582 11.9847 39.5377 11.5797 39.0187 11.5797Z" fill="black"/>
<path d="M47.0355 11.5797H43.0271C42.5083 11.5797 42.0876 11.9847 42.0876 12.4844C42.0876 12.9841 42.5082 13.3891 43.0271 13.3891H47.0355C47.5543 13.3891 47.975 12.9841 47.975 12.4844C47.975 11.9847 47.5543 11.5797 47.0355 11.5797Z" fill="black"/>
<path d="M55.0522 11.5797H51.0438C50.525 11.5797 50.1043 11.9847 50.1043 12.4844C50.1043 12.9841 50.5249 13.3891 51.0438 13.3891H55.0522C55.571 13.3891 55.9917 12.9841 55.9917 12.4844C55.9917 11.9847 55.571 11.5797 55.0522 11.5797Z" fill="black"/>
<path d="M29.5624 32.0257C29.1476 31.7257 28.5586 31.8062 28.2471 32.2057C27.4694 33.2025 26.2821 33.7742 24.9895 33.7742C22.7448 33.7742 20.9185 32.0156 20.9185 29.854C20.9185 27.6924 22.7448 25.9338 24.9895 25.9338C26.283 25.9338 27.4711 26.5063 28.2485 27.5043C28.5599 27.9039 29.1487 27.985 29.5637 27.6851C29.9786 27.3851 30.0627 26.8182 29.7514 26.4186C28.6155 24.9606 26.88 24.1245 24.9894 24.1245C21.7087 24.1245 19.0396 26.6948 19.0396 29.854C19.0396 33.0132 21.7087 35.5835 24.9894 35.5835C26.8785 35.5835 28.6133 34.7484 29.7492 33.2923C30.061 32.8929 29.9774 32.3258 29.5624 32.0257Z" fill="black"/>
<path d="M38.8301 31.6419C40.6168 31.2798 41.9625 29.7506 41.9625 27.9238C41.9625 25.8287 40.1924 24.1243 38.0168 24.1243H33.0063C32.4875 24.1243 32.0668 24.5293 32.0668 25.029V34.6786C32.0668 35.1782 32.4874 35.5833 33.0063 35.5833C33.5252 35.5833 33.9458 35.1783 33.9458 34.6786V31.7234H36.545L39.2694 35.2214C39.4541 35.4584 39.7362 35.5833 40.0218 35.5833C40.2179 35.5833 40.4157 35.5243 40.5847 35.4024C40.9997 35.1027 41.0839 34.5356 40.7726 34.136L38.8301 31.6419ZM33.9457 29.9142V25.9338H38.0167C39.1563 25.9338 40.0835 26.8266 40.0835 27.9241C40.0835 29.0215 39.1563 29.9143 38.0167 29.9143H33.9457V29.9142Z" fill="black"/>
<path d="M54.985 34.5886L53.9829 24.939C53.9398 24.5243 53.6082 24.1917 53.1796 24.1333C52.7515 24.0749 52.3366 24.3061 52.1759 24.6932L49.0397 32.243L45.9035 24.6932C45.7428 24.3062 45.3284 24.0754 44.8998 24.1333C44.4713 24.1917 44.1396 24.5243 44.0965 24.939L43.0944 34.5887C43.0429 35.0859 43.4195 35.5292 43.9358 35.579C44.4516 35.6286 44.9124 35.2659 44.9642 34.7687L45.5844 28.7961L48.1676 35.0147C48.3103 35.3581 48.6556 35.5834 49.0398 35.5834C49.4241 35.5834 49.7694 35.3581 49.9121 35.0147L52.4952 28.7961L53.1155 34.7687C53.164 35.2352 53.5723 35.5834 54.0492 35.5834C54.0805 35.5834 54.1121 35.5819 54.1438 35.5787C54.6599 35.5292 55.0365 35.0858 54.985 34.5886Z" fill="black"/>
<defs>
<clipPath id="clip0_409_2279">
<rect width="42.75" height="26.1025" fill="white" transform="translate(27.25 40.0094)"/>
</clipPath>
<clipPath id="clip1_409_2279">
<rect width="13.3594" height="25.8281" fill="white" transform="translate(13.8906 40.1719)"/>
</clipPath>
<clipPath id="clip2_409_2279">
<rect width="42.75" height="26.1025" fill="white" transform="translate(27.25 9)"/>
</clipPath>
<clipPath id="clip3_409_2279">
<rect width="13.3594" height="25.8281" fill="white" transform="translate(13.8906 9)"/>
</clipPath>
</defs>
</svg>
