<svg width="178" height="81" viewBox="0 0 178 81" fill="none" xmlns="http://www.w3.org/2000/svg">
<path d="M11.6578 70.0351H0V0H69.813V32.0933H66.8277V2.99477H2.98527V67.0404H11.6578V70.0351Z" fill="#CE2F72"/>
<path d="M22.7073 21.615C24.0129 22.4615 24.6657 23.7392 24.6657 25.4483C24.6657 26.868 24.2188 28.034 23.325 28.9462C22.4311 29.8583 21.3312 30.3136 20.0252 30.3118H13.7024V13.541H19.5781C20.8554 13.541 21.9303 13.9847 22.8029 14.8721C23.6755 15.7594 24.112 16.8894 24.1124 18.2621C24.1124 19.6508 23.6441 20.7684 22.7073 21.615ZM19.5781 16.6317H16.6399V20.3212H19.5781C19.7952 20.3244 20.0102 20.2787 20.2073 20.1875C20.4044 20.0963 20.5787 19.9618 20.7172 19.7941C21.0214 19.4427 21.1738 19.0035 21.1742 18.4764C21.1747 17.9494 21.0259 17.5101 20.7278 17.1587C20.5886 16.989 20.4128 16.8534 20.2136 16.762C20.0144 16.6707 19.7971 16.6261 19.5781 16.6317ZM20.0252 27.2192C20.2599 27.2238 20.4926 27.1757 20.7062 27.0783C20.9199 26.9808 21.109 26.8366 21.2598 26.6562C21.5862 26.2808 21.7494 25.8056 21.7494 25.2306C21.7494 24.6716 21.5862 24.2044 21.2598 23.8291C21.109 23.6487 20.9199 23.5044 20.7062 23.407C20.4926 23.3096 20.2599 23.2614 20.0252 23.2661H16.6419V27.2192H20.0252Z" fill="#1F1F1F"/>
<path d="M29.521 27.1526H35.8007V30.3151H26.5815V13.5444H35.6906V16.7042H29.521V20.274H35.1599V23.3885H29.521V27.1526Z" fill="#1F1F1F"/>
<path d="M43.5698 19.89C45.0182 19.89 46.2032 20.3731 47.1249 21.3394C48.0466 22.3058 48.5078 23.5558 48.5087 25.0896C48.5087 26.6389 48.0474 27.8967 47.1249 28.863C46.2023 29.8293 45.0173 30.3125 43.5698 30.3125H37.8646V13.5417H47.2337V16.7042H40.8027V19.8906L43.5698 19.89ZM43.5698 27.2212C44.1513 27.2212 44.6341 27.0335 45.0179 26.6582C45.4018 26.2828 45.5933 25.76 45.5924 25.0896C45.5924 24.4187 45.4009 23.8996 45.0179 23.5323C44.6349 23.1649 44.1522 22.9812 43.5698 22.9812H40.8027V27.2192L43.5698 27.2212Z" fill="#1F1F1F"/>
<path d="M20.7702 51.8309C18.5275 51.8309 16.6753 50.9924 15.2136 49.3153C13.752 47.6382 13.0211 45.5698 13.0211 43.1101C13.0211 40.6344 13.752 38.562 15.2136 36.893C16.6753 35.2239 18.5275 34.3893 20.7702 34.3893C22.0911 34.3813 23.3871 34.7506 24.5065 35.4541C25.6407 36.1566 26.5639 37.1542 27.178 38.3411L24.6445 39.9969C24.2977 39.2712 23.7513 38.6601 23.0696 38.2359C22.3786 37.81 21.5812 37.5898 20.7702 37.6011C19.3227 37.6011 18.1553 38.1113 17.2682 39.1317C16.381 40.1522 15.9374 41.4778 15.9374 43.1088C15.9374 44.722 16.381 46.0397 17.2682 47.0619C18.1553 48.0841 19.3227 48.5943 20.7702 48.5925C21.5844 48.6028 22.3849 48.3827 23.0802 47.9576C23.7593 47.5441 24.3031 46.9404 24.6445 46.2207L27.178 47.8738C26.5659 49.0586 25.6467 50.056 24.5171 50.7608C23.3956 51.469 22.0954 51.8403 20.7702 51.8309Z" fill="#1F1F1F"/>
<path d="M38.7807 34.7247V37.8872H34.7572V51.4955H31.8191V37.8872H27.8168V34.7247H38.7807Z" fill="#1F1F1F"/>
<path d="M48.658 34.7247H51.5962L47.1255 46.8715C45.9314 50.1298 43.9729 51.6712 41.2499 51.4955V48.4049C42.0459 48.4847 42.6872 48.3609 43.1737 48.0335C43.6602 47.7061 44.0682 47.175 44.3977 46.4403L39.523 34.7274H42.4606L45.7178 42.8253L48.658 34.7247Z" fill="#1F1F1F"/>
<path d="M63.2407 48.333H64.8375V54.7045H61.8993V51.4955H53.6607V54.7045H50.7231V48.333H52.1707C52.9924 47.0392 53.4033 45.1465 53.4033 42.6549V34.7247H63.2407V48.333ZM55.3218 48.333H60.3026V37.818H56.3434V42.7055C56.3434 45.1315 56.0029 47.0073 55.3218 48.333Z" fill="#1F1F1F"/>
<path d="M75.4173 51.4955V41.2653L69.0308 51.4955H66.7959V34.7247H69.7334V44.9788L76.1199 34.7247H78.3555V51.4955H75.4173Z" fill="#1F1F1F"/>
<path d="M91.6393 34.7247V51.4955H88.7018V45.6736H87.0194L83.5924 51.4955H80.2926L83.9327 45.3143C82.9818 44.9309 82.2079 44.2761 81.6108 43.3497C81.0192 42.4377 80.7085 41.3711 80.7172 40.283C80.7172 38.7497 81.1997 37.4409 82.1647 36.3565C83.1298 35.2722 84.3017 34.7292 85.6807 34.7274L91.6393 34.7247ZM85.6787 42.7773H88.7018V37.8153H85.6787C85.125 37.8153 84.6496 38.0549 84.2524 38.5341C83.8553 39.0132 83.6563 39.5962 83.6554 40.283C83.6554 40.9698 83.8544 41.5568 84.2524 42.044C84.6505 42.5311 85.1259 42.7747 85.6787 42.7747V42.7773Z" fill="#1F1F1F"/>
<path d="M13.8079 55.981H30.9938V80.5781H28.5877V58.2983H16.2134V80.5761H13.8079V55.981Z" fill="#1F1F1F"/>
<path d="M36.4927 55.981H45.0856C47.239 55.981 49.0379 56.7188 50.4823 58.1945C51.9268 59.6701 52.6485 61.5091 52.6477 63.7115C52.6477 65.9134 51.9259 67.7524 50.4823 69.2285C49.0388 70.7046 47.2399 71.4425 45.0856 71.442H38.8988V80.5781H36.4927V55.981ZM38.8988 69.1227H45.0856C46.5752 69.1227 47.8011 68.6192 48.7635 67.612C49.7488 66.6053 50.2415 65.3052 50.2415 63.7115C50.2415 62.1422 49.7488 60.8538 48.7635 59.8462C47.8011 58.8143 46.5752 58.2983 45.0856 58.2983H38.8988V69.1227Z" fill="#1F1F1F"/>
<path d="M76.502 77.3104C74.0961 79.7701 71.1515 81 67.6682 81C64.1849 81 61.2404 79.7701 58.8345 77.3104C56.4285 74.8033 55.2256 71.793 55.2256 68.2795C55.2256 64.7426 56.4285 61.7441 58.8345 59.2839C61.2404 56.8016 64.1849 55.5593 67.6682 55.5571C71.1515 55.5549 74.0961 56.7971 76.502 59.2839C78.9074 61.7436 80.1104 64.7422 80.1108 68.2795C80.1108 71.7934 78.9079 74.8037 76.502 77.3104ZM60.5188 75.6234C62.4431 77.6146 64.8262 78.6102 67.6682 78.6102C70.5102 78.6102 72.8933 77.6146 74.8176 75.6234C76.7423 73.6331 77.7047 71.1851 77.7047 68.2795C77.7047 65.3957 76.7423 62.9595 74.8176 60.971C72.8924 58.9567 70.5093 57.9493 67.6682 57.9489C64.8271 57.9485 62.444 58.9558 60.5188 60.971C58.5945 62.9604 57.6322 65.397 57.6317 68.2809C57.6317 71.1851 58.5941 73.6326 60.5188 75.6234Z" fill="#1F1F1F"/>
<path d="M96.506 77.8022V80.5781H94.0998V77.8022C90.5936 77.6146 87.7865 76.7126 85.6787 75.0963C83.57 73.4334 82.5159 71.1612 82.5163 68.2795C82.5167 65.3979 83.5709 63.1256 85.6787 61.4628C87.7861 59.8465 90.5931 58.9445 94.0998 58.7568V55.981H96.506V58.7568C100.034 58.9445 102.829 59.8465 104.893 61.4628C107.023 63.1265 108.089 65.3988 108.089 68.2795C108.089 71.1847 107.023 73.4569 104.893 75.0963C102.83 76.713 100.035 77.615 96.506 77.8022ZM94.0998 75.5535V61.0056C91.2353 61.1466 88.9897 61.8436 87.3631 63.0966C85.7364 64.3495 84.9229 66.0776 84.9224 68.2809C84.9224 70.4828 85.736 72.2104 87.3631 73.4638C88.9901 74.7172 91.2357 75.4138 94.0998 75.5535ZM96.506 61.0056V75.5535C99.3701 75.4124 101.616 74.7154 103.243 73.4625C104.87 72.2096 105.683 70.4819 105.683 68.2795C105.683 66.078 104.869 64.3504 103.243 63.0966C101.616 61.8428 99.3705 61.1458 96.506 61.0056Z" fill="#1F1F1F"/>
<path d="M124.14 77.8022V80.5781H121.733V77.8022C118.227 77.6146 115.42 76.7126 113.312 75.0963C111.203 73.4334 110.149 71.1612 110.149 68.2795C110.149 65.3979 111.203 63.1256 113.312 61.4628C115.419 59.8465 118.226 58.9445 121.733 58.7568V55.981H124.139V58.7568C127.668 58.9445 130.463 59.8465 132.526 61.4628C134.656 63.1265 135.722 65.3988 135.722 68.2795C135.722 71.1847 134.656 73.4569 132.526 75.0963C130.464 76.713 127.669 77.615 124.14 77.8022ZM121.733 75.5535V61.0056C118.868 61.1466 116.623 61.8436 114.996 63.0966C113.369 64.3495 112.556 66.0776 112.557 68.2809C112.557 70.4828 113.37 72.2104 114.997 73.4638C116.625 74.7172 118.87 75.4138 121.733 75.5535ZM124.139 61.0056V75.5535C127.003 75.4124 129.249 74.7154 130.876 73.4625C132.503 72.2096 133.316 70.4819 133.316 68.2795C133.316 66.078 132.503 64.3504 130.876 63.0966C129.249 61.8428 127.004 61.1458 124.14 61.0056H124.139Z" fill="#1F1F1F"/>
<path d="M157.377 80.5781H154.969V60.5464L141.564 80.5781H139.502V55.981H141.908V76.0127L155.313 55.981H157.375L157.377 80.5781Z" fill="#1F1F1F"/>
<path d="M160.814 55.981H178V58.2983H170.61V80.5761H168.204V58.2983H160.814V55.981Z" fill="#1F1F1F"/>
</svg>
