<svg width="70" height="71" viewBox="0 0 70 71" fill="none" xmlns="http://www.w3.org/2000/svg">
<g clip-path="url(#clip0_409_2277)">
<path d="M69.2418 70.112C69.6605 70.112 69.9998 69.7726 69.9998 69.354C69.9998 68.9353 69.6605 68.5959 69.2418 68.5959C68.8232 68.5959 68.4838 68.9353 68.4838 69.354C68.4838 69.7726 68.8232 70.112 69.2418 70.112Z" fill="#CE2F72"/>
<path d="M62.3682 70.112C62.7868 70.112 63.1262 69.7726 63.1262 69.354C63.1262 68.9353 62.7868 68.5959 62.3682 68.5959C61.9496 68.5959 61.6102 68.9353 61.6102 69.354C61.6102 69.7726 61.9496 70.112 62.3682 70.112Z" fill="#CE2F72"/>
<path d="M55.4974 70.1121C55.648 70.1127 55.7954 70.0685 55.9209 69.9853C56.0464 69.902 56.1444 69.7834 56.2024 69.6444C56.2605 69.5054 56.2759 69.3523 56.2469 69.2045C56.2179 69.0568 56.1456 68.9209 56.0393 68.8142C55.933 68.7075 55.7975 68.6348 55.6498 68.6052C55.5021 68.5756 55.349 68.5905 55.2098 68.648C55.0706 68.7055 54.9516 68.803 54.8679 68.9282C54.7841 69.0534 54.7394 69.2006 54.7394 69.3512C54.7394 69.5525 54.8192 69.7456 54.9613 69.8882C55.1033 70.0308 55.2961 70.1113 55.4974 70.1121Z" fill="#CE2F72"/>
<path d="M48.6264 70.1121C48.7769 70.1121 48.924 70.0675 49.0491 69.9839C49.1742 69.9003 49.2717 69.7814 49.3293 69.6424C49.3869 69.5034 49.402 69.3504 49.3726 69.2028C49.3433 69.0552 49.2708 68.9196 49.1644 68.8132C49.058 68.7068 48.9224 68.6343 48.7748 68.605C48.6272 68.5756 48.4742 68.5907 48.3352 68.6483C48.1962 68.7058 48.0773 68.8034 47.9937 68.9285C47.9101 69.0536 47.8655 69.2007 47.8655 69.3512C47.8655 69.4511 47.8852 69.5501 47.9234 69.6424C47.9616 69.7347 48.0177 69.8186 48.0883 69.8892C48.159 69.9599 48.2429 70.016 48.3352 70.0542C48.4275 70.0924 48.5265 70.1121 48.6264 70.1121Z" fill="#CE2F72"/>
<path d="M41.7527 70.112C42.1714 70.112 42.5107 69.7726 42.5107 69.354C42.5107 68.9353 42.1714 68.5959 41.7527 68.5959C41.3341 68.5959 40.9947 68.9353 40.9947 69.354C40.9947 69.7726 41.3341 70.112 41.7527 70.112Z" fill="#CE2F72"/>
<path d="M35.1718 70.0216C35.559 69.8624 35.7438 69.4195 35.5846 69.0323C35.4254 68.6451 34.9825 68.4603 34.5953 68.6195C34.2081 68.7787 34.0233 69.2216 34.1825 69.6088C34.3417 69.996 34.7846 70.1808 35.1718 70.0216Z" fill="#CE2F72"/>
<path d="M28.0109 68.6046C27.8602 68.6041 27.7127 68.6483 27.5872 68.7317C27.4616 68.815 27.3636 68.9339 27.3057 69.073C27.2477 69.2122 27.2324 69.3654 27.2617 69.5132C27.291 69.6611 27.3635 69.7969 27.4701 69.9035C27.5766 70.0101 27.7125 70.0826 27.8603 70.1119C28.0082 70.1412 28.1614 70.1258 28.3006 70.0679C28.4397 70.01 28.5585 69.912 28.6419 69.7864C28.7253 69.6609 28.7695 69.5134 28.769 69.3626C28.7682 69.1618 28.6881 68.9695 28.5461 68.8275C28.4041 68.6855 28.2117 68.6054 28.0109 68.6046Z" fill="#CE2F72"/>
<path d="M69.2418 63.9645C69.6605 63.9645 69.9998 63.6251 69.9998 63.2065C69.9998 62.7879 69.6605 62.4485 69.2418 62.4485C68.8232 62.4485 68.4838 62.7879 68.4838 63.2065C68.4838 63.6251 68.8232 63.9645 69.2418 63.9645Z" fill="#CE2F72"/>
<path d="M62.3682 63.9645C62.7868 63.9645 63.1262 63.6251 63.1262 63.2065C63.1262 62.7879 62.7868 62.4485 62.3682 62.4485C61.9496 62.4485 61.6102 62.7879 61.6102 63.2065C61.6102 63.6251 61.9496 63.9645 62.3682 63.9645Z" fill="#CE2F72"/>
<path d="M55.4974 63.9648C55.6481 63.9653 55.7957 63.9211 55.9212 63.8377C56.0468 63.7543 56.1448 63.6355 56.2027 63.4964C56.2607 63.3572 56.276 63.204 56.2467 63.0561C56.2174 62.9083 56.1449 62.7724 56.0383 62.6658C55.9317 62.5593 55.7959 62.4867 55.648 62.4575C55.5002 62.4282 55.347 62.4435 55.2078 62.5015C55.0687 62.5594 54.9498 62.6574 54.8665 62.7829C54.7831 62.9085 54.7388 63.056 54.7394 63.2067C54.7402 63.4075 54.8203 63.5999 54.9623 63.7419C55.1043 63.8839 55.2966 63.964 55.4974 63.9648Z" fill="#CE2F72"/>
<path d="M48.6264 63.9648C48.777 63.9648 48.9242 63.9201 49.0494 63.8363C49.1746 63.7526 49.2721 63.6336 49.3296 63.4944C49.3871 63.3552 49.402 63.202 49.3724 63.0544C49.3428 62.9067 49.2701 62.7711 49.1634 62.6648C49.0567 62.5585 48.9208 62.4863 48.773 62.4573C48.6252 62.4282 48.4722 62.4437 48.3332 62.5017C48.1942 62.5598 48.0756 62.6577 47.9923 62.7832C47.9091 62.9087 47.8649 63.0561 47.8655 63.2067C47.8655 63.3065 47.8852 63.4053 47.9235 63.4975C47.9617 63.5896 48.0178 63.6733 48.0885 63.7438C48.1592 63.8142 48.2431 63.8699 48.3354 63.9079C48.4277 63.9458 48.5266 63.9651 48.6264 63.9648Z" fill="#CE2F72"/>
<path d="M41.7527 63.9645C42.1714 63.9645 42.5107 63.6251 42.5107 63.2065C42.5107 62.7879 42.1714 62.4485 41.7527 62.4485C41.3341 62.4485 40.9947 62.7879 40.9947 63.2065C40.9947 63.6251 41.3341 63.9645 41.7527 63.9645Z" fill="#CE2F72"/>
<path d="M35.1724 63.8765C35.5596 63.7173 35.7444 63.2743 35.5852 62.8872C35.426 62.5 34.9831 62.3151 34.5959 62.4743C34.2087 62.6335 34.0239 63.0765 34.1831 63.4636C34.3423 63.8508 34.7852 64.0357 35.1724 63.8765Z" fill="#CE2F72"/>
<path d="M28.0109 63.9648C28.1615 63.9648 28.3087 63.9201 28.4339 63.8363C28.5591 63.7526 28.6566 63.6336 28.7141 63.4944C28.7716 63.3552 28.7865 63.202 28.757 63.0544C28.7274 62.9067 28.6546 62.7711 28.5479 62.6648C28.4412 62.5585 28.3054 62.4863 28.1576 62.4573C28.0098 62.4282 27.8567 62.4437 27.7177 62.5017C27.5788 62.5598 27.4601 62.6577 27.3768 62.7832C27.2936 62.9087 27.2494 63.0561 27.25 63.2067C27.25 63.3065 27.2697 63.4053 27.308 63.4975C27.3463 63.5896 27.4024 63.6733 27.4731 63.7438C27.5438 63.8142 27.6277 63.8699 27.7199 63.9079C27.8122 63.9458 27.9111 63.9651 28.0109 63.9648Z" fill="#CE2F72"/>
<path d="M69.2418 57.8172C69.6605 57.8172 69.9998 57.4778 69.9998 57.0592C69.9998 56.6405 69.6605 56.3011 69.2418 56.3011C68.8232 56.3011 68.4838 56.6405 68.4838 57.0592C68.4838 57.4778 68.8232 57.8172 69.2418 57.8172Z" fill="#CE2F72"/>
<path d="M62.3682 57.8172C62.7868 57.8172 63.1262 57.4778 63.1262 57.0592C63.1262 56.6405 62.7868 56.3011 62.3682 56.3011C61.9496 56.3011 61.6102 56.6405 61.6102 57.0592C61.6102 57.4778 61.9496 57.8172 62.3682 57.8172Z" fill="#CE2F72"/>
<path d="M55.4974 57.8201C55.648 57.8207 55.7954 57.7765 55.9209 57.6933C56.0464 57.61 56.1444 57.4914 56.2024 57.3524C56.2605 57.2134 56.2759 57.0603 56.2469 56.9126C56.2179 56.7648 56.1456 56.6289 56.0393 56.5222C55.933 56.4155 55.7975 56.3428 55.6498 56.3132C55.5021 56.2836 55.349 56.2985 55.2098 56.356C55.0706 56.4135 54.9516 56.511 54.8679 56.6362C54.7841 56.7614 54.7394 56.9086 54.7394 57.0592C54.7394 57.2605 54.8192 57.4536 54.9613 57.5962C55.1033 57.7388 55.2961 57.8193 55.4974 57.8201Z" fill="#CE2F72"/>
<path d="M48.6264 57.8201C48.7769 57.8201 48.924 57.7755 49.0491 57.6919C49.1742 57.6083 49.2717 57.4894 49.3293 57.3504C49.3869 57.2114 49.402 57.0584 49.3726 56.9108C49.3433 56.7632 49.2708 56.6276 49.1644 56.5212C49.058 56.4148 48.9224 56.3423 48.7748 56.313C48.6272 56.2836 48.4742 56.2987 48.3352 56.3563C48.1962 56.4139 48.0773 56.5114 47.9937 56.6365C47.9101 56.7616 47.8655 56.9087 47.8655 57.0592C47.8655 57.1591 47.8852 57.2581 47.9234 57.3504C47.9616 57.4427 48.0177 57.5266 48.0883 57.5972C48.159 57.6679 48.2429 57.7239 48.3352 57.7622C48.4275 57.8004 48.5265 57.8201 48.6264 57.8201Z" fill="#CE2F72"/>
<path d="M41.7527 57.8172C42.1714 57.8172 42.5107 57.4778 42.5107 57.0592C42.5107 56.6405 42.1714 56.3011 41.7527 56.3011C41.3341 56.3011 40.9947 56.6405 40.9947 57.0592C40.9947 57.4778 41.3341 57.8172 41.7527 57.8172Z" fill="#CE2F72"/>
<path d="M35.1721 57.7316C35.5593 57.5724 35.7441 57.1294 35.5849 56.7422C35.4257 56.3551 34.9828 56.1702 34.5956 56.3294C34.2084 56.4886 34.0236 56.9315 34.1828 57.3187C34.3419 57.7059 34.7849 57.8907 35.1721 57.7316Z" fill="#CE2F72"/>
<path d="M28.0109 57.8201C28.1614 57.8201 28.3085 57.7755 28.4336 57.6919C28.5587 57.6083 28.6562 57.4894 28.7138 57.3504C28.7714 57.2114 28.7865 57.0584 28.7572 56.9108C28.7278 56.7632 28.6553 56.6276 28.5489 56.5212C28.4425 56.4148 28.3069 56.3423 28.1593 56.313C28.0117 56.2836 27.8588 56.2987 27.7197 56.3563C27.5807 56.4139 27.4619 56.5114 27.3782 56.6365C27.2946 56.7616 27.25 56.9087 27.25 57.0592C27.25 57.261 27.3302 57.4545 27.4729 57.5972C27.6156 57.7399 27.8091 57.8201 28.0109 57.8201Z" fill="#CE2F72"/>
<path d="M69.2418 51.6729C69.6605 51.6729 69.9998 51.3335 69.9998 50.9149C69.9998 50.4962 69.6605 50.1569 69.2418 50.1569C68.8232 50.1569 68.4838 50.4962 68.4838 50.9149C68.4838 51.3335 68.8232 51.6729 69.2418 51.6729Z" fill="#CE2F72"/>
<path d="M62.3682 51.6729C62.7868 51.6729 63.1262 51.3335 63.1262 50.9149C63.1262 50.4962 62.7868 50.1569 62.3682 50.1569C61.9496 50.1569 61.6102 50.4962 61.6102 50.9149C61.6102 51.3335 61.9496 51.6729 62.3682 51.6729Z" fill="#CE2F72"/>
<path d="M55.4974 51.6643C55.6481 51.6649 55.7957 51.6207 55.9212 51.5373C56.0468 51.4539 56.1448 51.3351 56.2027 51.196C56.2607 51.0568 56.276 50.9036 56.2467 50.7557C56.2174 50.6079 56.1449 50.472 56.0383 50.3654C55.9317 50.2589 55.7959 50.1863 55.648 50.1571C55.5002 50.1278 55.347 50.1431 55.2078 50.201C55.0687 50.259 54.9498 50.357 54.8665 50.4825C54.7831 50.6081 54.7388 50.7556 54.7394 50.9063C54.7402 51.1071 54.8203 51.2995 54.9623 51.4415C55.1043 51.5835 55.2966 51.6636 55.4974 51.6643Z" fill="#CE2F72"/>
<path d="M48.6264 51.6643C48.777 51.6643 48.9242 51.6196 49.0494 51.5359C49.1746 51.4522 49.2721 51.3332 49.3296 51.194C49.3871 51.0548 49.402 50.9016 49.3724 50.754C49.3428 50.6063 49.2701 50.4707 49.1634 50.3644C49.0567 50.2581 48.9208 50.1859 48.773 50.1568C48.6252 50.1278 48.4722 50.1433 48.3332 50.2013C48.1942 50.2594 48.0756 50.3573 47.9923 50.4828C47.9091 50.6083 47.8649 50.7557 47.8655 50.9063C47.8655 51.0061 47.8852 51.1049 47.9235 51.1971C47.9617 51.2892 48.0178 51.3729 48.0885 51.4433C48.1592 51.5138 48.2431 51.5695 48.3354 51.6075C48.4277 51.6454 48.5266 51.6647 48.6264 51.6643Z" fill="#CE2F72"/>
<path d="M41.7527 51.6729C42.1714 51.6729 42.5107 51.3335 42.5107 50.9149C42.5107 50.4962 42.1714 50.1569 41.7527 50.1569C41.3341 50.1569 40.9947 50.4962 40.9947 50.9149C40.9947 51.3335 41.3341 51.6729 41.7527 51.6729Z" fill="#CE2F72"/>
<path d="M35.1729 51.5864C35.5601 51.4272 35.7449 50.9843 35.5857 50.5971C35.4265 50.2099 34.9836 50.0251 34.5964 50.1843C34.2092 50.3435 34.0244 50.7864 34.1836 51.1736C34.3428 51.5608 34.7857 51.7456 35.1729 51.5864Z" fill="#CE2F72"/>
<path d="M28.0109 51.6643C28.1615 51.6643 28.3087 51.6196 28.4339 51.5359C28.5591 51.4522 28.6566 51.3332 28.7141 51.194C28.7716 51.0548 28.7865 50.9016 28.757 50.754C28.7274 50.6063 28.6546 50.4707 28.5479 50.3644C28.4412 50.2581 28.3054 50.1859 28.1576 50.1568C28.0098 50.1278 27.8567 50.1433 27.7177 50.2013C27.5788 50.2594 27.4601 50.3573 27.3768 50.4828C27.2936 50.6083 27.2494 50.7557 27.25 50.9063C27.25 51.0061 27.2697 51.1049 27.308 51.1971C27.3463 51.2892 27.4024 51.3729 27.4731 51.4433C27.5438 51.5138 27.6277 51.5695 27.7199 51.6075C27.8122 51.6454 27.9111 51.6647 28.0109 51.6643Z" fill="#CE2F72"/>
<path d="M69.2418 45.5254C69.6605 45.5254 69.9998 45.186 69.9998 44.7674C69.9998 44.3488 69.6605 44.0094 69.2418 44.0094C68.8232 44.0094 68.4838 44.3488 68.4838 44.7674C68.4838 45.186 68.8232 45.5254 69.2418 45.5254Z" fill="#CE2F72"/>
<path d="M62.3682 45.5254C62.7869 45.5254 63.1262 45.186 63.1262 44.7674C63.1262 44.3488 62.7869 44.0094 62.3682 44.0094C61.9496 44.0094 61.6102 44.3488 61.6102 44.7674C61.6102 45.186 61.9496 45.5254 62.3682 45.5254Z" fill="#CE2F72"/>
<path d="M55.4974 45.5284C55.648 45.5289 55.7954 45.4848 55.9209 45.4015C56.0464 45.3183 56.1444 45.1996 56.2024 45.0606C56.2605 44.9217 56.2759 44.7686 56.2469 44.6208C56.2179 44.473 56.1456 44.3372 56.0393 44.2305C55.933 44.1238 55.7975 44.051 55.6498 44.0214C55.5021 43.9918 55.349 44.0067 55.2098 44.0642C55.0706 44.1217 54.9516 44.2193 54.8679 44.3445C54.7841 44.4696 54.7394 44.6169 54.7394 44.7675C54.7394 44.9688 54.8192 45.1619 54.9613 45.3045C55.1033 45.4471 55.2961 45.5276 55.4974 45.5284Z" fill="#CE2F72"/>
<path d="M48.6264 45.5284C48.7769 45.5284 48.924 45.4837 49.0491 45.4001C49.1742 45.3165 49.2717 45.1977 49.3293 45.0587C49.3869 44.9196 49.402 44.7666 49.3726 44.619C49.3433 44.4714 49.2708 44.3359 49.1644 44.2294C49.058 44.123 48.9224 44.0506 48.7748 44.0212C48.6272 43.9919 48.4742 44.0069 48.3352 44.0645C48.1962 44.1221 48.0773 44.2196 47.9937 44.3448C47.9101 44.4699 47.8655 44.617 47.8655 44.7675C47.8655 44.8674 47.8852 44.9663 47.9234 45.0587C47.9616 45.151 48.0177 45.2348 48.0883 45.3055C48.159 45.3761 48.2429 45.4322 48.3352 45.4704C48.4275 45.5087 48.5265 45.5284 48.6264 45.5284Z" fill="#CE2F72"/>
<path d="M41.7527 45.5254C42.1714 45.5254 42.5107 45.186 42.5107 44.7674C42.5107 44.3488 42.1714 44.0094 41.7527 44.0094C41.3341 44.0094 40.9947 44.3488 40.9947 44.7674C40.9947 45.186 41.3341 45.5254 41.7527 45.5254Z" fill="#CE2F72"/>
<path d="M35.1724 45.4385C35.5596 45.2793 35.7444 44.8363 35.5852 44.4491C35.426 44.062 34.9831 43.8771 34.5959 44.0363C34.2087 44.1955 34.0239 44.6385 34.1831 45.0256C34.3423 45.4128 34.7852 45.5977 35.1724 45.4385Z" fill="#CE2F72"/>
<path d="M28.0109 45.5284C28.1614 45.5284 28.3085 45.4837 28.4336 45.4001C28.5587 45.3165 28.6562 45.1977 28.7138 45.0587C28.7714 44.9196 28.7865 44.7666 28.7572 44.619C28.7278 44.4714 28.6553 44.3359 28.5489 44.2294C28.4425 44.123 28.3069 44.0506 28.1593 44.0212C28.0117 43.9919 27.8588 44.0069 27.7197 44.0645C27.5807 44.1221 27.4619 44.2196 27.3782 44.3448C27.2946 44.4699 27.25 44.617 27.25 44.7675C27.25 44.9693 27.3302 45.1628 27.4729 45.3055C27.6156 45.4482 27.8091 45.5284 28.0109 45.5284Z" fill="#CE2F72"/>
</g>
<g clip-path="url(#clip1_409_2277)">
<path d="M21.8124 70.0216C22.1996 69.8624 22.3844 69.4195 22.2252 69.0323C22.0661 68.6451 21.6231 68.4603 21.2359 68.6195C20.8487 68.7787 20.6639 69.2216 20.8231 69.6088C20.9823 69.996 21.4252 70.1808 21.8124 70.0216Z" fill="#CE2F72"/>
<path d="M14.6516 68.6046C14.5008 68.6041 14.3533 68.6483 14.2278 68.7317C14.1022 68.815 14.0042 68.9339 13.9463 69.073C13.8883 69.2122 13.873 69.3654 13.9023 69.5132C13.9316 69.6611 14.0041 69.7969 14.1107 69.9035C14.2173 70.0101 14.3531 70.0826 14.5009 70.1119C14.6488 70.1412 14.8021 70.1258 14.9412 70.0679C15.0804 70.01 15.1992 69.912 15.2826 69.7864C15.3659 69.6609 15.4101 69.5134 15.4096 69.3626C15.4088 69.1618 15.3287 68.9695 15.1867 68.8275C15.0447 68.6855 14.8524 68.6054 14.6516 68.6046Z" fill="#CE2F72"/>
<path d="M21.813 63.8765C22.2002 63.7173 22.385 63.2743 22.2258 62.8872C22.0666 62.5 21.6237 62.3151 21.2365 62.4743C20.8493 62.6335 20.6645 63.0765 20.8237 63.4636C20.9829 63.8508 21.4258 64.0357 21.813 63.8765Z" fill="#CE2F72"/>
<path d="M14.6515 63.9648C14.8021 63.9648 14.9493 63.9201 15.0745 63.8363C15.1997 63.7526 15.2972 63.6336 15.3547 63.4944C15.4123 63.3552 15.4272 63.202 15.3976 63.0544C15.368 62.9067 15.2952 62.7711 15.1885 62.6648C15.0818 62.5585 14.946 62.4863 14.7982 62.4573C14.6504 62.4282 14.4973 62.4437 14.3584 62.5017C14.2194 62.5598 14.1007 62.6577 14.0175 62.7832C13.9342 62.9087 13.8901 63.0561 13.8906 63.2067C13.8906 63.3065 13.9103 63.4053 13.9486 63.4975C13.9869 63.5896 14.043 63.6733 14.1137 63.7438C14.1844 63.8142 14.2683 63.8699 14.3606 63.9079C14.4529 63.9458 14.5517 63.9651 14.6515 63.9648Z" fill="#CE2F72"/>
<path d="M21.8127 57.7316C22.1999 57.5724 22.3847 57.1294 22.2255 56.7422C22.0663 56.3551 21.6234 56.1702 21.2362 56.3294C20.849 56.4886 20.6642 56.9315 20.8234 57.3187C20.9826 57.7059 21.4255 57.8907 21.8127 57.7316Z" fill="#CE2F72"/>
<path d="M14.6515 57.8201C14.802 57.8201 14.9491 57.7755 15.0742 57.6919C15.1994 57.6083 15.2969 57.4894 15.3545 57.3504C15.4121 57.2114 15.4271 57.0584 15.3978 56.9108C15.3684 56.7632 15.296 56.6276 15.1896 56.5212C15.0831 56.4148 14.9475 56.3423 14.7999 56.313C14.6524 56.2836 14.4994 56.2987 14.3604 56.3563C14.2213 56.4139 14.1025 56.5114 14.0189 56.6365C13.9353 56.7616 13.8906 56.9087 13.8906 57.0592C13.8906 57.261 13.9708 57.4545 14.1135 57.5972C14.2562 57.7399 14.4497 57.8201 14.6515 57.8201Z" fill="#CE2F72"/>
<path d="M21.8135 51.5864C22.2007 51.4272 22.3856 50.9843 22.2264 50.5971C22.0672 50.2099 21.6242 50.0251 21.2371 50.1843C20.8499 50.3435 20.665 50.7864 20.8242 51.1736C20.9834 51.5608 21.4264 51.7456 21.8135 51.5864Z" fill="#CE2F72"/>
<path d="M14.6515 51.6643C14.8021 51.6643 14.9493 51.6196 15.0745 51.5359C15.1997 51.4522 15.2972 51.3332 15.3547 51.194C15.4123 51.0548 15.4272 50.9016 15.3976 50.754C15.368 50.6063 15.2952 50.4707 15.1885 50.3644C15.0818 50.2581 14.946 50.1859 14.7982 50.1568C14.6504 50.1278 14.4973 50.1433 14.3584 50.2013C14.2194 50.2594 14.1007 50.3573 14.0175 50.4828C13.9342 50.6083 13.8901 50.7557 13.8906 50.9063C13.8906 51.0061 13.9103 51.1049 13.9486 51.1971C13.9869 51.2892 14.043 51.3729 14.1137 51.4433C14.1844 51.5138 14.2683 51.5695 14.3606 51.6075C14.4529 51.6454 14.5517 51.6647 14.6515 51.6643Z" fill="#CE2F72"/>
<path d="M21.813 45.4385C22.2002 45.2793 22.385 44.8363 22.2258 44.4491C22.0666 44.062 21.6237 43.8771 21.2365 44.0363C20.8493 44.1955 20.6645 44.6385 20.8237 45.0256C20.9829 45.4128 21.4258 45.5977 21.813 45.4385Z" fill="#CE2F72"/>
<path d="M14.6515 45.5284C14.802 45.5284 14.9491 45.4837 15.0742 45.4001C15.1994 45.3165 15.2969 45.1977 15.3545 45.0587C15.4121 44.9196 15.4271 44.7666 15.3978 44.619C15.3684 44.4714 15.296 44.3359 15.1896 44.2294C15.0831 44.123 14.9475 44.0506 14.7999 44.0212C14.6524 43.9919 14.4994 44.0069 14.3604 44.0645C14.2213 44.1221 14.1025 44.2196 14.0189 44.3448C13.9353 44.4699 13.8906 44.617 13.8906 44.7675C13.8906 44.9693 13.9708 45.1628 14.1135 45.3055C14.2562 45.4482 14.4497 45.5284 14.6515 45.5284Z" fill="#CE2F72"/>
</g>
<g clip-path="url(#clip2_409_2277)">
<path d="M69.2418 39.1024C69.6605 39.1024 69.9998 38.7631 69.9998 38.3444C69.9998 37.9258 69.6605 37.5864 69.2418 37.5864C68.8232 37.5864 68.4838 37.9258 68.4838 38.3444C68.4838 38.7631 68.8232 39.1024 69.2418 39.1024Z" fill="#CE2F72"/>
<path d="M62.3682 39.1024C62.7868 39.1024 63.1262 38.7631 63.1262 38.3444C63.1262 37.9258 62.7868 37.5864 62.3682 37.5864C61.9496 37.5864 61.6102 37.9258 61.6102 38.3444C61.6102 38.7631 61.9496 39.1024 62.3682 39.1024Z" fill="#CE2F72"/>
<path d="M55.4974 39.1027C55.648 39.1033 55.7954 39.0591 55.9209 38.9759C56.0464 38.8926 56.1444 38.774 56.2024 38.635C56.2605 38.496 56.2759 38.3429 56.2469 38.1951C56.2179 38.0474 56.1456 37.9115 56.0393 37.8048C55.933 37.6981 55.7975 37.6254 55.6498 37.5958C55.5021 37.5662 55.349 37.5811 55.2098 37.6386C55.0706 37.6961 54.9516 37.7936 54.8679 37.9188C54.7841 38.044 54.7394 38.1912 54.7394 38.3418C54.7394 38.5431 54.8192 38.7362 54.9613 38.8788C55.1033 39.0214 55.2961 39.1019 55.4974 39.1027Z" fill="#CE2F72"/>
<path d="M48.6264 39.1027C48.7769 39.1027 48.924 39.0581 49.0491 38.9745C49.1742 38.8909 49.2717 38.772 49.3293 38.633C49.3869 38.494 49.402 38.341 49.3726 38.1934C49.3433 38.0458 49.2708 37.9102 49.1644 37.8038C49.058 37.6974 48.9224 37.6249 48.7748 37.5956C48.6272 37.5662 48.4742 37.5813 48.3352 37.6389C48.1962 37.6964 48.0773 37.794 47.9937 37.9191C47.9101 38.0442 47.8655 38.1913 47.8655 38.3418C47.8655 38.4417 47.8852 38.5407 47.9234 38.633C47.9616 38.7253 48.0177 38.8092 48.0883 38.8798C48.159 38.9505 48.2429 39.0066 48.3352 39.0448C48.4275 39.083 48.5265 39.1027 48.6264 39.1027Z" fill="#CE2F72"/>
<path d="M41.7527 39.1024C42.1714 39.1024 42.5107 38.7631 42.5107 38.3444C42.5107 37.9258 42.1714 37.5864 41.7527 37.5864C41.3341 37.5864 40.9947 37.9258 40.9947 38.3444C40.9947 38.7631 41.3341 39.1024 41.7527 39.1024Z" fill="#CE2F72"/>
<path d="M35.1718 39.0121C35.559 38.8529 35.7438 38.4099 35.5846 38.0228C35.4254 37.6356 34.9825 37.4508 34.5953 37.6099C34.2081 37.7691 34.0233 38.2121 34.1825 38.5992C34.3417 38.9864 34.7846 39.1713 35.1718 39.0121Z" fill="#CE2F72"/>
<path d="M28.0109 37.5951C27.8602 37.5945 27.7127 37.6387 27.5872 37.7221C27.4616 37.8055 27.3636 37.9243 27.3057 38.0635C27.2477 38.2026 27.2324 38.3559 27.2617 38.5037C27.291 38.6516 27.3635 38.7874 27.4701 38.894C27.5766 39.0006 27.7125 39.0731 27.8603 39.1024C28.0082 39.1316 28.1614 39.1163 28.3006 39.0584C28.4397 39.0004 28.5585 38.9025 28.6419 38.7769C28.7253 38.6513 28.7695 38.5038 28.769 38.3531C28.7682 38.1523 28.6881 37.9599 28.5461 37.8179C28.4041 37.676 28.2117 37.5959 28.0109 37.5951Z" fill="#CE2F72"/>
<path d="M69.2418 32.9551C69.6605 32.9551 69.9998 32.6157 69.9998 32.1971C69.9998 31.7785 69.6605 31.4391 69.2418 31.4391C68.8232 31.4391 68.4838 31.7785 68.4838 32.1971C68.4838 32.6157 68.8232 32.9551 69.2418 32.9551Z" fill="#CE2F72"/>
<path d="M62.3682 32.9551C62.7868 32.9551 63.1262 32.6157 63.1262 32.1971C63.1262 31.7785 62.7868 31.4391 62.3682 31.4391C61.9496 31.4391 61.6102 31.7785 61.6102 32.1971C61.6102 32.6157 61.9496 32.9551 62.3682 32.9551Z" fill="#CE2F72"/>
<path d="M55.4974 32.9552C55.6481 32.9558 55.7957 32.9116 55.9212 32.8282C56.0468 32.7448 56.1448 32.626 56.2027 32.4869C56.2607 32.3477 56.276 32.1945 56.2467 32.0466C56.2174 31.8988 56.1449 31.7629 56.0383 31.6563C55.9317 31.5497 55.7959 31.4772 55.648 31.448C55.5002 31.4187 55.347 31.434 55.2078 31.4919C55.0687 31.5499 54.9498 31.6479 54.8665 31.7734C54.7831 31.899 54.7388 32.0465 54.7394 32.1972C54.7402 32.398 54.8203 32.5904 54.9623 32.7324C55.1043 32.8744 55.2966 32.9545 55.4974 32.9552Z" fill="#CE2F72"/>
<path d="M48.6264 32.9552C48.777 32.9552 48.9242 32.9105 49.0494 32.8268C49.1746 32.7431 49.2721 32.6241 49.3296 32.4849C49.3871 32.3457 49.402 32.1925 49.3724 32.0448C49.3428 31.8972 49.2701 31.7616 49.1634 31.6553C49.0567 31.549 48.9208 31.4768 48.773 31.4477C48.6252 31.4187 48.4722 31.4342 48.3332 31.4922C48.1942 31.5503 48.0756 31.6482 47.9923 31.7737C47.9091 31.8992 47.8649 32.0466 47.8655 32.1972C47.8655 32.297 47.8852 32.3958 47.9235 32.488C47.9617 32.5801 48.0178 32.6638 48.0885 32.7342C48.1592 32.8047 48.2431 32.8604 48.3354 32.8984C48.4277 32.9363 48.5266 32.9556 48.6264 32.9552Z" fill="#CE2F72"/>
<path d="M41.7527 32.9551C42.1714 32.9551 42.5107 32.6157 42.5107 32.1971C42.5107 31.7785 42.1714 31.4391 41.7527 31.4391C41.3341 31.4391 40.9947 31.7785 40.9947 32.1971C40.9947 32.6157 41.3341 32.9551 41.7527 32.9551Z" fill="#CE2F72"/>
<path d="M35.1724 32.8671C35.5596 32.7079 35.7444 32.2649 35.5852 31.8778C35.426 31.4906 34.9831 31.3057 34.5959 31.4649C34.2087 31.6241 34.0239 32.0671 34.1831 32.4542C34.3423 32.8414 34.7852 33.0263 35.1724 32.8671Z" fill="#CE2F72"/>
<path d="M28.0109 32.9552C28.1615 32.9552 28.3087 32.9105 28.4339 32.8268C28.5591 32.7431 28.6566 32.6241 28.7141 32.4849C28.7716 32.3457 28.7865 32.1925 28.757 32.0448C28.7274 31.8972 28.6546 31.7616 28.5479 31.6553C28.4412 31.549 28.3054 31.4768 28.1576 31.4477C28.0098 31.4187 27.8567 31.4342 27.7177 31.4922C27.5788 31.5503 27.4601 31.6482 27.3768 31.7737C27.2936 31.8992 27.2494 32.0466 27.25 32.1972C27.25 32.297 27.2697 32.3958 27.308 32.488C27.3463 32.5801 27.4024 32.6638 27.4731 32.7342C27.5438 32.8047 27.6277 32.8604 27.7199 32.8984C27.8122 32.9363 27.9111 32.9556 28.0109 32.9552Z" fill="#CE2F72"/>
<path d="M69.2418 26.8076C69.6605 26.8076 69.9998 26.4683 69.9998 26.0496C69.9998 25.631 69.6605 25.2916 69.2418 25.2916C68.8232 25.2916 68.4838 25.631 68.4838 26.0496C68.4838 26.4683 68.8232 26.8076 69.2418 26.8076Z" fill="#CE2F72"/>
<path d="M62.3682 26.8076C62.7868 26.8076 63.1262 26.4683 63.1262 26.0496C63.1262 25.631 62.7868 25.2916 62.3682 25.2916C61.9496 25.2916 61.6102 25.631 61.6102 26.0496C61.6102 26.4683 61.9496 26.8076 62.3682 26.8076Z" fill="#CE2F72"/>
<path d="M55.4974 26.8107C55.648 26.8113 55.7954 26.7671 55.9209 26.6839C56.0464 26.6006 56.1444 26.482 56.2024 26.343C56.2605 26.204 56.2759 26.0509 56.2469 25.9032C56.2179 25.7554 56.1456 25.6195 56.0393 25.5128C55.933 25.4061 55.7975 25.3334 55.6498 25.3038C55.5021 25.2742 55.349 25.2891 55.2098 25.3466C55.0706 25.4041 54.9516 25.5016 54.8679 25.6268C54.7841 25.752 54.7394 25.8992 54.7394 26.0498C54.7394 26.2511 54.8192 26.4442 54.9613 26.5868C55.1033 26.7294 55.2961 26.8099 55.4974 26.8107Z" fill="#CE2F72"/>
<path d="M48.6264 26.8107C48.7769 26.8107 48.924 26.7661 49.0491 26.6825C49.1742 26.5989 49.2717 26.48 49.3293 26.341C49.3869 26.202 49.402 26.049 49.3726 25.9014C49.3433 25.7538 49.2708 25.6182 49.1644 25.5118C49.058 25.4054 48.9224 25.3329 48.7748 25.3036C48.6272 25.2742 48.4742 25.2893 48.3352 25.3469C48.1962 25.4045 48.0773 25.502 47.9937 25.6271C47.9101 25.7522 47.8655 25.8993 47.8655 26.0498C47.8655 26.1497 47.8852 26.2487 47.9234 26.341C47.9616 26.4333 48.0177 26.5172 48.0883 26.5878C48.159 26.6585 48.2429 26.7145 48.3352 26.7528C48.4275 26.791 48.5265 26.8107 48.6264 26.8107Z" fill="#CE2F72"/>
<path d="M41.7527 26.8076C42.1714 26.8076 42.5107 26.4683 42.5107 26.0496C42.5107 25.631 42.1714 25.2916 41.7527 25.2916C41.3341 25.2916 40.9947 25.631 40.9947 26.0496C40.9947 26.4683 41.3341 26.8076 41.7527 26.8076Z" fill="#CE2F72"/>
<path d="M35.1721 26.7221C35.5593 26.5629 35.7441 26.12 35.5849 25.7328C35.4257 25.3456 34.9828 25.1608 34.5956 25.32C34.2084 25.4792 34.0236 25.9221 34.1828 26.3093C34.3419 26.6965 34.7849 26.8813 35.1721 26.7221Z" fill="#CE2F72"/>
<path d="M28.0109 26.8107C28.1614 26.8107 28.3085 26.7661 28.4336 26.6825C28.5587 26.5989 28.6562 26.48 28.7138 26.341C28.7714 26.202 28.7865 26.049 28.7572 25.9014C28.7278 25.7538 28.6553 25.6182 28.5489 25.5118C28.4425 25.4054 28.3069 25.3329 28.1593 25.3036C28.0117 25.2742 27.8588 25.2893 27.7197 25.3469C27.5807 25.4045 27.4619 25.502 27.3782 25.6271C27.2946 25.7522 27.25 25.8993 27.25 26.0498C27.25 26.2516 27.3302 26.4451 27.4729 26.5878C27.6156 26.7305 27.8091 26.8107 28.0109 26.8107Z" fill="#CE2F72"/>
<path d="M69.2418 20.6634C69.6605 20.6634 69.9998 20.324 69.9998 19.9054C69.9998 19.4868 69.6605 19.1474 69.2418 19.1474C68.8232 19.1474 68.4838 19.4868 68.4838 19.9054C68.4838 20.324 68.8232 20.6634 69.2418 20.6634Z" fill="#CE2F72"/>
<path d="M62.3682 20.6634C62.7868 20.6634 63.1262 20.324 63.1262 19.9054C63.1262 19.4868 62.7868 19.1474 62.3682 19.1474C61.9496 19.1474 61.6102 19.4868 61.6102 19.9054C61.6102 20.324 61.9496 20.6634 62.3682 20.6634Z" fill="#CE2F72"/>
<path d="M55.4974 20.6548C55.6481 20.6554 55.7957 20.6112 55.9212 20.5278C56.0468 20.4444 56.1448 20.3256 56.2027 20.1864C56.2607 20.0473 56.276 19.8941 56.2467 19.7462C56.2174 19.5983 56.1449 19.4625 56.0383 19.3559C55.9317 19.2493 55.7959 19.1768 55.648 19.1475C55.5002 19.1183 55.347 19.1336 55.2078 19.1915C55.0687 19.2495 54.9498 19.3474 54.8665 19.473C54.7831 19.5986 54.7388 19.7461 54.7394 19.8968C54.7402 20.0976 54.8203 20.29 54.9623 20.432C55.1043 20.574 55.2966 20.6541 55.4974 20.6548Z" fill="#CE2F72"/>
<path d="M48.6264 20.6548C48.777 20.6548 48.9242 20.6101 49.0494 20.5264C49.1746 20.4426 49.2721 20.3237 49.3296 20.1845C49.3871 20.0453 49.402 19.8921 49.3724 19.7444C49.3428 19.5968 49.2701 19.4612 49.1634 19.3549C49.0567 19.2486 48.9208 19.1764 48.773 19.1473C48.6252 19.1183 48.4722 19.1338 48.3332 19.1918C48.1942 19.2498 48.0756 19.3478 47.9923 19.4733C47.9091 19.5988 47.8649 19.7462 47.8655 19.8968C47.8655 19.9966 47.8852 20.0954 47.9235 20.1876C47.9617 20.2797 48.0178 20.3634 48.0885 20.4338C48.1592 20.5042 48.2431 20.56 48.3354 20.598C48.4277 20.6359 48.5266 20.6552 48.6264 20.6548Z" fill="#CE2F72"/>
<path d="M41.7527 20.6634C42.1714 20.6634 42.5107 20.324 42.5107 19.9054C42.5107 19.4868 42.1714 19.1474 41.7527 19.1474C41.3341 19.1474 40.9947 19.4868 40.9947 19.9054C40.9947 20.324 41.3341 20.6634 41.7527 20.6634Z" fill="#CE2F72"/>
<path d="M35.1729 20.577C35.5601 20.4178 35.7449 19.9749 35.5857 19.5877C35.4265 19.2005 34.9836 19.0157 34.5964 19.1749C34.2092 19.3341 34.0244 19.777 34.1836 20.1642C34.3428 20.5514 34.7857 20.7362 35.1729 20.577Z" fill="#CE2F72"/>
<path d="M28.0109 20.6548C28.1615 20.6548 28.3087 20.6101 28.4339 20.5264C28.5591 20.4426 28.6566 20.3237 28.7141 20.1845C28.7716 20.0453 28.7865 19.8921 28.757 19.7444C28.7274 19.5968 28.6546 19.4612 28.5479 19.3549C28.4412 19.2486 28.3054 19.1764 28.1576 19.1473C28.0098 19.1183 27.8567 19.1338 27.7177 19.1918C27.5788 19.2498 27.4601 19.3478 27.3768 19.4733C27.2936 19.5988 27.2494 19.7462 27.25 19.8968C27.25 19.9966 27.2697 20.0954 27.308 20.1876C27.3463 20.2797 27.4024 20.3634 27.4731 20.4338C27.5438 20.5042 27.6277 20.56 27.7199 20.598C27.8122 20.6359 27.9111 20.6552 28.0109 20.6548Z" fill="#CE2F72"/>
<path d="M69.2418 14.516C69.6605 14.516 69.9998 14.1766 69.9998 13.758C69.9998 13.3394 69.6605 13 69.2418 13C68.8232 13 68.4838 13.3394 68.4838 13.758C68.4838 14.1766 68.8232 14.516 69.2418 14.516Z" fill="#CE2F72"/>
<path d="M62.3682 14.516C62.7869 14.516 63.1262 14.1766 63.1262 13.758C63.1262 13.3394 62.7869 13 62.3682 13C61.9496 13 61.6102 13.3394 61.6102 13.758C61.6102 14.1766 61.9496 14.516 62.3682 14.516Z" fill="#CE2F72"/>
<path d="M55.4974 14.519C55.648 14.5195 55.7954 14.4754 55.9209 14.3921C56.0464 14.3089 56.1444 14.1902 56.2024 14.0512C56.2605 13.9123 56.2759 13.7592 56.2469 13.6114C56.2179 13.4636 56.1456 13.3278 56.0393 13.2211C55.933 13.1144 55.7975 13.0416 55.6498 13.012C55.5021 12.9824 55.349 12.9973 55.2098 13.0548C55.0706 13.1123 54.9516 13.2099 54.8679 13.3351C54.7841 13.4602 54.7394 13.6075 54.7394 13.7581C54.7394 13.9594 54.8192 14.1525 54.9613 14.2951C55.1033 14.4377 55.2961 14.5182 55.4974 14.519Z" fill="#CE2F72"/>
<path d="M48.6264 14.519C48.7769 14.519 48.924 14.4743 49.0491 14.3907C49.1742 14.3071 49.2717 14.1883 49.3293 14.0493C49.3869 13.9102 49.402 13.7572 49.3726 13.6096C49.3433 13.462 49.2708 13.3265 49.1644 13.22C49.058 13.1136 48.9224 13.0412 48.7748 13.0118C48.6272 12.9825 48.4742 12.9975 48.3352 13.0551C48.1962 13.1127 48.0773 13.2102 47.9937 13.3354C47.9101 13.4605 47.8655 13.6076 47.8655 13.7581C47.8655 13.858 47.8852 13.9569 47.9234 14.0493C47.9616 14.1416 48.0177 14.2254 48.0883 14.2961C48.159 14.3667 48.2429 14.4228 48.3352 14.461C48.4275 14.4993 48.5265 14.519 48.6264 14.519Z" fill="#CE2F72"/>
<path d="M41.7527 14.516C42.1714 14.516 42.5107 14.1766 42.5107 13.758C42.5107 13.3394 42.1714 13 41.7527 13C41.3341 13 40.9947 13.3394 40.9947 13.758C40.9947 14.1766 41.3341 14.516 41.7527 14.516Z" fill="#CE2F72"/>
<path d="M35.1724 14.4291C35.5596 14.2699 35.7444 13.8269 35.5852 13.4397C35.426 13.0526 34.9831 12.8677 34.5959 13.0269C34.2087 13.1861 34.0239 13.6291 34.1831 14.0162C34.3423 14.4034 34.7852 14.5883 35.1724 14.4291Z" fill="#CE2F72"/>
<path d="M28.0109 14.5188C28.1614 14.5188 28.3085 14.4742 28.4336 14.3906C28.5587 14.307 28.6562 14.1882 28.7138 14.0491C28.7714 13.9101 28.7865 13.7571 28.7572 13.6095C28.7278 13.4619 28.6553 13.3263 28.5489 13.2199C28.4425 13.1135 28.3069 13.041 28.1593 13.0117C28.0117 12.9823 27.8588 12.9974 27.7197 13.055C27.5807 13.1126 27.4619 13.2101 27.3782 13.3352C27.2946 13.4604 27.25 13.6075 27.25 13.7579C27.25 13.9597 27.3302 14.1533 27.4729 14.296C27.6156 14.4387 27.8091 14.5188 28.0109 14.5188Z" fill="#CE2F72"/>
</g>
<g clip-path="url(#clip3_409_2277)">
<path d="M21.8124 39.0121C22.1996 38.8529 22.3844 38.4099 22.2252 38.0228C22.0661 37.6356 21.6231 37.4508 21.2359 37.6099C20.8487 37.7691 20.6639 38.2121 20.8231 38.5992C20.9823 38.9864 21.4252 39.1713 21.8124 39.0121Z" fill="#CE2F72"/>
<path d="M14.6516 37.5951C14.5008 37.5945 14.3533 37.6387 14.2278 37.7221C14.1022 37.8055 14.0042 37.9243 13.9463 38.0635C13.8883 38.2026 13.873 38.3559 13.9023 38.5037C13.9316 38.6516 14.0041 38.7874 14.1107 38.894C14.2173 39.0006 14.3531 39.0731 14.5009 39.1024C14.6488 39.1316 14.8021 39.1163 14.9412 39.0584C15.0804 39.0004 15.1992 38.9025 15.2826 38.7769C15.3659 38.6513 15.4101 38.5038 15.4096 38.3531C15.4088 38.1523 15.3287 37.9599 15.1867 37.8179C15.0447 37.676 14.8524 37.5959 14.6516 37.5951Z" fill="#CE2F72"/>
<path d="M21.813 32.8671C22.2002 32.7079 22.385 32.2649 22.2258 31.8778C22.0666 31.4906 21.6237 31.3057 21.2365 31.4649C20.8493 31.6241 20.6645 32.0671 20.8237 32.4542C20.9829 32.8414 21.4258 33.0263 21.813 32.8671Z" fill="#CE2F72"/>
<path d="M14.6515 32.9552C14.8021 32.9552 14.9493 32.9105 15.0745 32.8268C15.1997 32.7431 15.2972 32.6241 15.3547 32.4849C15.4123 32.3457 15.4272 32.1925 15.3976 32.0448C15.368 31.8972 15.2952 31.7616 15.1885 31.6553C15.0818 31.549 14.946 31.4768 14.7982 31.4477C14.6504 31.4187 14.4973 31.4342 14.3584 31.4922C14.2194 31.5503 14.1007 31.6482 14.0175 31.7737C13.9342 31.8992 13.8901 32.0466 13.8906 32.1972C13.8906 32.297 13.9103 32.3958 13.9486 32.488C13.9869 32.5801 14.043 32.6638 14.1137 32.7342C14.1844 32.8047 14.2683 32.8604 14.3606 32.8984C14.4529 32.9363 14.5517 32.9556 14.6515 32.9552Z" fill="#CE2F72"/>
<path d="M21.8127 26.7221C22.1999 26.5629 22.3847 26.12 22.2255 25.7328C22.0663 25.3456 21.6234 25.1608 21.2362 25.32C20.849 25.4792 20.6642 25.9221 20.8234 26.3093C20.9826 26.6965 21.4255 26.8813 21.8127 26.7221Z" fill="#CE2F72"/>
<path d="M14.6515 26.8107C14.802 26.8107 14.9491 26.7661 15.0742 26.6825C15.1994 26.5989 15.2969 26.48 15.3545 26.341C15.4121 26.202 15.4271 26.049 15.3978 25.9014C15.3684 25.7538 15.296 25.6182 15.1896 25.5118C15.0831 25.4054 14.9475 25.3329 14.7999 25.3036C14.6524 25.2742 14.4994 25.2893 14.3604 25.3469C14.2213 25.4045 14.1025 25.502 14.0189 25.6271C13.9353 25.7522 13.8906 25.8993 13.8906 26.0498C13.8906 26.2516 13.9708 26.4451 14.1135 26.5878C14.2562 26.7305 14.4497 26.8107 14.6515 26.8107Z" fill="#CE2F72"/>
<path d="M21.8135 20.577C22.2007 20.4178 22.3856 19.9749 22.2264 19.5877C22.0672 19.2005 21.6242 19.0157 21.2371 19.1749C20.8499 19.3341 20.665 19.777 20.8242 20.1642C20.9834 20.5514 21.4264 20.7362 21.8135 20.577Z" fill="#CE2F72"/>
<path d="M14.6515 20.6548C14.8021 20.6548 14.9493 20.6101 15.0745 20.5264C15.1997 20.4426 15.2972 20.3237 15.3547 20.1845C15.4123 20.0453 15.4272 19.8921 15.3976 19.7444C15.368 19.5968 15.2952 19.4612 15.1885 19.3549C15.0818 19.2486 14.946 19.1764 14.7982 19.1473C14.6504 19.1183 14.4973 19.1338 14.3584 19.1918C14.2194 19.2498 14.1007 19.3478 14.0175 19.4733C13.9342 19.5988 13.8901 19.7462 13.8906 19.8968C13.8906 19.9966 13.9103 20.0954 13.9486 20.1876C13.9869 20.2797 14.043 20.3634 14.1137 20.4338C14.1844 20.5042 14.2683 20.56 14.3606 20.598C14.4529 20.6359 14.5517 20.6552 14.6515 20.6548Z" fill="#CE2F72"/>
<path d="M21.813 14.4291C22.2002 14.2699 22.385 13.8269 22.2258 13.4397C22.0666 13.0526 21.6237 12.8677 21.2365 13.0269C20.8493 13.1861 20.6645 13.6291 20.8237 14.0162C20.9829 14.4034 21.4258 14.5883 21.813 14.4291Z" fill="#CE2F72"/>
<path d="M14.6515 14.5188C14.802 14.5188 14.9491 14.4742 15.0742 14.3906C15.1994 14.307 15.2969 14.1882 15.3545 14.0491C15.4121 13.9101 15.4271 13.7571 15.3978 13.6095C15.3684 13.4619 15.296 13.3263 15.1896 13.2199C15.0831 13.1135 14.9475 13.041 14.7999 13.0117C14.6524 12.9823 14.4994 12.9974 14.3604 13.055C14.2213 13.1126 14.1025 13.2101 14.0189 13.3352C13.9353 13.4604 13.8906 13.6075 13.8906 13.7579C13.8906 13.9597 13.9708 14.1533 14.1135 14.296C14.2562 14.4387 14.4497 14.5188 14.6515 14.5188Z" fill="#CE2F72"/>
</g>
<g clip-path="url(#clip4_409_2277)">
<rect width="60" height="60" fill="#F6F6F6"/>
<path d="M30.0005 20.0005C30.5526 20.0005 31.0002 20.4482 31.0002 21.0007C31.0002 21.5527 31.4479 22.0004 32.0005 22.0004C32.5525 22.0004 33.0002 21.5527 33.0002 21.0007C33.0002 19.3436 31.6571 18.0005 30.0005 18.0005C28.3612 18.0421 27.042 19.361 27.0003 21.0007C27.0003 22.6184 28.4761 23.3554 29.5533 23.8956C30.4006 24.3185 31.0002 24.6463 31.0002 25.0006C30.9668 25.538 30.5379 25.9669 30.0005 26.0004C29.448 26.0004 29.0003 25.5527 29.0003 25.0006C29.0003 24.4481 28.5526 24.0004 28.0005 24.0004C27.448 24.0004 27.0003 24.4481 27.0003 25.0006C27.0003 26.6573 28.3434 28.0003 30.0005 28.0003C31.6397 27.9591 32.959 26.6399 33.0002 25.0006C33.0002 23.3824 31.5244 22.6454 30.4473 22.1057C29.6004 21.6823 29.0003 21.3545 29.0003 21.0007C29.0341 20.4628 29.4626 20.0343 30.0005 20.0005V20.0005Z" fill="#2A3342"/>
<path d="M32.0005 32.0001C32.5525 32.0001 33.0002 31.5524 33.0002 31.0003C33.0002 30.4478 32.5525 30.0001 32.0005 30.0001H29.0003C27.8957 30.0001 27.0003 30.896 27.0003 32.0001V38.0005C27.0003 39.105 27.8957 40.0004 29.0003 40.0004H32.0005C32.5525 40.0004 33.0002 39.5527 33.0002 39.0002C33.0002 38.4482 32.5525 38.0005 32.0005 38.0005H29.0003V36.0005H32.0005C32.5525 36.0005 33.0002 35.5528 33.0002 35.0003C33.0002 34.4482 32.5525 34.0005 32.0005 34.0005H29.0003V32.0001H32.0005Z" fill="#2A3342"/>
<path d="M30.0005 42.0002C28.3434 42.0002 27.0003 43.3433 27.0003 45V49.0004C27.0003 50.657 28.3434 52.0001 30.0005 52.0001C31.6571 52.0001 33.0002 50.657 33.0002 49.0004V45C33.0002 43.3433 31.6571 42.0002 30.0005 42.0002V42.0002ZM31.0002 49.0004C31.0002 49.5524 30.5526 50.0001 30.0005 50.0001C29.448 50.0001 29.0003 49.5524 29.0003 49.0004V45C29.0003 44.4479 29.448 44.0002 30.0005 44.0002C30.5526 44.0002 31.0002 44.4479 31.0002 45V49.0004Z" fill="#2A3342"/>
<path d="M57.0001 54H56.0004V27.0004C56.0004 25.3433 54.6568 24.0003 53.0002 24.0003H43.0005C41.3434 24.0003 40.0003 25.3433 40.0003 27.0004V54H38.0004V17.0002C38.0004 15.3436 36.6573 14.0005 35.0002 14.0005H33.6183L31.4924 9.7475C32.8799 9.31538 34.011 8.30145 34.5924 6.96937C36.4316 6.95747 38.1752 6.14815 39.3714 4.75061C40.0575 3.9271 40.1962 2.77767 39.7252 1.81455C39.1425 0.679762 37.9642 -0.0242714 36.6884 0.000447589H23.3136C22.0374 -0.0242714 20.8587 0.679304 20.2755 1.81455C19.8049 2.77767 19.9432 3.9271 20.6293 4.75061C21.8255 6.14769 23.5686 6.95747 25.4074 6.96937C25.9888 8.30145 27.1199 9.31538 28.5074 9.7475L26.3825 14.0005H25.0005C23.3439 14.0005 22.0003 15.3436 22.0003 17.0002V54H20.0004V37.0002C20.0004 35.3435 18.6573 34.0005 17.0007 34.0005H7.0005C5.34387 34.0005 4.0008 35.3435 4.0008 37.0002V54H3.0006C1.34397 54 0.000907898 55.343 0.000907898 57.0001C0.000907898 58.6567 1.34397 59.9998 3.0006 59.9998H57.0001C58.6572 59.9998 60.0003 58.6567 60.0003 57.0001C60.0003 55.343 58.6572 54 57.0001 54V54ZM42.0003 27.0004C42.0003 26.4479 42.448 26.0002 43.0005 26.0002H53.0002C53.5523 26.0002 54.0004 26.4479 54.0004 27.0004V54H42.0003V27.0004ZM37.9212 2.67879C38.0599 2.94704 38.0169 3.27342 37.8132 3.49681C37.099 4.32261 36.0888 4.83438 35.0002 4.92273V2.0004H36.6884C37.1952 1.97247 37.6735 2.23568 37.9212 2.67879ZM22.0795 2.67879C22.3276 2.23523 22.8064 1.97247 23.3136 2.0004H25.0005V4.92273C23.9129 4.83575 22.903 4.32535 22.1885 3.50047C21.9829 3.27709 21.939 2.94841 22.0795 2.67879ZM27.0004 5.00055V2.0004H33.0003V5.00055C33.0003 6.65763 31.6572 8.0007 30.0006 8.0007C28.3435 8.0007 27.0004 6.65763 27.0004 5.00055V5.00055ZM30.0006 11.2366L31.3826 14.0005H28.6186L30.0006 11.2366ZM24.0007 17.0002C24.0007 16.4482 24.4484 16.0005 25.0005 16.0005H35.0002C35.5527 16.0005 36.0004 16.4482 36.0004 17.0002V54H24.0007V17.0002ZM6.00075 37.0002C6.00075 36.4481 6.44844 36.0004 7.0005 36.0004H17.0007C17.5528 36.0004 18.0004 36.4481 18.0004 37.0002V54H6.00075V37.0002ZM57.0001 57.9999H3.0006C2.44854 57.9999 2.00086 57.5522 2.00086 57.0001C2.00086 56.4476 2.44854 55.9999 3.0006 55.9999H57.0001C57.5526 55.9999 58.0003 56.4476 58.0003 57.0001C58.0003 57.5522 57.5526 57.9999 57.0001 57.9999Z" fill="#2A3342"/>
<path d="M49.0002 3.41446L49.2932 3.70743C49.6855 4.08646 50.3094 4.08142 50.6949 3.69553C51.0808 3.30963 51.0863 2.68616 50.7072 2.29385L48.7073 0.293426C48.6139 0.2005 48.5031 0.126343 48.3813 0.0764465C48.1364 -0.0242615 47.8618 -0.0242615 47.6173 0.0764465C47.4951 0.126343 47.3843 0.2005 47.2909 0.293426L45.291 2.29385C44.9124 2.68616 44.9174 3.30963 45.3033 3.69553C45.6892 4.08142 46.3127 4.08646 46.705 3.70743L47.0003 3.41446V8.00079C47.0003 8.55285 47.448 9.00055 48 9.00055C48.5525 9.00055 49.0002 8.55285 49.0002 8.00079V3.41446Z" fill="#2A3342"/>
<path d="M48 11.0004C47.4479 11.0004 47.0002 11.4481 47.0002 12.0006V14.0006C47.0002 14.5527 47.4479 15.0004 48 15.0004C48.5525 15.0004 49.0002 14.5527 49.0002 14.0006V12.0006C49.0002 11.4481 48.5525 11.0004 48 11.0004Z" fill="#2A3342"/>
<path d="M12.3827 17.0776C12.1378 16.9765 11.8632 16.9765 11.6187 17.0776C11.4965 17.1275 11.3857 17.2012 11.2923 17.2946L9.29237 19.2946C8.91379 19.6869 8.91883 20.3104 9.30472 20.6963C9.69062 21.0822 10.3141 21.0877 10.7064 20.7086L11.0007 20.4143V22.0004C11.0007 22.553 11.4484 23.0006 12.0005 23.0006C12.553 23.0006 13.0007 22.553 13.0007 22.0004V20.4143L13.2937 20.7077C13.686 21.0863 14.3095 21.0812 14.6954 20.6954C15.0812 20.3095 15.0867 19.686 14.7077 19.2937L12.7077 17.2937C12.6148 17.2008 12.504 17.1271 12.3827 17.0776Z" fill="#2A3342"/>
<path d="M12.0005 25.0005C11.4484 25.0005 11.0007 25.4482 11.0007 26.0002V31.0004C11.0007 31.5525 11.4484 32.0001 12.0005 32.0001C12.553 32.0001 13.0007 31.5525 13.0007 31.0004V26.0002C13.0007 25.4482 12.553 25.0005 12.0005 25.0005Z" fill="#2A3342"/>
</g>
<defs>
<clipPath id="clip0_409_2277">
<rect width="42.75" height="26.1025" fill="white" transform="translate(27.25 44.0094)"/>
</clipPath>
<clipPath id="clip1_409_2277">
<rect width="13.3594" height="25.8281" fill="white" transform="translate(13.8906 44.1719)"/>
</clipPath>
<clipPath id="clip2_409_2277">
<rect width="42.75" height="26.1025" fill="white" transform="translate(27.25 13)"/>
</clipPath>
<clipPath id="clip3_409_2277">
<rect width="13.3594" height="25.8281" fill="white" transform="translate(13.8906 13)"/>
</clipPath>
<clipPath id="clip4_409_2277">
<rect width="60" height="60" fill="white"/>
</clipPath>
</defs>
</svg>
