<svg width="24" height="24" viewBox="0 0 24 24" fill="none" xmlns="http://www.w3.org/2000/svg">
<path d="M18.3255 5.61298L3.87637 11.186C2.89019 11.5817 2.89604 12.1318 3.69661 12.377L7.30027 13.5018L8.67911 17.7292C8.84673 18.1919 8.7641 18.3754 9.24997 18.3754C9.62493 18.3754 9.79127 18.2045 10.0001 18.0005C10.1329 17.8705 10.9214 17.1039 11.8018 16.2479L15.5503 19.0174C16.2401 19.398 16.7381 19.2008 16.9099 18.3768L19.3705 6.7816C19.6224 5.7716 18.9854 5.31347 18.3255 5.61298ZM7.86582 13.2434L15.9885 8.11875C16.394 7.87283 16.7658 8.00505 16.4605 8.27602L9.50538 14.5513L9.23457 17.4397L7.86582 13.2434V13.2434Z" fill="#CE2F72"/>
</svg>
