<svg width="70" height="64" viewBox="0 0 70 64" fill="none" xmlns="http://www.w3.org/2000/svg">
<g clip-path="url(#clip0_409_2276)">
<path d="M69.2418 63.112C69.6605 63.112 69.9998 62.7726 69.9998 62.354C69.9998 61.9353 69.6605 61.5959 69.2418 61.5959C68.8232 61.5959 68.4838 61.9353 68.4838 62.354C68.4838 62.7726 68.8232 63.112 69.2418 63.112Z" fill="#CE2F72"/>
<path d="M62.3682 63.112C62.7868 63.112 63.1262 62.7726 63.1262 62.354C63.1262 61.9353 62.7868 61.5959 62.3682 61.5959C61.9496 61.5959 61.6102 61.9353 61.6102 62.354C61.6102 62.7726 61.9496 63.112 62.3682 63.112Z" fill="#CE2F72"/>
<path d="M55.4974 63.1121C55.648 63.1127 55.7954 63.0685 55.9209 62.9853C56.0464 62.902 56.1444 62.7834 56.2024 62.6444C56.2604 62.5054 56.2759 62.3523 56.2469 62.2045C56.2179 62.0568 56.1456 61.9209 56.0393 61.8142C55.933 61.7075 55.7975 61.6348 55.6498 61.6052C55.5021 61.5756 55.349 61.5905 55.2098 61.648C55.0706 61.7055 54.9516 61.803 54.8678 61.9282C54.7841 62.0534 54.7394 62.2006 54.7394 62.3512C54.7394 62.5525 54.8192 62.7456 54.9612 62.8882C55.1033 63.0308 55.2961 63.1113 55.4974 63.1121V63.1121Z" fill="#CE2F72"/>
<path d="M48.6264 63.1121C48.7769 63.1121 48.924 63.0675 49.0491 62.9839C49.1742 62.9003 49.2717 62.7814 49.3293 62.6424C49.3869 62.5034 49.402 62.3504 49.3726 62.2028C49.3432 62.0552 49.2708 61.9196 49.1644 61.8132C49.058 61.7068 48.9224 61.6343 48.7748 61.605C48.6272 61.5756 48.4742 61.5907 48.3352 61.6483C48.1961 61.7058 48.0773 61.8034 47.9937 61.9285C47.9101 62.0536 47.8655 62.2007 47.8655 62.3512C47.8655 62.4511 47.8851 62.5501 47.9234 62.6424C47.9616 62.7347 48.0177 62.8186 48.0883 62.8892C48.159 62.9599 48.2429 63.016 48.3352 63.0542C48.4275 63.0924 48.5264 63.1121 48.6264 63.1121V63.1121Z" fill="#CE2F72"/>
<path d="M41.7527 63.112C42.1713 63.112 42.5107 62.7726 42.5107 62.354C42.5107 61.9353 42.1713 61.5959 41.7527 61.5959C41.3341 61.5959 40.9947 61.9353 40.9947 62.354C40.9947 62.7726 41.3341 63.112 41.7527 63.112Z" fill="#CE2F72"/>
<path d="M35.1718 63.0216C35.559 62.8624 35.7438 62.4195 35.5846 62.0323C35.4254 61.6451 34.9825 61.4603 34.5953 61.6195C34.2081 61.7787 34.0233 62.2216 34.1825 62.6088C34.3417 62.996 34.7846 63.1808 35.1718 63.0216Z" fill="#CE2F72"/>
<path d="M28.0109 61.6046C27.8602 61.6041 27.7127 61.6483 27.5871 61.7317C27.4616 61.815 27.3636 61.9339 27.3057 62.073C27.2477 62.2122 27.2324 62.3654 27.2617 62.5132C27.2909 62.6611 27.3635 62.7969 27.47 62.9035C27.5766 63.0101 27.7125 63.0826 27.8603 63.1119C28.0082 63.1412 28.1614 63.1258 28.3006 63.0679C28.4397 63.01 28.5585 62.912 28.6419 62.7864C28.7253 62.6609 28.7695 62.5134 28.7689 62.3626C28.7682 62.1618 28.6881 61.9695 28.5461 61.8275C28.4041 61.6855 28.2117 61.6054 28.0109 61.6046V61.6046Z" fill="#CE2F72"/>
<path d="M69.2418 56.9645C69.6605 56.9645 69.9998 56.6251 69.9998 56.2065C69.9998 55.7879 69.6605 55.4485 69.2418 55.4485C68.8232 55.4485 68.4838 55.7879 68.4838 56.2065C68.4838 56.6251 68.8232 56.9645 69.2418 56.9645Z" fill="#CE2F72"/>
<path d="M62.3682 56.9645C62.7868 56.9645 63.1262 56.6251 63.1262 56.2065C63.1262 55.7879 62.7868 55.4485 62.3682 55.4485C61.9496 55.4485 61.6102 55.7879 61.6102 56.2065C61.6102 56.6251 61.9496 56.9645 62.3682 56.9645Z" fill="#CE2F72"/>
<path d="M55.4974 56.9648C55.6481 56.9653 55.7957 56.9211 55.9212 56.8377C56.0468 56.7543 56.1448 56.6355 56.2027 56.4964C56.2606 56.3572 56.276 56.204 56.2467 56.0561C56.2174 55.9083 56.1449 55.7724 56.0383 55.6658C55.9317 55.5593 55.7959 55.4867 55.648 55.4575C55.5001 55.4282 55.3469 55.4435 55.2078 55.5015C55.0686 55.5594 54.9498 55.6574 54.8664 55.7829C54.7831 55.9085 54.7388 56.056 54.7394 56.2067C54.7401 56.4075 54.8203 56.5999 54.9623 56.7419C55.1043 56.8839 55.2966 56.964 55.4974 56.9648V56.9648Z" fill="#CE2F72"/>
<path d="M48.6264 56.9648C48.777 56.9648 48.9242 56.9201 49.0494 56.8363C49.1746 56.7526 49.2721 56.6336 49.3296 56.4944C49.3871 56.3552 49.402 56.202 49.3724 56.0544C49.3428 55.9067 49.2701 55.7711 49.1634 55.6648C49.0567 55.5585 48.9208 55.4863 48.773 55.4573C48.6252 55.4282 48.4722 55.4437 48.3332 55.5017C48.1942 55.5598 48.0756 55.6577 47.9923 55.7832C47.9091 55.9087 47.8649 56.0561 47.8655 56.2067C47.8655 56.3065 47.8852 56.4053 47.9235 56.4975C47.9617 56.5896 48.0178 56.6733 48.0885 56.7438C48.1592 56.8142 48.2431 56.8699 48.3354 56.9079C48.4277 56.9458 48.5266 56.9651 48.6264 56.9648V56.9648Z" fill="#CE2F72"/>
<path d="M41.7527 56.9645C42.1713 56.9645 42.5107 56.6251 42.5107 56.2065C42.5107 55.7879 42.1713 55.4485 41.7527 55.4485C41.3341 55.4485 40.9947 55.7879 40.9947 56.2065C40.9947 56.6251 41.3341 56.9645 41.7527 56.9645Z" fill="#CE2F72"/>
<path d="M35.1724 56.8765C35.5596 56.7173 35.7444 56.2743 35.5852 55.8872C35.426 55.5 34.9831 55.3151 34.5959 55.4743C34.2087 55.6335 34.0239 56.0765 34.1831 56.4636C34.3422 56.8508 34.7852 57.0357 35.1724 56.8765Z" fill="#CE2F72"/>
<path d="M28.0109 56.9648C28.1615 56.9648 28.3087 56.9201 28.4339 56.8363C28.5591 56.7526 28.6566 56.6336 28.7141 56.4944C28.7716 56.3552 28.7865 56.202 28.757 56.0544C28.7274 55.9067 28.6546 55.7711 28.5479 55.6648C28.4412 55.5585 28.3054 55.4863 28.1576 55.4573C28.0098 55.4282 27.8567 55.4437 27.7177 55.5017C27.5788 55.5598 27.4601 55.6577 27.3768 55.7832C27.2936 55.9087 27.2494 56.0561 27.25 56.2067C27.25 56.3065 27.2697 56.4053 27.308 56.4975C27.3463 56.5896 27.4024 56.6733 27.4731 56.7438C27.5438 56.8142 27.6277 56.8699 27.7199 56.9079C27.8122 56.9458 27.9111 56.9651 28.0109 56.9648Z" fill="#CE2F72"/>
<path d="M69.2418 50.8172C69.6605 50.8172 69.9998 50.4778 69.9998 50.0592C69.9998 49.6405 69.6605 49.3011 69.2418 49.3011C68.8232 49.3011 68.4838 49.6405 68.4838 50.0592C68.4838 50.4778 68.8232 50.8172 69.2418 50.8172Z" fill="#CE2F72"/>
<path d="M62.3682 50.8172C62.7868 50.8172 63.1262 50.4778 63.1262 50.0592C63.1262 49.6405 62.7868 49.3011 62.3682 49.3011C61.9496 49.3011 61.6102 49.6405 61.6102 50.0592C61.6102 50.4778 61.9496 50.8172 62.3682 50.8172Z" fill="#CE2F72"/>
<path d="M55.4974 50.8201C55.648 50.8207 55.7954 50.7765 55.9209 50.6933C56.0464 50.61 56.1444 50.4914 56.2024 50.3524C56.2604 50.2134 56.2759 50.0603 56.2469 49.9126C56.2179 49.7648 56.1456 49.6289 56.0393 49.5222C55.933 49.4155 55.7975 49.3428 55.6498 49.3132C55.5021 49.2836 55.349 49.2985 55.2098 49.356C55.0706 49.4135 54.9516 49.511 54.8678 49.6362C54.7841 49.7614 54.7394 49.9086 54.7394 50.0592C54.7394 50.2605 54.8192 50.4536 54.9612 50.5962C55.1033 50.7388 55.2961 50.8193 55.4974 50.8201V50.8201Z" fill="#CE2F72"/>
<path d="M48.6264 50.8201C48.7769 50.8201 48.924 50.7755 49.0491 50.6919C49.1742 50.6083 49.2717 50.4894 49.3293 50.3504C49.3869 50.2114 49.402 50.0584 49.3726 49.9108C49.3432 49.7632 49.2708 49.6276 49.1644 49.5212C49.058 49.4148 48.9224 49.3423 48.7748 49.313C48.6272 49.2836 48.4742 49.2987 48.3352 49.3563C48.1961 49.4139 48.0773 49.5114 47.9937 49.6365C47.9101 49.7616 47.8655 49.9087 47.8655 50.0592C47.8655 50.1591 47.8851 50.2581 47.9234 50.3504C47.9616 50.4427 48.0177 50.5266 48.0883 50.5972C48.159 50.6679 48.2429 50.7239 48.3352 50.7622C48.4275 50.8004 48.5264 50.8201 48.6264 50.8201V50.8201Z" fill="#CE2F72"/>
<path d="M41.7527 50.8172C42.1713 50.8172 42.5107 50.4778 42.5107 50.0592C42.5107 49.6405 42.1713 49.3011 41.7527 49.3011C41.3341 49.3011 40.9947 49.6405 40.9947 50.0592C40.9947 50.4778 41.3341 50.8172 41.7527 50.8172Z" fill="#CE2F72"/>
<path d="M35.1721 50.7316C35.5593 50.5724 35.7441 50.1294 35.5849 49.7422C35.4257 49.3551 34.9828 49.1702 34.5956 49.3294C34.2084 49.4886 34.0236 49.9315 34.1828 50.3187C34.342 50.7059 34.7849 50.8907 35.1721 50.7316Z" fill="#CE2F72"/>
<path d="M28.0109 50.8201C28.1614 50.8201 28.3085 50.7755 28.4336 50.6919C28.5587 50.6083 28.6562 50.4894 28.7138 50.3504C28.7714 50.2114 28.7865 50.0584 28.7572 49.9108C28.7278 49.7632 28.6553 49.6276 28.5489 49.5212C28.4425 49.4148 28.3069 49.3423 28.1593 49.313C28.0117 49.2836 27.8588 49.2987 27.7197 49.3563C27.5807 49.4139 27.4619 49.5114 27.3782 49.6365C27.2946 49.7616 27.25 49.9087 27.25 50.0592C27.25 50.261 27.3302 50.4545 27.4729 50.5972C27.6156 50.7399 27.8091 50.8201 28.0109 50.8201V50.8201Z" fill="#CE2F72"/>
<path d="M69.2418 44.6729C69.6605 44.6729 69.9998 44.3335 69.9998 43.9149C69.9998 43.4962 69.6605 43.1569 69.2418 43.1569C68.8232 43.1569 68.4838 43.4962 68.4838 43.9149C68.4838 44.3335 68.8232 44.6729 69.2418 44.6729Z" fill="#CE2F72"/>
<path d="M62.3682 44.6729C62.7868 44.6729 63.1262 44.3335 63.1262 43.9149C63.1262 43.4962 62.7868 43.1569 62.3682 43.1569C61.9496 43.1569 61.6102 43.4962 61.6102 43.9149C61.6102 44.3335 61.9496 44.6729 62.3682 44.6729Z" fill="#CE2F72"/>
<path d="M55.4974 44.6643C55.6481 44.6649 55.7957 44.6207 55.9212 44.5373C56.0468 44.4539 56.1448 44.3351 56.2027 44.196C56.2606 44.0568 56.276 43.9036 56.2467 43.7557C56.2174 43.6079 56.1449 43.472 56.0383 43.3654C55.9317 43.2589 55.7959 43.1863 55.648 43.1571C55.5001 43.1278 55.3469 43.1431 55.2078 43.201C55.0686 43.259 54.9498 43.357 54.8664 43.4825C54.7831 43.6081 54.7388 43.7556 54.7394 43.9063C54.7401 44.1071 54.8203 44.2995 54.9623 44.4415C55.1043 44.5835 55.2966 44.6636 55.4974 44.6643V44.6643Z" fill="#CE2F72"/>
<path d="M48.6264 44.6643C48.777 44.6643 48.9242 44.6196 49.0494 44.5359C49.1746 44.4522 49.2721 44.3332 49.3296 44.194C49.3871 44.0548 49.402 43.9016 49.3724 43.754C49.3428 43.6063 49.2701 43.4707 49.1634 43.3644C49.0567 43.2581 48.9208 43.1859 48.773 43.1568C48.6252 43.1278 48.4722 43.1433 48.3332 43.2013C48.1942 43.2594 48.0756 43.3573 47.9923 43.4828C47.9091 43.6083 47.8649 43.7557 47.8655 43.9063C47.8655 44.0061 47.8852 44.1049 47.9235 44.1971C47.9617 44.2892 48.0178 44.3729 48.0885 44.4433C48.1592 44.5138 48.2431 44.5695 48.3354 44.6075C48.4277 44.6454 48.5266 44.6647 48.6264 44.6643V44.6643Z" fill="#CE2F72"/>
<path d="M41.7527 44.6729C42.1713 44.6729 42.5107 44.3335 42.5107 43.9149C42.5107 43.4962 42.1713 43.1569 41.7527 43.1569C41.3341 43.1569 40.9947 43.4962 40.9947 43.9149C40.9947 44.3335 41.3341 44.6729 41.7527 44.6729Z" fill="#CE2F72"/>
<path d="M35.1729 44.5864C35.5601 44.4272 35.7449 43.9843 35.5857 43.5971C35.4265 43.2099 34.9836 43.0251 34.5964 43.1843C34.2092 43.3435 34.0244 43.7864 34.1836 44.1736C34.3428 44.5608 34.7857 44.7456 35.1729 44.5864Z" fill="#CE2F72"/>
<path d="M28.0109 44.6643C28.1615 44.6643 28.3087 44.6196 28.4339 44.5359C28.5591 44.4522 28.6566 44.3332 28.7141 44.194C28.7716 44.0548 28.7865 43.9016 28.757 43.754C28.7274 43.6063 28.6546 43.4707 28.5479 43.3644C28.4412 43.2581 28.3054 43.1859 28.1576 43.1568C28.0098 43.1278 27.8567 43.1433 27.7177 43.2013C27.5788 43.2594 27.4601 43.3573 27.3768 43.4828C27.2936 43.6083 27.2494 43.7557 27.25 43.9063C27.25 44.0061 27.2697 44.1049 27.308 44.1971C27.3463 44.2892 27.4024 44.3729 27.4731 44.4433C27.5438 44.5138 27.6277 44.5695 27.7199 44.6075C27.8122 44.6454 27.9111 44.6647 28.0109 44.6643V44.6643Z" fill="#CE2F72"/>
<path d="M69.2418 38.5254C69.6605 38.5254 69.9998 38.186 69.9998 37.7674C69.9998 37.3488 69.6605 37.0094 69.2418 37.0094C68.8232 37.0094 68.4838 37.3488 68.4838 37.7674C68.4838 38.186 68.8232 38.5254 69.2418 38.5254Z" fill="#CE2F72"/>
<path d="M62.3682 38.5254C62.7869 38.5254 63.1262 38.186 63.1262 37.7674C63.1262 37.3488 62.7869 37.0094 62.3682 37.0094C61.9496 37.0094 61.6102 37.3488 61.6102 37.7674C61.6102 38.186 61.9496 38.5254 62.3682 38.5254Z" fill="#CE2F72"/>
<path d="M55.4974 38.5284C55.648 38.5289 55.7954 38.4848 55.9209 38.4015C56.0464 38.3183 56.1444 38.1996 56.2024 38.0606C56.2604 37.9217 56.2759 37.7686 56.2469 37.6208C56.2179 37.473 56.1456 37.3372 56.0393 37.2305C55.933 37.1238 55.7975 37.051 55.6498 37.0214C55.5021 36.9918 55.349 37.0067 55.2098 37.0642C55.0706 37.1217 54.9516 37.2193 54.8678 37.3445C54.7841 37.4696 54.7394 37.6169 54.7394 37.7675C54.7394 37.9688 54.8192 38.1619 54.9612 38.3045C55.1033 38.4471 55.2961 38.5276 55.4974 38.5284V38.5284Z" fill="#CE2F72"/>
<path d="M48.6264 38.5284C48.7769 38.5284 48.924 38.4837 49.0491 38.4001C49.1742 38.3165 49.2717 38.1977 49.3293 38.0587C49.3869 37.9196 49.402 37.7666 49.3726 37.619C49.3432 37.4714 49.2708 37.3359 49.1644 37.2294C49.058 37.123 48.9224 37.0506 48.7748 37.0212C48.6272 36.9919 48.4742 37.0069 48.3352 37.0645C48.1961 37.1221 48.0773 37.2196 47.9937 37.3448C47.9101 37.4699 47.8655 37.617 47.8655 37.7675C47.8655 37.8674 47.8851 37.9663 47.9234 38.0587C47.9616 38.151 48.0177 38.2348 48.0883 38.3055C48.159 38.3761 48.2429 38.4322 48.3352 38.4704C48.4275 38.5087 48.5264 38.5284 48.6264 38.5284V38.5284Z" fill="#CE2F72"/>
<path d="M41.7527 38.5254C42.1713 38.5254 42.5107 38.186 42.5107 37.7674C42.5107 37.3488 42.1713 37.0094 41.7527 37.0094C41.3341 37.0094 40.9947 37.3488 40.9947 37.7674C40.9947 38.186 41.3341 38.5254 41.7527 38.5254Z" fill="#CE2F72"/>
<path d="M35.1724 38.4385C35.5595 38.2793 35.7444 37.8363 35.5852 37.4491C35.426 37.062 34.9831 36.8771 34.5959 37.0363C34.2087 37.1955 34.0239 37.6385 34.183 38.0256C34.3422 38.4128 34.7852 38.5977 35.1724 38.4385Z" fill="#CE2F72"/>
<path d="M28.0109 38.5284C28.1614 38.5284 28.3085 38.4837 28.4336 38.4001C28.5587 38.3165 28.6562 38.1977 28.7138 38.0587C28.7714 37.9196 28.7865 37.7666 28.7572 37.619C28.7278 37.4714 28.6553 37.3359 28.5489 37.2294C28.4425 37.123 28.3069 37.0506 28.1593 37.0212C28.0117 36.9919 27.8588 37.0069 27.7197 37.0645C27.5807 37.1221 27.4619 37.2196 27.3782 37.3448C27.2946 37.4699 27.25 37.617 27.25 37.7675C27.25 37.9693 27.3302 38.1628 27.4729 38.3055C27.6156 38.4482 27.8091 38.5284 28.0109 38.5284V38.5284Z" fill="#CE2F72"/>
</g>
<g clip-path="url(#clip1_409_2276)">
<path d="M21.8124 63.0216C22.1996 62.8624 22.3845 62.4195 22.2253 62.0323C22.0661 61.6451 21.6231 61.4603 21.236 61.6195C20.8488 61.7787 20.6639 62.2216 20.8231 62.6088C20.9823 62.996 21.4252 63.1808 21.8124 63.0216Z" fill="#CE2F72"/>
<path d="M14.6515 61.6046C14.5008 61.6041 14.3533 61.6483 14.2278 61.7317C14.1022 61.815 14.0042 61.9339 13.9463 62.073C13.8883 62.2122 13.873 62.3654 13.9023 62.5132C13.9316 62.6611 14.0041 62.7969 14.1107 62.9035C14.2173 63.0101 14.3531 63.0826 14.5009 63.1119C14.6488 63.1412 14.802 63.1258 14.9412 63.0679C15.0803 63.01 15.1992 62.912 15.2825 62.7864C15.3659 62.6609 15.4101 62.5134 15.4096 62.3626C15.4088 62.1618 15.3287 61.9695 15.1867 61.8275C15.0447 61.6855 14.8524 61.6054 14.6515 61.6046V61.6046Z" fill="#CE2F72"/>
<path d="M21.813 56.8765C22.2002 56.7173 22.385 56.2743 22.2258 55.8872C22.0666 55.5 21.6237 55.3151 21.2365 55.4743C20.8493 55.6335 20.6645 56.0765 20.8237 56.4636C20.9829 56.8508 21.4258 57.0357 21.813 56.8765Z" fill="#CE2F72"/>
<path d="M14.6515 56.9648C14.8021 56.9648 14.9493 56.9201 15.0745 56.8363C15.1997 56.7526 15.2972 56.6336 15.3547 56.4944C15.4123 56.3552 15.4272 56.202 15.3976 56.0544C15.368 55.9067 15.2952 55.7711 15.1885 55.6648C15.0818 55.5585 14.946 55.4863 14.7982 55.4573C14.6504 55.4282 14.4973 55.4437 14.3584 55.5017C14.2194 55.5598 14.1007 55.6577 14.0175 55.7832C13.9342 55.9087 13.8901 56.0561 13.8906 56.2067C13.8906 56.3065 13.9103 56.4053 13.9486 56.4975C13.9869 56.5896 14.043 56.6733 14.1137 56.7438C14.1844 56.8142 14.2683 56.8699 14.3606 56.9079C14.4529 56.9458 14.5517 56.9651 14.6515 56.9648Z" fill="#CE2F72"/>
<path d="M21.8127 50.7316C22.1999 50.5724 22.3847 50.1294 22.2255 49.7422C22.0663 49.3551 21.6234 49.1702 21.2362 49.3294C20.849 49.4886 20.6642 49.9315 20.8234 50.3187C20.9826 50.7059 21.4255 50.8907 21.8127 50.7316Z" fill="#CE2F72"/>
<path d="M14.6515 50.8201C14.802 50.8201 14.9491 50.7755 15.0742 50.6919C15.1994 50.6083 15.2969 50.4894 15.3545 50.3504C15.4121 50.2114 15.4271 50.0584 15.3978 49.9108C15.3684 49.7632 15.296 49.6276 15.1896 49.5212C15.0831 49.4148 14.9475 49.3423 14.7999 49.313C14.6524 49.2836 14.4994 49.2987 14.3604 49.3563C14.2213 49.4139 14.1025 49.5114 14.0189 49.6365C13.9353 49.7616 13.8906 49.9087 13.8906 50.0592C13.8906 50.261 13.9708 50.4545 14.1135 50.5972C14.2562 50.7399 14.4497 50.8201 14.6515 50.8201V50.8201Z" fill="#CE2F72"/>
<path d="M21.8135 44.5864C22.2007 44.4272 22.3856 43.9843 22.2264 43.5971C22.0672 43.2099 21.6242 43.0251 21.2371 43.1843C20.8499 43.3435 20.665 43.7864 20.8242 44.1736C20.9834 44.5608 21.4264 44.7456 21.8135 44.5864Z" fill="#CE2F72"/>
<path d="M14.6515 44.6643C14.8021 44.6643 14.9493 44.6196 15.0745 44.5359C15.1997 44.4522 15.2972 44.3332 15.3547 44.194C15.4123 44.0548 15.4272 43.9016 15.3976 43.754C15.368 43.6063 15.2952 43.4707 15.1885 43.3644C15.0818 43.2581 14.946 43.1859 14.7982 43.1568C14.6504 43.1278 14.4973 43.1433 14.3584 43.2013C14.2194 43.2594 14.1007 43.3573 14.0175 43.4828C13.9342 43.6083 13.8901 43.7557 13.8906 43.9063C13.8906 44.0061 13.9103 44.1049 13.9486 44.1971C13.9869 44.2892 14.043 44.3729 14.1137 44.4433C14.1844 44.5138 14.2683 44.5695 14.3606 44.6075C14.4529 44.6454 14.5517 44.6647 14.6515 44.6643V44.6643Z" fill="#CE2F72"/>
<path d="M21.813 38.4385C22.2002 38.2793 22.385 37.8363 22.2258 37.4491C22.0666 37.062 21.6237 36.8771 21.2365 37.0363C20.8493 37.1955 20.6645 37.6385 20.8237 38.0256C20.9829 38.4128 21.4258 38.5977 21.813 38.4385Z" fill="#CE2F72"/>
<path d="M14.6515 38.5284C14.802 38.5284 14.9491 38.4837 15.0742 38.4001C15.1994 38.3165 15.2969 38.1977 15.3545 38.0587C15.4121 37.9196 15.4271 37.7666 15.3978 37.619C15.3684 37.4714 15.296 37.3359 15.1896 37.2294C15.0831 37.123 14.9475 37.0506 14.7999 37.0212C14.6524 36.9919 14.4994 37.0069 14.3604 37.0645C14.2213 37.1221 14.1025 37.2196 14.0189 37.3448C13.9353 37.4699 13.8906 37.617 13.8906 37.7675C13.8906 37.9693 13.9708 38.1628 14.1135 38.3055C14.2562 38.4482 14.4497 38.5284 14.6515 38.5284V38.5284Z" fill="#CE2F72"/>
</g>
<g clip-path="url(#clip2_409_2276)">
<path d="M69.2418 32.1024C69.6605 32.1024 69.9998 31.7631 69.9998 31.3444C69.9998 30.9258 69.6605 30.5864 69.2418 30.5864C68.8232 30.5864 68.4838 30.9258 68.4838 31.3444C68.4838 31.7631 68.8232 32.1024 69.2418 32.1024Z" fill="#CE2F72"/>
<path d="M62.3682 32.1024C62.7868 32.1024 63.1262 31.7631 63.1262 31.3444C63.1262 30.9258 62.7868 30.5864 62.3682 30.5864C61.9496 30.5864 61.6102 30.9258 61.6102 31.3444C61.6102 31.7631 61.9496 32.1024 62.3682 32.1024Z" fill="#CE2F72"/>
<path d="M55.4974 32.1027C55.648 32.1033 55.7954 32.0591 55.9209 31.9759C56.0464 31.8926 56.1444 31.774 56.2024 31.635C56.2604 31.496 56.2759 31.3429 56.2469 31.1951C56.2179 31.0474 56.1456 30.9115 56.0393 30.8048C55.933 30.6981 55.7975 30.6254 55.6498 30.5958C55.5021 30.5662 55.349 30.5811 55.2098 30.6386C55.0706 30.6961 54.9516 30.7936 54.8678 30.9188C54.7841 31.044 54.7394 31.1912 54.7394 31.3418C54.7394 31.5431 54.8192 31.7362 54.9612 31.8788C55.1033 32.0214 55.2961 32.1019 55.4974 32.1027V32.1027Z" fill="#CE2F72"/>
<path d="M48.6264 32.1027C48.7769 32.1027 48.924 32.0581 49.0491 31.9745C49.1742 31.8909 49.2717 31.772 49.3293 31.633C49.3869 31.494 49.402 31.341 49.3726 31.1934C49.3432 31.0458 49.2708 30.9102 49.1644 30.8038C49.058 30.6974 48.9224 30.6249 48.7748 30.5956C48.6272 30.5662 48.4742 30.5813 48.3352 30.6389C48.1961 30.6964 48.0773 30.794 47.9937 30.9191C47.9101 31.0442 47.8655 31.1913 47.8655 31.3418C47.8655 31.4417 47.8851 31.5407 47.9234 31.633C47.9616 31.7253 48.0177 31.8092 48.0883 31.8798C48.159 31.9505 48.2429 32.0066 48.3352 32.0448C48.4275 32.083 48.5264 32.1027 48.6264 32.1027V32.1027Z" fill="#CE2F72"/>
<path d="M41.7527 32.1024C42.1713 32.1024 42.5107 31.7631 42.5107 31.3444C42.5107 30.9258 42.1713 30.5864 41.7527 30.5864C41.3341 30.5864 40.9947 30.9258 40.9947 31.3444C40.9947 31.7631 41.3341 32.1024 41.7527 32.1024Z" fill="#CE2F72"/>
<path d="M35.1718 32.0121C35.559 31.8529 35.7438 31.4099 35.5846 31.0228C35.4254 30.6356 34.9825 30.4508 34.5953 30.6099C34.2081 30.7691 34.0233 31.2121 34.1825 31.5992C34.3417 31.9864 34.7846 32.1713 35.1718 32.0121Z" fill="#CE2F72"/>
<path d="M28.0109 30.5951C27.8602 30.5945 27.7127 30.6387 27.5871 30.7221C27.4616 30.8055 27.3636 30.9243 27.3057 31.0635C27.2477 31.2026 27.2324 31.3559 27.2617 31.5037C27.2909 31.6516 27.3635 31.7874 27.47 31.894C27.5766 32.0006 27.7125 32.0731 27.8603 32.1024C28.0082 32.1316 28.1614 32.1163 28.3006 32.0584C28.4397 32.0004 28.5585 31.9025 28.6419 31.7769C28.7253 31.6513 28.7695 31.5038 28.7689 31.3531C28.7682 31.1523 28.6881 30.9599 28.5461 30.8179C28.4041 30.676 28.2117 30.5959 28.0109 30.5951V30.5951Z" fill="#CE2F72"/>
<path d="M69.2418 25.9551C69.6605 25.9551 69.9998 25.6157 69.9998 25.1971C69.9998 24.7785 69.6605 24.4391 69.2418 24.4391C68.8232 24.4391 68.4838 24.7785 68.4838 25.1971C68.4838 25.6157 68.8232 25.9551 69.2418 25.9551Z" fill="#CE2F72"/>
<path d="M62.3682 25.9551C62.7868 25.9551 63.1262 25.6157 63.1262 25.1971C63.1262 24.7785 62.7868 24.4391 62.3682 24.4391C61.9496 24.4391 61.6102 24.7785 61.6102 25.1971C61.6102 25.6157 61.9496 25.9551 62.3682 25.9551Z" fill="#CE2F72"/>
<path d="M55.4974 25.9552C55.6481 25.9558 55.7957 25.9116 55.9212 25.8282C56.0468 25.7448 56.1448 25.626 56.2027 25.4869C56.2606 25.3477 56.276 25.1945 56.2467 25.0466C56.2174 24.8988 56.1449 24.7629 56.0383 24.6563C55.9317 24.5497 55.7959 24.4772 55.648 24.448C55.5001 24.4187 55.3469 24.434 55.2078 24.4919C55.0686 24.5499 54.9498 24.6479 54.8664 24.7734C54.7831 24.899 54.7388 25.0465 54.7394 25.1972C54.7401 25.398 54.8203 25.5904 54.9623 25.7324C55.1043 25.8744 55.2966 25.9545 55.4974 25.9552V25.9552Z" fill="#CE2F72"/>
<path d="M48.6264 25.9552C48.777 25.9552 48.9242 25.9105 49.0494 25.8268C49.1746 25.7431 49.2721 25.6241 49.3296 25.4849C49.3871 25.3457 49.402 25.1925 49.3724 25.0448C49.3428 24.8972 49.2701 24.7616 49.1634 24.6553C49.0567 24.549 48.9208 24.4768 48.773 24.4477C48.6252 24.4187 48.4722 24.4342 48.3332 24.4922C48.1942 24.5503 48.0756 24.6482 47.9923 24.7737C47.9091 24.8992 47.8649 25.0466 47.8655 25.1972C47.8655 25.297 47.8852 25.3958 47.9235 25.488C47.9617 25.5801 48.0178 25.6638 48.0885 25.7342C48.1592 25.8047 48.2431 25.8604 48.3354 25.8984C48.4277 25.9363 48.5266 25.9556 48.6264 25.9552V25.9552Z" fill="#CE2F72"/>
<path d="M41.7527 25.9551C42.1713 25.9551 42.5107 25.6157 42.5107 25.1971C42.5107 24.7785 42.1713 24.4391 41.7527 24.4391C41.3341 24.4391 40.9947 24.7785 40.9947 25.1971C40.9947 25.6157 41.3341 25.9551 41.7527 25.9551Z" fill="#CE2F72"/>
<path d="M35.1724 25.8671C35.5596 25.7079 35.7444 25.2649 35.5852 24.8778C35.426 24.4906 34.9831 24.3057 34.5959 24.4649C34.2087 24.6241 34.0239 25.0671 34.1831 25.4542C34.3422 25.8414 34.7852 26.0263 35.1724 25.8671Z" fill="#CE2F72"/>
<path d="M28.0109 25.9552C28.1615 25.9552 28.3087 25.9105 28.4339 25.8268C28.5591 25.7431 28.6566 25.6241 28.7141 25.4849C28.7716 25.3457 28.7865 25.1925 28.757 25.0448C28.7274 24.8972 28.6546 24.7616 28.5479 24.6553C28.4412 24.549 28.3054 24.4768 28.1576 24.4477C28.0098 24.4187 27.8567 24.4342 27.7177 24.4922C27.5788 24.5503 27.4601 24.6482 27.3768 24.7737C27.2936 24.8992 27.2494 25.0466 27.25 25.1972C27.25 25.297 27.2697 25.3958 27.308 25.488C27.3463 25.5801 27.4024 25.6638 27.4731 25.7342C27.5438 25.8047 27.6277 25.8604 27.7199 25.8984C27.8122 25.9363 27.9111 25.9556 28.0109 25.9552Z" fill="#CE2F72"/>
<path d="M69.2418 19.8076C69.6605 19.8076 69.9998 19.4683 69.9998 19.0496C69.9998 18.631 69.6605 18.2916 69.2418 18.2916C68.8232 18.2916 68.4838 18.631 68.4838 19.0496C68.4838 19.4683 68.8232 19.8076 69.2418 19.8076Z" fill="#CE2F72"/>
<path d="M62.3682 19.8076C62.7868 19.8076 63.1262 19.4683 63.1262 19.0496C63.1262 18.631 62.7868 18.2916 62.3682 18.2916C61.9496 18.2916 61.6102 18.631 61.6102 19.0496C61.6102 19.4683 61.9496 19.8076 62.3682 19.8076Z" fill="#CE2F72"/>
<path d="M55.4974 19.8107C55.648 19.8113 55.7954 19.7671 55.9209 19.6839C56.0464 19.6006 56.1444 19.482 56.2024 19.343C56.2604 19.204 56.2759 19.0509 56.2469 18.9032C56.2179 18.7554 56.1456 18.6195 56.0393 18.5128C55.933 18.4061 55.7975 18.3334 55.6498 18.3038C55.5021 18.2742 55.349 18.2891 55.2098 18.3466C55.0706 18.4041 54.9516 18.5016 54.8678 18.6268C54.7841 18.752 54.7394 18.8992 54.7394 19.0498C54.7394 19.2511 54.8192 19.4442 54.9612 19.5868C55.1033 19.7294 55.2961 19.8099 55.4974 19.8107V19.8107Z" fill="#CE2F72"/>
<path d="M48.6264 19.8107C48.7769 19.8107 48.924 19.7661 49.0491 19.6825C49.1742 19.5989 49.2717 19.48 49.3293 19.341C49.3869 19.202 49.402 19.049 49.3726 18.9014C49.3432 18.7538 49.2708 18.6182 49.1644 18.5118C49.058 18.4054 48.9224 18.3329 48.7748 18.3036C48.6272 18.2742 48.4742 18.2893 48.3352 18.3469C48.1961 18.4045 48.0773 18.502 47.9937 18.6271C47.9101 18.7522 47.8655 18.8993 47.8655 19.0498C47.8655 19.1497 47.8851 19.2487 47.9234 19.341C47.9616 19.4333 48.0177 19.5172 48.0883 19.5878C48.159 19.6585 48.2429 19.7145 48.3352 19.7528C48.4275 19.791 48.5264 19.8107 48.6264 19.8107V19.8107Z" fill="#CE2F72"/>
<path d="M41.7527 19.8076C42.1713 19.8076 42.5107 19.4683 42.5107 19.0496C42.5107 18.631 42.1713 18.2916 41.7527 18.2916C41.3341 18.2916 40.9947 18.631 40.9947 19.0496C40.9947 19.4683 41.3341 19.8076 41.7527 19.8076Z" fill="#CE2F72"/>
<path d="M35.1721 19.7221C35.5593 19.5629 35.7441 19.12 35.5849 18.7328C35.4257 18.3456 34.9828 18.1608 34.5956 18.32C34.2084 18.4792 34.0236 18.9221 34.1828 19.3093C34.342 19.6965 34.7849 19.8813 35.1721 19.7221Z" fill="#CE2F72"/>
<path d="M28.0109 19.8107C28.1614 19.8107 28.3085 19.7661 28.4336 19.6825C28.5587 19.5989 28.6562 19.48 28.7138 19.341C28.7714 19.202 28.7865 19.049 28.7572 18.9014C28.7278 18.7538 28.6553 18.6182 28.5489 18.5118C28.4425 18.4054 28.3069 18.3329 28.1593 18.3036C28.0117 18.2742 27.8588 18.2893 27.7197 18.3469C27.5807 18.4045 27.4619 18.502 27.3782 18.6271C27.2946 18.7522 27.25 18.8993 27.25 19.0498C27.25 19.2516 27.3302 19.4451 27.4729 19.5878C27.6156 19.7305 27.8091 19.8107 28.0109 19.8107V19.8107Z" fill="#CE2F72"/>
<path d="M69.2418 13.6634C69.6605 13.6634 69.9998 13.324 69.9998 12.9054C69.9998 12.4868 69.6605 12.1474 69.2418 12.1474C68.8232 12.1474 68.4838 12.4868 68.4838 12.9054C68.4838 13.324 68.8232 13.6634 69.2418 13.6634Z" fill="#CE2F72"/>
<path d="M62.3682 13.6634C62.7868 13.6634 63.1262 13.324 63.1262 12.9054C63.1262 12.4868 62.7868 12.1474 62.3682 12.1474C61.9496 12.1474 61.6102 12.4868 61.6102 12.9054C61.6102 13.324 61.9496 13.6634 62.3682 13.6634Z" fill="#CE2F72"/>
<path d="M55.4974 13.6548C55.6481 13.6554 55.7957 13.6112 55.9212 13.5278C56.0468 13.4444 56.1448 13.3256 56.2027 13.1864C56.2606 13.0473 56.276 12.8941 56.2467 12.7462C56.2174 12.5983 56.1449 12.4625 56.0383 12.3559C55.9317 12.2493 55.7959 12.1768 55.648 12.1475C55.5001 12.1183 55.3469 12.1336 55.2078 12.1915C55.0686 12.2495 54.9498 12.3474 54.8664 12.473C54.7831 12.5986 54.7388 12.7461 54.7394 12.8968C54.7401 13.0976 54.8203 13.29 54.9623 13.432C55.1043 13.574 55.2966 13.6541 55.4974 13.6548V13.6548Z" fill="#CE2F72"/>
<path d="M48.6264 13.6548C48.777 13.6548 48.9242 13.6101 49.0494 13.5264C49.1746 13.4426 49.2721 13.3237 49.3296 13.1845C49.3871 13.0453 49.402 12.8921 49.3724 12.7444C49.3428 12.5968 49.2701 12.4612 49.1634 12.3549C49.0567 12.2486 48.9208 12.1764 48.773 12.1473C48.6252 12.1183 48.4722 12.1338 48.3332 12.1918C48.1942 12.2498 48.0756 12.3478 47.9923 12.4733C47.9091 12.5988 47.8649 12.7462 47.8655 12.8968C47.8655 12.9966 47.8852 13.0954 47.9235 13.1876C47.9617 13.2797 48.0178 13.3634 48.0885 13.4338C48.1592 13.5042 48.2431 13.56 48.3354 13.598C48.4277 13.6359 48.5266 13.6552 48.6264 13.6548V13.6548Z" fill="#CE2F72"/>
<path d="M41.7527 13.6634C42.1713 13.6634 42.5107 13.324 42.5107 12.9054C42.5107 12.4868 42.1713 12.1474 41.7527 12.1474C41.3341 12.1474 40.9947 12.4868 40.9947 12.9054C40.9947 13.324 41.3341 13.6634 41.7527 13.6634Z" fill="#CE2F72"/>
<path d="M35.1729 13.577C35.5601 13.4178 35.7449 12.9749 35.5857 12.5877C35.4265 12.2005 34.9836 12.0157 34.5964 12.1749C34.2092 12.3341 34.0244 12.777 34.1836 13.1642C34.3428 13.5514 34.7857 13.7362 35.1729 13.577Z" fill="#CE2F72"/>
<path d="M28.0109 13.6548C28.1615 13.6548 28.3087 13.6101 28.4339 13.5264C28.5591 13.4426 28.6566 13.3237 28.7141 13.1845C28.7716 13.0453 28.7865 12.8921 28.757 12.7444C28.7274 12.5968 28.6546 12.4612 28.5479 12.3549C28.4412 12.2486 28.3054 12.1764 28.1576 12.1473C28.0098 12.1183 27.8567 12.1338 27.7177 12.1918C27.5788 12.2498 27.4601 12.3478 27.3768 12.4733C27.2936 12.5988 27.2494 12.7462 27.25 12.8968C27.25 12.9966 27.2697 13.0954 27.308 13.1876C27.3463 13.2797 27.4024 13.3634 27.4731 13.4338C27.5438 13.5042 27.6277 13.56 27.7199 13.598C27.8122 13.6359 27.9111 13.6552 28.0109 13.6548V13.6548Z" fill="#CE2F72"/>
<path d="M69.2418 7.51602C69.6605 7.51602 69.9998 7.17665 69.9998 6.75801C69.9998 6.33937 69.6605 6 69.2418 6C68.8232 6 68.4838 6.33937 68.4838 6.75801C68.4838 7.17665 68.8232 7.51602 69.2418 7.51602Z" fill="#CE2F72"/>
<path d="M62.3682 7.51602C62.7869 7.51602 63.1262 7.17665 63.1262 6.75801C63.1262 6.33937 62.7869 6 62.3682 6C61.9496 6 61.6102 6.33937 61.6102 6.75801C61.6102 7.17665 61.9496 7.51602 62.3682 7.51602Z" fill="#CE2F72"/>
<path d="M55.4974 7.51896C55.648 7.51952 55.7954 7.47539 55.9209 7.39213C56.0464 7.30887 56.1444 7.19022 56.2024 7.05124C56.2604 6.91226 56.2759 6.75919 56.2469 6.6114C56.2179 6.46362 56.1456 6.32777 56.0393 6.22108C55.933 6.11438 55.7975 6.04162 55.6498 6.01202C55.5021 5.98243 55.349 5.99733 55.2098 6.05484C55.0706 6.11234 54.9516 6.20987 54.8678 6.33506C54.7841 6.46024 54.7394 6.60746 54.7394 6.75807C54.7394 6.95937 54.8192 7.15247 54.9612 7.29508C55.1033 7.43769 55.2961 7.5182 55.4974 7.51896V7.51896Z" fill="#CE2F72"/>
<path d="M48.6264 7.51895C48.7769 7.51895 48.924 7.47433 49.0491 7.39073C49.1742 7.30712 49.2717 7.18829 49.3293 7.04926C49.3869 6.91022 49.402 6.75723 49.3726 6.60963C49.3432 6.46204 49.2708 6.32645 49.1644 6.22004C49.058 6.11363 48.9224 6.04117 48.7748 6.01181C48.6272 5.98245 48.4742 5.99753 48.3352 6.05512C48.1961 6.1127 48.0773 6.21023 47.9937 6.33535C47.9101 6.46048 47.8655 6.60758 47.8655 6.75807C47.8655 6.85799 47.8851 6.95694 47.9234 7.04926C47.9616 7.14157 48.0177 7.22544 48.0883 7.29609C48.159 7.36675 48.2429 7.4228 48.3352 7.46103C48.4275 7.49927 48.5264 7.51895 48.6264 7.51895V7.51895Z" fill="#CE2F72"/>
<path d="M41.7527 7.51602C42.1713 7.51602 42.5107 7.17665 42.5107 6.75801C42.5107 6.33937 42.1713 6 41.7527 6C41.3341 6 40.9947 6.33937 40.9947 6.75801C40.9947 7.17665 41.3341 7.51602 41.7527 7.51602Z" fill="#CE2F72"/>
<path d="M35.1724 7.42906C35.5595 7.26987 35.7444 6.82694 35.5852 6.43975C35.426 6.05256 34.9831 5.86775 34.5959 6.02694C34.2087 6.18613 34.0239 6.62905 34.183 7.01624C34.3422 7.40343 34.7852 7.58826 35.1724 7.42906Z" fill="#CE2F72"/>
<path d="M28.0109 7.51883C28.1614 7.51883 28.3085 7.47421 28.4336 7.3906C28.5587 7.307 28.6562 7.18817 28.7138 7.04913C28.7714 6.9101 28.7865 6.75711 28.7572 6.60951C28.7278 6.46191 28.6553 6.32633 28.5489 6.21992C28.4425 6.11351 28.3069 6.04105 28.1593 6.01169C28.0117 5.98233 27.8588 5.9974 27.7197 6.05499C27.5807 6.11258 27.4619 6.2101 27.3782 6.33523C27.2946 6.46036 27.25 6.60746 27.25 6.75794C27.25 6.95974 27.3302 7.15328 27.4729 7.29597C27.6156 7.43866 27.8091 7.51883 28.0109 7.51883V7.51883Z" fill="#CE2F72"/>
</g>
<g clip-path="url(#clip3_409_2276)">
<path d="M21.8124 32.0121C22.1996 31.8529 22.3845 31.4099 22.2253 31.0228C22.0661 30.6356 21.6231 30.4508 21.236 30.6099C20.8488 30.7691 20.6639 31.2121 20.8231 31.5992C20.9823 31.9864 21.4252 32.1713 21.8124 32.0121Z" fill="#CE2F72"/>
<path d="M14.6515 30.5951C14.5008 30.5945 14.3533 30.6387 14.2278 30.7221C14.1022 30.8055 14.0042 30.9243 13.9463 31.0635C13.8883 31.2026 13.873 31.3559 13.9023 31.5037C13.9316 31.6516 14.0041 31.7874 14.1107 31.894C14.2173 32.0006 14.3531 32.0731 14.5009 32.1024C14.6488 32.1316 14.802 32.1163 14.9412 32.0584C15.0803 32.0004 15.1992 31.9025 15.2825 31.7769C15.3659 31.6513 15.4101 31.5038 15.4096 31.3531C15.4088 31.1523 15.3287 30.9599 15.1867 30.8179C15.0447 30.676 14.8524 30.5959 14.6515 30.5951V30.5951Z" fill="#CE2F72"/>
<path d="M21.813 25.8671C22.2002 25.7079 22.385 25.2649 22.2258 24.8778C22.0666 24.4906 21.6237 24.3057 21.2365 24.4649C20.8493 24.6241 20.6645 25.0671 20.8237 25.4542C20.9829 25.8414 21.4258 26.0263 21.813 25.8671Z" fill="#CE2F72"/>
<path d="M14.6515 25.9552C14.8021 25.9552 14.9493 25.9105 15.0745 25.8268C15.1997 25.7431 15.2972 25.6241 15.3547 25.4849C15.4123 25.3457 15.4272 25.1925 15.3976 25.0448C15.368 24.8972 15.2952 24.7616 15.1885 24.6553C15.0818 24.549 14.946 24.4768 14.7982 24.4477C14.6504 24.4187 14.4973 24.4342 14.3584 24.4922C14.2194 24.5503 14.1007 24.6482 14.0175 24.7737C13.9342 24.8992 13.8901 25.0466 13.8906 25.1972C13.8906 25.297 13.9103 25.3958 13.9486 25.488C13.9869 25.5801 14.043 25.6638 14.1137 25.7342C14.1844 25.8047 14.2683 25.8604 14.3606 25.8984C14.4529 25.9363 14.5517 25.9556 14.6515 25.9552Z" fill="#CE2F72"/>
<path d="M21.8127 19.7221C22.1999 19.5629 22.3847 19.12 22.2255 18.7328C22.0663 18.3456 21.6234 18.1608 21.2362 18.32C20.849 18.4792 20.6642 18.9221 20.8234 19.3093C20.9826 19.6965 21.4255 19.8813 21.8127 19.7221Z" fill="#CE2F72"/>
<path d="M14.6515 19.8107C14.802 19.8107 14.9491 19.7661 15.0742 19.6825C15.1994 19.5989 15.2969 19.48 15.3545 19.341C15.4121 19.202 15.4271 19.049 15.3978 18.9014C15.3684 18.7538 15.296 18.6182 15.1896 18.5118C15.0831 18.4054 14.9475 18.3329 14.7999 18.3036C14.6524 18.2742 14.4994 18.2893 14.3604 18.3469C14.2213 18.4045 14.1025 18.502 14.0189 18.6271C13.9353 18.7522 13.8906 18.8993 13.8906 19.0498C13.8906 19.2516 13.9708 19.4451 14.1135 19.5878C14.2562 19.7305 14.4497 19.8107 14.6515 19.8107V19.8107Z" fill="#CE2F72"/>
<path d="M21.8135 13.577C22.2007 13.4178 22.3856 12.9749 22.2264 12.5877C22.0672 12.2005 21.6242 12.0157 21.2371 12.1749C20.8499 12.3341 20.665 12.777 20.8242 13.1642C20.9834 13.5514 21.4264 13.7362 21.8135 13.577Z" fill="#CE2F72"/>
<path d="M14.6515 13.6548C14.8021 13.6548 14.9493 13.6101 15.0745 13.5264C15.1997 13.4426 15.2972 13.3237 15.3547 13.1845C15.4123 13.0453 15.4272 12.8921 15.3976 12.7444C15.368 12.5968 15.2952 12.4612 15.1885 12.3549C15.0818 12.2486 14.946 12.1764 14.7982 12.1473C14.6504 12.1183 14.4973 12.1338 14.3584 12.1918C14.2194 12.2498 14.1007 12.3478 14.0175 12.4733C13.9342 12.5988 13.8901 12.7462 13.8906 12.8968C13.8906 12.9966 13.9103 13.0954 13.9486 13.1876C13.9869 13.2797 14.043 13.3634 14.1137 13.4338C14.1844 13.5042 14.2683 13.56 14.3606 13.598C14.4529 13.6359 14.5517 13.6552 14.6515 13.6548V13.6548Z" fill="#CE2F72"/>
<path d="M21.813 7.42906C22.2002 7.26987 22.385 6.82694 22.2258 6.43975C22.0666 6.05256 21.6237 5.86775 21.2365 6.02694C20.8493 6.18613 20.6645 6.62905 20.8237 7.01624C20.9829 7.40343 21.4258 7.58826 21.813 7.42906Z" fill="#CE2F72"/>
<path d="M14.6515 7.51883C14.802 7.51883 14.9491 7.47421 15.0742 7.3906C15.1994 7.307 15.2969 7.18817 15.3545 7.04913C15.4121 6.9101 15.4271 6.75711 15.3978 6.60951C15.3684 6.46191 15.296 6.32633 15.1896 6.21992C15.0831 6.11351 14.9475 6.04105 14.7999 6.01169C14.6524 5.98233 14.4994 5.9974 14.3604 6.05499C14.2213 6.11258 14.1025 6.2101 14.0189 6.33523C13.9353 6.46036 13.8906 6.60746 13.8906 6.75794C13.8906 6.95974 13.9708 7.15328 14.1135 7.29597C14.2562 7.43866 14.4497 7.51883 14.6515 7.51883V7.51883Z" fill="#CE2F72"/>
</g>
<rect width="60" height="53" rx="7" fill="#F6F6F6"/>
<path d="M53.1884 52.9427H6.81159C3.05593 52.9427 0 49.8868 0 46.1311V6.81159C0 3.05593 3.05593 0 6.81159 0H53.1884C56.9441 0 60 3.05593 60 6.81159V46.1311C60 49.8868 56.9441 52.9427 53.1884 52.9427ZM6.81159 2.02899C4.17459 2.02899 2.02899 4.17459 2.02899 6.81159V46.1311C2.02899 48.7681 4.17459 50.9137 6.81159 50.9137H53.1884C55.8254 50.9137 57.971 48.7681 57.971 46.1311V6.81159C57.971 4.17459 55.8254 2.02899 53.1884 2.02899H6.81159Z" fill="#2A3342"/>
<path d="M50.8435 37.4542H34.9021C34.3416 37.4542 33.8876 37.0001 33.8876 36.4397C33.8876 35.8798 34.3416 35.4252 34.9021 35.4252H50.8435C51.4034 35.4252 51.858 35.8798 51.858 36.4397C51.858 37.0001 51.404 37.4542 50.8435 37.4542Z" fill="#2A3342"/>
<path d="M50.8435 44.7889H34.9021C34.3416 44.7889 33.8876 44.3349 33.8876 43.7744C33.8876 43.2145 34.3416 42.7599 34.9021 42.7599H50.8435C51.4034 42.7599 51.858 43.2145 51.858 43.7744C51.858 44.3349 51.404 44.7889 50.8435 44.7889Z" fill="#2A3342"/>
<path d="M50.8435 22.7848H34.9021C34.3416 22.7848 33.8876 22.3308 33.8876 21.7703C33.8876 21.2104 34.3416 20.7558 34.9021 20.7558H50.8435C51.4034 20.7558 51.858 21.2104 51.858 21.7703C51.858 22.3308 51.404 22.7848 50.8435 22.7848Z" fill="#2A3342"/>
<path d="M50.8435 30.1194H34.9021C34.3416 30.1194 33.8876 29.6654 33.8876 29.1049C33.8876 28.5451 34.3416 28.0905 34.9021 28.0905H50.8435C51.4034 28.0905 51.858 28.5451 51.858 29.1049C51.858 29.6654 51.404 30.1194 50.8435 30.1194Z" fill="#2A3342"/>
<path d="M58.9855 13.5841H1.01449C0.454031 13.5841 0 13.1301 0 12.5696C0 12.0091 0.454031 11.5551 1.01449 11.5551H58.9855C59.546 11.5551 60 12.0091 60 12.5696C60 13.1301 59.546 13.5841 58.9855 13.5841Z" fill="#2A3342"/>
<path d="M14.6252 9.96831C12.8844 9.96831 11.468 8.55244 11.468 6.81161C11.468 5.07078 12.8844 3.65491 14.6252 3.65491C16.3661 3.65491 17.7819 5.07078 17.7819 6.81161C17.7819 8.55244 16.3661 9.96831 14.6252 9.96831ZM14.6252 5.68389C14.0031 5.68389 13.4969 6.19001 13.4969 6.81161C13.4969 7.43321 14.0031 7.93933 14.6252 7.93933C15.2468 7.93933 15.7529 7.43321 15.7529 6.81161C15.7529 6.19001 15.2468 5.68389 14.6252 5.68389Z" fill="#2A3342"/>
<path d="M7.31545 9.96831C5.57519 9.96831 4.15875 8.55244 4.15875 6.81161C4.15875 5.07078 5.57519 3.65491 7.31545 3.65491C9.05628 3.65491 10.4727 5.07078 10.4727 6.81161C10.4727 8.55244 9.05628 9.96831 7.31545 9.96831ZM7.31545 5.68389C6.69385 5.68389 6.18774 6.19001 6.18774 6.81161C6.18774 7.43321 6.69385 7.93933 7.31545 7.93933C7.93762 7.93933 8.44374 7.43321 8.44374 6.81161C8.44374 6.19001 7.93762 5.68389 7.31545 5.68389Z" fill="#2A3342"/>
<path d="M21.9344 9.96831C20.1936 9.96831 18.7777 8.55244 18.7777 6.81161C18.7777 5.07078 20.1936 3.65491 21.9344 3.65491C23.6753 3.65491 25.0917 5.07078 25.0917 6.81161C25.0917 8.55244 23.6753 9.96831 21.9344 9.96831ZM21.9344 5.68389C21.3123 5.68389 20.8067 6.19001 20.8067 6.81161C20.8067 7.43321 21.3128 7.93933 21.9344 7.93933C22.5566 7.93933 23.0627 7.43321 23.0627 6.81161C23.0627 6.19001 22.5566 5.68389 21.9344 5.68389Z" fill="#2A3342"/>
<path d="M27.2464 44.7889H8.84057C8.28011 44.7889 7.82608 44.3348 7.82608 43.7744V21.7703C7.82608 21.2104 8.28011 20.7558 8.84057 20.7558H27.2464C27.8068 20.7558 28.2609 21.2104 28.2609 21.7703V43.7744C28.2609 44.3348 27.8068 44.7889 27.2464 44.7889ZM9.85507 42.7599H26.2319V22.7848H9.85507V42.7599Z" fill="#2A3342"/>
<defs>
<clipPath id="clip0_409_2276">
<rect width="42.75" height="26.1025" fill="white" transform="translate(27.25 37.0094)"/>
</clipPath>
<clipPath id="clip1_409_2276">
<rect width="13.3594" height="25.8281" fill="white" transform="translate(13.8906 37.1719)"/>
</clipPath>
<clipPath id="clip2_409_2276">
<rect width="42.75" height="26.1025" fill="white" transform="translate(27.25 6)"/>
</clipPath>
<clipPath id="clip3_409_2276">
<rect width="13.3594" height="25.8281" fill="white" transform="translate(13.8906 6)"/>
</clipPath>
</defs>
</svg>
