<svg width="24" height="24" viewBox="0 0 24 24" fill="none" xmlns="http://www.w3.org/2000/svg">
<path fill-rule="evenodd" clip-rule="evenodd" d="M12.8212 2.9584C15.05 3.06794 17.1268 3.98704 18.7131 5.57435C20.4051 7.26741 21.3364 9.51795 21.3355 11.9113C21.3335 16.8502 17.3128 20.8687 12.3736 20.8687C10.5162 20.8687 9.04027 20.298 8.08722 19.7784L3.33636 21.024L4.6078 16.3823C3.82354 15.0239 3.41086 13.483 3.41151 11.9042C3.41349 6.96543 7.43381 2.94733 12.3735 2.94733L12.8212 2.9584ZM8.30731 18.1568L8.57936 18.3181C9.72301 18.9965 11.0339 19.3554 12.3706 19.3559H12.3736C16.4792 19.3559 19.8207 16.016 19.8223 11.9108C19.8231 9.92146 19.049 8.0509 17.6427 6.64367C16.2363 5.23634 14.3661 4.46087 12.3766 4.46022C8.26782 4.46022 4.92628 7.79981 4.92464 11.9047C4.92408 13.3115 5.31787 14.6816 6.06351 15.8669L6.24062 16.1486L5.48812 18.8959L8.30731 18.1568ZM16.8885 14.0413C16.8326 13.9479 16.6833 13.8919 16.4594 13.7799C16.2355 13.6679 15.1345 13.1264 14.9293 13.0517C14.724 12.9771 14.5747 12.9398 14.4255 13.1637C14.2762 13.3878 13.8471 13.8919 13.7164 14.0413C13.5858 14.1907 13.4552 14.2094 13.2313 14.0974C13.0073 13.9854 12.2858 13.749 11.4305 12.9865C10.7648 12.393 10.3154 11.6601 10.1847 11.436C10.0542 11.212 10.1708 11.0908 10.2829 10.9792C10.3837 10.8789 10.5069 10.7178 10.6188 10.5871C10.7308 10.4564 10.7681 10.363 10.8428 10.2137C10.9174 10.0643 10.8801 9.93365 10.8241 9.82162C10.7681 9.70953 10.3203 8.60786 10.1337 8.15971C9.9519 7.72332 9.76729 7.7824 9.62984 7.77551C9.49938 7.76904 9.34995 7.76762 9.2007 7.76762C9.0514 7.76762 8.8088 7.82359 8.60354 8.04771C8.39828 8.27175 7.8198 8.81328 7.8198 9.91487C7.8198 11.0166 8.62221 12.0808 8.73417 12.2302C8.84614 12.3796 10.3132 14.6402 12.5595 15.6097C13.0937 15.8404 13.5109 15.978 13.8361 16.0812C14.3725 16.2515 14.8606 16.2275 15.2465 16.1699C15.6767 16.1056 16.5713 15.6284 16.7579 15.1057C16.9445 14.5828 16.9445 14.1347 16.8885 14.0413Z" fill="#CE2F72"/>
</svg>
