<svg width="56" height="56" viewBox="0 0 56 56" fill="none" xmlns="http://www.w3.org/2000/svg">
<rect width="56" height="56" rx="3" fill="#CE2F72"/>
<path d="M21.5983 28.8031H20.8451C20.408 28.8031 20.042 28.4497 20.042 27.9999C20.042 27.5571 20.4023 27.1968 20.8451 27.1968H22.3514C22.7397 27.1968 23.0545 26.882 23.0545 26.4937C23.0545 26.1053 22.7397 25.7905 22.3514 25.7905H20.8451C19.6269 25.7905 18.6357 26.7817 18.6357 27.9999C18.6357 29.2317 19.6353 30.2093 20.8451 30.2093H21.5982C22.0354 30.2093 22.4014 30.5627 22.4014 31.0124C22.4014 31.4553 22.0411 31.8156 21.5982 31.8156H20.092C19.7036 31.8156 19.3888 32.1304 19.3888 32.5187C19.3888 32.907 19.7036 33.2219 20.092 33.2219H21.5982C24.5323 33.1071 24.5184 28.908 21.5983 28.8031Z" fill="white"/>
<path d="M37.7906 16H18.2094C16.999 16 16 16.9782 16 18.2094V37.7906C16 39.0259 17.0033 40 18.2094 40H37.7906C39.001 40 40 39.0218 40 37.7906V18.2094C40 16.9741 38.9967 16 37.7906 16V16ZM32.5187 17.4062C32.9574 17.4062 33.3219 17.761 33.3219 18.2094C33.3219 18.4925 33.3754 18.7635 33.4729 19.0125H30.2594C29.8207 19.0125 29.4562 18.6578 29.4562 18.2094C29.4562 17.9262 29.4026 17.6552 29.3051 17.4062H32.5187ZM27.2469 17.4062C27.6856 17.4062 28.05 17.761 28.05 18.2094C28.05 18.4925 28.1036 18.7635 28.2011 19.0125H24.9875C24.5458 19.0125 24.1844 18.6552 24.1844 18.2086C24.1844 17.9257 24.1309 17.6551 24.0335 17.4062H27.2469ZM38.5938 37.7906C38.5938 38.2282 38.24 38.5938 37.7906 38.5938H18.2094C17.7707 38.5938 17.4062 38.239 17.4062 37.7906V18.2094C17.4062 17.7718 17.76 17.4062 18.2094 17.4062H21.975C22.4137 17.4062 22.7781 17.761 22.7781 18.2094C22.7781 19.4242 23.7603 20.4187 24.9875 20.4187H38.5938V37.7906ZM38.5938 19.0125H35.5313C35.0884 19.0125 34.7281 18.6522 34.7281 18.2094C34.7281 17.9262 34.6745 17.6553 34.577 17.4063H37.7906C38.2293 17.4062 38.5938 17.761 38.5938 18.2094V19.0125Z" fill="white"/>
<path d="M25.7407 33.2219H28.7532C29.6846 33.1875 29.6848 31.85 28.7532 31.8156H26.4438V30.2093H28C28.3884 30.2093 28.7032 29.8945 28.7032 29.5062C28.7032 29.1179 28.3884 28.8031 28 28.8031H26.4438V27.1968H28.7532C29.6836 27.1631 29.6857 25.8251 28.7532 25.7905H25.7407C25.3524 25.7905 25.0376 26.1053 25.0376 26.4937V32.5187C25.0376 32.9071 25.3524 33.2219 25.7407 33.2219Z" fill="white"/>
<path d="M31.3892 33.2219C31.7775 33.2219 32.0923 32.9071 32.0923 32.5188V29.2681L33.2186 31.3474C33.3415 31.5743 33.5788 31.7156 33.8368 31.7156C34.0948 31.7156 34.3321 31.5742 34.455 31.3474L35.5813 29.2681V32.5188C35.5813 32.9071 35.8961 33.2219 36.2844 33.2219C36.6727 33.2219 36.9875 32.9071 36.9875 32.5188V26.4938C36.9875 26.172 36.7691 25.8913 36.4571 25.8122C36.1454 25.733 35.8195 25.8759 35.6662 26.1589L33.8368 29.5363L32.0074 26.1589C31.8541 25.876 31.5283 25.7329 31.2164 25.8122C30.9045 25.8913 30.686 26.172 30.686 26.4938V32.5188C30.686 32.9072 31.0008 33.2219 31.3892 33.2219Z" fill="white"/>
</svg>
