<svg width="56" height="56" viewBox="0 0 56 56" fill="none" xmlns="http://www.w3.org/2000/svg">
<rect width="56" height="56" rx="3" fill="#CE2F72"/>
<path d="M19.7158 24.1843H20.5189V26.4937C20.5189 26.882 20.8337 27.1968 21.2221 27.1968C21.6104 27.1968 21.9252 26.882 21.9252 26.4937V24.1843H22.7283C23.6593 24.1502 23.6604 22.8127 22.7283 22.7781H19.7158C19.3275 22.7781 19.0127 23.0929 19.0127 23.4812C19.0127 23.8695 19.3275 24.1843 19.7158 24.1843Z" fill="white"/>
<path d="M24.2842 26.4937C24.2842 26.882 24.599 27.1968 24.9873 27.1968H36.2842C36.6725 27.1968 36.9873 26.882 36.9873 26.4937C36.9873 26.1053 36.6725 25.7905 36.2842 25.7905H24.9873C24.599 25.7905 24.2842 26.1053 24.2842 26.4937Z" fill="white"/>
<path d="M31.0127 34.8281H19.7158C19.3275 34.8281 19.0127 35.1429 19.0127 35.5312C19.0127 35.9196 19.3275 36.2344 19.7158 36.2344H31.0127C31.9411 36.2014 31.9471 34.8635 31.0127 34.8281Z" fill="white"/>
<path d="M36.2845 28.8032H19.7158C19.3275 28.8032 19.0127 29.118 19.0127 29.5063C19.0127 29.8947 19.3275 30.2095 19.7158 30.2095H36.2846C37.2113 30.1774 37.2205 28.8392 36.2845 28.8032Z" fill="white"/>
<path d="M36.2845 31.8157H19.7158C19.3275 31.8157 19.0127 32.1305 19.0127 32.5188C19.0127 32.9071 19.3275 33.2219 19.7158 33.2219H36.2846C37.2113 33.1898 37.2205 31.8517 36.2845 31.8157Z" fill="white"/>
<path d="M37.7906 16H18.2094C16.999 16 16 16.9782 16 18.2094V37.7906C16 39.0259 17.0033 40 18.2094 40H37.7906C39.001 40 40 39.0218 40 37.7906V18.2094C40 16.9741 38.9967 16 37.7906 16V16ZM32.5187 17.4062C32.9574 17.4062 33.3219 17.761 33.3219 18.2094C33.3219 18.4925 33.3754 18.7635 33.4729 19.0125H30.2594C29.8207 19.0125 29.4562 18.6578 29.4562 18.2094C29.4562 17.9262 29.4026 17.6552 29.3051 17.4062H32.5187ZM27.2469 17.4062C27.6856 17.4062 28.05 17.761 28.05 18.2094C28.05 18.4925 28.1036 18.7635 28.2011 19.0125H24.9875C24.5458 19.0125 24.1844 18.6552 24.1844 18.2086C24.1844 17.9257 24.1309 17.6551 24.0335 17.4062H27.2469ZM38.5938 37.7906C38.5938 38.2282 38.24 38.5938 37.7906 38.5938H18.2094C17.7707 38.5938 17.4062 38.239 17.4062 37.7906V18.2094C17.4062 17.7718 17.76 17.4062 18.2094 17.4062H21.975C22.4137 17.4062 22.7781 17.761 22.7781 18.2094C22.7781 19.4242 23.7603 20.4187 24.9875 20.4187H38.5938V37.7906ZM38.5938 19.0125H35.5313C35.0884 19.0125 34.7281 18.6522 34.7281 18.2094C34.7281 17.9262 34.6745 17.6553 34.577 17.4063H37.7906C38.2293 17.4062 38.5938 17.761 38.5938 18.2094V19.0125Z" fill="white"/>
</svg>
