<svg width="56" height="56" viewBox="0 0 56 56" fill="none" xmlns="http://www.w3.org/2000/svg">
<rect width="56" height="56" rx="3" fill="#CE2F72"/>
<path d="M19.0127 26.4938C19.0127 27.712 20.0038 28.7032 21.2221 28.7032H28.0002C29.2184 28.7032 30.2096 27.712 30.2096 26.4938C30.2096 25.2755 29.2184 24.2844 28.0002 24.2844H21.2221C20.0038 24.2844 19.0127 25.2755 19.0127 26.4938ZM28.8033 26.4938C28.8033 26.9366 28.443 27.2969 28.0002 27.2969H21.2221C20.7792 27.2969 20.4189 26.9366 20.4189 26.4938C20.4189 26.051 20.7792 25.6907 21.2221 25.6907H28.0002C28.443 25.6907 28.8033 26.051 28.8033 26.4938Z" fill="white"/>
<path d="M29.5065 32.5688H19.7158C19.3275 32.5688 19.0127 32.8837 19.0127 33.272C19.0127 33.6603 19.3275 33.9751 19.7158 33.9751H29.5065C30.4353 33.9419 30.4404 32.6041 29.5065 32.5688Z" fill="white"/>
<path d="M27.247 35.5813H19.7157C18.7861 35.6148 18.7823 36.9525 19.7157 36.9875H27.247C28.1765 36.9541 28.1803 35.6164 27.247 35.5813Z" fill="white"/>
<path d="M34.025 28.7031C34.3781 28.7031 34.7119 28.6194 35.0083 28.4714L35.7872 29.2503C36.0618 29.5248 36.507 29.5248 36.7816 29.2503C37.0562 28.9757 37.0562 28.5305 36.7816 28.2559L36.0027 27.477C36.742 26.047 35.6421 24.2628 34.025 24.2844C31.0982 24.3953 31.0987 28.5924 34.025 28.7031ZM34.025 25.6906C34.4678 25.6906 34.8281 26.0509 34.8281 26.4937C34.7877 27.5577 33.2621 27.5574 33.2219 26.4937C33.2219 26.0509 33.5822 25.6906 34.025 25.6906Z" fill="white"/>
<path d="M37.7906 16H18.2094C16.999 16 16 16.9782 16 18.2094V37.7906C16 39.0259 17.0033 40 18.2094 40H37.7906C39.001 40 40 39.0218 40 37.7906V18.2094C40 16.9741 38.9967 16 37.7906 16V16ZM32.5187 17.4062C32.9574 17.4062 33.3219 17.761 33.3219 18.2094C33.3219 18.4925 33.3754 18.7635 33.4729 19.0125H30.2594C29.8207 19.0125 29.4562 18.6578 29.4562 18.2094C29.4562 17.9262 29.4026 17.6552 29.3051 17.4062H32.5187ZM27.2469 17.4062C27.6856 17.4062 28.05 17.761 28.05 18.2094C28.05 18.4925 28.1036 18.7635 28.2011 19.0125H24.9875C24.5458 19.0125 24.1844 18.6552 24.1844 18.2086C24.1844 17.9257 24.1309 17.6551 24.0335 17.4062H27.2469ZM38.5938 37.7906C38.5938 38.2282 38.24 38.5938 37.7906 38.5938H18.2094C17.7707 38.5938 17.4062 38.239 17.4062 37.7906V18.2094C17.4062 17.7718 17.76 17.4062 18.2094 17.4062H21.975C22.4137 17.4062 22.7781 17.761 22.7781 18.2094C22.7781 19.4242 23.7603 20.4187 24.9875 20.4187H38.5938V37.7906ZM38.5938 19.0125H35.5313C35.0884 19.0125 34.7281 18.6522 34.7281 18.2094C34.7281 17.9262 34.6745 17.6553 34.577 17.4063H37.7906C38.2293 17.4062 38.5938 17.761 38.5938 18.2094V19.0125Z" fill="white"/>
</svg>
