<svg width="56" height="56" viewBox="0 0 56 56" fill="none" xmlns="http://www.w3.org/2000/svg">
<rect width="56" height="56" rx="3" fill="#CE2F72"/>
<path d="M21.2217 33.9747H35.5308C35.9191 33.9747 36.2339 33.6599 36.2339 33.2716C36.2339 32.8833 35.9191 32.5685 35.5308 32.5685H33.9746V24.2343C33.9746 23.846 33.6598 23.5312 33.2715 23.5312H30.259C29.8707 23.5312 29.5559 23.846 29.5559 24.2343V26.5436H27.2465C26.8582 26.5436 26.5434 26.8584 26.5434 27.2467V29.556H24.2341C23.8458 29.556 23.531 29.8708 23.531 30.2591V32.5685H21.9248V22.728C21.9248 22.3397 21.61 22.0249 21.2217 22.0249C20.8334 22.0249 20.5186 22.3397 20.5186 22.728V33.2716C20.5186 33.6599 20.8334 33.9747 21.2217 33.9747ZM30.9622 24.9374H32.5684V32.5685H30.9622V24.9374ZM27.9497 27.9498H29.5559V32.5685H27.9497V27.9498ZM24.9372 30.9623H26.5435V32.5685H24.9372V30.9623Z" fill="white"/>
<path d="M24.7315 26.2376L26.5652 24.404C26.7778 25.1974 27.9313 25.0654 27.9499 24.2342V22.728C27.9499 22.3397 27.6351 22.0249 27.2468 22.0249H25.7406C24.9102 22.0436 24.7766 23.1965 25.5709 23.4097L23.7372 25.2433C23.4626 25.5179 23.4626 25.9631 23.7372 26.2377C24.0118 26.5122 24.4569 26.5123 24.7315 26.2376Z" fill="white"/>
<path d="M37.7904 16H18.2095C15.7006 16.0488 15.1676 19.4783 17.5064 20.3033V34.7778C17.5064 35.9898 18.486 36.9871 19.7157 36.9871H25.9424C25.363 38.3878 26.4764 40.0311 28 39.9995C29.5232 40.0312 30.6373 38.3876 30.0575 36.9871H36.2842C37.4936 36.9871 38.4935 36.01 38.4935 34.7778V20.3033C40.8323 19.4777 40.2996 16.0491 37.7904 16ZM28 38.5934C27.5571 38.5934 27.1969 38.2331 27.1969 37.7903C27.2372 36.7263 28.7629 36.7266 28.8031 37.7903C28.8031 38.2331 28.4428 38.5934 28 38.5934ZM37.0873 34.7778C37.0873 35.2211 36.7284 35.5809 36.2842 35.5809H19.7157C19.2732 35.5809 18.9126 35.2229 18.9126 34.7778V20.4187H37.0873V34.7778ZM37.7904 19.0125H18.2095C17.7667 19.0125 17.4064 18.6522 17.4064 18.2094C17.4064 17.7665 17.7667 17.4062 18.2095 17.4062H37.7904C38.8484 17.4438 38.8595 18.9702 37.7904 19.0125Z" fill="white"/>
</svg>
