<svg width="56" height="56" viewBox="0 0 56 56" fill="none" xmlns="http://www.w3.org/2000/svg">
<rect width="56" height="56" rx="3" fill="#CE2F72"/>
<g clip-path="url(#clip0_51_755)">
<path d="M37.7894 16H18.211C17.0008 16 16.002 16.978 16.002 18.209V30.2573C16.002 31.4924 17.0051 32.4664 18.211 32.4664H22.1639C20.2372 34.1158 19.014 36.5644 19.014 39.2935C19.014 39.6818 19.3288 39.9965 19.7171 39.9965H22.7291C23.1174 39.9965 23.4322 39.6818 23.4322 39.2935C23.4322 36.7747 25.4814 34.7254 28.0003 34.7254C30.5191 34.7254 32.5684 36.7747 32.5684 39.2935C32.5684 39.6818 32.8831 39.9965 33.2714 39.9965H36.2835C36.6717 39.9965 36.9865 39.6818 36.9865 39.2935C36.9865 36.5644 35.7632 34.1158 33.8366 32.4664H37.7894C38.9997 32.4664 39.9985 31.4883 39.9985 30.2573V18.209C39.9985 16.974 38.9954 16 37.7894 16V16ZM32.5184 17.406C32.957 17.406 33.3214 17.7607 33.3214 18.209C33.3214 18.4922 33.3749 18.7631 33.4724 19.012H30.2593C29.8207 19.012 29.4563 18.6574 29.4563 18.209C29.4563 17.9259 29.4027 17.655 29.3052 17.406H32.5184ZM27.2472 17.406C27.6858 17.406 28.0502 17.7607 28.0502 18.209C28.0502 18.4922 28.1038 18.7631 28.2013 19.012H24.9882C24.5465 19.012 24.1851 18.6548 24.1851 18.2083C24.1851 17.9254 24.1317 17.6548 24.0343 17.406H27.2472ZM22.0672 38.5905H20.4524C20.5968 37.0273 21.2179 35.6002 22.1685 34.4561L23.31 35.5975C22.6435 36.4416 22.1993 37.4689 22.0672 38.5905ZM27.2972 33.3605C26.1756 33.4926 25.1483 33.9368 24.3042 34.6033L23.1629 33.462C24.307 32.5114 25.734 31.8904 27.2972 31.7459V33.3605ZM31.6962 34.6033C30.8522 33.9368 29.8248 33.4926 28.7032 33.3605V31.7459C30.2664 31.8904 31.6935 32.5114 32.8375 33.462L31.6962 34.6033ZM35.5481 38.5905H33.9332C33.8011 37.4689 33.3569 36.4416 32.6904 35.5975L33.8318 34.4561C34.7825 35.6002 35.4037 37.0273 35.5481 38.5905ZM38.5924 30.2573C38.5924 30.6948 38.2388 31.0603 37.7894 31.0603H31.599C29.421 30.0644 26.5794 30.0645 24.4013 31.0603H18.211C17.7724 31.0603 17.408 30.7057 17.408 30.2573V18.209C17.408 17.7716 17.7617 17.406 18.211 17.406H21.9761C22.4147 17.406 22.7791 17.7607 22.7791 18.209C22.7791 19.4237 23.7612 20.4181 24.9882 20.4181H38.5925V30.2573H38.5924ZM38.5924 19.0121H35.5304C35.0876 19.0121 34.7274 18.6519 34.7274 18.2091C34.7274 17.926 34.6738 17.6551 34.5763 17.4061H37.7894C38.228 17.4061 38.5924 17.7607 38.5924 18.2091V19.0121Z" fill="white"/>
<path d="M19.0142 22.7272C19.0142 23.1154 19.3289 23.4302 19.7172 23.4302H25.7413C26.1296 23.4302 26.4443 23.1154 26.4443 22.7272C26.4443 22.3389 26.1296 22.0242 25.7413 22.0242H19.7172C19.3289 22.0242 19.0142 22.3389 19.0142 22.7272Z" fill="white"/>
<path d="M19.7172 26.4422H23.4822C24.4128 26.4082 24.4145 25.0708 23.4822 25.0361H19.7172C19.3289 25.0361 19.0142 25.3509 19.0142 25.7392C19.0142 26.1274 19.3289 26.4422 19.7172 26.4422Z" fill="white"/>
<path d="M24.5469 28.0483H19.7171C18.7868 28.0822 18.7846 29.4196 19.7171 29.4544H24.5469C24.9352 29.4544 25.25 29.1396 25.25 28.7514C25.25 28.3631 24.9352 28.0483 24.5469 28.0483Z" fill="white"/>
<path d="M29.1008 37.1989L27.5033 38.7964C26.8692 39.4788 27.8142 40.4252 28.4975 39.7906L30.095 38.1931C30.7291 37.5107 29.7841 36.5644 29.1008 37.1989Z" fill="white"/>
<path d="M30.2592 29.4544H36.2833C36.6715 29.4544 36.9863 29.1396 36.9863 28.7513V22.7272C36.9863 22.3389 36.6715 22.0242 36.2833 22.0242H30.2592C29.8709 22.0242 29.5562 22.3389 29.5562 22.7272V28.7513C29.5562 29.1396 29.8709 29.4544 30.2592 29.4544ZM30.9622 23.4302H35.5803V28.0483H30.9622V23.4302Z" fill="white"/>
</g>
<defs>
<clipPath id="clip0_51_755">
<rect width="24" height="24" fill="white" transform="translate(16 16)"/>
</clipPath>
</defs>
</svg>
