<svg width="56" height="56" viewBox="0 0 56 56" fill="none" xmlns="http://www.w3.org/2000/svg">
<rect width="56" height="56" rx="3" fill="#CE2F72"/>
<path d="M37.7906 21.2719H34.7282V18.2094C34.7281 16.9764 33.7273 16 32.5187 16H18.2094C16.9764 16 16 17.0008 16 18.2094V32.5187C16 33.7517 17.0008 34.7281 18.2094 34.7281H21.2718V37.7906C21.2718 39.0236 22.2727 40 23.4812 40H37.7906C39.0236 40 40 38.9992 40 37.7906V23.4813C40 22.263 39.0089 21.2719 37.7906 21.2719ZM32.5187 17.4062C32.9564 17.4062 33.3219 17.7601 33.3219 18.2094V19.0125H30.2594C29.8165 19.0125 29.4563 18.6522 29.4563 18.2086C29.4563 17.9257 29.4028 17.6551 29.3054 17.4062H32.5187ZM27.2469 17.4062C27.6844 17.4062 28.05 17.76 28.05 18.2094C28.05 18.4925 28.1036 18.7635 28.2011 19.0125H24.9875C24.5466 19.0125 24.1844 18.656 24.1844 18.2086C24.1844 17.9257 24.1309 17.6551 24.0336 17.4062H27.2469ZM18.2094 33.3219C17.7716 33.3219 17.4062 32.9679 17.4062 32.5187V18.2094C17.4062 17.7717 17.7601 17.4062 18.2094 17.4062H21.975C22.4127 17.4062 22.7781 17.7602 22.7781 18.2094C22.7781 19.4424 23.779 20.4187 24.9874 20.4187H33.3218V32.5187C33.3218 32.9564 32.968 33.3219 32.5187 33.3219H18.2094ZM38.5938 37.7906C38.5938 38.2283 38.2399 38.5938 37.7906 38.5938H23.4813C23.0436 38.5938 22.6781 38.2399 22.6781 37.7906V34.7282H32.5187C33.7517 34.7282 34.7281 33.7273 34.7281 32.5188V25.6906H38.5938V37.7906ZM38.5938 24.2844H34.7281V22.6781H37.7906C38.2334 22.6781 38.5937 23.0384 38.5937 23.4812V24.2844H38.5938Z" fill="white"/>
<path d="M26.8084 23.9821C26.461 23.8084 26.0387 23.9492 25.865 24.2965L23.6056 28.8153C23.432 29.1626 23.5728 29.5849 23.9201 29.7587C24.2667 29.9319 24.6894 29.7923 24.8634 29.4442L27.1228 24.9255C27.2965 24.5781 27.1557 24.1558 26.8084 23.9821Z" fill="white"/>
<path d="M22.0958 24.4904C21.8213 24.2158 21.3761 24.2158 21.1015 24.4904L19.2186 26.3732C18.944 26.6477 18.944 27.0929 19.2186 27.3675L21.1015 29.2503C21.7844 29.8847 22.7303 28.939 22.0958 28.256L20.7102 26.8704L22.0959 25.4847C22.3704 25.2101 22.3704 24.765 22.0958 24.4904Z" fill="white"/>
<path d="M29.6271 24.4904C28.9439 23.856 27.9984 24.8019 28.6328 25.4848L30.0183 26.8704L28.6327 28.2561C27.9985 28.9385 28.9436 29.8851 29.6271 29.2504L31.5098 27.3676C31.7844 27.093 31.7844 26.6478 31.5098 26.3732L29.6271 24.4904Z" fill="white"/>
</svg>
