<svg width="33" height="44" viewBox="0 0 33 44" fill="none" xmlns="http://www.w3.org/2000/svg">
<path d="M2.80901 44H0.700006C0.513193 43.9982 0.334706 43.9224 0.203543 43.7894C0.0723796 43.6564 -0.000795358 43.4768 6.52159e-06 43.29V0.71C-0.000795358 0.523179 0.0723796 0.343636 0.203543 0.210599C0.334706 0.0775622 0.513193 0.001848 0.700006 0L2.80901 0C2.99582 0.001848 3.17431 0.0775622 3.30547 0.210599C3.43663 0.343636 3.50981 0.523179 3.50901 0.71V2.129H32.3C32.4867 2.13059 32.6652 2.20608 32.7964 2.33896C32.9276 2.47183 33.0008 2.65127 33 2.838V25.548C33.0008 25.7348 32.9276 25.9144 32.7965 26.0474C32.6653 26.1804 32.4868 26.2562 32.3 26.258H3.51101V43.29C3.51181 43.4772 3.43836 43.657 3.30676 43.7901C3.17517 43.9232 2.99617 43.9987 2.80901 44ZM1.40001 1.419V42.581H2.10001V1.419H1.40001ZM17.55 17.741H24.571V24.841H31.6V17.741H24.575V10.641H31.6V3.541H24.575V10.641H17.554V3.541H10.532V10.641H3.51101V17.741H10.532V24.841H17.554V17.741H17.55Z" fill="#CE2F72"/>
<path d="M18 10H11V17H18V10Z" fill="#CE2F72"/>
</svg>
