<svg width="40" height="40" viewBox="0 0 40 40" fill="none" xmlns="http://www.w3.org/2000/svg">
<g filter="url(#filter0_d_61_3582)">
<rect x="2" y="1" width="36" height="36" rx="6" fill="white"/>
<path d="M20.7409 24.177C15.0715 24.177 11.8379 20.2903 11.7031 13.8229H14.543C14.6363 18.5698 16.7298 20.5805 18.3881 20.9951V13.8229H21.0623V17.9169C22.6998 17.7407 24.4201 15.8751 25.0005 13.8229H27.6746C27.2289 16.3519 25.3633 18.2175 24.0367 18.9844C25.3633 19.6063 27.4882 21.2335 28.2966 24.177H25.353C24.7207 22.2078 23.1455 20.6842 21.0623 20.4769V24.177H20.7409Z" fill="#556987"/>
<rect x="2.5" y="1.5" width="35" height="35" rx="5.5" stroke="#D5DAE1"/>
</g>
<defs>
<filter id="filter0_d_61_3582" x="0" y="0" width="40" height="40" filterUnits="userSpaceOnUse" color-interpolation-filters="sRGB">
<feFlood flood-opacity="0" result="BackgroundImageFix"/>
<feColorMatrix in="SourceAlpha" type="matrix" values="0 0 0 0 0 0 0 0 0 0 0 0 0 0 0 0 0 0 127 0" result="hardAlpha"/>
<feOffset dy="1"/>
<feGaussianBlur stdDeviation="1"/>
<feColorMatrix type="matrix" values="0 0 0 0 0.411765 0 0 0 0 0.317647 0 0 0 0 1 0 0 0 0.05 0"/>
<feBlend mode="normal" in2="BackgroundImageFix" result="effect1_dropShadow_61_3582"/>
<feBlend mode="normal" in="SourceGraphic" in2="effect1_dropShadow_61_3582" result="shape"/>
</filter>
</defs>
</svg>
